<?xml version="1.0" standalone="no"?>
<!DOCTYPE svg PUBLIC "-//W3C//DTD SVG 1.1//EN" "http://www.w3.org/Graphics/SVG/1.1/DTD/svg11.dtd" >
<svg xmlns="http://www.w3.org/2000/svg" width="100%" height="100%">
<metadata>
Created by FontXChange 20110222 at Mon May 27 11:41:11 2019
 By craig radcliffe
(c)2008-12 Paul Barnes and Christian Schwartz, under exclusive license to Schwartzco Inc./Commercial Type. All rights reserved.
</metadata>
<defs>
<font id="GuardianSansCond-LightIt" horiz-adv-x="425" >
  <font-face 
    font-family="GuardianSansCond"
    font-weight="300"
    font-style="italic"
    font-stretch="condensed"
    units-per-em="1000"
    panose-1="2 11 4 3 3 2 2 6 2 3"
    ascent="809"
    descent="-191"
    x-height="507"
    cap-height="693"
    bbox="-177 -210 921 1016"
    underline-thickness="50"
    underline-position="-50"
    slope="-9.34"
    stemh="44"
    stemv="50"
    unicode-range="U+0020-FB04"
  />
<missing-glyph horiz-adv-x="417" 
 />
    <glyph glyph-name="f_b" unicode="fb" horiz-adv-x="657" 
d="M250 22l105 666c-11 4 -31 8 -54 8c-73 0 -106 -31 -121 -120l-11 -69h100l-6 -41h-100l-102 -657h-50l102 657h-65l6 41h65l11 72c18 111 76 160 172 160c50 0 89 -12 107 -21l-40 -257h2c35 28 78 53 136 53c77 0 128 -47 128 -155c0 -36 -4 -74 -10 -113
c-24 -151 -88 -253 -229 -253c-54 0 -112 11 -146 29zM364 424l-59 -374c23 -10 59 -17 95 -17c103 0 152 79 174 221c6 34 10 72 10 103c0 83 -37 115 -92 115s-96 -24 -128 -48z" />
    <glyph glyph-name="f_f" unicode="ff" horiz-adv-x="456" 
d="M215 -191l102 657h-154l-102 -657h-50l102 657h-65l7 41h64l12 76c17 104 65 149 138 149c29 0 49 -8 60 -14l-6 -37c-11 4 -27 8 -50 8c-50 0 -79 -31 -92 -110l-11 -72h154l12 80c18 109 71 152 147 152c34 0 55 -8 69 -17l-6 -37c-13 6 -32 12 -59 12
c-53 0 -87 -28 -101 -114l-11 -76h101l-6 -41h-102l-103 -657h-50z" />
    <glyph glyph-name="f_f_b" unicode="ffb" horiz-adv-x="862" 
d="M456 22l104 666c-11 4 -31 8 -54 8c-73 0 -106 -31 -121 -120l-10 -69h100l-7 -41h-100l-102 -657h-50l102 657h-155l-102 -657h-50l102 657h-65l6 41h66l11 76c17 105 65 149 138 149c28 0 49 -8 59 -14l-6 -37c-10 4 -27 8 -49 8c-51 0 -80 -32 -92 -110l-11 -72h155
l10 72c18 111 76 160 172 160c50 0 90 -12 107 -21l-40 -257h2c35 28 78 53 137 53c76 0 127 -47 127 -155c0 -37 -4 -76 -10 -115c-25 -150 -89 -251 -229 -251c-54 0 -112 11 -145 29zM569 424l-59 -374c23 -10 59 -17 95 -17c103 0 152 79 175 221c5 34 9 72 9 103
c0 83 -36 115 -92 115c-55 0 -96 -24 -128 -48z" />
    <glyph glyph-name="f_f_h" unicode="ffh" horiz-adv-x="862" 
d="M216 -191l102 657h-154l-102 -657h-51l103 657h-65l6 41h65l11 76c18 104 65 149 139 149c28 0 48 -8 59 -14l-6 -37c-10 4 -27 8 -49 8c-51 0 -80 -31 -92 -110l-11 -72h154l11 72c17 111 75 160 171 160c51 0 89 -12 108 -21l-41 -261h3c42 32 95 57 153 57
c73 0 103 -38 103 -99c0 -12 -2 -23 -3 -34l-60 -381h-50l59 378c2 10 3 21 3 31c0 40 -19 63 -70 63c-52 0 -101 -23 -144 -52l-66 -420h-50l108 688c-11 4 -31 8 -54 8c-72 0 -106 -31 -120 -120l-10 -69h99l-6 -41h-100l-103 -657h-50z" />
    <glyph glyph-name="f_f_i" unicode="ffi" horiz-adv-x="595" 
d="M216 -191l102 657h-155l-102 -657h-50l102 657h-64l5 41h66l11 76c17 104 65 149 138 149c28 0 48 -8 59 -14l-6 -37c-10 4 -27 8 -49 8c-50 0 -79 -31 -92 -110l-11 -72h154l13 81c17 105 64 151 137 151c26 0 46 -8 56 -14l-6 -37c-11 4 -27 8 -45 8
c-49 0 -79 -30 -92 -109l-12 -80h206l-79 -507h-50l73 466h-156l-103 -657h-50zM548 615l9 62h52l-10 -62h-51z" />
    <glyph glyph-name="f_f_j" unicode="ffj" horiz-adv-x="597" 
d="M318 -180l6 35c12 -4 26 -7 42 -7c46 0 66 23 76 87l83 531h-157l-102 -657h-50l102 657h-154l-102 -657h-51l102 657h-64l6 41h65l11 76c18 104 65 149 139 149c28 0 48 -8 59 -14l-6 -37c-10 4 -27 8 -49 8c-51 0 -80 -31 -92 -110l-11 -72h154l12 81
c17 105 64 151 137 151c26 0 47 -8 57 -14l-6 -37c-12 4 -28 8 -46 8c-49 0 -79 -30 -91 -109l-12 -80h205l-90 -578c-13 -84 -48 -124 -117 -124c-23 0 -44 7 -56 15zM548 615l10 62h51l-10 -62h-51z" />
    <glyph glyph-name="f_f_k" unicode="ffk" horiz-adv-x="805" 
d="M216 -191l102 657h-154l-102 -657h-51l103 657h-65l6 41h65l11 76c18 104 65 149 139 149c28 0 48 -8 59 -14l-6 -37c-10 4 -27 8 -49 8c-51 0 -80 -31 -92 -110l-11 -72h154l11 72c17 111 75 160 171 160c51 0 89 -12 108 -21l-113 -718h-50l108 688c-11 4 -31 8 -54 8
c-72 0 -106 -31 -120 -120l-10 -69h99l-6 -41h-100l-103 -657h-50zM701 0l-136 268l203 238l56 1l-204 -240l135 -267h-54z" />
    <glyph glyph-name="f_f_l" unicode="ffl" horiz-adv-x="593" 
d="M215 -191l103 657h-155l-102 -657h-50l102 657h-64l5 41h66l11 76c17 105 65 149 138 149c28 0 48 -8 59 -14l-6 -37c-10 4 -27 8 -49 8c-50 0 -79 -32 -92 -110l-11 -72h154l12 72c16 111 75 160 171 160c50 0 89 -12 107 -21l-112 -718h-50l107 688c-11 4 -31 8 -53 8
c-73 0 -107 -31 -120 -120l-11 -69h99l-6 -41h-100l-102 -657h-51z" />
    <glyph glyph-name="f_h" unicode="fh" horiz-adv-x="656" 
d="M11 -191l102 657h-65l6 41h65l11 72c18 111 76 160 172 160c51 0 89 -12 107 -21l-41 -261h3c42 32 95 57 154 57c72 0 102 -38 102 -99c0 -12 -2 -23 -3 -34l-59 -381h-51l59 378c1 10 3 21 3 31c0 40 -18 63 -69 63c-52 0 -102 -23 -145 -52l-65 -420h-51l108 688
c-10 4 -31 8 -54 8c-72 0 -106 -31 -120 -120l-11 -69h100l-6 -41h-100l-102 -657h-50z" />
    <glyph glyph-name="f_i" unicode="fi" horiz-adv-x="390" 
d="M11 -191l102 657h-65l7 41h65l12 81c17 105 64 151 137 151c26 0 46 -8 57 -14l-7 -37c-11 4 -27 8 -45 8c-49 0 -79 -30 -92 -109l-12 -80h206l-78 -507h-51l73 466h-157l-102 -657h-50zM343 615l9 62h52l-10 -62h-51z" />
    <glyph glyph-name="f_j" unicode="fj" horiz-adv-x="391" 
d="M112 -180l5 35c13 -4 27 -7 43 -7c45 0 66 23 76 87l83 531h-156l-102 -657h-50l102 657h-65l6 41h65l13 81c16 105 64 151 137 151c26 0 46 -8 56 -14l-6 -37c-12 4 -28 8 -46 8c-49 0 -78 -30 -91 -109l-13 -80h207l-90 -578c-13 -84 -49 -124 -118 -124
c-23 0 -44 7 -56 15zM342 615l9 62h52l-10 -62h-51z" />
    <glyph glyph-name="f_k" unicode="fk" horiz-adv-x="601" 
d="M496 0l-135 268l203 238l56 1l-205 -240l135 -267h-54zM11 -191l102 657h-64l5 41h66l11 72c17 111 75 160 171 160c50 0 89 -12 107 -21l-112 -718h-51l108 688c-10 4 -30 8 -53 8c-73 0 -106 -31 -120 -120l-11 -69h100l-7 -41h-100l-102 -657h-50z" />
    <glyph glyph-name="f_l" unicode="fl" horiz-adv-x="389" 
d="M11 -191l103 657h-65l6 41h66l10 72c18 111 76 160 172 160c50 0 89 -12 107 -21l-112 -718h-50l107 688c-11 4 -30 8 -54 8c-72 0 -105 -31 -120 -120l-10 -69h100l-7 -41h-100l-103 -657h-50z" />
    <glyph glyph-name=".notdef" horiz-adv-x="417" 
 />
    <glyph glyph-name="Eth" unicode="&#xd0;" horiz-adv-x="516" 
d="M17 328l7 44h55l50 321h141c145 0 232 -75 232 -240c0 -35 -4 -85 -10 -130c-31 -214 -123 -323 -313 -323h-158l51 328h-55zM80 45h102c159 0 225 97 255 281c7 47 9 97 9 127c0 141 -66 195 -184 195h-88l-43 -276h158l-7 -44h-158z" />
    <glyph glyph-name="eth" unicode="&#xf0;" horiz-adv-x="426" 
d="M154 604l101 47c-22 28 -48 55 -77 83h58c21 -19 42 -41 61 -64l81 38l14 -30l-74 -35c51 -70 87 -158 87 -266c0 -53 -7 -117 -20 -172c-31 -141 -104 -213 -206 -213c-104 0 -158 70 -158 182c0 26 3 58 8 92c23 129 87 248 215 248c43 0 72 -13 92 -28h5
c-13 50 -35 95 -65 137l-108 -50zM354 374c0 23 -2 46 -5 67c-28 21 -61 33 -104 33c-97 0 -146 -97 -165 -212c-6 -35 -8 -65 -8 -88c0 -91 37 -142 109 -142c81 0 132 70 155 184c10 46 18 105 18 158z" />
    <glyph glyph-name="Lslash" unicode="&#x141;" horiz-adv-x="390" 
d="M25 0l40 258l-66 -33l7 47l66 33l61 388h52l-57 -360l195 97l-7 -48l-195 -96l-38 -241h256l-8 -45h-306z" />
    <glyph glyph-name="lslash" unicode="&#x142;" horiz-adv-x="177" 
d="M17 334l7 49l64 40l49 311h49l-44 -277l69 43l-8 -49l-68 -43l-64 -408h-50l59 373z" />
    <glyph glyph-name="Scaron" unicode="&#x160;" horiz-adv-x="410" 
d="M386 836l-95 -104h-43l-64 104h41l48 -66l69 66h44zM161 -9c-85 0 -135 32 -164 54l7 46c36 -27 84 -55 157 -55c79 0 125 41 141 109c3 18 6 37 6 52c0 60 -34 96 -85 129l-39 25c-70 45 -104 91 -104 166c0 20 3 45 13 72c23 69 83 113 172 113c79 0 115 -25 139 -43
l-7 -44c-28 20 -68 42 -133 42c-62 0 -103 -26 -121 -76c-9 -23 -11 -45 -11 -63c0 -55 26 -87 80 -121l38 -25c64 -43 110 -85 110 -172c0 -15 -2 -41 -7 -63c-20 -83 -78 -146 -192 -146z" />
    <glyph glyph-name="scaron" unicode="&#x161;" horiz-adv-x="326" 
d="M182 585l-63 122h40l50 -83l76 83h43l-102 -122h-44zM120 -7c-64 0 -104 20 -129 38l7 42c26 -17 62 -38 121 -38c63 0 97 31 107 72c3 11 4 22 4 33c0 44 -19 67 -62 91l-43 25c-44 25 -77 60 -77 119c0 17 3 36 7 50c19 55 67 89 142 89c60 0 92 -17 113 -33l-8 -42
c-23 16 -56 33 -106 33c-48 0 -80 -19 -93 -54c-5 -13 -7 -25 -7 -38c0 -38 19 -62 57 -83l43 -24c55 -32 84 -63 84 -129c0 -15 -2 -30 -5 -45c-16 -60 -65 -106 -155 -106z" />
    <glyph glyph-name="Yacute" unicode="&#xdd;" horiz-adv-x="429" 
d="M150 0l45 282l-115 411h53l69 -252c10 -45 27 -103 27 -103h1s34 55 58 101l149 254h53l-243 -410l-44 -283h-53zM259 734l65 114h57l-77 -114h-45z" />
    <glyph glyph-name="yacute" unicode="&#xfd;" horiz-adv-x="383" 
d="M-1 -196c-22 0 -39 6 -50 13l5 37c12 -5 26 -8 41 -8c44 0 67 22 96 82l36 80l-78 499h52l50 -342c3 -28 11 -85 11 -85h2s25 57 34 78l159 349h51l-272 -587c-37 -80 -72 -116 -137 -116zM205 586l78 131h57l-89 -131h-46z" />
    <glyph glyph-name="Thorn" unicode="&#xde;" horiz-adv-x="437" 
d="M24 0l108 693h53l-21 -134h86c121 0 178 -59 178 -164c0 -23 -3 -49 -7 -70c-23 -108 -96 -156 -213 -156h-105l-26 -169h-53zM110 213h98c91 0 140 35 158 119c5 19 7 40 7 61c0 79 -38 121 -129 121h-87z" />
    <glyph glyph-name="thorn" unicode="&#xfe;" horiz-adv-x="424" 
d="M-15 -191l145 925h50l-44 -279h2c33 29 77 59 137 59c78 0 127 -51 127 -156c0 -38 -4 -79 -11 -121c-25 -148 -91 -244 -218 -244c-47 0 -81 14 -104 29l-34 -213h-50zM171 33c98 0 146 72 170 216c7 40 10 78 10 107c0 81 -36 116 -93 116c-54 0 -98 -30 -128 -54
l-55 -357c20 -13 56 -28 96 -28z" />
    <glyph glyph-name="Zcaron" unicode="&#x17d;" horiz-adv-x="427" 
d="M403 836l-95 -104h-43l-64 104h41l48 -66l69 66h44zM-11 0l6 40l401 606v2h-290l7 45h352l-6 -40l-403 -606v-2h310l-7 -45h-370z" />
    <glyph glyph-name="zcaron" unicode="&#x17e;" horiz-adv-x="351" 
d="M200 585l-63 122h40l50 -83l76 83h43l-102 -122h-44zM-13 0l6 38l303 425v2h-229l7 42h290l-6 -36l-305 -426v-3h239l-7 -42h-298z" />
    <glyph glyph-name="onehalf" unicode="&#xbd;" horiz-adv-x="665" 
d="M32 -40l497 753h43l-498 -753h-42zM112 290l56 357l-78 -15l5 30l102 35h24l-63 -407h-46zM372 0l4 29l108 115c58 60 96 100 96 163c0 40 -22 66 -66 66c-30 0 -57 -9 -78 -20l5 36c21 11 47 21 83 21c70 0 105 -41 105 -101c0 -68 -42 -115 -105 -177l-89 -92v-2h159
l-6 -38h-216z" />
    <glyph glyph-name="onequarter" unicode="&#xbc;" horiz-adv-x="629" 
d="M112 290l56 357l-78 -15l5 30l102 35h24l-63 -407h-46zM36 -40l497 753h43l-498 -753h-42zM455 0l17 106h-158l5 32l204 266h41l-41 -261h52l-6 -37h-53l-16 -106h-45zM367 143h111l29 182h-1l-139 -181v-1z" />
    <glyph glyph-name="threequarters" unicode="&#xbe;" horiz-adv-x="671" 
d="M124 283c-41 0 -72 12 -88 24l5 36c19 -11 46 -21 80 -21c59 0 95 36 95 96c0 45 -29 65 -74 65h-26l7 37h25c48 0 84 27 84 83c0 38 -23 59 -64 59c-27 0 -48 -5 -68 -13l5 36c20 9 45 15 76 15c63 0 99 -34 99 -92c0 -57 -36 -94 -79 -104v-2c35 -8 63 -35 63 -81
c0 -83 -55 -138 -140 -138zM77 -42l497 753h43l-498 -753h-42zM497 0l17 106h-158l5 32l204 266h41l-41 -261h52l-6 -37h-53l-16 -106h-45zM409 143h111l29 182h-1l-139 -181v-1z" />
    <glyph glyph-name="brokenbar" unicode="&#xa6;" horiz-adv-x="224" 
d="M91 -120v395h47v-395h-47zM91 347v382h47v-382h-47z" />
    <glyph glyph-name="minus" unicode="&#x2212;" horiz-adv-x="420" 
d="M59 328l7 46h328l-7 -46h-328z" />
    <glyph glyph-name="multiply" unicode="&#xd7;" horiz-adv-x="413" 
d="M71 182l-27 33l145 130l-101 129l35 31l101 -129l144 129l27 -33l-144 -129l103 -130l-34 -30l-103 130z" />
    <glyph glyph-name="space" unicode=" " horiz-adv-x="156" 
 />
    <glyph glyph-name="exclam" unicode="!" horiz-adv-x="206" 
d="M69 177l75 516h56l-88 -516h-43zM35 0l12 71h56l-11 -71h-57z" />
    <glyph glyph-name="quotedbl" unicode="&#x22;" horiz-adv-x="262" 
d="M206 532l23 161h55l-34 -161h-44zM96 532l23 161h55l-35 -161h-43z" />
    <glyph glyph-name="numbersign" unicode="#" horiz-adv-x="429" 
d="M78 437l8 44h73l52 212h43l-52 -212h117l51 212h42l-51 -212h70l-7 -44h-74l-37 -159h71l-7 -44h-74l-56 -234h-43l56 234h-117l-56 -234h-42l55 234h-69l7 44h73l38 159h-71zM192 437l-38 -159h117l38 159h-117z" />
    <glyph glyph-name="dollar" unicode="$" horiz-adv-x="408" 
d="M78 -114l29 110c-53 10 -87 32 -109 49l7 44c28 -21 64 -43 113 -52l80 307l-13 9c-69 41 -103 88 -103 161c0 18 2 42 9 65c22 76 87 123 180 123c7 0 14 0 21 -1l17 65h40l-19 -70c40 -9 64 -24 81 -36l-8 -44c-20 14 -47 30 -84 38l-73 -279l9 -5
c65 -40 109 -82 109 -168c0 -17 -2 -45 -9 -69c-21 -83 -83 -142 -193 -142c-6 0 -12 0 -17 1l-28 -106h-39zM312 201c0 57 -31 92 -80 122l-76 -289h6c78 0 126 39 143 107c5 19 7 40 7 60zM133 516c0 -55 25 -87 79 -120l69 263h-11c-65 0 -111 -29 -129 -85
c-6 -19 -8 -42 -8 -58z" />
    <glyph glyph-name="percent" unicode="%" horiz-adv-x="657" 
d="M175 388c52 -1 85 42 99 119c5 26 7 49 7 71c0 51 -23 86 -67 86c-52 0 -84 -43 -99 -119c-4 -25 -6 -52 -6 -70c0 -53 21 -87 66 -87zM466 30c52 0 86 43 99 119c4 27 7 50 7 71c0 52 -23 85 -67 85c-52 0 -85 -42 -99 -118c-4 -25 -6 -52 -6 -69c0 -54 22 -88 66 -88z
M113 -40h-47l493 753h47zM174 350c-71 0 -111 49 -111 127c0 102 40 225 151 225c72 0 113 -49 113 -126c0 -106 -44 -226 -153 -226zM466 -8c-72 0 -112 50 -112 127c0 102 40 225 152 225c71 0 112 -49 112 -126c0 -106 -44 -226 -152 -226z" />
    <glyph glyph-name="ampersand" unicode="&#x26;" horiz-adv-x="511" 
d="M198 -9c-116 0 -176 76 -176 170c0 109 72 176 169 229c-27 50 -46 95 -46 149c0 92 57 163 150 163c72 0 122 -48 122 -127c0 -88 -59 -144 -161 -197l121 -222c25 47 43 104 54 164h46c-13 -75 -38 -149 -76 -208l62 -112h-55l-41 70c-44 -49 -100 -79 -169 -79z
M199 34c62 0 111 29 148 75l-136 245c-80 -44 -135 -99 -135 -192c0 -77 49 -128 123 -128zM238 412c75 43 126 80 126 162c0 54 -30 85 -71 85c-59 0 -95 -46 -95 -117c0 -45 15 -81 40 -130z" />
    <glyph glyph-name="quotesingle" unicode="'" horiz-adv-x="147" 
d="M91 532l20 161h55l-33 -161h-42z" />
    <glyph glyph-name="parenleft" unicode="(" horiz-adv-x="250" 
d="M148 -120c-44 65 -95 187 -95 339c0 228 100 399 209 515h46c-112 -130 -202 -297 -202 -515c0 -142 37 -258 83 -339h-41z" />
    <glyph glyph-name="parenright" unicode=")" horiz-adv-x="259" 
d="M-35 -120c113 130 203 296 203 515c0 141 -37 257 -85 338h43c43 -65 94 -187 94 -339c0 -228 -100 -399 -209 -514h-46z" />
    <glyph glyph-name="asterisk" unicode="*" horiz-adv-x="299" 
d="M156 432l18 103l-90 -45l-15 33l94 42l-79 55l24 31l75 -59l14 101h39l-18 -103l91 45l14 -33l-94 -42l79 -56l-23 -30l-77 60l-15 -102h-37z" />
    <glyph glyph-name="plus" unicode="+" horiz-adv-x="413" 
d="M169 174l24 156h-141l7 44h141l25 153h47l-25 -153h142l-7 -44h-142l-25 -156h-46z" />
    <glyph glyph-name="comma" unicode="," horiz-adv-x="179" 
d="M-1 -93l41 165h58l-57 -165h-42z" />
    <glyph glyph-name="hyphen" unicode="-" horiz-adv-x="260" 
d="M49 247l6 44h161l-7 -44h-160z" />
    <glyph glyph-name="period" unicode="." horiz-adv-x="176" 
d="M20 0l11 71h58l-10 -71h-59z" />
    <glyph glyph-name="slash" unicode="/" horiz-adv-x="276" 
d="M-53 -120l336 853h47l-336 -853h-47z" />
    <glyph glyph-name="zero" unicode="0" horiz-adv-x="517" 
d="M225 -10c-111 0 -180 73 -181 212c0 42 4 92 19 179c28 167 99 321 258 321c115 0 179 -76 179 -214c0 -43 -4 -93 -17 -174c-29 -176 -98 -324 -258 -324zM228 35c126 0 176 139 201 289c12 80 17 128 17 163c0 109 -40 171 -127 171c-128 0 -177 -140 -203 -288
c-14 -85 -17 -130 -17 -167c0 -106 40 -168 129 -168z" />
    <glyph glyph-name="one" unicode="1" horiz-adv-x="255" 
d="M82 0l100 638l-111 -22l5 31l148 53h19l-109 -700h-52z" />
    <glyph glyph-name="two" unicode="2" horiz-adv-x="412" 
d="M-12 0l7 41l189 210c96 101 162 181 162 281c0 77 -40 124 -117 124c-57 0 -95 -14 -134 -34l6 43c37 20 76 37 138 37c108 0 161 -69 161 -168c0 -115 -79 -207 -179 -310l-162 -178v-2h280l-7 -44h-344z" />
    <glyph glyph-name="three" unicode="3" horiz-adv-x="393" 
d="M126 -9c-67 0 -112 21 -137 39l7 42c32 -19 70 -35 129 -35c78 0 129 38 153 100c11 25 16 56 16 85c0 80 -43 121 -133 121h-41l8 44h44c60 0 108 27 132 77c12 23 18 50 18 79c0 72 -37 114 -112 114c-45 0 -82 -11 -114 -25l7 42c30 17 71 27 116 28
c108 0 158 -64 158 -155c0 -31 -7 -61 -20 -87c-24 -50 -66 -82 -115 -94v-1c59 -13 107 -56 107 -141c0 -31 -6 -68 -18 -99c-31 -81 -101 -134 -205 -134z" />
    <glyph glyph-name="four" unicode="4" horiz-adv-x="437" 
d="M240 0l29 186h-267l7 38l346 469h45l-72 -463h95l-7 -44h-95l-30 -186h-51zM63 230h214l56 362h-2l-268 -360v-2z" />
    <glyph glyph-name="five" unicode="5" horiz-adv-x="404" 
d="M124 -9c-56 0 -104 18 -131 38l6 41c37 -21 76 -34 124 -34c84 0 136 39 161 103c11 31 18 67 18 103c0 84 -45 130 -135 130c-42 0 -77 -6 -100 -12l61 333h275l-7 -45h-230l-46 -240c15 4 42 8 70 8c108 0 166 -65 166 -172c0 -38 -7 -77 -20 -113
c-29 -79 -94 -140 -212 -140z" />
    <glyph glyph-name="six" unicode="6" horiz-adv-x="446" 
d="M205 -9c-115 0 -170 82 -170 209c0 37 5 90 16 153c14 82 37 159 66 212c51 91 125 137 220 137c58 0 94 -15 113 -28l-6 -41c-21 11 -57 24 -107 24c-71 0 -129 -28 -173 -108c-24 -46 -44 -109 -58 -189c35 31 87 58 149 58c101 0 155 -69 155 -172
c0 -57 -13 -117 -42 -163c-34 -56 -89 -92 -163 -92zM207 35c52 0 91 27 116 68c23 40 33 93 33 140c0 82 -39 129 -114 129c-61 0 -106 -22 -143 -51c-7 -41 -10 -86 -10 -121c0 -39 7 -77 20 -104c17 -35 46 -61 98 -61z" />
    <glyph glyph-name="seven" unicode="7" horiz-adv-x="380" 
d="M40 0l323 645v3h-285l7 45h339l-6 -44l-321 -649h-57z" />
    <glyph glyph-name="eight" unicode="8" horiz-adv-x="458" 
d="M207 -10c-114 0 -188 68 -188 166c0 104 83 169 176 207c-62 43 -102 92 -102 161c0 99 69 178 185 178c105 0 163 -65 162 -153c0 -82 -60 -145 -151 -187c70 -47 121 -96 121 -180c0 -107 -77 -192 -203 -192zM209 35c94 0 147 61 147 145c0 67 -44 110 -128 163
c-80 -38 -155 -91 -155 -185c0 -74 51 -123 136 -123zM257 382c74 38 129 89 129 163c1 65 -37 113 -111 113c-79 0 -128 -54 -128 -128c-1 -63 34 -99 110 -148z" />
    <glyph glyph-name="nine" unicode="9" horiz-adv-x="451" 
d="M139 -9c-54 0 -93 16 -114 31l7 41c23 -13 57 -26 107 -26c73 0 134 30 177 107c27 50 46 116 57 190c-33 -30 -90 -59 -150 -59c-103 0 -159 68 -159 171c0 132 76 256 207 256c118 0 170 -84 170 -218c0 -98 -26 -262 -76 -356c-49 -91 -122 -137 -226 -137zM234 321
c60 0 111 25 145 53c5 34 9 80 9 112c0 50 -8 91 -26 121c-19 32 -47 51 -92 51c-72 0 -120 -58 -140 -131c-8 -26 -11 -52 -11 -80c0 -83 40 -126 115 -126z" />
    <glyph glyph-name="colon" unicode=":" horiz-adv-x="183" 
d="M71 306l12 72h58l-11 -72h-59zM24 0l11 71h58l-11 -71h-58z" />
    <glyph glyph-name="semicolon" unicode=";" horiz-adv-x="187" 
d="M-1 -93l41 165h58l-57 -165h-42zM76 306l11 72h58l-11 -72h-58z" />
    <glyph glyph-name="less" unicode="&#x3c;" horiz-adv-x="391" 
d="M323 132l-278 166l7 42l330 165l-8 -54l-274 -134l231 -135z" />
    <glyph glyph-name="equal" unicode="=" horiz-adv-x="426" 
d="M65 366l7 43h332l-7 -43h-332zM40 208l7 44h332l-7 -44h-332z" />
    <glyph glyph-name="greater" unicode="&#x3e;" horiz-adv-x="391" 
d="M28 132l8 53l274 134l-231 135l8 50l278 -166l-7 -41z" />
    <glyph glyph-name="question" unicode="?" horiz-adv-x="328" 
d="M86 177l9 65c11 68 34 94 111 162c67 57 91 94 91 157c0 59 -37 97 -108 97c-48 0 -79 -11 -113 -26l7 43c33 15 66 27 116 27c96 0 152 -53 152 -139c0 -77 -32 -122 -116 -194c-64 -57 -83 -78 -91 -132l-9 -60h-49zM55 0l12 71h57l-11 -71h-58z" />
    <glyph glyph-name="at" unicode="@" horiz-adv-x="746" 
d="M341 -145c-199 0 -313 114 -313 322c0 258 170 496 418 496c182 0 281 -114 281 -297c0 -201 -93 -340 -207 -340c-56 0 -79 28 -82 65h-3c-26 -35 -71 -65 -121 -65c-70 0 -107 51 -107 131c0 56 15 115 38 164c38 88 107 147 189 147c50 0 95 -14 116 -25
c0 0 -66 -315 -66 -318c-1 -6 -2 -12 -2 -18c-1 -25 10 -42 42 -42c81 0 160 113 160 298c0 157 -76 261 -240 261c-223 0 -370 -219 -371 -456c0 -181 93 -284 269 -284c82 0 167 24 214 46l-5 -36c-44 -25 -131 -49 -210 -49zM328 78c45 0 81 27 106 56l59 289
c-14 7 -34 14 -62 14c-58 0 -108 -47 -141 -122c-19 -44 -32 -95 -32 -146c0 -56 23 -91 70 -91z" />
    <glyph glyph-name="A" unicode="A" horiz-adv-x="485" 
d="M-27 0l320 693h59l81 -693h-51l-25 217h-232l-100 -217h-52zM266 526l-121 -264h206l-29 262c-3 29 -10 102 -10 102h-2s-31 -71 -44 -100z" />
    <glyph glyph-name="B" unicode="B" horiz-adv-x="471" 
d="M24 0l109 693h143c120 0 171 -61 171 -156c0 -23 -5 -54 -15 -78c-20 -53 -63 -84 -114 -97v-3c61 -11 112 -53 112 -134c0 -29 -4 -56 -12 -85c-27 -90 -103 -140 -216 -140h-178zM83 45h121c85 0 139 35 161 108c7 22 11 48 11 73c0 71 -46 111 -136 111h-112zM135 381
h101c70 0 119 26 143 82c9 21 14 49 14 72c0 75 -41 113 -122 113h-94z" />
    <glyph glyph-name="C" unicode="C" horiz-adv-x="464" 
d="M251 -9c-138 0 -208 91 -208 235c0 86 19 206 57 298c48 116 130 178 245 178c73 0 113 -21 138 -41l-7 -44c-28 20 -68 40 -132 40c-88 0 -154 -51 -196 -154c-32 -81 -50 -194 -50 -276c0 -126 55 -191 158 -191c65 0 112 20 144 38l-6 -45c-28 -18 -80 -38 -143 -38z
" />
    <glyph glyph-name="D" unicode="D" horiz-adv-x="518" 
d="M24 0l108 693h140c145 0 232 -74 232 -240c0 -40 -4 -95 -12 -141c-33 -208 -125 -312 -310 -312h-158zM83 45h102c159 0 225 97 255 280c7 47 10 98 10 128c0 141 -66 195 -185 195h-87z" />
    <glyph glyph-name="E" unicode="E" 
d="M24 0l109 693h321l-8 -45h-268l-42 -267h212l-8 -45h-212l-45 -291h274l-8 -45h-325z" />
    <glyph glyph-name="F" unicode="F" horiz-adv-x="405" 
d="M24 0l109 693h315l-8 -45h-262l-43 -276h206l-7 -45h-207l-51 -327h-52z" />
    <glyph glyph-name="G" unicode="G" horiz-adv-x="509" 
d="M262 -9c-147 0 -219 93 -219 236c0 89 20 220 66 314c53 109 138 161 250 161c71 0 116 -21 142 -42l-7 -44c-25 18 -72 41 -136 41c-90 0 -158 -42 -201 -134c-40 -86 -59 -211 -59 -296c0 -111 47 -192 168 -192c43 0 80 7 111 19l36 233h-123l7 45h175l-49 -308
c-43 -18 -96 -33 -161 -33z" />
    <glyph glyph-name="H" unicode="H" horiz-adv-x="527" 
d="M24 0l109 693h51l-48 -311h295l49 311h52l-109 -693h-51l52 337h-295l-53 -337h-52z" />
    <glyph glyph-name="I" unicode="I" horiz-adv-x="182" 
d="M25 0l109 693h52l-109 -693h-52z" />
    <glyph glyph-name="J" unicode="J" horiz-adv-x="307" 
d="M80 -6c-44 0 -76 10 -96 23l7 41c22 -10 48 -18 85 -18c61 0 94 35 104 109l85 544h52l-85 -549c-15 -99 -61 -150 -152 -150z" />
    <glyph glyph-name="K" unicode="K" horiz-adv-x="456" 
d="M344 0l-184 356l280 337h60l-283 -337l183 -356h-56zM24 0l109 693h52l-109 -693h-52z" />
    <glyph glyph-name="L" unicode="L" horiz-adv-x="388" 
d="M24 0l108 693h52l-101 -648h256l-8 -45h-307z" />
    <glyph glyph-name="M" unicode="M" horiz-adv-x="642" 
d="M24 0l108 693h81l60 -478c6 -55 17 -151 17 -151h3s41 93 62 149l211 480h82l-109 -693h-49l65 422c9 63 32 196 34 208h-2s-67 -147 -84 -190l-194 -440h-57l-56 438c-5 48 -25 192 -25 192h-1s-23 -152 -31 -204l-67 -426h-48z" />
    <glyph glyph-name="N" unicode="N" horiz-adv-x="525" 
d="M24 0l108 693h67l146 -472c19 -62 42 -141 42 -141h2s9 74 18 132l75 481h48l-108 -693h-59l-153 489c-20 64 -41 140 -41 140h-1s-9 -79 -20 -149l-75 -480h-49z" />
    <glyph glyph-name="O" unicode="O" horiz-adv-x="551" 
d="M245 -9c-127 0 -202 88 -202 236c0 36 4 82 12 132c29 175 112 343 279 343c127 0 203 -89 203 -235c0 -38 -5 -83 -12 -136c-32 -186 -121 -340 -280 -340zM246 35c123 0 195 128 223 302c8 51 13 94 13 132c0 113 -47 190 -148 190c-127 0 -197 -141 -224 -305
c-8 -50 -12 -93 -12 -129c0 -117 47 -190 148 -190z" />
    <glyph glyph-name="P" unicode="P" horiz-adv-x="434" 
d="M23 0l108 693h140c121 0 177 -60 177 -164c0 -28 -3 -53 -8 -77c-26 -107 -97 -159 -214 -159h-105l-46 -293h-52zM128 337h99c90 0 140 38 159 123c4 18 7 42 7 64c0 81 -37 124 -129 124h-88z" />
    <glyph glyph-name="Q" unicode="Q" horiz-adv-x="551" 
d="M477 -102l-290 98c-90 29 -144 103 -144 231c0 36 4 85 12 138c34 207 129 337 279 337c127 0 203 -89 203 -235c0 -37 -5 -86 -14 -141c-32 -189 -110 -303 -234 -325l206 -57zM246 35c108 1 191 94 222 295c10 58 14 100 14 139c0 113 -47 190 -148 190
c-113 0 -192 -104 -224 -296c-8 -55 -12 -100 -12 -137c0 -118 47 -191 148 -191z" />
    <glyph glyph-name="R" unicode="R" horiz-adv-x="455" 
d="M24 0l109 693h142c116 0 170 -66 170 -161c0 -30 -5 -63 -15 -93c-23 -68 -74 -105 -139 -119v-4l113 -316h-55l-110 309h-115l-48 -309h-52zM132 353h98c78 0 127 36 147 95c9 25 13 55 13 82c0 75 -39 118 -120 118h-92z" />
    <glyph glyph-name="S" unicode="S" horiz-adv-x="410" 
d="M161 -9c-85 0 -135 32 -164 54l7 46c36 -27 84 -55 157 -55c79 0 125 41 141 109c3 18 6 37 6 52c0 60 -34 96 -85 129l-39 25c-70 45 -104 91 -104 166c0 20 3 45 13 72c23 69 83 113 172 113c79 0 115 -25 139 -43l-7 -44c-28 20 -68 42 -133 42
c-62 0 -103 -26 -121 -76c-9 -23 -11 -45 -11 -63c0 -55 26 -87 80 -121l38 -25c64 -43 110 -85 110 -172c0 -15 -2 -41 -7 -63c-20 -83 -78 -146 -192 -146z" />
    <glyph glyph-name="T" unicode="T" horiz-adv-x="428" 
d="M146 0l102 648h-171l6 45h394l-6 -45h-171l-101 -648h-53z" />
    <glyph glyph-name="U" unicode="U" horiz-adv-x="518" 
d="M234 -9c-120 0 -183 64 -183 171c0 19 1 39 5 59l73 472h52l-74 -473c-3 -20 -4 -39 -4 -57c0 -86 47 -129 132 -129c99 0 147 62 166 181l75 478h51l-76 -483c-21 -133 -85 -219 -217 -219z" />
    <glyph glyph-name="V" unicode="V" horiz-adv-x="474" 
d="M166 0l-79 693h52l57 -524c4 -35 9 -97 9 -97h2s26 62 39 96l229 525h52l-306 -693h-55z" />
    <glyph glyph-name="W" unicode="W" horiz-adv-x="700" 
d="M118 0l-30 693h52l17 -467c1 -36 5 -148 5 -148h2s42 108 53 144l178 471h54l28 -472c2 -48 9 -144 9 -144h1s33 92 49 142l167 474h50l-249 -693h-58l-29 455c-4 58 -8 152 -8 152h-2s-33 -95 -54 -151l-174 -456h-61z" />
    <glyph glyph-name="X" unicode="X" horiz-adv-x="463" 
d="M504 693l-229 -337l125 -356h-53l-82 236c-4 12 -25 71 -25 71h-1s-36 -55 -48 -72l-158 -235h-55l242 359l-120 334h55l75 -213c5 -16 26 -72 26 -72h1s35 52 48 73l144 212h55z" />
    <glyph glyph-name="Y" unicode="Y" horiz-adv-x="429" 
d="M150 0l45 282l-115 411h53l69 -252c10 -45 27 -103 27 -103h1s34 55 58 101l149 254h53l-243 -410l-44 -283h-53z" />
    <glyph glyph-name="Z" unicode="Z" horiz-adv-x="427" 
d="M-11 0l6 40l401 606v2h-290l7 45h352l-6 -40l-403 -606v-2h310l-7 -45h-370z" />
    <glyph glyph-name="bracketleft" unicode="[" horiz-adv-x="263" 
d="M8 -120l133 854h166l-7 -42h-116l-121 -771h116l-6 -41h-165z" />
    <glyph glyph-name="backslash" unicode="\" horiz-adv-x="270" 
d="M165 -120l-72 854h44l72 -854h-44z" />
    <glyph glyph-name="bracketright" unicode="]" horiz-adv-x="263" 
d="M-28 -120l6 41h115l122 771h-116l6 42h166l-133 -854h-166z" />
    <glyph glyph-name="asciicircum" unicode="^" horiz-adv-x="368" 
d="M73 458l158 235h44l83 -235h-43l-68 186l-128 -186h-46z" />
    <glyph glyph-name="underscore" unicode="_" horiz-adv-x="272" 
d="M-54 -96l6 37h271l-6 -37h-271z" />
    <glyph glyph-name="grave" unicode="`" horiz-adv-x="404" 
d="M210 586l-56 131h53l45 -131h-42z" />
    <glyph glyph-name="a" unicode="a" horiz-adv-x="408" 
d="M149 -7c-79 0 -130 52 -130 157c0 53 10 118 27 171c41 126 128 193 231 193c52 0 91 -9 117 -21l-78 -493h-41l3 51h-2c-26 -27 -72 -58 -127 -58zM160 34c51 0 96 29 121 55l58 374c-16 6 -36 11 -65 11c-82 0 -145 -57 -179 -164c-15 -48 -24 -106 -24 -160
c0 -79 33 -116 89 -116z" />
    <glyph glyph-name="b" unicode="b" horiz-adv-x="424" 
d="M163 -7c-54 0 -111 11 -145 29l111 712h50l-42 -273h1c35 28 78 53 137 53c76 0 127 -48 127 -155c0 -36 -4 -75 -10 -113c-25 -151 -88 -253 -229 -253zM167 33c103 0 151 79 175 221c5 34 9 72 9 103c0 83 -37 115 -93 115c-54 0 -95 -24 -127 -48l-59 -374
c23 -10 59 -17 95 -17z" />
    <glyph glyph-name="c" unicode="c" horiz-adv-x="352" 
d="M180 -7c-102 0 -158 66 -158 178c0 63 16 166 56 236s101 107 180 107c49 0 80 -14 100 -28l-6 -42c-23 15 -53 28 -97 28c-58 0 -103 -28 -134 -84c-33 -61 -48 -151 -48 -217c0 -89 41 -136 114 -136c54 0 91 19 117 35l-7 -42c-27 -19 -64 -35 -117 -35z" />
    <glyph glyph-name="d" unicode="d" horiz-adv-x="421" 
d="M157 -7c-82 0 -137 51 -137 157c0 31 4 67 11 111c27 161 109 253 221 253c50 0 81 -16 102 -30l38 250h50c-7 -53 -107 -681 -114 -734h-42l2 49h-2c-29 -29 -73 -56 -129 -56zM169 34c51 0 94 26 123 51l55 358c-22 16 -54 29 -92 29c-91 0 -149 -75 -174 -216
c-7 -43 -8 -75 -8 -104c0 -81 33 -118 96 -118z" />
    <glyph glyph-name="e" unicode="e" horiz-adv-x="389" 
d="M188 -7c-107 0 -167 61 -167 178c0 67 16 176 57 246c37 64 91 97 161 97c86 0 134 -52 134 -148c0 -26 -3 -58 -9 -97l-4 -24h-283c-3 -27 -5 -52 -5 -73c0 -93 42 -137 122 -137c53 0 100 19 133 37l-7 -42c-28 -19 -76 -37 -132 -37zM120 397
c-16 -31 -28 -71 -36 -110h232c5 27 8 55 8 78c0 71 -30 109 -89 109c-50 0 -88 -26 -115 -77z" />
    <glyph glyph-name="f" unicode="f" horiz-adv-x="251" 
d="M11 -191l102 657h-65l7 41h64l13 80c17 109 71 152 147 152c33 0 55 -8 68 -17l-6 -37c-12 6 -31 12 -58 12c-54 0 -87 -28 -101 -114l-12 -76h102l-7 -41h-102l-102 -657h-50z" />
    <glyph glyph-name="g" unicode="g" horiz-adv-x="421" 
d="M123 -197c-60 0 -111 16 -139 35l6 38c27 -13 76 -32 131 -32c91 0 139 36 153 131l14 87h-3c-25 -27 -72 -55 -130 -55c-80 0 -132 51 -132 155c0 30 3 69 10 105c24 136 104 247 237 247c57 0 101 -10 134 -27l-80 -516c-19 -121 -91 -168 -201 -168zM167 48
c51 0 97 25 127 54l55 356c-18 9 -46 16 -79 16c-107 0 -164 -91 -186 -213c-6 -32 -10 -67 -10 -96c0 -82 34 -117 93 -117z" />
    <glyph glyph-name="h" unicode="h" horiz-adv-x="424" 
d="M14 0l116 734h50l-43 -277h2c42 32 95 57 153 57c73 0 103 -39 103 -99c0 -12 -2 -23 -3 -34l-59 -381h-51l59 378c2 10 3 22 3 31c0 40 -18 63 -69 63c-52 0 -102 -23 -145 -52l-65 -420h-51z" />
    <glyph glyph-name="i" unicode="i" horiz-adv-x="159" 
d="M16 0l80 507h49l-79 -507h-50zM111 615l10 62h52l-10 -62h-52z" />
    <glyph glyph-name="j" unicode="j" horiz-adv-x="161" 
d="M-65 -195c-24 0 -47 7 -59 15l6 36c13 -5 27 -8 45 -8c48 0 69 23 79 87l90 572h51l-92 -578c-12 -84 -49 -124 -120 -124zM111 615l11 62h51l-10 -62h-52z" />
    <glyph glyph-name="k" unicode="k" horiz-adv-x="368" 
d="M14 0l115 734h51l-115 -734h-51zM263 0l-135 268l203 238l56 1l-205 -240l135 -267h-54z" />
    <glyph glyph-name="l" unicode="l" horiz-adv-x="160" 
d="M16 0l115 734h50c-7 -53 -108 -681 -115 -734h-50z" />
    <glyph glyph-name="m" unicode="m" horiz-adv-x="656" 
d="M14 0l80 507h48l-8 -51h2c41 31 89 58 145 58c53 0 82 -23 92 -63h2c47 36 99 63 155 63c67 0 97 -38 96 -99c0 -10 -1 -21 -3 -33l-59 -382h-51l59 378c2 11 3 21 3 31c0 41 -18 63 -61 63c-48 0 -92 -23 -137 -53c0 -10 -1 -24 -3 -39l-60 -380h-50l58 378
c2 12 3 23 3 33c0 39 -17 61 -61 61c-50 0 -93 -24 -134 -52l-65 -420h-51z" />
    <glyph glyph-name="n" unicode="n" 
d="M14 0l80 507h48l-8 -51h2c44 33 98 58 156 58c73 0 103 -38 103 -100c0 -9 -1 -20 -3 -33l-59 -381h-51l59 378c2 10 3 21 3 30c0 40 -19 64 -69 64c-53 0 -102 -23 -145 -52l-65 -420h-51z" />
    <glyph glyph-name="o" unicode="o" horiz-adv-x="418" 
d="M176 -7c-100 0 -155 64 -155 177c0 27 3 63 9 104c27 153 102 240 213 240c98 0 154 -64 154 -175c0 -29 -2 -64 -9 -106c-26 -153 -102 -240 -212 -240zM177 33c84 0 141 74 161 207c7 45 9 76 9 99c0 91 -40 135 -106 135c-82 0 -140 -75 -161 -208
c-6 -41 -9 -71 -9 -95c0 -91 40 -138 106 -138z" />
    <glyph glyph-name="p" unicode="p" horiz-adv-x="422" 
d="M-15 -191l109 698h48l-8 -53h2c33 30 79 60 138 60c78 0 128 -51 128 -156c0 -37 -4 -78 -11 -121c-25 -148 -91 -244 -218 -244c-47 0 -81 14 -104 29l-34 -213h-50zM171 33c98 0 146 72 170 216c7 40 10 75 10 107c-1 81 -36 116 -93 116c-54 0 -99 -30 -129 -54
l-54 -357c20 -13 56 -28 96 -28z" />
    <glyph glyph-name="q" unicode="q" horiz-adv-x="422" 
d="M248 -191l37 237h-2c-25 -25 -69 -53 -126 -53c-82 0 -137 51 -137 154c0 36 3 66 10 110c28 166 112 257 236 257c63 0 108 -14 138 -29l-106 -676h-50zM168 35c52 0 95 24 124 51l57 370c-19 10 -50 18 -85 18c-104 0 -159 -84 -183 -223c-7 -42 -8 -73 -8 -101
c0 -78 33 -115 95 -115z" />
    <glyph glyph-name="r" unicode="r" horiz-adv-x="264" 
d="M14 0l80 507h48l-9 -60h2c33 36 75 67 126 67c12 0 23 -2 26 -4l-7 -47c-7 2 -20 3 -28 3c-48 0 -86 -22 -123 -53l-64 -413h-51z" />
    <glyph glyph-name="s" unicode="s" horiz-adv-x="326" 
d="M120 -7c-64 0 -104 20 -129 38l7 42c26 -17 62 -38 121 -38c63 0 97 31 107 72c3 11 4 22 4 33c0 44 -19 67 -62 91l-43 25c-44 25 -77 60 -77 119c0 17 3 36 7 50c19 55 67 89 142 89c60 0 92 -17 113 -33l-8 -42c-23 16 -56 33 -106 33c-48 0 -80 -19 -93 -54
c-5 -13 -7 -25 -7 -38c0 -38 19 -62 57 -83l43 -24c55 -32 84 -63 84 -129c0 -15 -2 -30 -5 -45c-16 -60 -65 -106 -155 -106z" />
    <glyph glyph-name="t" unicode="t" horiz-adv-x="267" 
d="M144 -6c-73 0 -102 48 -90 122l55 349h-62l7 42h62l19 121h51l-20 -121h111l-6 -42h-111l-55 -346c-8 -53 5 -83 54 -83c20 0 40 5 56 10l-6 -36c-12 -7 -36 -16 -65 -16z" />
    <glyph glyph-name="u" unicode="u" horiz-adv-x="420" 
d="M135 -7c-69 0 -104 38 -104 101c0 10 1 23 3 35l58 378h51l-59 -374c-1 -13 -2 -24 -2 -34c0 -41 20 -64 66 -64c52 0 99 24 143 52l65 420h51l-80 -507h-42l2 51h-2c-44 -33 -91 -58 -150 -58z" />
    <glyph glyph-name="v" unicode="v" horiz-adv-x="381" 
d="M117 0l-63 507h52l38 -342c3 -36 10 -99 10 -99h2s27 60 42 96l158 345h51l-236 -507h-54z" />
    <glyph glyph-name="w" unicode="w" horiz-adv-x="592" 
d="M91 0l-35 507h51l20 -334c1 -38 4 -103 4 -103h2s25 62 40 101l140 336h49l21 -336c2 -38 6 -101 6 -101h2s26 64 40 101l135 336h49l-210 -507h-55l-23 324c-2 34 -5 97 -5 97h-3s-24 -61 -38 -96l-136 -325h-54z" />
    <glyph glyph-name="x" unicode="x" horiz-adv-x="370" 
d="M-23 0l185 263l-98 244h52l57 -142c9 -26 24 -64 24 -64h1s28 38 44 63l101 143h51l-178 -251l100 -256h-51l-61 154c-7 22 -24 62 -24 62s-27 -38 -43 -61l-109 -155h-51z" />
    <glyph glyph-name="y" unicode="y" horiz-adv-x="383" 
d="M-1 -196c-22 0 -39 6 -50 13l5 37c12 -5 26 -8 41 -8c44 0 67 22 96 82l36 80l-78 499h52l50 -342c3 -28 11 -85 11 -85h2s25 57 34 78l159 349h51l-272 -587c-37 -80 -72 -116 -137 -116z" />
    <glyph glyph-name="z" unicode="z" horiz-adv-x="351" 
d="M-13 0l6 38l303 425v2h-229l7 42h290l-6 -36l-305 -426v-3h239l-7 -42h-298z" />
    <glyph glyph-name="braceleft" unicode="{" horiz-adv-x="286" 
d="M200 -123c-101 4 -132 51 -132 111c0 17 2 37 10 90c6 41 21 123 21 130c5 55 -18 79 -76 81l7 44c62 2 93 19 105 96l25 169c15 93 47 141 175 143l-7 -42c-79 -3 -106 -26 -118 -103l-26 -170c-11 -70 -39 -104 -102 -116v-2c50 -11 71 -41 68 -91
c0 -12 -11 -71 -17 -115c-7 -50 -14 -93 -14 -104c-2 -54 24 -74 87 -79z" />
    <glyph glyph-name="bar" unicode="|" horiz-adv-x="231" 
d="M103 -120v854h47v-854h-47z" />
    <glyph glyph-name="braceright" unicode="}" horiz-adv-x="286" 
d="M-33 -123l7 42c79 3 106 26 118 104l27 169c9 71 38 105 102 117v2c-51 10 -72 40 -68 91c0 11 10 72 16 115c8 49 15 92 15 103c2 54 -25 75 -88 79l6 42c101 -4 132 -50 132 -111c0 -16 -2 -36 -10 -89c-6 -41 -21 -121 -21 -130c-5 -55 18 -79 76 -81l-6 -44
c-62 -3 -93 -19 -105 -96l-26 -170c-14 -93 -47 -140 -175 -143z" />
    <glyph glyph-name="asciitilde" unicode="~" horiz-adv-x="354" 
d="M39 251c10 62 46 88 87 88c49 0 77 -44 115 -44c24 0 40 17 47 45h38c-10 -62 -46 -88 -87 -88c-48 0 -78 44 -114 44c-24 0 -41 -15 -48 -45h-38z" />
    <glyph glyph-name="Adieresis" unicode="&#xc4;" horiz-adv-x="485" 
d="M-27 0l320 693h59l81 -693h-51l-25 217h-232l-100 -217h-52zM266 526l-121 -264h206l-29 262c-3 29 -10 102 -10 102h-2s-31 -71 -44 -100zM365 741l10 60h52l-9 -60h-53zM238 741l10 60h52l-10 -60h-52z" />
    <glyph glyph-name="Aring" unicode="&#xc5;" horiz-adv-x="485" 
d="M-27 0l320 693h59l81 -693h-51l-25 217h-232l-100 -217h-52zM266 526l-121 -264h206l-29 262c-3 29 -10 102 -10 102h-2s-31 -71 -44 -100zM288 798c0 -24 15 -44 41 -44c27 0 46 23 46 52c0 23 -17 42 -41 42c-27 0 -46 -21 -46 -50zM411 806c0 -48 -36 -86 -83 -86
c-45 0 -77 33 -77 78c0 46 35 84 83 84c46 0 77 -33 77 -76z" />
    <glyph glyph-name="Ccedilla" unicode="&#xc7;" horiz-adv-x="464" 
d="M179 1c-90 27 -136 108 -136 225c0 86 19 206 57 298c48 116 130 178 245 178c73 0 113 -21 138 -41l-7 -44c-28 20 -68 40 -132 40c-88 0 -154 -51 -196 -154c-32 -81 -50 -194 -50 -276c0 -126 55 -191 158 -191c65 0 112 20 144 38l-6 -45c-28 -18 -80 -38 -143 -38
c-13 0 -24 1 -37 3l-7 -46c40 -4 72 -24 72 -66c0 -55 -46 -88 -148 -92l5 36c68 4 98 20 98 52c0 25 -22 38 -68 39z" />
    <glyph glyph-name="Eacute" unicode="&#xc9;" 
d="M271 734l65 114h57l-77 -114h-45zM24 0l109 693h321l-8 -45h-268l-42 -267h212l-8 -45h-212l-45 -291h274l-8 -45h-325z" />
    <glyph glyph-name="Ntilde" unicode="&#xd1;" horiz-adv-x="525" 
d="M230 742c6 52 37 79 72 79c42 0 63 -35 94 -35c18 0 31 11 36 36h35c-7 -51 -37 -78 -72 -78c-41 0 -63 34 -93 34c-19 0 -32 -11 -37 -36h-35zM24 0l108 693h67l146 -472c19 -62 42 -141 42 -141h2s9 74 18 132l75 481h48l-108 -693h-59l-153 489
c-20 64 -41 140 -41 140h-1s-9 -79 -20 -149l-75 -480h-49z" />
    <glyph glyph-name="Odieresis" unicode="&#xd6;" horiz-adv-x="551" 
d="M380 741l10 60h52l-9 -60h-53zM253 741l10 60h52l-10 -60h-52zM245 -9c-127 0 -202 88 -202 236c0 36 4 82 12 132c29 175 112 343 279 343c127 0 203 -89 203 -235c0 -38 -5 -83 -12 -136c-32 -186 -121 -340 -280 -340zM246 35c123 0 195 128 223 302
c8 51 13 94 13 132c0 113 -47 190 -148 190c-127 0 -197 -141 -224 -305c-8 -50 -12 -93 -12 -129c0 -117 47 -190 148 -190z" />
    <glyph glyph-name="Udieresis" unicode="&#xdc;" horiz-adv-x="518" 
d="M234 -9c-120 0 -183 64 -183 171c0 19 1 39 5 59l73 472h52l-74 -473c-3 -20 -4 -39 -4 -57c0 -86 47 -129 132 -129c99 0 147 62 166 181l75 478h51l-76 -483c-21 -133 -85 -219 -217 -219zM371 741l10 60h52l-9 -60h-53zM244 741l10 60h52l-10 -60h-52z" />
    <glyph glyph-name="aacute" unicode="&#xe1;" horiz-adv-x="408" 
d="M149 -7c-79 0 -130 52 -130 157c0 53 10 118 27 171c41 126 128 193 231 193c52 0 91 -9 117 -21l-78 -493h-41l3 51h-2c-26 -27 -72 -58 -127 -58zM160 34c51 0 96 29 121 55l58 374c-16 6 -36 11 -65 11c-82 0 -145 -57 -179 -164c-15 -48 -24 -106 -24 -160
c0 -79 33 -116 89 -116zM242 586l78 131h57l-89 -131h-46z" />
    <glyph glyph-name="agrave" unicode="&#xe0;" horiz-adv-x="408" 
d="M149 -7c-79 0 -130 52 -130 157c0 53 10 118 27 171c41 126 128 193 231 193c52 0 91 -9 117 -21l-78 -493h-41l3 51h-2c-26 -27 -72 -58 -127 -58zM160 34c51 0 96 29 121 55l58 374c-16 6 -36 11 -65 11c-82 0 -145 -57 -179 -164c-15 -48 -24 -106 -24 -160
c0 -79 33 -116 89 -116zM256 586l-56 131h53l45 -131h-42z" />
    <glyph glyph-name="acircumflex" unicode="&#xe2;" horiz-adv-x="408" 
d="M149 -7c-79 0 -130 52 -130 157c0 53 10 118 27 171c41 126 128 193 231 193c52 0 91 -9 117 -21l-78 -493h-41l3 51h-2c-26 -27 -72 -58 -127 -58zM160 34c51 0 96 29 121 55l58 374c-16 6 -36 11 -65 11c-82 0 -145 -57 -179 -164c-15 -48 -24 -106 -24 -160
c0 -79 33 -116 89 -116zM168 586l102 122h44l64 -122h-40l-51 83l-76 -83h-43z" />
    <glyph glyph-name="adieresis" unicode="&#xe4;" horiz-adv-x="408" 
d="M149 -7c-79 0 -130 52 -130 157c0 53 10 118 27 171c41 126 128 193 231 193c52 0 91 -9 117 -21l-78 -493h-41l3 51h-2c-26 -27 -72 -58 -127 -58zM160 34c51 0 96 29 121 55l58 374c-16 6 -36 11 -65 11c-82 0 -145 -57 -179 -164c-15 -48 -24 -106 -24 -160
c0 -79 33 -116 89 -116zM314 612l10 60h52l-10 -60h-52zM184 612l10 60h51l-10 -60h-51z" />
    <glyph glyph-name="atilde" unicode="&#xe3;" horiz-adv-x="408" 
d="M149 -7c-79 0 -130 52 -130 157c0 53 10 118 27 171c41 126 128 193 231 193c52 0 91 -9 117 -21l-78 -493h-41l3 51h-2c-26 -27 -72 -58 -127 -58zM160 34c51 0 96 29 121 55l58 374c-16 6 -36 11 -65 11c-82 0 -145 -57 -179 -164c-15 -48 -24 -106 -24 -160
c0 -79 33 -116 89 -116zM164 603c6 52 35 80 72 80c41 0 63 -38 93 -38c19 0 32 13 36 39h36c-8 -52 -37 -81 -72 -81c-41 0 -64 38 -93 38c-19 0 -32 -13 -37 -38h-35z" />
    <glyph glyph-name="aring" unicode="&#xe5;" horiz-adv-x="408" 
d="M149 -7c-79 0 -130 52 -130 157c0 53 10 118 27 171c41 126 128 193 231 193c52 0 91 -9 117 -21l-78 -493h-41l3 51h-2c-26 -27 -72 -58 -127 -58zM160 34c51 0 96 29 121 55l58 374c-16 6 -36 11 -65 11c-82 0 -145 -57 -179 -164c-15 -48 -24 -106 -24 -160
c0 -79 33 -116 89 -116zM270 574c-45 0 -77 33 -77 78c0 46 35 84 83 84c46 0 77 -33 77 -76c0 -48 -36 -86 -83 -86zM271 608c27 0 46 23 46 52c0 23 -17 42 -41 42c-27 0 -46 -21 -46 -50c0 -24 15 -44 41 -44z" />
    <glyph glyph-name="ccedilla" unicode="&#xe7;" horiz-adv-x="352" 
d="M220 -118c0 -55 -46 -88 -148 -92l5 36c68 4 98 20 98 52c0 25 -22 38 -68 39l13 85c-64 22 -98 81 -98 169c0 64 16 166 56 236s101 107 180 107c49 0 80 -14 100 -28l-6 -42c-23 15 -53 28 -97 28c-58 0 -103 -28 -134 -84c-33 -61 -48 -151 -48 -217
c0 -89 41 -136 114 -136c54 0 91 19 117 35l-7 -42c-27 -19 -64 -35 -117 -35c-9 0 -19 1 -25 2l-7 -47c40 -4 72 -24 72 -66z" />
    <glyph glyph-name="eacute" unicode="&#xe9;" horiz-adv-x="389" 
d="M216 586l78 131h57l-89 -131h-46zM188 -7c-107 0 -167 61 -167 178c0 67 16 176 57 246c37 64 91 97 161 97c86 0 134 -52 134 -148c0 -26 -3 -58 -9 -97l-4 -24h-283c-3 -27 -5 -52 -5 -73c0 -93 42 -137 122 -137c53 0 100 19 133 37l-7 -42c-28 -19 -76 -37 -132 -37z
M120 397c-16 -31 -28 -71 -36 -110h232c5 27 8 55 8 78c0 71 -30 109 -89 109c-50 0 -88 -26 -115 -77z" />
    <glyph glyph-name="egrave" unicode="&#xe8;" horiz-adv-x="389" 
d="M188 -7c-107 0 -167 61 -167 178c0 67 16 176 57 246c37 64 91 97 161 97c86 0 134 -52 134 -148c0 -26 -3 -58 -9 -97l-4 -24h-283c-3 -27 -5 -52 -5 -73c0 -93 42 -137 122 -137c53 0 100 19 133 37l-7 -42c-28 -19 -76 -37 -132 -37zM120 397
c-16 -31 -28 -71 -36 -110h232c5 27 8 55 8 78c0 71 -30 109 -89 109c-50 0 -88 -26 -115 -77zM230 586l-56 131h53l45 -131h-42z" />
    <glyph glyph-name="ecircumflex" unicode="&#xea;" horiz-adv-x="389" 
d="M142 586l102 122h44l64 -122h-40l-51 83l-76 -83h-43zM188 -7c-107 0 -167 61 -167 178c0 67 16 176 57 246c37 64 91 97 161 97c86 0 134 -52 134 -148c0 -26 -3 -58 -9 -97l-4 -24h-283c-3 -27 -5 -52 -5 -73c0 -93 42 -137 122 -137c53 0 100 19 133 37l-7 -42
c-28 -19 -76 -37 -132 -37zM120 397c-16 -31 -28 -71 -36 -110h232c5 27 8 55 8 78c0 71 -30 109 -89 109c-50 0 -88 -26 -115 -77z" />
    <glyph glyph-name="edieresis" unicode="&#xeb;" horiz-adv-x="389" 
d="M291 612l10 60h52l-10 -60h-52zM161 612l10 60h51l-10 -60h-51zM188 -7c-107 0 -167 61 -167 178c0 67 16 176 57 246c37 64 91 97 161 97c86 0 134 -52 134 -148c0 -26 -3 -58 -9 -97l-4 -24h-283c-3 -27 -5 -52 -5 -73c0 -93 42 -137 122 -137c53 0 100 19 133 37
l-7 -42c-28 -19 -76 -37 -132 -37zM120 397c-16 -31 -28 -71 -36 -110h232c5 27 8 55 8 78c0 71 -30 109 -89 109c-50 0 -88 -26 -115 -77z" />
    <glyph glyph-name="iacute" unicode="&#xed;" horiz-adv-x="159" 
d="M107 586l78 131h57l-89 -131h-46zM16 0l80 507h49l-78 -507h-51z" />
    <glyph glyph-name="igrave" unicode="&#xec;" horiz-adv-x="159" 
d="M16 0l80 507h49l-78 -507h-51zM111 586l-56 131h53l45 -131h-42z" />
    <glyph glyph-name="icircumflex" unicode="&#xee;" horiz-adv-x="159" 
d="M16 0l80 507h49l-78 -507h-51zM35 586l93 123h43l55 -123h-39l-42 81l-67 -81h-43z" />
    <glyph glyph-name="idieresis" unicode="&#xef;" horiz-adv-x="159" 
d="M171 612l10 60h50l-9 -60h-51zM51 612l10 60h50l-10 -60h-50zM16 0l80 507h49l-78 -507h-51z" />
    <glyph glyph-name="ntilde" unicode="&#xf1;" 
d="M14 0l80 507h48l-8 -51h2c44 33 98 58 156 58c73 0 103 -38 103 -100c0 -9 -1 -20 -3 -33l-59 -381h-51l59 378c2 10 3 21 3 30c0 40 -19 64 -69 64c-53 0 -102 -23 -145 -52l-65 -420h-51zM149 603c6 52 35 80 72 80c41 0 63 -38 93 -38c19 0 32 13 36 39h36
c-8 -52 -37 -81 -72 -81c-41 0 -64 38 -93 38c-19 0 -32 -13 -37 -38h-35z" />
    <glyph glyph-name="oacute" unicode="&#xf3;" horiz-adv-x="418" 
d="M228 586l78 131h57l-89 -131h-46zM176 -7c-100 0 -155 64 -155 177c0 27 3 63 9 104c27 153 102 240 213 240c98 0 154 -64 154 -175c0 -29 -2 -64 -9 -106c-26 -153 -102 -240 -212 -240zM177 33c84 0 141 74 161 207c7 45 9 76 9 99c0 91 -40 135 -106 135
c-82 0 -140 -75 -161 -208c-6 -41 -9 -71 -9 -95c0 -91 40 -138 106 -138z" />
    <glyph glyph-name="ograve" unicode="&#xf2;" horiz-adv-x="418" 
d="M176 -7c-100 0 -155 64 -155 177c0 27 3 63 9 104c27 153 102 240 213 240c98 0 154 -64 154 -175c0 -29 -2 -64 -9 -106c-26 -153 -102 -240 -212 -240zM177 33c84 0 141 74 161 207c7 45 9 76 9 99c0 91 -40 135 -106 135c-82 0 -140 -75 -161 -208
c-6 -41 -9 -71 -9 -95c0 -91 40 -138 106 -138zM242 586l-56 131h53l45 -131h-42z" />
    <glyph glyph-name="ocircumflex" unicode="&#xf4;" horiz-adv-x="418" 
d="M156 586l102 122h44l64 -122h-40l-51 83l-76 -83h-43zM176 -7c-100 0 -155 64 -155 177c0 27 3 63 9 104c27 153 102 240 213 240c98 0 154 -64 154 -175c0 -29 -2 -64 -9 -106c-26 -153 -102 -240 -212 -240zM177 33c84 0 141 74 161 207c7 45 9 76 9 99
c0 91 -40 135 -106 135c-82 0 -140 -75 -161 -208c-6 -41 -9 -71 -9 -95c0 -91 40 -138 106 -138z" />
    <glyph glyph-name="odieresis" unicode="&#xf6;" horiz-adv-x="418" 
d="M302 612l10 60h52l-10 -60h-52zM172 612l10 60h51l-10 -60h-51zM176 -7c-100 0 -155 64 -155 177c0 27 3 63 9 104c27 153 102 240 213 240c98 0 154 -64 154 -175c0 -29 -2 -64 -9 -106c-26 -153 -102 -240 -212 -240zM177 33c84 0 141 74 161 207c7 45 9 76 9 99
c0 91 -40 135 -106 135c-82 0 -140 -75 -161 -208c-6 -41 -9 -71 -9 -95c0 -91 40 -138 106 -138z" />
    <glyph glyph-name="otilde" unicode="&#xf5;" horiz-adv-x="418" 
d="M176 -7c-100 0 -155 64 -155 177c0 27 3 63 9 104c27 153 102 240 213 240c98 0 154 -64 154 -175c0 -29 -2 -64 -9 -106c-26 -153 -102 -240 -212 -240zM177 33c84 0 141 74 161 207c7 45 9 76 9 99c0 91 -40 135 -106 135c-82 0 -140 -75 -161 -208
c-6 -41 -9 -71 -9 -95c0 -91 40 -138 106 -138zM150 603c6 52 35 80 72 80c41 0 63 -38 93 -38c19 0 32 13 36 39h36c-8 -52 -37 -81 -72 -81c-41 0 -64 38 -93 38c-19 0 -32 -13 -37 -38h-35z" />
    <glyph glyph-name="uacute" unicode="&#xfa;" horiz-adv-x="420" 
d="M226 586l78 131h57l-89 -131h-46zM135 -7c-69 0 -104 38 -104 101c0 10 1 23 3 35l58 378h51l-59 -374c-1 -13 -2 -24 -2 -34c0 -41 20 -64 66 -64c52 0 99 24 143 52l65 420h51l-80 -507h-42l2 51h-2c-44 -33 -91 -58 -150 -58z" />
    <glyph glyph-name="ugrave" unicode="&#xf9;" horiz-adv-x="420" 
d="M135 -7c-69 0 -104 38 -104 101c0 10 1 23 3 35l58 378h51l-59 -374c-1 -13 -2 -24 -2 -34c0 -41 20 -64 66 -64c52 0 99 24 143 52l65 420h51l-80 -507h-42l2 51h-2c-44 -33 -91 -58 -150 -58zM240 586l-56 131h53l45 -131h-42z" />
    <glyph glyph-name="ucircumflex" unicode="&#xfb;" horiz-adv-x="420" 
d="M153 586l102 122h44l64 -122h-40l-51 83l-76 -83h-43zM135 -7c-69 0 -104 38 -104 101c0 10 1 23 3 35l58 378h51l-59 -374c-1 -13 -2 -24 -2 -34c0 -41 20 -64 66 -64c52 0 99 24 143 52l65 420h51l-80 -507h-42l2 51h-2c-44 -33 -91 -58 -150 -58z" />
    <glyph glyph-name="udieresis" unicode="&#xfc;" horiz-adv-x="420" 
d="M301 612l10 60h52l-10 -60h-52zM171 612l10 60h51l-10 -60h-51zM135 -7c-69 0 -104 38 -104 101c0 10 1 23 3 35l58 378h51l-59 -374c-1 -13 -2 -24 -2 -34c0 -41 20 -64 66 -64c52 0 99 24 143 52l65 420h51l-80 -507h-42l2 51h-2c-44 -33 -91 -58 -150 -58z" />
    <glyph glyph-name="dagger" unicode="&#x2020;" horiz-adv-x="383" 
d="M115 -69l81 517h-138l7 45h138l32 200h48l-32 -200h139l-8 -45h-138l-80 -517h-49z" />
    <glyph glyph-name="degree" unicode="&#xb0;" horiz-adv-x="285" 
d="M183 465c-66 0 -109 47 -109 109c0 73 54 128 125 128c67 0 110 -47 110 -109c0 -73 -54 -128 -126 -128zM186 498c50 0 83 38 83 95c0 43 -28 76 -72 76c-48 0 -84 -37 -84 -95c0 -42 27 -76 73 -76z" />
    <glyph glyph-name="cent" unicode="&#xa2;" horiz-adv-x="353" 
d="M180 -7c-6 0 -12 0 -18 1l-28 -106h-40l30 113c-66 20 -102 80 -102 171c0 50 12 117 32 168c34 107 99 174 204 174h5l20 72h39l-21 -76c26 -5 44 -15 58 -24l-7 -41c-16 10 -36 19 -62 24l-117 -434c5 -1 9 -1 14 -1c54 0 92 19 118 35l-7 -41
c-27 -19 -65 -35 -118 -35zM73 171c0 -66 22 -110 63 -128l116 430c-72 -1 -121 -49 -149 -141c-20 -50 -30 -117 -30 -161z" />
    <glyph glyph-name="sterling" unicode="&#xa3;" horiz-adv-x="401" 
d="M45 323l6 41h70l22 141c22 143 94 197 192 197c50 0 81 -13 97 -23l-6 -43c-22 11 -48 21 -90 21c-78 0 -123 -45 -141 -154l-21 -139h157l-7 -41h-157l-15 -100c-16 -101 -42 -143 -91 -176v-2h285l-7 -45h-346l5 39c59 34 85 79 101 183l15 101h-69z" />
    <glyph glyph-name="section" unicode="&#xa7;" horiz-adv-x="402" 
d="M306 38c0 -100 -65 -168 -175 -168c-61 0 -102 21 -128 40l7 43c27 -19 67 -39 120 -39c37 0 66 10 86 27c25 21 39 52 39 92c0 44 -19 73 -70 100l-56 29c-52 27 -93 66 -93 133c0 77 49 123 122 140c-33 28 -47 64 -47 110c0 91 62 157 166 157c57 0 93 -18 115 -33
l-7 -42c-22 16 -60 32 -107 32c-43 0 -76 -14 -95 -39c-15 -19 -22 -43 -22 -73c0 -45 21 -76 64 -98l56 -30c56 -30 98 -67 98 -135c0 -73 -46 -120 -120 -140c34 -28 47 -61 47 -106zM257 376c-14 9 -66 33 -69 36c-66 -14 -103 -52 -103 -111c0 -45 29 -74 68 -95
c7 -5 69 -36 74 -40c65 17 102 51 102 113c0 47 -30 74 -72 97z" />
    <glyph glyph-name="bullet" unicode="&#x2022;" horiz-adv-x="266" 
d="M139 225c-53 0 -91 41 -90 90c1 60 46 101 99 101s92 -39 91 -91c-1 -56 -46 -100 -100 -100z" />
    <glyph glyph-name="paragraph" unicode="&#xb6;" horiz-adv-x="464" 
d="M182 -120l73 470h-23c-90 0 -161 48 -161 153c0 102 59 190 206 190h189l-127 -813h-39l122 778h-80l-122 -778h-38z" />
    <glyph glyph-name="germandbls" unicode="&#xdf;" horiz-adv-x="442" 
d="M-15 -191l115 737c20 123 82 193 187 193c89 0 137 -49 137 -117c0 -64 -43 -110 -82 -150c-40 -39 -76 -71 -76 -115c0 -30 17 -48 43 -71l33 -28c37 -33 62 -67 62 -122c0 -24 -5 -47 -15 -67c-23 -47 -71 -77 -134 -77c-54 0 -87 16 -106 29l7 43
c25 -15 52 -29 97 -29c43 0 71 18 88 46c7 15 12 32 12 51c0 39 -19 64 -48 89l-30 26c-33 28 -59 58 -59 104c0 54 37 91 76 131c40 40 80 81 80 138c0 44 -30 76 -88 76c-79 0 -117 -56 -133 -152l-115 -735h-51z" />
    <glyph glyph-name="registered" unicode="&#xae;" horiz-adv-x="364" 
d="M382 515c0 -118 -68 -188 -159 -188c-92 0 -160 69 -160 188s68 188 160 188c91 0 159 -68 159 -188zM223 350c78 0 133 61 133 165s-55 164 -133 164c-79 0 -133 -60 -133 -164s54 -165 133 -165zM167 423v190h58c40 0 61 -17 61 -57c0 -29 -12 -44 -30 -50v-1l39 -82
h-33l-35 75h-29v-75h-31zM198 525h26c22 0 30 11 30 30c0 22 -9 31 -32 31h-24v-61z" />
    <glyph glyph-name="copyright" unicode="&#xa9;" horiz-adv-x="673" 
d="M350 -10c-175 0 -296 133 -296 355s121 355 296 355c177 0 298 -133 298 -355c0 -220 -122 -355 -298 -355zM350 22c157 0 261 119 261 323c0 205 -104 324 -261 324s-259 -119 -259 -324c0 -204 103 -323 259 -323zM362 152c-96 0 -150 60 -150 189v16
c0 132 62 186 151 186c38 0 66 -10 83 -19v-40c-21 10 -47 19 -82 19c-73 0 -104 -52 -104 -142v-21c0 -99 33 -147 108 -147c39 0 63 12 81 22v-39c-19 -11 -46 -24 -87 -24z" />
    <glyph glyph-name="trademark" unicode="&#x2122;" horiz-adv-x="531" 
d="M272 404l46 289h53l32 -237h2l106 237h56l-45 -289h-37l37 239h-2l-107 -239h-35l-33 239h-2l-38 -239h-33zM114 404l40 256h-74l5 33h187l-5 -33h-75l-40 -256h-38z" />
    <glyph glyph-name="acute" unicode="&#xb4;" horiz-adv-x="404" 
d="M213 586l78 131h57l-89 -131h-46z" />
    <glyph glyph-name="dieresis" unicode="&#xa8;" horiz-adv-x="402" 
d="M278 612l10 60h52l-10 -60h-52zM148 612l10 60h51l-10 -60h-51z" />
    <glyph glyph-name="AE" unicode="&#xc6;" horiz-adv-x="720" 
d="M-35 0l432 693h353l-7 -44h-268l-42 -268h210l-6 -45h-211l-45 -292h271l-7 -44h-323l32 209h-204l-130 -209h-55zM177 253h185c9 67 61 394 61 394h-3s-211 -327 -243 -394z" />
    <glyph glyph-name="Oslash" unicode="&#xd8;" horiz-adv-x="551" 
d="M245 -9c-67 0 -119 26 -153 70l-46 -61h-49l73 97c-17 36 -26 80 -26 130c0 38 4 86 13 139c34 207 130 336 279 336c62 0 111 -23 146 -62l40 53h50l-66 -87c21 -38 32 -85 32 -139c0 -39 -4 -88 -14 -144c-36 -218 -137 -332 -279 -332zM247 35c109 1 192 94 224 295
c8 58 13 99 13 139c0 34 -5 64 -13 91l-348 -458c24 -43 65 -67 124 -67zM98 226c0 -30 3 -57 9 -81l345 455c-24 37 -63 59 -116 59c-115 0 -195 -104 -225 -296c-8 -55 -13 -100 -13 -137z" />
    <glyph glyph-name="yen" unicode="&#xa5;" horiz-adv-x="428" 
d="M146 0l24 155h-135l7 42h135l13 92h-134l7 43h124l-113 361h53l63 -202c13 -50 34 -125 38 -133h1s47 76 77 131l126 204h52l-224 -361h124l-6 -43h-135l-14 -92h134l-6 -42h-135l-24 -155h-52z" />
    <glyph glyph-name="ordfeminine" unicode="&#xaa;" horiz-adv-x="376" 
d="M166 229c-72 0 -118 52 -117 146c0 46 9 100 24 149c37 116 115 177 206 177c51 0 91 -10 113 -19l-70 -446h-40l2 47h-2c-24 -26 -64 -54 -116 -54zM178 270c44 0 85 24 108 47l52 335c-14 6 -33 10 -62 10c-72 0 -126 -52 -155 -142c-14 -46 -23 -97 -23 -145
c0 -72 29 -105 80 -105z" />
    <glyph glyph-name="ordmasculine" unicode="&#xba;" horiz-adv-x="383" 
d="M194 229c-93 0 -143 63 -143 159c0 34 4 68 10 101c23 129 91 212 194 212c95 0 143 -61 143 -160c0 -33 -4 -67 -11 -105c-24 -129 -91 -207 -193 -207zM195 270c74 0 123 59 143 170c6 35 10 71 10 101c0 79 -35 119 -94 119c-78 0 -125 -66 -144 -178
c-6 -37 -8 -68 -8 -93c0 -78 35 -119 93 -119z" />
    <glyph glyph-name="ae" unicode="&#xe6;" horiz-adv-x="639" 
d="M432 -7c-68 0 -118 25 -145 74c-33 -37 -80 -74 -150 -74c-88 0 -128 54 -127 126c0 27 4 51 14 73c20 47 68 77 143 86l110 12l11 69c2 15 3 25 3 34c0 52 -28 78 -90 78c-45 0 -80 -9 -110 -20l6 38c34 16 74 25 118 25c73 0 113 -30 120 -87c32 53 80 87 148 87
c87 0 134 -52 134 -148c0 -27 -3 -60 -8 -91c-1 -8 -3 -20 -5 -28h-283c-3 -27 -5 -53 -5 -75c0 -94 42 -137 122 -137c54 0 100 19 133 37l-7 -42c-28 -19 -76 -37 -132 -37zM265 170c0 23 2 49 6 80l-96 -10c-54 -7 -86 -25 -102 -58c-8 -17 -11 -38 -11 -61
c0 -57 29 -88 84 -88c52 0 95 27 129 62c-7 21 -10 46 -10 75zM343 343c-6 -18 -11 -36 -15 -54h232c5 28 8 53 8 77c0 68 -30 108 -88 108c-70 0 -112 -55 -137 -131z" />
    <glyph glyph-name="oslash" unicode="&#xf8;" horiz-adv-x="418" 
d="M181 -7c-49 0 -88 17 -115 48l-32 -41h-46l57 73c-13 26 -19 59 -19 98c0 26 2 61 9 101c25 154 102 242 213 242c46 0 84 -16 111 -45l30 38h46l-54 -68c14 -27 22 -61 22 -100c0 -29 -3 -64 -9 -105c-26 -154 -102 -241 -213 -241zM182 33c84 0 141 74 163 207
c6 45 8 76 8 98s-2 41 -7 57l-250 -317c18 -30 47 -45 86 -45zM75 171c0 -20 2 -38 5 -54l250 316c-18 27 -47 41 -84 41c-83 0 -141 -75 -162 -208c-6 -41 -9 -71 -9 -95z" />
    <glyph glyph-name="questiondown" unicode="&#xbf;" horiz-adv-x="332" 
d="M146 -131c-97 0 -153 54 -153 140c0 78 32 122 116 194c65 57 83 78 91 131l10 62h49l-10 -66c-10 -67 -32 -94 -110 -161c-68 -58 -92 -95 -92 -157c0 -59 38 -98 109 -98c48 0 79 11 113 26l-6 -43c-33 -15 -67 -28 -117 -28zM221 502l12 71h58l-12 -71h-58z" />
    <glyph glyph-name="exclamdown" unicode="&#xa1;" horiz-adv-x="207" 
d="M17 -120l88 516h43l-75 -516h-56zM113 502l11 71h57l-10 -71h-58z" />
    <glyph glyph-name="florin" unicode="&#x192;" horiz-adv-x="313" 
d="M55 407l7 43h77l21 141c18 108 66 150 141 150c31 0 54 -7 66 -14l-6 -38c-13 5 -29 10 -53 10c-52 0 -84 -28 -97 -113l-22 -136h107l-7 -43h-106l-70 -450c-17 -107 -62 -139 -126 -139c-28 0 -50 7 -61 15l6 37c12 -5 27 -9 47 -9c41 0 71 19 83 102l69 444h-76z" />
    <glyph glyph-name="guillemotleft" unicode="&#xab;" horiz-adv-x="359" 
d="M238 60l-64 181l3 22l123 182h50l-128 -196l64 -189h-48zM104 60l-64 181l2 22l124 182h50l-129 -196l64 -189h-47z" />
    <glyph glyph-name="guillemotright" unicode="&#xbb;" horiz-adv-x="359" 
d="M143 60l129 196l-65 189h47l65 -181l-3 -22l-124 -182h-49zM8 60l129 196l-65 189h48l65 -181l-3 -22l-124 -182h-50z" />
    <glyph glyph-name="ellipsis" unicode="&#x2026;" horiz-adv-x="494" 
d="M340 0l11 71h58l-11 -71h-58zM19 0l12 71h57l-10 -71h-59zM180 0l11 71h58l-11 -71h-58z" />
    <glyph glyph-name="uni00A0" unicode="&#xa0;" horiz-adv-x="156" 
 />
    <glyph glyph-name="Agrave" unicode="&#xc0;" horiz-adv-x="485" 
d="M-27 0l320 693h59l81 -693h-51l-25 217h-232l-100 -217h-52zM266 526l-121 -264h206l-29 262c-3 29 -10 102 -10 102h-2s-31 -71 -44 -100zM301 734l-47 114h53l36 -114h-42z" />
    <glyph glyph-name="Atilde" unicode="&#xc3;" horiz-adv-x="485" 
d="M-27 0l320 693h59l81 -693h-51l-25 217h-232l-100 -217h-52zM266 526l-121 -264h206l-29 262c-3 29 -10 102 -10 102h-2s-31 -71 -44 -100zM214 742c6 52 37 79 72 79c42 0 63 -35 94 -35c18 0 31 11 36 36h35c-7 -51 -37 -78 -72 -78c-41 0 -63 34 -93 34
c-19 0 -32 -11 -37 -36h-35z" />
    <glyph glyph-name="Otilde" unicode="&#xd5;" horiz-adv-x="551" 
d="M232 742c6 52 37 79 72 79c42 0 63 -35 94 -35c18 0 31 11 36 36h35c-7 -51 -37 -78 -72 -78c-41 0 -63 34 -93 34c-19 0 -32 -11 -37 -36h-35zM245 -9c-127 0 -202 88 -202 236c0 36 4 82 12 132c29 175 112 343 279 343c127 0 203 -89 203 -235c0 -38 -5 -83 -12 -136
c-32 -186 -121 -340 -280 -340zM246 35c123 0 195 128 223 302c8 51 13 94 13 132c0 113 -47 190 -148 190c-127 0 -197 -141 -224 -305c-8 -50 -12 -93 -12 -129c0 -117 47 -190 148 -190z" />
    <glyph glyph-name="OE" unicode="&#x152;" horiz-adv-x="759" 
d="M268 0c-143 0 -226 73 -226 231c0 33 3 76 11 128c28 206 119 334 306 334h429l-8 -45h-266l-41 -267h209l-8 -45h-209l-46 -291h271l-7 -45h-415zM274 45h93l95 603h-105c-154 0 -221 -106 -248 -288c-8 -54 -11 -94 -11 -130c0 -124 56 -185 176 -185z" />
    <glyph glyph-name="oe" unicode="&#x153;" horiz-adv-x="716" 
d="M502 -7c-86 0 -139 40 -156 119c-37 -77 -94 -119 -170 -119c-99 0 -155 65 -155 178c0 26 3 61 9 101c26 154 101 242 214 242c78 0 127 -42 142 -116l12 22c35 60 86 94 156 94c87 0 133 -52 133 -148c0 -26 -3 -57 -9 -94l-4 -27h-283c-4 -27 -5 -53 -5 -73
c0 -93 42 -137 122 -137c54 0 100 19 133 37l-7 -42c-28 -19 -76 -37 -132 -37zM339 240c7 45 8 76 8 99c0 91 -39 135 -105 135c-83 0 -140 -74 -162 -207c-6 -41 -8 -72 -8 -95c0 -92 39 -139 105 -139c85 0 141 74 162 207zM435 399c-17 -32 -29 -72 -37 -112h232
c5 28 8 56 8 79c0 70 -30 108 -88 108c-50 0 -88 -25 -115 -75z" />
    <glyph glyph-name="endash" unicode="&#x2013;" horiz-adv-x="351" 
d="M30 264l7 41h292l-8 -41h-291z" />
    <glyph glyph-name="emdash" unicode="&#x2014;" horiz-adv-x="571" 
d="M30 264l7 41h512l-7 -41h-512z" />
    <glyph glyph-name="quotedblleft" unicode="&#x201c;" horiz-adv-x="251" 
d="M181 535l53 158h42l-40 -158h-55zM74 535l53 158h43l-41 -158h-55z" />
    <glyph glyph-name="quotedblright" unicode="&#x201d;" horiz-adv-x="251" 
d="M189 535l40 158h55l-53 -158h-42zM83 535l40 158h55l-53 -158h-42z" />
    <glyph glyph-name="quoteleft" unicode="&#x2018;" horiz-adv-x="145" 
d="M74 535l53 158h43l-41 -158h-55z" />
    <glyph glyph-name="quoteright" unicode="&#x2019;" horiz-adv-x="145" 
d="M83 535l40 158h55l-53 -158h-42z" />
    <glyph glyph-name="divide" unicode="&#xf7;" horiz-adv-x="411" 
d="M52 329l7 45h330l-7 -45h-330zM164 185l12 71h57l-11 -71h-58zM206 444l11 71h58l-11 -71h-58z" />
    <glyph glyph-name="ydieresis" unicode="&#xff;" horiz-adv-x="383" 
d="M-1 -196c-22 0 -39 6 -50 13l5 37c12 -5 26 -8 41 -8c44 0 67 22 96 82l36 80l-78 499h52l50 -342c3 -28 11 -85 11 -85h2s25 57 34 78l159 349h51l-272 -587c-37 -80 -72 -116 -137 -116zM280 612l10 60h52l-10 -60h-52zM150 612l10 60h51l-10 -60h-51z" />
    <glyph glyph-name="Ydieresis" unicode="&#x178;" horiz-adv-x="429" 
d="M150 0l45 282l-115 411h53l69 -252c10 -45 27 -103 27 -103h1s34 55 58 101l149 254h53l-243 -410l-44 -283h-53zM330 741l10 60h52l-9 -60h-53zM203 741l10 60h52l-10 -60h-52z" />
    <glyph glyph-name="fraction" unicode="&#x2044;" horiz-adv-x="181" 
d="M-177 -40l497 753h43l-498 -753h-42z" />
    <glyph glyph-name="Euro" unicode="&#x20ac;" horiz-adv-x="452" 
d="M42 395l7 42h66c9 38 22 75 36 107c46 105 118 158 219 158c63 0 97 -18 120 -34l-7 -43c-29 17 -63 32 -115 32c-75 0 -130 -38 -169 -130c-12 -26 -22 -57 -30 -90h185l-7 -42h-188c-7 -34 -13 -68 -16 -101h189l-8 -44h-185c-1 -13 -1 -26 -1 -38
c0 -123 49 -176 141 -176c53 0 95 16 128 33l-7 -44c-29 -18 -73 -34 -126 -34c-115 0 -188 67 -188 221c0 12 0 25 1 38h-68l8 44h63c3 33 8 67 15 101h-63z" />
    <glyph glyph-name="guilsinglleft" unicode="&#x2039;" horiz-adv-x="225" 
d="M104 60l-64 181l2 22l124 182h50l-129 -196l64 -189h-47z" />
    <glyph glyph-name="guilsinglright" unicode="&#x203a;" horiz-adv-x="225" 
d="M8 60l129 196l-65 189h48l65 -181l-3 -22l-124 -182h-50z" />
    <glyph glyph-name="daggerdbl" unicode="&#x2021;" horiz-adv-x="381" 
d="M9 131l7 45h137l43 272h-138l8 45h137l31 200h48l-32 -200h138l-7 -45h-137l-43 -272h138l-8 -45h-137l-32 -200h-47l31 200h-137z" />
    <glyph glyph-name="periodcentered" unicode="&#xb7;" horiz-adv-x="171" 
d="M60 282l11 71h58l-10 -71h-59z" />
    <glyph glyph-name="quotesinglbase" unicode="&#x201a;" horiz-adv-x="143" 
d="M-13 -65l42 158h54l-53 -158h-43z" />
    <glyph glyph-name="quotedblbase" unicode="&#x201e;" horiz-adv-x="250" 
d="M93 -65l42 158h55l-54 -158h-43zM-13 -65l42 158h54l-53 -158h-43z" />
    <glyph glyph-name="perthousand" unicode="&#x2030;" horiz-adv-x="960" 
d="M769 -8c-72 0 -112 50 -112 127c0 102 40 225 152 225c71 0 112 -49 112 -126c0 -106 -44 -226 -152 -226zM769 30c52 0 86 43 99 119c4 27 7 50 7 71c0 52 -23 85 -67 85c-52 0 -85 -42 -99 -118c-4 -25 -6 -52 -6 -69c0 -54 22 -88 66 -88zM466 30c52 0 86 43 99 119
c4 27 7 50 7 71c0 52 -23 85 -67 85c-52 0 -85 -42 -99 -118c-4 -25 -6 -52 -6 -69c0 -54 22 -88 66 -88zM113 -40h-47l493 753h47zM174 350c-71 0 -111 49 -111 127c0 102 40 225 151 225c72 0 113 -49 113 -126c0 -106 -44 -226 -153 -226zM466 -8c-72 0 -112 50 -112 127
c0 102 40 225 152 225c71 0 112 -49 112 -126c0 -106 -44 -226 -152 -226zM175 388c52 -1 85 42 99 119c5 26 7 49 7 71c0 51 -23 86 -67 86c-52 0 -84 -43 -99 -119c-4 -25 -6 -52 -6 -70c0 -53 21 -87 66 -87z" />
    <glyph glyph-name="Acircumflex" unicode="&#xc2;" horiz-adv-x="485" 
d="M-27 0l320 693h59l81 -693h-51l-25 217h-232l-100 -217h-52zM266 526l-121 -264h206l-29 262c-3 29 -10 102 -10 102h-2s-31 -71 -44 -100zM224 732l95 104h44l63 -104h-41l-47 66l-70 -66h-44z" />
    <glyph glyph-name="Ecircumflex" unicode="&#xca;" 
d="M200 732l95 104h44l63 -104h-41l-47 66l-70 -66h-44zM24 0l109 693h321l-8 -45h-268l-42 -267h212l-8 -45h-212l-45 -291h274l-8 -45h-325z" />
    <glyph glyph-name="Aacute" unicode="&#xc1;" horiz-adv-x="485" 
d="M-27 0l320 693h59l81 -693h-51l-25 217h-232l-100 -217h-52zM266 526l-121 -264h206l-29 262c-3 29 -10 102 -10 102h-2s-31 -71 -44 -100zM303 734l65 114h57l-77 -114h-45z" />
    <glyph glyph-name="Edieresis" unicode="&#xcb;" 
d="M24 0l109 693h321l-8 -45h-268l-42 -267h212l-8 -45h-212l-45 -291h274l-8 -45h-325zM339 741l10 60h52l-9 -60h-53zM212 741l10 60h52l-10 -60h-52z" />
    <glyph glyph-name="Egrave" unicode="&#xc8;" 
d="M283 734l-47 114h53l36 -114h-42zM24 0l109 693h321l-8 -45h-268l-42 -267h212l-8 -45h-212l-45 -291h274l-8 -45h-325z" />
    <glyph glyph-name="Iacute" unicode="&#xcd;" horiz-adv-x="182" 
d="M25 0l109 693h52l-109 -693h-52zM142 734l65 114h57l-77 -114h-45z" />
    <glyph glyph-name="Icircumflex" unicode="&#xce;" horiz-adv-x="182" 
d="M25 0l109 693h52l-109 -693h-52zM65 732l95 104h44l63 -104h-41l-47 66l-70 -66h-44z" />
    <glyph glyph-name="Idieresis" unicode="&#xcf;" horiz-adv-x="182" 
d="M25 0l109 693h52l-109 -693h-52zM206 741l10 60h52l-9 -60h-53zM79 741l10 60h52l-10 -60h-52z" />
    <glyph glyph-name="Igrave" unicode="&#xcc;" horiz-adv-x="182" 
d="M25 0l109 693h52l-109 -693h-52zM146 734l-47 114h53l36 -114h-42z" />
    <glyph glyph-name="Oacute" unicode="&#xd3;" horiz-adv-x="551" 
d="M316 734l65 114h57l-77 -114h-45zM245 -9c-127 0 -202 88 -202 236c0 36 4 82 12 132c29 175 112 343 279 343c127 0 203 -89 203 -235c0 -38 -5 -83 -12 -136c-32 -186 -121 -340 -280 -340zM246 35c123 0 195 128 223 302c8 51 13 94 13 132c0 113 -47 190 -148 190
c-127 0 -197 -141 -224 -305c-8 -50 -12 -93 -12 -129c0 -117 47 -190 148 -190z" />
    <glyph glyph-name="Ocircumflex" unicode="&#xd4;" horiz-adv-x="551" 
d="M243 732l95 104h44l63 -104h-41l-47 66l-70 -66h-44zM245 -9c-127 0 -202 88 -202 236c0 36 4 82 12 132c29 175 112 343 279 343c127 0 203 -89 203 -235c0 -38 -5 -83 -12 -136c-32 -186 -121 -340 -280 -340zM246 35c123 0 195 128 223 302c8 51 13 94 13 132
c0 113 -47 190 -148 190c-127 0 -197 -141 -224 -305c-8 -50 -12 -93 -12 -129c0 -117 47 -190 148 -190z" />
    <glyph glyph-name="Ograve" unicode="&#xd2;" horiz-adv-x="551" 
d="M324 734l-47 114h53l36 -114h-42zM245 -9c-127 0 -202 88 -202 236c0 36 4 82 12 132c29 175 112 343 279 343c127 0 203 -89 203 -235c0 -38 -5 -83 -12 -136c-32 -186 -121 -340 -280 -340zM246 35c123 0 195 128 223 302c8 51 13 94 13 132c0 113 -47 190 -148 190
c-127 0 -197 -141 -224 -305c-8 -50 -12 -93 -12 -129c0 -117 47 -190 148 -190z" />
    <glyph glyph-name="Uacute" unicode="&#xda;" horiz-adv-x="518" 
d="M302 734l65 114h57l-77 -114h-45zM234 -9c-120 0 -183 64 -183 171c0 19 1 39 5 59l73 472h52l-74 -473c-3 -20 -4 -39 -4 -57c0 -86 47 -129 132 -129c99 0 147 62 166 181l75 478h51l-76 -483c-21 -133 -85 -219 -217 -219z" />
    <glyph glyph-name="Ucircumflex" unicode="&#xdb;" horiz-adv-x="518" 
d="M230 732l95 104h44l63 -104h-41l-47 66l-70 -66h-44zM234 -9c-120 0 -183 64 -183 171c0 19 1 39 5 59l73 472h52l-74 -473c-3 -20 -4 -39 -4 -57c0 -86 47 -129 132 -129c99 0 147 62 166 181l75 478h51l-76 -483c-21 -133 -85 -219 -217 -219z" />
    <glyph glyph-name="Ugrave" unicode="&#xd9;" horiz-adv-x="518" 
d="M313 734l-47 114h53l36 -114h-42zM234 -9c-120 0 -183 64 -183 171c0 19 1 39 5 59l73 472h52l-74 -473c-3 -20 -4 -39 -4 -57c0 -86 47 -129 132 -129c99 0 147 62 166 181l75 478h51l-76 -483c-21 -133 -85 -219 -217 -219z" />
    <glyph glyph-name="dotlessi" unicode="&#x131;" horiz-adv-x="160" 
d="M16 0l80 507h49l-78 -507h-51z" />
    <glyph glyph-name="circumflex" unicode="&#x2c6;" horiz-adv-x="404" 
d="M130 586l102 122h44l64 -122h-40l-51 83l-76 -83h-43z" />
    <glyph glyph-name="tilde" unicode="&#x2dc;" horiz-adv-x="405" 
d="M126 603c6 52 35 80 72 80c41 0 63 -38 93 -38c19 0 32 13 36 39h36c-8 -52 -37 -81 -72 -81c-41 0 -64 38 -93 38c-19 0 -32 -13 -37 -38h-35z" />
    <glyph glyph-name="macron" unicode="&#xaf;" horiz-adv-x="412" 
d="M152 620l7 43h187l-6 -43h-188z" />
    <glyph glyph-name="breve" unicode="&#x2d8;" horiz-adv-x="410" 
d="M246 586c-64 0 -100 43 -94 104h39c-2 -40 17 -64 57 -64c38 0 63 22 73 64h38c-9 -63 -53 -104 -113 -104z" />
    <glyph glyph-name="dotaccent" unicode="&#x2d9;" horiz-adv-x="408" 
d="M216 614l10 62h51l-9 -62h-52z" />
    <glyph glyph-name="ring" unicode="&#x2da;" horiz-adv-x="415" 
d="M259 574c-45 0 -77 33 -77 78c0 46 35 84 83 84c46 0 77 -33 77 -76c0 -48 -36 -86 -83 -86zM260 608c27 0 46 23 46 52c0 23 -17 42 -41 42c-27 0 -46 -21 -46 -50c0 -24 15 -44 41 -44z" />
    <glyph glyph-name="cedilla" unicode="&#xb8;" horiz-adv-x="412" 
d="M198 0l-8 -52c40 -4 72 -24 72 -66c0 -55 -46 -88 -148 -92l5 36c68 4 98 20 98 52c0 25 -22 38 -68 39l13 83h36z" />
    <glyph glyph-name="hungarumlaut" unicode="&#x2dd;" horiz-adv-x="396" 
d="M261 586l59 130h53l-70 -130h-42zM147 586l60 130h53l-70 -130h-43z" />
    <glyph glyph-name="ogonek" unicode="&#x2db;" horiz-adv-x="413" 
d="M173 -198c-51 0 -78 28 -78 70c0 56 52 100 92 128h44c-43 -34 -90 -76 -90 -122c0 -24 16 -39 43 -39c14 0 25 3 33 5l-5 -33c-8 -4 -24 -9 -39 -9z" />
    <glyph glyph-name="caron" unicode="&#x2c7;" horiz-adv-x="404" 
d="M212 585l-63 122h40l50 -83l76 83h43l-102 -122h-44z" />
    <glyph glyph-name="space_uni0326" horiz-adv-x="399" 
d="M109 -167l31 125h53l-45 -125h-39z" />
    <glyph glyph-name="caron.alt" horiz-adv-x="403" 
d="M251 598h-37l30 135h49z" />
    <glyph glyph-name="space_uni0326.alt" horiz-adv-x="397" 
d="M287 716l-30 -125h-55l47 125h38z" />
    <glyph glyph-name="acute.pl" horiz-adv-x="407" 
d="M231 586l59 130h54l-70 -130h-43z" />
    <glyph glyph-name="grave.uc" horiz-adv-x="406" 
d="M232 734l-47 114h53l36 -114h-42z" />
    <glyph glyph-name="dieresis.uc" horiz-adv-x="402" 
d="M289 741l10 60h52l-9 -60h-53zM162 741l10 60h52l-10 -60h-52z" />
    <glyph glyph-name="macron.uc" horiz-adv-x="412" 
d="M164 745l7 43h188l-6 -43h-189z" />
    <glyph glyph-name="acute.uc" horiz-adv-x="404" 
d="M230 734l65 114h57l-77 -114h-45z" />
    <glyph glyph-name="circumflex.uc" horiz-adv-x="405" 
d="M152 732l95 104h44l63 -104h-41l-47 66l-70 -66h-44z" />
    <glyph glyph-name="caron.uc" horiz-adv-x="404" 
d="M366 836l-95 -104h-43l-64 104h41l48 -66l69 66h44z" />
    <glyph glyph-name="breve.uc" horiz-adv-x="410" 
d="M260 732c-62 0 -97 39 -93 99h39c0 -37 19 -59 56 -59s60 21 73 59h38c-12 -59 -54 -99 -113 -99z" />
    <glyph glyph-name="dotaccent.uc" horiz-adv-x="408" 
d="M229 743l10 61h52l-10 -61h-52z" />
    <glyph glyph-name="ring.uc" horiz-adv-x="415" 
d="M223 798c0 -24 15 -44 41 -44c27 0 46 23 46 52c0 23 -17 42 -41 42c-27 0 -46 -21 -46 -50zM346 806c0 -48 -36 -86 -83 -86c-45 0 -77 33 -77 78c0 46 35 84 83 84c46 0 77 -33 77 -76z" />
    <glyph glyph-name="tilde.uc" horiz-adv-x="405" 
d="M140 742c6 52 37 79 72 79c42 0 63 -35 94 -35c18 0 31 11 36 36h35c-7 -51 -37 -78 -72 -78c-41 0 -63 34 -93 34c-19 0 -32 -11 -37 -36h-35z" />
    <glyph glyph-name="hungarumlaut.uc" horiz-adv-x="397" 
d="M276 734l51 113h54l-63 -113h-42zM163 734l51 113h54l-63 -113h-42z" />
    <glyph glyph-name="acute.ucpl" horiz-adv-x="405" 
d="M245 734l50 114h54l-62 -114h-42z" />
    <glyph glyph-name="Dcroat" unicode="&#x110;" horiz-adv-x="518" 
d="M18 328l7 44h56l50 321h140c145 0 233 -75 233 -240c0 -35 -4 -86 -11 -130c-31 -214 -124 -323 -312 -323h-159l51 328h-55zM82 45h101c160 0 225 97 255 281c7 47 10 97 10 127c0 141 -66 195 -184 195h-88l-44 -276h159l-8 -44h-157z" />
    <glyph glyph-name="Eng" unicode="&#x14a;" horiz-adv-x="528" 
d="M267 -176c-38 0 -67 11 -86 20l6 41c21 -8 48 -16 78 -16c59 0 90 29 102 104l2 13l-158 497c-15 48 -43 146 -43 146h-1s-10 -85 -19 -142l-76 -487h-49l108 693h67l147 -472c17 -54 41 -136 41 -136h2s11 80 18 127l76 481h48l-114 -723c-14 -93 -56 -146 -149 -146z
" />
    <glyph glyph-name="IJ" unicode="&#x132;" horiz-adv-x="479" 
d="M23 0l109 693h52l-108 -693h-53zM244 -6c-43 0 -75 10 -95 22l6 42c23 -10 48 -18 85 -18c61 0 93 35 104 109l85 544h51l-84 -549c-16 -99 -61 -150 -152 -150z" />
    <glyph glyph-name="uni0237" unicode="&#x237;" horiz-adv-x="161" 
d="M-64 -195c-25 0 -47 7 -59 15l6 36c12 -5 27 -8 45 -8c47 0 69 23 79 87l90 572h50l-90 -579c-13 -83 -50 -123 -121 -123z" />
    <glyph glyph-name="dcroat" unicode="&#x111;" horiz-adv-x="421" 
d="M246 598l6 38h125l15 98h50l-15 -98h56l-6 -38h-56c-31 -203 -88 -559 -93 -598h-42l2 49h-2c-29 -29 -73 -56 -129 -56c-82 0 -137 51 -137 157c0 31 4 67 11 111c27 161 109 253 221 253c50 0 81 -16 102 -30l17 114h-125zM169 34c51 0 94 26 123 51l55 358
c-22 16 -54 29 -92 29c-91 0 -149 -75 -174 -216c-7 -43 -8 -75 -8 -104c0 -81 33 -118 96 -118z" />
    <glyph glyph-name="eng" unicode="&#x14b;" horiz-adv-x="430" 
d="M21 0l79 507h49l-8 -51h2c44 33 97 58 156 58c72 0 103 -39 102 -100c0 -11 -1 -21 -3 -33l-70 -453c-13 -83 -49 -123 -121 -123c-24 0 -46 7 -59 15l6 36c13 -5 27 -8 46 -8c47 0 69 23 78 87l69 443c2 10 3 21 3 30c0 40 -18 64 -69 64c-52 0 -101 -23 -144 -52
l-66 -420h-50z" />
    <glyph glyph-name="ij" unicode="&#x133;" horiz-adv-x="244" 
d="M-60 0l80 507h49l-79 -507h-50zM35 615l10 62h52l-10 -62h-52zM17 -195c-24 0 -47 7 -59 15l6 36c13 -5 27 -8 45 -8c48 0 69 23 79 87l90 572h51l-92 -578c-12 -84 -49 -124 -120 -124zM193 615l11 62h51l-10 -62h-52z" />
    <glyph glyph-name="Abreve" unicode="&#x102;" horiz-adv-x="485" 
d="M-27 0l320 693h59l81 -693h-51l-25 217h-232l-100 -217h-52zM266 526l-121 -264h206l-29 262c-3 29 -10 102 -10 102h-2s-31 -71 -44 -100zM328 732c-62 0 -97 39 -93 99h39c0 -37 19 -59 56 -59s60 21 73 59h38c-12 -59 -54 -99 -113 -99z" />
    <glyph glyph-name="Amacron" unicode="&#x100;" horiz-adv-x="485" 
d="M-27 0l320 693h59l81 -693h-51l-25 217h-232l-100 -217h-52zM266 526l-121 -264h206l-29 262c-3 29 -10 102 -10 102h-2s-31 -71 -44 -100zM233 745l7 43h188l-6 -43h-189z" />
    <glyph glyph-name="Aogonek" unicode="&#x104;" horiz-adv-x="485" 
d="M414 -189c-7 -4 -23 -9 -38 -9c-51 0 -79 28 -79 70c0 53 47 97 85 126l-25 219h-232l-99 -217h-52l319 693h59l83 -692c-45 -35 -91 -77 -91 -122c0 -25 16 -40 43 -40c14 0 25 3 33 5zM269 530l-123 -268h206l-30 267c-3 28 -9 97 -9 97h-2s-30 -66 -42 -96z" />
    <glyph glyph-name="Aringacute" unicode="&#x1fa;" horiz-adv-x="485" 
d="M-27 0l320 693h59l81 -693h-51l-25 217h-232l-100 -217h-52zM266 526l-121 -264h206l-29 262c-3 29 -10 102 -10 102h-2s-31 -71 -44 -100zM322 902l65 114h57l-77 -114h-45zM287 798c0 -24 15 -44 41 -44c27 0 46 23 46 52c0 23 -17 42 -41 42c-27 0 -46 -21 -46 -50z
M410 806c0 -48 -36 -86 -83 -86c-45 0 -77 33 -77 78c0 46 35 84 83 84c46 0 77 -33 77 -76z" />
    <glyph glyph-name="AEacute" unicode="&#x1fc;" horiz-adv-x="720" 
d="M531 734l65 114h57l-77 -114h-45zM-39 0l432 693h353l-7 -44h-268l-42 -268h210l-6 -45h-211l-45 -292h271l-7 -44h-323l32 209h-204l-130 -209h-55zM173 253h185c9 67 61 394 61 394h-3s-211 -327 -243 -394z" />
    <glyph glyph-name="Cacute" unicode="&#x106;" horiz-adv-x="464" 
d="M251 -9c-138 0 -208 91 -208 235c0 86 19 206 57 298c48 116 130 178 245 178c73 0 113 -21 138 -41l-7 -44c-28 20 -68 40 -132 40c-88 0 -154 -51 -196 -154c-32 -81 -50 -194 -50 -276c0 -126 55 -191 158 -191c65 0 112 20 144 38l-6 -45c-28 -18 -80 -38 -143 -38z
M314 734l65 114h57l-77 -114h-45z" />
    <glyph glyph-name="Ccaron" unicode="&#x10c;" horiz-adv-x="464" 
d="M458 836l-95 -104h-43l-64 104h41l48 -66l69 66h44zM251 -9c-138 0 -208 91 -208 235c0 86 19 206 57 298c48 116 130 178 245 178c73 0 113 -21 138 -41l-7 -44c-28 20 -68 40 -132 40c-88 0 -154 -51 -196 -154c-32 -81 -50 -194 -50 -276c0 -126 55 -191 158 -191
c65 0 112 20 144 38l-6 -45c-28 -18 -80 -38 -143 -38z" />
    <glyph glyph-name="Ccircumflex" unicode="&#x108;" horiz-adv-x="464" 
d="M239 732l95 104h44l63 -104h-41l-47 66l-70 -66h-44zM251 -9c-138 0 -208 91 -208 235c0 86 19 206 57 298c48 116 130 178 245 178c73 0 113 -21 138 -41l-7 -44c-28 20 -68 40 -132 40c-88 0 -154 -51 -196 -154c-32 -81 -50 -194 -50 -276c0 -126 55 -191 158 -191
c65 0 112 20 144 38l-6 -45c-28 -18 -80 -38 -143 -38z" />
    <glyph glyph-name="Cdotaccent" unicode="&#x10a;" horiz-adv-x="464" 
d="M251 -9c-138 0 -208 91 -208 235c0 86 19 206 57 298c48 116 130 178 245 178c73 0 113 -21 138 -41l-7 -44c-28 20 -68 40 -132 40c-88 0 -154 -51 -196 -154c-32 -81 -50 -194 -50 -276c0 -126 55 -191 158 -191c65 0 112 20 144 38l-6 -45c-28 -18 -80 -38 -143 -38z
M319 743l10 61h52l-10 -61h-52z" />
    <glyph glyph-name="Cacute.pl" horiz-adv-x="465" 
d="M251 -9c-138 0 -208 91 -208 235c0 86 19 206 57 298c48 116 130 178 245 178c73 0 113 -21 138 -41l-7 -44c-28 20 -68 40 -132 40c-88 0 -154 -51 -196 -154c-32 -81 -50 -194 -50 -276c0 -126 55 -191 158 -191c65 0 112 20 144 38l-6 -45c-28 -18 -80 -38 -143 -38z
M318 734l50 114h54l-62 -114h-42z" />
    <glyph glyph-name="Dcaron" unicode="&#x10e;" horiz-adv-x="518" 
d="M425 836l-95 -104h-43l-64 104h41l48 -66l69 66h44zM24 0l108 693h140c145 0 232 -74 232 -240c0 -40 -4 -95 -12 -141c-33 -208 -125 -312 -310 -312h-158zM83 45h102c159 0 225 97 255 280c7 47 10 98 10 128c0 141 -66 195 -185 195h-87z" />
    <glyph glyph-name="Ebreve" unicode="&#x114;" 
d="M24 0l109 693h321l-8 -45h-268l-42 -267h212l-8 -45h-212l-45 -291h274l-8 -45h-325zM302 732c-62 0 -97 39 -93 99h39c0 -37 19 -59 56 -59s60 21 73 59h38c-12 -59 -54 -99 -113 -99z" />
    <glyph glyph-name="Ecaron" unicode="&#x11a;" 
d="M416 836l-95 -104h-43l-64 104h41l48 -66l69 66h44zM24 0l109 693h321l-8 -45h-268l-42 -267h212l-8 -45h-212l-45 -291h274l-8 -45h-325z" />
    <glyph glyph-name="Edotaccent" unicode="&#x116;" 
d="M274 743l10 61h52l-10 -61h-52zM24 0l109 693h321l-8 -45h-268l-42 -267h212l-8 -45h-212l-45 -291h274l-8 -45h-325z" />
    <glyph glyph-name="Emacron" unicode="&#x112;" 
d="M24 0l109 693h321l-8 -45h-268l-42 -267h212l-8 -45h-212l-45 -291h274l-8 -45h-325zM207 745l7 43h188l-6 -43h-189z" />
    <glyph glyph-name="Eogonek" unicode="&#x118;" 
d="M24 0l109 693h321l-8 -45h-268l-42 -267h212l-8 -45h-212l-45 -291h274l-8 -45h-39c-42 -34 -89 -76 -89 -122c0 -24 16 -39 42 -39c14 0 26 3 34 5l-6 -33c-8 -4 -23 -9 -39 -9c-50 0 -78 28 -78 70c0 54 51 100 91 128h-241z" />
    <glyph glyph-name="Gbreve" unicode="&#x11e;" horiz-adv-x="509" 
d="M354 732c-62 0 -97 39 -93 99h39c0 -37 19 -59 56 -59s60 21 73 59h38c-12 -59 -54 -99 -113 -99zM262 -9c-147 0 -219 93 -219 236c0 89 20 220 66 314c53 109 138 161 250 161c71 0 116 -21 142 -42l-7 -44c-25 18 -72 41 -136 41c-90 0 -158 -42 -201 -134
c-40 -86 -59 -211 -59 -296c0 -111 47 -192 168 -192c43 0 80 7 111 19l36 233h-123l7 45h175l-49 -308c-43 -18 -96 -33 -161 -33z" />
    <glyph glyph-name="Gcircumflex" unicode="&#x11c;" horiz-adv-x="509" 
d="M251 732l95 104h44l63 -104h-41l-47 66l-70 -66h-44zM262 -9c-147 0 -219 93 -219 236c0 89 20 220 66 314c53 109 138 161 250 161c71 0 116 -21 142 -42l-7 -44c-25 18 -72 41 -136 41c-90 0 -158 -42 -201 -134c-40 -86 -59 -211 -59 -296c0 -111 47 -192 168 -192
c43 0 80 7 111 19l36 233h-123l7 45h175l-49 -308c-43 -18 -96 -33 -161 -33z" />
    <glyph glyph-name="Gcommaaccent" unicode="&#x122;" horiz-adv-x="510" 
d="M177 -167l31 125h53l-45 -125h-39zM262 -9c-147 0 -219 93 -219 236c0 89 20 220 66 314c53 109 138 161 250 161c71 0 116 -21 142 -42l-7 -44c-25 18 -72 41 -136 41c-90 0 -158 -42 -201 -134c-40 -86 -59 -211 -59 -296c0 -111 47 -192 168 -192c43 0 80 7 111 19
l36 233h-123l7 45h175l-49 -308c-43 -18 -96 -33 -161 -33z" />
    <glyph glyph-name="Gdotaccent" unicode="&#x120;" horiz-adv-x="509" 
d="M329 743l10 61h52l-10 -61h-52zM262 -9c-147 0 -219 93 -219 236c0 89 20 220 66 314c53 109 138 161 250 161c71 0 116 -21 142 -42l-7 -44c-25 18 -72 41 -136 41c-90 0 -158 -42 -201 -134c-40 -86 -59 -211 -59 -296c0 -111 47 -192 168 -192c43 0 80 7 111 19
l36 233h-123l7 45h175l-49 -308c-43 -18 -96 -33 -161 -33z" />
    <glyph glyph-name="Hbar" unicode="&#x126;" horiz-adv-x="535" 
d="M51 508l6 39h56l23 146h52l-23 -146h299l23 146h52l-23 -146h55l-6 -39h-55l-79 -508h-53l53 337h-299l-52 -337h-53l80 508h-56zM139 382h299l20 126h-299z" />
    <glyph glyph-name="Hcircumflex" unicode="&#x124;" horiz-adv-x="527" 
d="M24 0l109 693h51l-48 -311h295l49 311h52l-109 -693h-51l52 337h-295l-53 -337h-52zM237 732l95 104h44l63 -104h-41l-47 66l-70 -66h-44z" />
    <glyph glyph-name="Idotaccent" unicode="&#x130;" horiz-adv-x="182" 
d="M25 0l109 693h52l-109 -693h-52zM143 743l10 61h52l-10 -61h-52z" />
    <glyph glyph-name="Ibreve" unicode="&#x12c;" horiz-adv-x="182" 
d="M25 0l109 693h52l-109 -693h-52zM169 732c-62 0 -97 39 -93 99h39c0 -37 19 -59 56 -59s60 21 73 59h38c-12 -59 -54 -99 -113 -99z" />
    <glyph glyph-name="Imacron" unicode="&#x12a;" horiz-adv-x="182" 
d="M26 0l108 693h53l-109 -693h-52zM88 747l7 43h158l-7 -43h-158z" />
    <glyph glyph-name="Iogonek" unicode="&#x12e;" horiz-adv-x="182" 
d="M20 -198c-49 0 -77 28 -77 71c0 53 45 96 83 127l108 693h53l-109 -692c-42 -36 -88 -78 -88 -123c0 -25 16 -39 41 -39c14 0 25 3 33 5l-5 -33c-8 -4 -23 -9 -39 -9z" />
    <glyph glyph-name="Itilde" unicode="&#x128;" horiz-adv-x="182" 
d="M25 0l109 693h52l-109 -693h-52zM56 742c6 52 37 79 72 79c42 0 63 -35 94 -35c18 0 31 11 36 36h35c-7 -51 -37 -78 -72 -78c-41 0 -63 34 -93 34c-19 0 -32 -11 -37 -36h-35z" />
    <glyph glyph-name="Jcircumflex" unicode="&#x134;" horiz-adv-x="307" 
d="M192 732l95 104h44l63 -104h-41l-47 66l-70 -66h-44zM80 -6c-44 0 -76 10 -96 23l7 41c22 -10 48 -18 85 -18c61 0 94 35 104 109l85 544h52l-85 -549c-15 -99 -61 -150 -152 -150z" />
    <glyph glyph-name="Kcommaaccent" unicode="&#x136;" horiz-adv-x="456" 
d="M142 -167l31 125h53l-45 -125h-39zM344 0l-184 356l280 337h60l-283 -337l183 -356h-56zM24 0l109 693h52l-109 -693h-52z" />
    <glyph glyph-name="Lacute" unicode="&#x139;" horiz-adv-x="388" 
d="M140 734l65 114h57l-77 -114h-45zM24 0l108 693h52l-101 -648h256l-8 -45h-307z" />
    <glyph glyph-name="Lcaron" unicode="&#x13d;" horiz-adv-x="388" 
d="M25 0l108 693h52l-101 -648h259l-7 -45h-311zM245 546l33 147h50l-46 -147h-37z" />
    <glyph glyph-name="Lcommaaccent" unicode="&#x13b;" horiz-adv-x="389" 
d="M118 -167l31 125h53l-45 -125h-39zM24 0l108 693h52l-101 -648h256l-8 -45h-307z" />
    <glyph glyph-name="Ldot" unicode="&#x13f;" horiz-adv-x="388" 
d="M290 317l11 71h58l-11 -71h-58zM20 0l108 693h52l-101 -648h256l-8 -45h-307z" />
    <glyph glyph-name="Nacute" unicode="&#x143;" horiz-adv-x="525" 
d="M315 734l65 114h57l-77 -114h-45zM24 0l108 693h67l146 -472c19 -62 42 -141 42 -141h2s9 74 18 132l75 481h48l-108 -693h-59l-153 489c-20 64 -41 140 -41 140h-1s-9 -79 -20 -149l-75 -480h-49z" />
    <glyph glyph-name="Ncaron" unicode="&#x147;" horiz-adv-x="525" 
d="M461 836l-95 -104h-43l-64 104h41l48 -66l69 66h44zM24 0l108 693h67l146 -472c19 -62 42 -141 42 -141h2s9 74 18 132l75 481h48l-108 -693h-59l-153 489c-20 64 -41 140 -41 140h-1s-9 -79 -20 -149l-75 -480h-49z" />
    <glyph glyph-name="Ncommaaccent" unicode="&#x145;" horiz-adv-x="526" 
d="M164 -167l31 125h53l-45 -125h-39zM24 0l108 693h67l146 -472c19 -62 42 -141 42 -141h2s9 74 18 132l75 481h48l-108 -693h-59l-153 489c-20 64 -41 140 -41 140h-1s-9 -79 -20 -149l-75 -480h-49z" />
    <glyph glyph-name="Nacute.pl" horiz-adv-x="526" 
d="M320 734l50 114h54l-62 -114h-42zM24 0l108 693h67l146 -472c19 -62 42 -141 42 -141h2s9 74 18 132l75 481h48l-108 -693h-59l-153 489c-20 64 -41 140 -41 140h-1s-9 -79 -20 -149l-75 -480h-49z" />
    <glyph glyph-name="Obreve" unicode="&#x14e;" horiz-adv-x="551" 
d="M350 732c-62 0 -97 39 -93 99h39c0 -37 19 -59 56 -59s60 21 73 59h38c-12 -59 -54 -99 -113 -99zM245 -9c-127 0 -202 88 -202 236c0 36 4 82 12 132c29 175 112 343 279 343c127 0 203 -89 203 -235c0 -38 -5 -83 -12 -136c-32 -186 -121 -340 -280 -340zM246 35
c123 0 195 128 223 302c8 51 13 94 13 132c0 113 -47 190 -148 190c-127 0 -197 -141 -224 -305c-8 -50 -12 -93 -12 -129c0 -117 47 -190 148 -190z" />
    <glyph glyph-name="Ohungarumlaut" unicode="&#x150;" horiz-adv-x="551" 
d="M374 734l51 113h54l-63 -113h-42zM261 734l51 113h54l-63 -113h-42zM245 -9c-127 0 -202 88 -202 236c0 36 4 82 12 132c29 175 112 343 279 343c127 0 203 -89 203 -235c0 -38 -5 -83 -12 -136c-32 -186 -121 -340 -280 -340zM246 35c123 0 195 128 223 302
c8 51 13 94 13 132c0 113 -47 190 -148 190c-127 0 -197 -141 -224 -305c-8 -50 -12 -93 -12 -129c0 -117 47 -190 148 -190z" />
    <glyph glyph-name="Omacron" unicode="&#x14c;" horiz-adv-x="551" 
d="M253 745l7 43h188l-6 -43h-189zM245 -9c-127 0 -202 88 -202 236c0 36 4 82 12 132c29 175 112 343 279 343c127 0 203 -89 203 -235c0 -38 -5 -83 -12 -136c-32 -186 -121 -340 -280 -340zM246 35c123 0 195 128 223 302c8 51 13 94 13 132c0 113 -47 190 -148 190
c-127 0 -197 -141 -224 -305c-8 -50 -12 -93 -12 -129c0 -117 47 -190 148 -190z" />
    <glyph glyph-name="Oacute.pl" horiz-adv-x="551" 
d="M321 734l50 114h54l-62 -114h-42zM245 -9c-127 0 -202 88 -202 236c0 36 4 82 12 132c29 175 112 343 279 343c127 0 203 -89 203 -235c0 -38 -5 -83 -12 -136c-32 -186 -121 -340 -280 -340zM246 35c123 0 195 128 223 302c8 51 13 94 13 132c0 113 -47 190 -148 190
c-127 0 -197 -141 -224 -305c-8 -50 -12 -93 -12 -129c0 -117 47 -190 148 -190z" />
    <glyph glyph-name="Oslashacute" unicode="&#x1fe;" horiz-adv-x="551" 
d="M245 -9c-67 0 -119 26 -153 70l-46 -61h-49l73 97c-17 36 -26 80 -26 130c0 38 4 86 13 139c34 207 130 336 279 336c62 0 111 -23 146 -62l40 53h50l-66 -87c21 -38 32 -85 32 -139c0 -39 -4 -88 -14 -144c-36 -218 -137 -332 -279 -332zM247 35c109 1 192 94 224 295
c8 58 13 99 13 139c0 34 -5 64 -13 91l-348 -458c24 -43 65 -67 124 -67zM98 226c0 -30 3 -57 9 -81l345 455c-24 37 -63 59 -116 59c-115 0 -195 -104 -225 -296c-8 -55 -13 -100 -13 -137zM306 734l65 114h57l-77 -114h-45z" />
    <glyph glyph-name="Racute" unicode="&#x154;" horiz-adv-x="455" 
d="M259 734l65 114h57l-77 -114h-45zM24 0l109 693h142c116 0 170 -66 170 -161c0 -30 -5 -63 -15 -93c-23 -68 -74 -105 -139 -119v-4l113 -316h-55l-110 309h-115l-48 -309h-52zM132 353h98c78 0 127 36 147 95c9 25 13 55 13 82c0 75 -39 118 -120 118h-92z" />
    <glyph glyph-name="Rcaron" unicode="&#x158;" horiz-adv-x="455" 
d="M401 836l-95 -104h-43l-64 104h41l48 -66l69 66h44zM24 0l109 693h142c116 0 170 -66 170 -161c0 -30 -5 -63 -15 -93c-23 -68 -74 -105 -139 -119v-4l113 -316h-55l-110 309h-115l-48 -309h-52zM132 353h98c78 0 127 36 147 95c9 25 13 55 13 82c0 75 -39 118 -120 118
h-92z" />
    <glyph glyph-name="Rcommaaccent" unicode="&#x156;" horiz-adv-x="455" 
d="M143 -167l31 125h53l-45 -125h-39zM24 0l109 693h142c116 0 170 -66 170 -161c0 -30 -5 -63 -15 -93c-23 -68 -74 -105 -139 -119v-4l113 -316h-55l-110 309h-115l-48 -309h-52zM132 353h98c78 0 127 36 147 95c9 25 13 55 13 82c0 75 -39 118 -120 118h-92z" />
    <glyph glyph-name="Sacute" unicode="&#x15a;" horiz-adv-x="410" 
d="M161 -9c-85 0 -135 32 -164 54l7 46c36 -27 84 -55 157 -55c79 0 125 41 141 109c3 18 6 37 6 52c0 60 -34 96 -85 129l-39 25c-70 45 -104 91 -104 166c0 20 3 45 13 72c23 69 83 113 172 113c79 0 115 -25 139 -43l-7 -44c-28 20 -68 42 -133 42
c-62 0 -103 -26 -121 -76c-9 -23 -11 -45 -11 -63c0 -55 26 -87 80 -121l38 -25c64 -43 110 -85 110 -172c0 -15 -2 -41 -7 -63c-20 -83 -78 -146 -192 -146zM243 734l65 114h57l-77 -114h-45z" />
    <glyph glyph-name="Scedilla" unicode="&#x15e;" horiz-adv-x="410" 
d="M113 -5c-54 8 -93 32 -116 50l7 46c36 -27 84 -55 157 -55c79 0 125 41 141 109c3 18 6 37 6 52c0 60 -34 96 -85 129l-39 25c-70 45 -104 91 -104 166c0 20 3 45 13 72c23 69 83 113 172 113c79 0 115 -25 139 -43l-7 -44c-28 20 -68 42 -133 42
c-62 0 -103 -26 -121 -76c-9 -23 -11 -45 -11 -63c0 -55 26 -87 80 -121l38 -25c64 -43 110 -85 110 -172c0 -15 -2 -41 -7 -63c-20 -83 -78 -146 -192 -146h-13l-6 -43c40 -4 72 -24 72 -66c0 -55 -46 -88 -148 -92l5 36c68 4 98 20 98 52c0 25 -22 38 -68 39z" />
    <glyph glyph-name="Scircumflex" unicode="&#x15c;" horiz-adv-x="410" 
d="M168 732l95 104h44l63 -104h-41l-47 66l-70 -66h-44zM161 -9c-85 0 -135 32 -164 54l7 46c36 -27 84 -55 157 -55c79 0 125 41 141 109c3 18 6 37 6 52c0 60 -34 96 -85 129l-39 25c-70 45 -104 91 -104 166c0 20 3 45 13 72c23 69 83 113 172 113c79 0 115 -25 139 -43
l-7 -44c-28 20 -68 42 -133 42c-62 0 -103 -26 -121 -76c-9 -23 -11 -45 -11 -63c0 -55 26 -87 80 -121l38 -25c64 -43 110 -85 110 -172c0 -15 -2 -41 -7 -63c-20 -83 -78 -146 -192 -146z" />
    <glyph glyph-name="Scommaaccent" unicode="&#x218;" horiz-adv-x="410" 
d="M97 -167l31 125h53l-45 -125h-39zM161 -9c-85 0 -135 32 -164 54l7 46c36 -27 84 -55 157 -55c79 0 125 41 141 109c3 18 6 37 6 52c0 60 -34 96 -85 129l-39 25c-70 45 -104 91 -104 166c0 20 3 45 13 72c23 69 83 113 172 113c79 0 115 -25 139 -43l-7 -44
c-28 20 -68 42 -133 42c-62 0 -103 -26 -121 -76c-9 -23 -11 -45 -11 -63c0 -55 26 -87 80 -121l38 -25c64 -43 110 -85 110 -172c0 -15 -2 -41 -7 -63c-20 -83 -78 -146 -192 -146z" />
    <glyph glyph-name="Sacute.pl" horiz-adv-x="410" 
d="M161 -9c-85 0 -135 32 -164 54l7 46c36 -27 84 -55 157 -55c79 0 125 41 141 109c3 18 6 37 6 52c0 60 -34 96 -85 129l-39 25c-70 45 -104 91 -104 166c0 20 3 45 13 72c23 69 83 113 172 113c79 0 115 -25 139 -43l-7 -44c-28 20 -68 42 -133 42
c-62 0 -103 -26 -121 -76c-9 -23 -11 -45 -11 -63c0 -55 26 -87 80 -121l38 -25c64 -43 110 -85 110 -172c0 -15 -2 -41 -7 -63c-20 -83 -78 -146 -192 -146zM246 734l50 114h54l-62 -114h-42z" />
    <glyph glyph-name="Tcaron" unicode="&#x164;" horiz-adv-x="428" 
d="M400 836l-95 -104h-43l-64 104h41l48 -66l69 66h44zM146 0l102 648h-171l6 45h394l-6 -45h-171l-101 -648h-53z" />
    <glyph glyph-name="Tcommaaccent" unicode="&#x162;" horiz-adv-x="428" 
d="M109 -167l31 125h53l-45 -125h-39zM146 0l102 648h-171l6 45h394l-6 -45h-171l-101 -648h-53z" />
    <glyph glyph-name="uni021A" unicode="&#x21a;" horiz-adv-x="428" 
d="M109 -167l31 125h53l-45 -125h-39zM146 0l102 648h-171l6 45h394l-6 -45h-171l-101 -648h-53z" />
    <glyph glyph-name="Tbar" unicode="&#x166;" horiz-adv-x="428" 
d="M83 383l7 39h117l36 226h-171l6 45h394l-6 -45h-171l-35 -226h121l-6 -39h-121l-60 -383h-53l60 383h-118z" />
    <glyph glyph-name="Ubreve" unicode="&#x16c;" horiz-adv-x="518" 
d="M234 -9c-120 0 -183 64 -183 171c0 19 1 39 5 59l73 472h52l-74 -473c-3 -20 -4 -39 -4 -57c0 -86 47 -129 132 -129c99 0 147 62 166 181l75 478h51l-76 -483c-21 -133 -85 -219 -217 -219zM335 732c-62 0 -97 39 -93 99h39c0 -37 19 -59 56 -59s60 21 73 59h38
c-12 -59 -54 -99 -113 -99z" />
    <glyph glyph-name="Uhungarumlaut" unicode="&#x170;" horiz-adv-x="518" 
d="M362 734l51 113h54l-63 -113h-42zM249 734l51 113h54l-63 -113h-42zM234 -9c-120 0 -183 64 -183 171c0 19 1 39 5 59l73 472h52l-74 -473c-3 -20 -4 -39 -4 -57c0 -86 47 -129 132 -129c99 0 147 62 166 181l75 478h51l-76 -483c-21 -133 -85 -219 -217 -219z" />
    <glyph glyph-name="Umacron" unicode="&#x16a;" horiz-adv-x="518" 
d="M234 -9c-120 0 -183 64 -183 171c0 19 1 39 5 59l73 472h52l-74 -473c-3 -20 -4 -39 -4 -57c0 -86 47 -129 132 -129c99 0 147 62 166 181l75 478h51l-76 -483c-21 -133 -85 -219 -217 -219zM238 745l7 43h188l-6 -43h-189z" />
    <glyph glyph-name="Uogonek" unicode="&#x172;" horiz-adv-x="518" 
d="M226 -198c-51 0 -79 29 -79 71c0 49 43 91 86 118h-4c-119 1 -179 66 -179 170c0 19 2 40 5 60l73 472h52l-73 -473c-3 -20 -5 -40 -5 -58c0 -86 47 -128 133 -128c99 0 147 62 165 181l76 478h50l-75 -483c-20 -121 -71 -176 -140 -208c-68 -32 -117 -77 -117 -123
c0 -25 16 -40 42 -40c15 0 26 3 34 5l-6 -33c-7 -4 -23 -9 -38 -9z" />
    <glyph glyph-name="Uring" unicode="&#x16e;" horiz-adv-x="518" 
d="M234 -9c-120 0 -183 64 -183 171c0 19 1 39 5 59l73 472h52l-74 -473c-3 -20 -4 -39 -4 -57c0 -86 47 -129 132 -129c99 0 147 62 166 181l75 478h51l-76 -483c-21 -133 -85 -219 -217 -219zM293 785c0 -24 15 -44 41 -44c27 0 46 23 46 52c0 23 -17 42 -41 42
c-27 0 -46 -21 -46 -50zM416 793c0 -48 -36 -86 -83 -86c-45 0 -77 33 -77 78c0 46 35 84 83 84c46 0 77 -33 77 -76z" />
    <glyph glyph-name="Utilde" unicode="&#x168;" horiz-adv-x="518" 
d="M234 -9c-120 0 -183 64 -183 171c0 19 1 39 5 59l73 472h52l-74 -473c-3 -20 -4 -39 -4 -57c0 -86 47 -129 132 -129c99 0 147 62 166 181l75 478h51l-76 -483c-21 -133 -85 -219 -217 -219zM222 742c6 52 37 79 72 79c42 0 63 -35 94 -35c18 0 31 11 36 36h35
c-7 -51 -37 -78 -72 -78c-41 0 -63 34 -93 34c-19 0 -32 -11 -37 -36h-35z" />
    <glyph glyph-name="Wacute" unicode="&#x1e82;" horiz-adv-x="700" 
d="M398 734l65 114h57l-77 -114h-45zM118 0l-30 693h52l17 -467c1 -36 5 -148 5 -148h2s42 108 53 144l178 471h54l28 -472c2 -48 9 -144 9 -144h1s33 92 49 142l167 474h50l-249 -693h-58l-29 455c-4 58 -8 152 -8 152h-2s-33 -95 -54 -151l-174 -456h-61z" />
    <glyph glyph-name="Wcircumflex" unicode="&#x174;" horiz-adv-x="700" 
d="M322 732l95 104h44l63 -104h-41l-47 66l-70 -66h-44zM118 0l-30 693h52l17 -467c1 -36 5 -148 5 -148h2s42 108 53 144l178 471h54l28 -472c2 -48 9 -144 9 -144h1s33 92 49 142l167 474h50l-249 -693h-58l-29 455c-4 58 -8 152 -8 152h-2s-33 -95 -54 -151l-174 -456
h-61z" />
    <glyph glyph-name="Wdieresis" unicode="&#x1e84;" horiz-adv-x="700" 
d="M464 741l10 60h52l-9 -60h-53zM337 741l10 60h52l-10 -60h-52zM118 0l-30 693h52l17 -467c1 -36 5 -148 5 -148h2s42 108 53 144l178 471h54l28 -472c2 -48 9 -144 9 -144h1s33 92 49 142l167 474h50l-249 -693h-58l-29 455c-4 58 -8 152 -8 152h-2s-33 -95 -54 -151
l-174 -456h-61z" />
    <glyph glyph-name="Wgrave" unicode="&#x1e80;" horiz-adv-x="700" 
d="M403 734l-47 114h53l36 -114h-42zM118 0l-30 693h52l17 -467c1 -36 5 -148 5 -148h2s42 108 53 144l178 471h54l28 -472c2 -48 9 -144 9 -144h1s33 92 49 142l167 474h50l-249 -693h-58l-29 455c-4 58 -8 152 -8 152h-2s-33 -95 -54 -151l-174 -456h-61z" />
    <glyph glyph-name="Ycircumflex" unicode="&#x176;" horiz-adv-x="429" 
d="M150 0l45 282l-115 411h53l69 -252c10 -45 27 -103 27 -103h1s34 55 58 101l149 254h53l-243 -410l-44 -283h-53zM189 732l95 104h44l63 -104h-41l-47 66l-70 -66h-44z" />
    <glyph glyph-name="Ygrave" unicode="&#x1ef2;" horiz-adv-x="429" 
d="M150 0l45 282l-115 411h53l69 -252c10 -45 27 -103 27 -103h1s34 55 58 101l149 254h53l-243 -410l-44 -283h-53zM271 734l-47 114h53l36 -114h-42z" />
    <glyph glyph-name="Zacute" unicode="&#x179;" horiz-adv-x="427" 
d="M264 734l65 114h57l-77 -114h-45zM-11 0l6 40l401 606v2h-290l7 45h352l-6 -40l-403 -606v-2h310l-7 -45h-370z" />
    <glyph glyph-name="Zacute.pl" horiz-adv-x="435" 
d="M-11 0l6 40l401 606v2h-290l7 45h352l-6 -40l-403 -606v-2h310l-7 -45h-370zM257 735l50 114h54l-62 -114h-42z" />
    <glyph glyph-name="Zdotaccent" unicode="&#x17b;" horiz-adv-x="427" 
d="M-11 0l6 40l401 606v2h-290l7 45h352l-6 -40l-403 -606v-2h310l-7 -45h-370zM260 743l10 61h52l-10 -61h-52z" />
    <glyph glyph-name="abreve" unicode="&#x103;" horiz-adv-x="408" 
d="M149 -7c-79 0 -130 52 -130 157c0 53 10 118 27 171c41 126 128 193 231 193c52 0 91 -9 117 -21l-78 -493h-41l3 51h-2c-26 -27 -72 -58 -127 -58zM160 34c51 0 96 29 121 55l58 374c-16 6 -36 11 -65 11c-82 0 -145 -57 -179 -164c-15 -48 -24 -106 -24 -160
c0 -79 33 -116 89 -116zM278 586c-64 0 -100 43 -94 104h39c-2 -40 17 -64 57 -64c38 0 63 22 73 64h38c-9 -63 -53 -104 -113 -104z" />
    <glyph glyph-name="amacron" unicode="&#x101;" horiz-adv-x="408" 
d="M149 -7c-79 0 -130 52 -130 157c0 53 10 118 27 171c41 126 128 193 231 193c52 0 91 -9 117 -21l-78 -493h-41l3 51h-2c-26 -27 -72 -58 -127 -58zM160 34c51 0 96 29 121 55l58 374c-16 6 -36 11 -65 11c-82 0 -145 -57 -179 -164c-15 -48 -24 -106 -24 -160
c0 -79 33 -116 89 -116zM170 620l7 43h187l-6 -43h-188z" />
    <glyph glyph-name="aogonek" unicode="&#x105;" horiz-adv-x="408" 
d="M259 -198c-50 0 -78 28 -78 70c0 54 52 102 94 130l3 49h-2c-26 -27 -72 -58 -127 -58c-79 0 -130 52 -130 157c0 53 10 118 27 171c40 126 127 193 231 193c52 0 91 -9 117 -21l-77 -493c-42 -36 -89 -77 -89 -122c0 -24 15 -39 42 -39c14 0 26 3 33 5l-5 -33
c-7 -4 -23 -9 -39 -9zM160 34c51 0 96 29 121 55l58 374c-16 6 -36 11 -65 11c-82 0 -145 -57 -179 -164c-15 -48 -24 -106 -24 -160c0 -79 33 -116 89 -116z" />
    <glyph glyph-name="aringacute" unicode="&#x1fb;" horiz-adv-x="408" 
d="M149 -7c-79 0 -130 52 -130 157c0 53 10 118 27 171c41 126 128 193 231 193c52 0 91 -9 117 -21l-78 -493h-41l3 51h-2c-26 -27 -72 -58 -127 -58zM160 34c51 0 96 29 121 55l58 374c-16 6 -36 11 -65 11c-82 0 -145 -57 -179 -164c-15 -48 -24 -106 -24 -160
c0 -79 33 -116 89 -116zM270 574c-45 0 -77 33 -77 78c0 46 35 84 83 84c46 0 77 -33 77 -76c0 -48 -36 -86 -83 -86zM271 608c27 0 46 23 46 52c0 23 -17 42 -41 42c-27 0 -46 -21 -46 -50c0 -24 15 -44 41 -44zM255 768l65 114h57l-77 -114h-45z" />
    <glyph glyph-name="aeacute" unicode="&#x1fd;" horiz-adv-x="639" 
d="M346 586l78 131h57l-89 -131h-46zM432 -7c-68 0 -118 25 -145 74c-33 -37 -80 -74 -150 -74c-88 0 -128 54 -127 126c0 27 4 51 14 73c20 47 68 77 143 86l110 12l11 69c2 15 3 25 3 34c0 52 -28 78 -90 78c-45 0 -80 -9 -110 -20l6 38c34 16 74 25 118 25
c73 0 113 -30 120 -87c32 53 80 87 148 87c87 0 134 -52 134 -148c0 -27 -3 -60 -8 -91c-1 -8 -3 -20 -5 -28h-283c-3 -27 -5 -53 -5 -75c0 -94 42 -137 122 -137c54 0 100 19 133 37l-7 -42c-28 -19 -76 -37 -132 -37zM265 170c0 23 2 49 6 80l-96 -10
c-54 -7 -86 -25 -102 -58c-8 -17 -11 -38 -11 -61c0 -57 29 -88 84 -88c52 0 95 27 129 62c-7 21 -10 46 -10 75zM343 343c-6 -18 -11 -36 -15 -54h232c5 28 8 53 8 77c0 68 -30 108 -88 108c-70 0 -112 -55 -137 -131z" />
    <glyph glyph-name="cacute" unicode="&#x107;" horiz-adv-x="352" 
d="M224 586l78 131h57l-89 -131h-46zM180 -7c-102 0 -158 66 -158 178c0 63 16 166 56 236s101 107 180 107c49 0 80 -14 100 -28l-6 -42c-23 15 -53 28 -97 28c-58 0 -103 -28 -134 -84c-33 -61 -48 -151 -48 -217c0 -89 41 -136 114 -136c54 0 91 19 117 35l-7 -42
c-27 -19 -64 -35 -117 -35z" />
    <glyph glyph-name="ccaron" unicode="&#x10d;" horiz-adv-x="352" 
d="M229 585l-63 122h40l50 -83l76 83h43l-102 -122h-44zM180 -7c-102 0 -158 66 -158 178c0 63 16 166 56 236s101 107 180 107c49 0 80 -14 100 -28l-6 -42c-23 15 -53 28 -97 28c-58 0 -103 -28 -134 -84c-33 -61 -48 -151 -48 -217c0 -89 41 -136 114 -136
c54 0 91 19 117 35l-7 -42c-27 -19 -64 -35 -117 -35z" />
    <glyph glyph-name="ccircumflex" unicode="&#x109;" horiz-adv-x="352" 
d="M143 586l102 122h44l64 -122h-40l-51 83l-76 -83h-43zM180 -7c-102 0 -158 66 -158 178c0 63 16 166 56 236s101 107 180 107c49 0 80 -14 100 -28l-6 -42c-23 15 -53 28 -97 28c-58 0 -103 -28 -134 -84c-33 -61 -48 -151 -48 -217c0 -89 41 -136 114 -136
c54 0 91 19 117 35l-7 -42c-27 -19 -64 -35 -117 -35z" />
    <glyph glyph-name="cdotaccent" unicode="&#x10b;" horiz-adv-x="352" 
d="M180 -7c-102 0 -158 66 -158 178c0 63 16 166 56 236s101 107 180 107c49 0 80 -14 100 -28l-6 -42c-23 15 -53 28 -97 28c-58 0 -103 -28 -134 -84c-33 -61 -48 -151 -48 -217c0 -89 41 -136 114 -136c54 0 91 19 117 35l-7 -42c-27 -19 -64 -35 -117 -35zM228 614
l10 62h51l-9 -62h-52z" />
    <glyph glyph-name="cacute.pl" horiz-adv-x="352" 
d="M180 -7c-102 0 -158 66 -158 178c0 63 16 166 56 236s101 107 180 107c49 0 80 -14 100 -28l-6 -42c-23 15 -53 28 -97 28c-58 0 -103 -28 -134 -84c-33 -61 -48 -151 -48 -217c0 -89 41 -136 114 -136c54 0 91 19 117 35l-7 -42c-27 -19 -64 -35 -117 -35zM228 586
l59 130h54l-70 -130h-43z" />
    <glyph glyph-name="dcaron" unicode="&#x10f;" horiz-adv-x="421" 
d="M496 598h-37l30 135h49zM157 -7c-82 0 -137 51 -137 157c0 31 4 67 11 111c27 161 109 253 221 253c50 0 81 -16 102 -30l38 250h50c-7 -53 -107 -681 -114 -734h-42l2 49h-2c-29 -29 -73 -56 -129 -56zM169 34c51 0 94 26 123 51l55 358c-22 16 -54 29 -92 29
c-91 0 -149 -75 -174 -216c-7 -43 -8 -75 -8 -104c0 -81 33 -118 96 -118z" />
    <glyph glyph-name="ebreve" unicode="&#x115;" horiz-adv-x="389" 
d="M188 -7c-107 0 -167 61 -167 178c0 67 16 176 57 246c37 64 91 97 161 97c86 0 134 -52 134 -148c0 -26 -3 -58 -9 -97l-4 -24h-283c-3 -27 -5 -52 -5 -73c0 -93 42 -137 122 -137c53 0 100 19 133 37l-7 -42c-28 -19 -76 -37 -132 -37zM120 397
c-16 -31 -28 -71 -36 -110h232c5 27 8 55 8 78c0 71 -30 109 -89 109c-50 0 -88 -26 -115 -77zM253 586c-64 0 -100 43 -94 104h39c-2 -40 17 -64 57 -64c38 0 63 22 73 64h38c-9 -63 -53 -104 -113 -104z" />
    <glyph glyph-name="ecaron" unicode="&#x11b;" horiz-adv-x="389" 
d="M224 585l-63 122h40l50 -83l76 83h43l-102 -122h-44zM188 -7c-107 0 -167 61 -167 178c0 67 16 176 57 246c37 64 91 97 161 97c86 0 134 -52 134 -148c0 -26 -3 -58 -9 -97l-4 -24h-283c-3 -27 -5 -52 -5 -73c0 -93 42 -137 122 -137c53 0 100 19 133 37l-7 -42
c-28 -19 -76 -37 -132 -37zM120 397c-16 -31 -28 -71 -36 -110h232c5 27 8 55 8 78c0 71 -30 109 -89 109c-50 0 -88 -26 -115 -77z" />
    <glyph glyph-name="edotaccent" unicode="&#x117;" horiz-adv-x="389" 
d="M188 -7c-107 0 -167 61 -167 178c0 67 16 176 57 246c37 64 91 97 161 97c86 0 134 -52 134 -148c0 -26 -3 -58 -9 -97l-4 -24h-283c-3 -27 -5 -52 -5 -73c0 -93 42 -137 122 -137c53 0 100 19 133 37l-7 -42c-28 -19 -76 -37 -132 -37zM120 397
c-16 -31 -28 -71 -36 -110h232c5 27 8 55 8 78c0 71 -30 109 -89 109c-50 0 -88 -26 -115 -77zM225 614l10 62h51l-9 -62h-52z" />
    <glyph glyph-name="emacron" unicode="&#x113;" horiz-adv-x="389" 
d="M188 -7c-107 0 -167 61 -167 178c0 67 16 176 57 246c37 64 91 97 161 97c86 0 134 -52 134 -148c0 -26 -3 -58 -9 -97l-4 -24h-283c-3 -27 -5 -52 -5 -73c0 -93 42 -137 122 -137c53 0 100 19 133 37l-7 -42c-28 -19 -76 -37 -132 -37zM120 397
c-16 -31 -28 -71 -36 -110h232c5 27 8 55 8 78c0 71 -30 109 -89 109c-50 0 -88 -26 -115 -77zM156 620l7 43h187l-6 -43h-188z" />
    <glyph glyph-name="eogonek" unicode="&#x119;" horiz-adv-x="389" 
d="M21 171c0 67 16 176 57 246c37 64 91 97 161 97c86 0 134 -52 134 -148c0 -27 -3 -55 -9 -96l-4 -25h-283c-3 -27 -5 -52 -5 -73c0 -93 42 -137 122 -137c53 0 100 19 133 37l-7 -42c-14 -10 -34 -18 -59 -33c-44 -27 -91 -74 -91 -118c0 -25 16 -40 43 -40
c14 0 25 3 33 6l-5 -33c-8 -4 -24 -9 -39 -9c-50 0 -78 28 -78 70c0 52 45 96 83 121c-5 -1 -12 -1 -19 -1c-107 0 -167 61 -167 178zM120 397c-16 -31 -28 -71 -36 -110h232c5 27 8 55 8 78c0 71 -30 109 -89 109c-50 0 -88 -26 -115 -77z" />
    <glyph glyph-name="gbreve" unicode="&#x11f;" horiz-adv-x="421" 
d="M123 -197c-60 0 -111 16 -139 35l6 38c27 -13 76 -32 131 -32c91 0 139 36 153 131l14 87h-3c-25 -27 -72 -55 -130 -55c-80 0 -132 51 -132 155c0 30 3 69 10 105c24 136 104 247 237 247c57 0 101 -10 134 -27l-80 -516c-19 -121 -91 -168 -201 -168zM167 48
c51 0 97 25 127 54l55 356c-18 9 -46 16 -79 16c-107 0 -164 -91 -186 -213c-6 -32 -10 -67 -10 -96c0 -82 34 -117 93 -117zM273 586c-64 0 -100 43 -94 104h39c-2 -40 17 -64 57 -64c38 0 63 22 73 64h38c-9 -63 -53 -104 -113 -104z" />
    <glyph glyph-name="gcircumflex" unicode="&#x11d;" horiz-adv-x="421" 
d="M163 586l102 122h44l64 -122h-40l-51 83l-76 -83h-43zM123 -197c-60 0 -111 16 -139 35l6 38c27 -13 76 -32 131 -32c91 0 139 36 153 131l14 87h-3c-25 -27 -72 -55 -130 -55c-80 0 -132 51 -132 155c0 30 3 69 10 105c24 136 104 247 237 247c57 0 101 -10 134 -27
l-80 -516c-19 -121 -91 -168 -201 -168zM167 48c51 0 97 25 127 54l55 356c-18 9 -46 16 -79 16c-107 0 -164 -91 -186 -213c-6 -32 -10 -67 -10 -96c0 -82 34 -117 93 -117z" />
    <glyph glyph-name="gcommaaccent" unicode="&#x123;" horiz-adv-x="421" 
d="M123 -197c-60 0 -111 16 -139 35l6 38c27 -13 76 -32 131 -32c91 0 139 36 153 131l14 87h-3c-25 -27 -72 -55 -130 -55c-80 0 -132 51 -132 155c0 30 3 69 10 105c24 136 104 247 237 247c57 0 101 -10 134 -27l-80 -516c-19 -121 -91 -168 -201 -168zM167 48
c51 0 97 25 127 54l55 356c-18 9 -46 16 -79 16c-107 0 -164 -91 -186 -213c-6 -32 -10 -67 -10 -96c0 -82 34 -117 93 -117z" />
    <glyph glyph-name="gdotaccent" unicode="&#x121;" horiz-adv-x="421" 
d="M123 -197c-60 0 -111 16 -139 35l6 38c27 -13 76 -32 131 -32c91 0 139 36 153 131l14 87h-3c-25 -27 -72 -55 -130 -55c-80 0 -132 51 -132 155c0 30 3 69 10 105c24 136 104 247 237 247c57 0 101 -10 134 -27l-80 -516c-19 -121 -91 -168 -201 -168zM167 48
c51 0 97 25 127 54l55 356c-18 9 -46 16 -79 16c-107 0 -164 -91 -186 -213c-6 -32 -10 -67 -10 -96c0 -82 34 -117 93 -117zM245 614l10 62h51l-9 -62h-52z" />
    <glyph glyph-name="hbar" unicode="&#x127;" horiz-adv-x="428" 
d="M54 598l5 37h55l16 99h50l-16 -99h122l-6 -37h-121l-22 -141h2c42 32 95 57 153 57c73 0 103 -39 103 -99c0 -12 -2 -23 -3 -34l-59 -381h-51l59 378c2 10 3 22 3 31c0 40 -18 63 -69 63c-52 0 -102 -23 -145 -52l-65 -420h-51l94 598h-54z" />
    <glyph glyph-name="hcircumflex" unicode="&#x125;" horiz-adv-x="424" 
d="M14 0l116 734h50l-43 -277h2c42 32 95 57 153 57c73 0 103 -39 103 -99c0 -12 -2 -23 -3 -34l-59 -381h-51l59 378c2 10 3 22 3 31c0 40 -18 63 -69 63c-52 0 -102 -23 -145 -52l-65 -420h-51zM185 778l95 104h44l63 -104h-41l-47 66l-70 -66h-44z" />
    <glyph glyph-name="ibreve" unicode="&#x12d;" horiz-adv-x="159" 
d="M138 590c-63 0 -95 42 -90 103h39c-2 -39 15 -63 52 -63c34 0 58 24 65 63h38c-7 -62 -47 -103 -104 -103zM16 0l80 507h49l-78 -507h-51z" />
    <glyph glyph-name="imacron" unicode="&#x12b;" horiz-adv-x="159" 
d="M65 620l7 43h145l-7 -43h-145zM16 0l80 507h49l-78 -507h-51z" />
    <glyph glyph-name="iogonek" unicode="&#x12f;" horiz-adv-x="159" 
d="M-67 -128c0 53 44 98 83 128l80 507h49l-79 -507c-43 -36 -87 -76 -87 -122c0 -24 15 -39 42 -39c13 0 24 3 32 5l-6 -33c-7 -4 -23 -9 -38 -9c-49 0 -76 28 -76 70zM111 615l10 62h52l-10 -62h-52z" />
    <glyph glyph-name="itilde" unicode="&#x129;" horiz-adv-x="159" 
d="M29 604c9 51 36 77 69 77c39 0 57 -34 84 -34c18 0 27 11 33 36h35c-9 -53 -36 -79 -69 -79c-39 0 -57 36 -84 36c-17 0 -27 -12 -33 -36h-35zM16 0l80 507h49l-78 -507h-51z" />
    <glyph glyph-name="idotaccent" horiz-adv-x="159" 
d="M21 0l80 507h49l-79 -507h-50zM116 615l10 62h52l-10 -62h-52z" />
    <glyph glyph-name="jcircumflex" unicode="&#x135;" horiz-adv-x="161" 
d="M37 586l93 123h43l55 -123h-40l-42 81l-66 -81h-43zM-64 -195c-25 0 -47 7 -59 15l6 36c13 -5 27 -8 45 -8c48 0 70 23 79 87l90 572h50l-90 -579c-13 -83 -49 -123 -121 -123z" />
    <glyph glyph-name="kcommaaccent" unicode="&#x137;" horiz-adv-x="368" 
d="M99 -167l31 125h53l-45 -125h-39zM14 0l115 734h51l-115 -734h-51zM263 0l-135 268l203 238l56 1l-205 -240l135 -267h-54z" />
    <glyph glyph-name="lacute" unicode="&#x13a;" horiz-adv-x="160" 
d="M143 780l65 114h57l-77 -114h-45zM16 0l115 734h50c-7 -53 -108 -681 -115 -734h-50z" />
    <glyph glyph-name="lcaron" unicode="&#x13e;" horiz-adv-x="160" 
d="M237 598h-37l30 135h49zM16 0l115 734h50c-7 -53 -108 -681 -115 -734h-50z" />
    <glyph glyph-name="lcommaaccent" unicode="&#x13c;" horiz-adv-x="160" 
d="M-22 -167l31 125h53l-45 -125h-39zM16 0l115 734h50c-7 -53 -108 -681 -115 -734h-50z" />
    <glyph glyph-name="ldot" unicode="&#x140;" horiz-adv-x="199" 
d="M168 328l11 67h52l-11 -67h-52zM21 0l115 734h50c-7 -53 -108 -681 -115 -734h-50z" />
    <glyph glyph-name="nacute" unicode="&#x144;" 
d="M233 586l78 131h57l-89 -131h-46zM14 0l80 507h48l-8 -51h2c44 33 98 58 156 58c73 0 103 -38 103 -100c0 -9 -1 -20 -3 -33l-59 -381h-51l59 378c2 10 3 21 3 30c0 40 -19 64 -69 64c-53 0 -102 -23 -145 -52l-65 -420h-51z" />
    <glyph glyph-name="napostrophe" unicode="&#x149;" horiz-adv-x="433" 
d="M15 535l40 158h55l-53 -158h-42zM18 0l80 507h48l-8 -51h2c44 33 98 58 156 58c73 0 103 -38 103 -100c0 -9 -1 -20 -3 -33l-59 -381h-51l59 378c2 10 3 21 3 30c0 40 -19 64 -69 64c-53 0 -102 -23 -145 -52l-65 -420h-51z" />
    <glyph glyph-name="ncaron" unicode="&#x148;" 
d="M236 585l-63 122h40l50 -83l76 83h43l-102 -122h-44zM14 0l80 507h48l-8 -51h2c44 33 98 58 156 58c73 0 103 -38 103 -100c0 -9 -1 -20 -3 -33l-59 -381h-51l59 378c2 10 3 21 3 30c0 40 -19 64 -69 64c-53 0 -102 -23 -145 -52l-65 -420h-51z" />
    <glyph glyph-name="ncommaaccent" unicode="&#x146;" 
d="M114 -167l31 125h53l-45 -125h-39zM14 0l80 507h48l-8 -51h2c44 33 98 58 156 58c73 0 103 -38 103 -100c0 -9 -1 -20 -3 -33l-59 -381h-51l59 378c2 10 3 21 3 30c0 40 -19 64 -69 64c-53 0 -102 -23 -145 -52l-65 -420h-51z" />
    <glyph glyph-name="nacute.pl" 
d="M234 586l59 130h54l-70 -130h-43zM14 0l80 507h48l-8 -51h2c44 33 98 58 156 58c73 0 103 -38 103 -100c0 -9 -1 -20 -3 -33l-59 -381h-51l59 378c2 10 3 21 3 30c0 40 -19 64 -69 64c-53 0 -102 -23 -145 -52l-65 -420h-51z" />
    <glyph glyph-name="obreve" unicode="&#x14f;" horiz-adv-x="418" 
d="M176 -7c-100 0 -155 64 -155 177c0 27 3 63 9 104c27 153 102 240 213 240c98 0 154 -64 154 -175c0 -29 -2 -64 -9 -106c-26 -153 -102 -240 -212 -240zM177 33c84 0 141 74 161 207c7 45 9 76 9 99c0 91 -40 135 -106 135c-82 0 -140 -75 -161 -208
c-6 -41 -9 -71 -9 -95c0 -91 40 -138 106 -138zM264 586c-64 0 -100 43 -94 104h39c-2 -40 17 -64 57 -64c38 0 63 22 73 64h38c-9 -63 -53 -104 -113 -104z" />
    <glyph glyph-name="ohungarumlaut" unicode="&#x151;" horiz-adv-x="418" 
d="M292 586l59 130h53l-70 -130h-42zM178 586l60 130h53l-70 -130h-43zM176 -7c-100 0 -155 64 -155 177c0 27 3 63 9 104c27 153 102 240 213 240c98 0 154 -64 154 -175c0 -29 -2 -64 -9 -106c-26 -153 -102 -240 -212 -240zM177 33c84 0 141 74 161 207c7 45 9 76 9 99
c0 91 -40 135 -106 135c-82 0 -140 -75 -161 -208c-6 -41 -9 -71 -9 -95c0 -91 40 -138 106 -138z" />
    <glyph glyph-name="omacron" unicode="&#x14d;" horiz-adv-x="418" 
d="M171 620l7 43h187l-6 -43h-188zM176 -7c-100 0 -155 64 -155 177c0 27 3 63 9 104c27 153 102 240 213 240c98 0 154 -64 154 -175c0 -29 -2 -64 -9 -106c-26 -153 -102 -240 -212 -240zM177 33c84 0 141 74 161 207c7 45 9 76 9 99c0 91 -40 135 -106 135
c-82 0 -140 -75 -161 -208c-6 -41 -9 -71 -9 -95c0 -91 40 -138 106 -138z" />
    <glyph glyph-name="oacute.pl" horiz-adv-x="419" 
d="M230 586l59 130h54l-70 -130h-43zM176 -7c-100 0 -155 64 -155 177c0 27 3 63 9 104c27 153 102 240 213 240c98 0 154 -64 154 -175c0 -29 -2 -64 -9 -106c-26 -153 -102 -240 -212 -240zM177 33c84 0 141 74 161 207c7 45 9 76 9 99c0 91 -40 135 -106 135
c-82 0 -140 -75 -161 -208c-6 -41 -9 -71 -9 -95c0 -91 40 -138 106 -138z" />
    <glyph glyph-name="oslashacute" unicode="&#x1ff;" horiz-adv-x="418" 
d="M180 -7c-49 0 -88 17 -115 48l-32 -41h-46l57 73c-13 26 -19 59 -19 98c0 26 2 61 9 101c25 154 102 242 213 242c46 0 84 -16 111 -45l30 38h46l-54 -68c14 -27 22 -61 22 -100c0 -29 -3 -64 -9 -105c-26 -154 -102 -241 -213 -241zM181 33c84 0 141 74 163 207
c6 45 8 76 8 98s-2 41 -7 57l-250 -317c18 -30 47 -45 86 -45zM74 171c0 -20 2 -38 5 -54l250 316c-18 27 -47 41 -84 41c-83 0 -141 -75 -162 -208c-6 -41 -9 -71 -9 -95zM226 586l78 131h57l-89 -131h-46z" />
    <glyph glyph-name="racute" unicode="&#x155;" horiz-adv-x="264" 
d="M175 586l78 131h57l-89 -131h-46zM14 0l80 507h48l-9 -60h2c33 36 75 67 126 67c12 0 23 -2 26 -4l-7 -47c-7 2 -20 3 -28 3c-48 0 -86 -22 -123 -53l-64 -413h-51z" />
    <glyph glyph-name="rcaron" unicode="&#x159;" horiz-adv-x="264" 
d="M178 585l-63 122h40l50 -83l76 83h43l-102 -122h-44zM14 0l80 507h48l-9 -60h2c33 36 75 67 126 67c12 0 23 -2 26 -4l-7 -47c-7 2 -20 3 -28 3c-48 0 -86 -22 -123 -53l-64 -413h-51z" />
    <glyph glyph-name="rcommaaccent" unicode="&#x157;" horiz-adv-x="264" 
d="M-23 -167l31 125h53l-45 -125h-39zM14 0l80 507h48l-9 -60h2c33 36 75 67 126 67c12 0 23 -2 26 -4l-7 -47c-7 2 -20 3 -28 3c-48 0 -86 -22 -123 -53l-64 -413h-51z" />
    <glyph glyph-name="sacute" unicode="&#x15b;" horiz-adv-x="326" 
d="M177 586l78 131h57l-89 -131h-46zM120 -7c-64 0 -104 20 -129 38l7 42c26 -17 62 -38 121 -38c63 0 97 31 107 72c3 11 4 22 4 33c0 44 -19 67 -62 91l-43 25c-44 25 -77 60 -77 119c0 17 3 36 7 50c19 55 67 89 142 89c60 0 92 -17 113 -33l-8 -42
c-23 16 -56 33 -106 33c-48 0 -80 -19 -93 -54c-5 -13 -7 -25 -7 -38c0 -38 19 -62 57 -83l43 -24c55 -32 84 -63 84 -129c0 -15 -2 -30 -5 -45c-16 -60 -65 -106 -155 -106z" />
    <glyph glyph-name="scedilla" unicode="&#x15f;" horiz-adv-x="326" 
d="M77 -4c-40 7 -67 21 -86 35l7 42c26 -17 62 -38 121 -38c63 0 97 31 107 72c3 11 4 22 4 33c0 44 -19 67 -62 91l-43 25c-44 25 -77 60 -77 119c0 17 3 36 7 50c19 55 67 89 142 89c60 0 92 -17 113 -33l-8 -42c-23 16 -56 33 -106 33c-48 0 -80 -19 -93 -54
c-5 -13 -7 -25 -7 -38c0 -38 19 -62 57 -83l43 -24c55 -32 84 -63 84 -129c0 -15 -2 -30 -5 -45c-16 -60 -65 -106 -155 -106h-8l-7 -45c40 -4 72 -24 72 -66c0 -55 -46 -88 -148 -92l5 36c68 4 98 20 98 52c0 25 -22 38 -68 39z" />
    <glyph glyph-name="scircumflex" unicode="&#x15d;" horiz-adv-x="326" 
d="M102 586l102 122h44l64 -122h-40l-51 83l-76 -83h-43zM120 -7c-64 0 -104 20 -129 38l7 42c26 -17 62 -38 121 -38c63 0 97 31 107 72c3 11 4 22 4 33c0 44 -19 67 -62 91l-43 25c-44 25 -77 60 -77 119c0 17 3 36 7 50c19 55 67 89 142 89c60 0 92 -17 113 -33l-8 -42
c-23 16 -56 33 -106 33c-48 0 -80 -19 -93 -54c-5 -13 -7 -25 -7 -38c0 -38 19 -62 57 -83l43 -24c55 -32 84 -63 84 -129c0 -15 -2 -30 -5 -45c-16 -60 -65 -106 -155 -106z" />
    <glyph glyph-name="scommaaccent" unicode="&#x219;" horiz-adv-x="326" 
d="M54 -167l31 125h53l-45 -125h-39zM120 -7c-64 0 -104 20 -129 38l7 42c26 -17 62 -38 121 -38c63 0 97 31 107 72c3 11 4 22 4 33c0 44 -19 67 -62 91l-43 25c-44 25 -77 60 -77 119c0 17 3 36 7 50c19 55 67 89 142 89c60 0 92 -17 113 -33l-8 -42
c-23 16 -56 33 -106 33c-48 0 -80 -19 -93 -54c-5 -13 -7 -25 -7 -38c0 -38 19 -62 57 -83l43 -24c55 -32 84 -63 84 -129c0 -15 -2 -30 -5 -45c-16 -60 -65 -106 -155 -106z" />
    <glyph glyph-name="sacute.pl" horiz-adv-x="326" 
d="M120 -7c-64 0 -104 20 -129 38l7 42c26 -17 62 -38 121 -38c63 0 97 31 107 72c3 11 4 22 4 33c0 44 -19 67 -62 91l-43 25c-44 25 -77 60 -77 119c0 17 3 36 7 50c19 55 67 89 142 89c60 0 92 -17 113 -33l-8 -42c-23 16 -56 33 -106 33c-48 0 -80 -19 -93 -54
c-5 -13 -7 -25 -7 -38c0 -38 19 -62 57 -83l43 -24c55 -32 84 -63 84 -129c0 -15 -2 -30 -5 -45c-16 -60 -65 -106 -155 -106zM182 586l59 130h54l-70 -130h-43z" />
    <glyph glyph-name="tbar" unicode="&#x167;" horiz-adv-x="267" 
d="M24 316l6 38h61l18 111h-62l7 42h62l19 121h51l-20 -121h111l-6 -42h-111l-18 -111h111l-6 -38h-111l-31 -197c-8 -53 5 -83 54 -83c20 0 40 5 56 10l-6 -36c-12 -7 -36 -16 -65 -16c-73 0 -102 48 -90 122l31 200h-61z" />
    <glyph glyph-name="tcaron" unicode="&#x165;" horiz-adv-x="267" 
d="M272 598h-37l30 135h49zM144 -6c-73 0 -102 48 -90 122l55 349h-62l7 42h62l19 121h51l-20 -121h111l-6 -42h-111l-55 -346c-8 -53 5 -83 54 -83c20 0 40 5 56 10l-6 -36c-12 -7 -36 -16 -65 -16z" />
    <glyph glyph-name="tcommaaccent" unicode="&#x163;" horiz-adv-x="267" 
d="M58 -167l31 125h53l-45 -125h-39zM144 -6c-73 0 -102 48 -90 122l55 349h-62l7 42h62l19 121h51l-20 -121h111l-6 -42h-111l-55 -346c-8 -53 5 -83 54 -83c20 0 40 5 56 10l-6 -36c-12 -7 -36 -16 -65 -16z" />
    <glyph glyph-name="uni021B" unicode="&#x21b;" horiz-adv-x="267" 
d="M58 -167l31 125h53l-45 -125h-39zM144 -6c-73 0 -102 48 -90 122l55 349h-62l7 42h62l19 121h51l-20 -121h111l-6 -42h-111l-55 -346c-8 -53 5 -83 54 -83c20 0 40 5 56 10l-6 -36c-12 -7 -36 -16 -65 -16z" />
    <glyph glyph-name="ubreve" unicode="&#x16d;" horiz-adv-x="420" 
d="M135 -7c-69 0 -104 38 -104 101c0 10 1 23 3 35l58 378h51l-59 -374c-1 -13 -2 -24 -2 -34c0 -41 20 -64 66 -64c52 0 99 24 143 52l65 420h51l-80 -507h-42l2 51h-2c-44 -33 -91 -58 -150 -58zM260 586c-64 0 -100 43 -94 104h39c-2 -40 17 -64 57 -64c38 0 63 22 73 64
h38c-9 -63 -53 -104 -113 -104z" />
    <glyph glyph-name="uhungarumlaut" unicode="&#x171;" horiz-adv-x="420" 
d="M135 -7c-69 0 -104 38 -104 101c0 10 1 23 3 35l58 378h51l-59 -374c-1 -13 -2 -24 -2 -34c0 -41 20 -64 66 -64c52 0 99 24 143 52l65 420h51l-80 -507h-42l2 51h-2c-44 -33 -91 -58 -150 -58zM292 586l59 130h53l-70 -130h-42zM178 586l60 130h53l-70 -130h-43z" />
    <glyph glyph-name="umacron" unicode="&#x16b;" horiz-adv-x="420" 
d="M135 -7c-69 0 -104 38 -104 101c0 10 1 23 3 35l58 378h51l-59 -374c-1 -13 -2 -24 -2 -34c0 -41 20 -64 66 -64c52 0 99 24 143 52l65 420h51l-80 -507h-42l2 51h-2c-44 -33 -91 -58 -150 -58zM169 620l7 43h187l-6 -43h-188z" />
    <glyph glyph-name="uogonek" unicode="&#x173;" horiz-adv-x="420" 
d="M135 -7c-69 0 -104 38 -104 101c0 10 1 23 3 35l58 378h51l-59 -374c-1 -13 -2 -24 -2 -34c0 -41 20 -64 66 -64c52 0 99 24 143 52l65 420h51l-80 -507c-42 -36 -89 -76 -89 -122c0 -24 16 -39 43 -39c14 0 25 3 33 5l-6 -33c-7 -4 -23 -9 -38 -9c-50 0 -78 28 -78 71
c0 54 51 101 93 129l2 49h-2c-44 -33 -91 -58 -150 -58z" />
    <glyph glyph-name="uring" unicode="&#x16f;" horiz-adv-x="420" 
d="M265 574c-45 0 -77 33 -77 78c0 46 35 84 83 84c46 0 77 -33 77 -76c0 -48 -36 -86 -83 -86zM266 608c27 0 46 23 46 52c0 23 -17 42 -41 42c-27 0 -46 -21 -46 -50c0 -24 15 -44 41 -44zM135 -7c-69 0 -104 38 -104 101c0 10 1 23 3 35l58 378h51l-59 -374
c-1 -13 -2 -24 -2 -34c0 -41 20 -64 66 -64c52 0 99 24 143 52l65 420h51l-80 -507h-42l2 51h-2c-44 -33 -91 -58 -150 -58z" />
    <glyph glyph-name="utilde" unicode="&#x169;" horiz-adv-x="420" 
d="M135 -7c-69 0 -104 38 -104 101c0 10 1 23 3 35l58 378h51l-59 -374c-1 -13 -2 -24 -2 -34c0 -41 20 -64 66 -64c52 0 99 24 143 52l65 420h51l-80 -507h-42l2 51h-2c-44 -33 -91 -58 -150 -58zM149 603c6 52 35 80 72 80c41 0 63 -38 93 -38c19 0 32 13 36 39h36
c-8 -52 -37 -81 -72 -81c-41 0 -64 38 -93 38c-19 0 -32 -13 -37 -38h-35z" />
    <glyph glyph-name="wacute" unicode="&#x1e83;" horiz-adv-x="592" 
d="M320 586l78 131h57l-89 -131h-46zM91 0l-35 507h51l20 -334c1 -38 4 -103 4 -103h2s25 62 40 101l140 336h49l21 -336c2 -38 6 -101 6 -101h2s26 64 40 101l135 336h49l-210 -507h-55l-23 324c-2 34 -5 97 -5 97h-3s-24 -61 -38 -96l-136 -325h-54z" />
    <glyph glyph-name="wcircumflex" unicode="&#x175;" horiz-adv-x="592" 
d="M238 586l102 122h44l64 -122h-40l-51 83l-76 -83h-43zM91 0l-35 507h51l20 -334c1 -38 4 -103 4 -103h2s25 62 40 101l140 336h49l21 -336c2 -38 6 -101 6 -101h2s26 64 40 101l135 336h49l-210 -507h-55l-23 324c-2 34 -5 97 -5 97h-3s-24 -61 -38 -96l-136 -325h-54z
" />
    <glyph glyph-name="wdieresis" unicode="&#x1e85;" horiz-adv-x="592" 
d="M389 612l10 60h52l-10 -60h-52zM259 612l10 60h51l-10 -60h-51zM91 0l-35 507h51l20 -334c1 -38 4 -103 4 -103h2s25 62 40 101l140 336h49l21 -336c2 -38 6 -101 6 -101h2s26 64 40 101l135 336h49l-210 -507h-55l-23 324c-2 34 -5 97 -5 97h-3s-24 -61 -38 -96
l-136 -325h-54z" />
    <glyph glyph-name="wgrave" unicode="&#x1e81;" horiz-adv-x="592" 
d="M91 0l-35 507h51l20 -334c1 -38 4 -103 4 -103h2s25 62 40 101l140 336h49l21 -336c2 -38 6 -101 6 -101h2s26 64 40 101l135 336h49l-210 -507h-55l-23 324c-2 34 -5 97 -5 97h-3s-24 -61 -38 -96l-136 -325h-54zM321 586l-56 131h53l45 -131h-42z" />
    <glyph glyph-name="ycircumflex" unicode="&#x177;" horiz-adv-x="383" 
d="M-1 -196c-22 0 -39 6 -50 13l5 37c12 -5 26 -8 41 -8c44 0 67 22 96 82l36 80l-78 499h52l50 -342c3 -28 11 -85 11 -85h2s25 57 34 78l159 349h51l-272 -587c-37 -80 -72 -116 -137 -116zM132 586l102 122h44l64 -122h-40l-51 83l-76 -83h-43z" />
    <glyph glyph-name="ygrave" unicode="&#x1ef3;" horiz-adv-x="383" 
d="M-1 -196c-22 0 -39 6 -50 13l5 37c12 -5 26 -8 41 -8c44 0 67 22 96 82l36 80l-78 499h52l50 -342c3 -28 11 -85 11 -85h2s25 57 34 78l159 349h51l-272 -587c-37 -80 -72 -116 -137 -116zM216 586l-56 131h53l45 -131h-42z" />
    <glyph glyph-name="zacute" unicode="&#x17a;" horiz-adv-x="351" 
d="M191 586l78 131h57l-89 -131h-46zM-13 0l6 38l303 425v2h-229l7 42h290l-6 -36l-305 -426v-3h239l-7 -42h-298z" />
    <glyph glyph-name="zacute.pl" horiz-adv-x="359" 
d="M-13 0l6 38l303 425v2h-229l7 42h290l-6 -36l-305 -426v-3h239l-7 -42h-298zM195 586l59 130h54l-70 -130h-43z" />
    <glyph glyph-name="zdotaccent" unicode="&#x17c;" horiz-adv-x="351" 
d="M-13 0l6 38l303 425v2h-229l7 42h290l-6 -36l-305 -426v-3h239l-7 -42h-298zM199 614l10 62h51l-9 -62h-52z" />
    <glyph glyph-name="oneeighth" unicode="&#x215b;" horiz-adv-x="672" 
d="M488 -6c-73 0 -121 37 -121 98c0 59 47 95 101 117c-34 25 -56 55 -56 94c0 57 43 108 118 108c66 0 107 -35 107 -93c0 -49 -38 -86 -86 -108c42 -29 66 -57 66 -102c0 -67 -51 -114 -129 -114zM489 31c54 0 84 30 84 73c0 38 -26 58 -76 87c-43 -19 -86 -46 -86 -96
c0 -39 30 -64 78 -64zM522 227c38 20 72 45 72 89c0 34 -22 58 -65 58s-72 -28 -72 -67c0 -35 24 -56 65 -80zM123 290l56 357l-78 -15l5 30l102 35h24l-63 -407h-46zM37 -40l497 753h43l-498 -753h-42z" />
    <glyph glyph-name="onethird" unicode="&#x2153;" horiz-adv-x="660" 
d="M461 -6c-40 0 -72 12 -89 24l6 36c19 -11 47 -22 79 -22c61 0 96 37 96 98c0 44 -28 65 -73 65h-27l6 36h27c47 0 83 27 83 84c0 38 -23 58 -64 58c-26 0 -47 -4 -67 -13l5 36c19 9 44 16 75 16c64 0 99 -35 99 -93c0 -57 -36 -94 -79 -104v-1c36 -8 63 -35 63 -82
c0 -83 -55 -138 -140 -138zM120 290l56 357l-78 -15l5 30l102 35h24l-63 -407h-46zM40 -40l497 753h43l-498 -753h-42z" />
    <glyph glyph-name="threeeighths" unicode="&#x215c;" horiz-adv-x="700" 
d="M516 -6c-73 0 -121 37 -121 98c0 59 47 95 101 117c-34 25 -56 55 -56 94c0 57 43 108 118 108c66 0 107 -35 107 -93c0 -49 -38 -86 -86 -108c42 -29 66 -57 66 -102c0 -67 -51 -114 -129 -114zM517 31c54 0 84 30 84 73c0 38 -26 58 -76 87c-43 -19 -86 -46 -86 -96
c0 -39 30 -64 78 -64zM550 227c38 20 72 45 72 89c0 34 -22 58 -65 58s-72 -28 -72 -67c0 -35 24 -56 65 -80zM72 -40l497 753h43l-498 -753h-42zM115 283c-41 0 -72 12 -88 24l5 36c19 -11 46 -21 80 -21c59 0 95 36 95 96c0 45 -29 65 -74 65h-26l7 37h25
c48 0 84 27 84 83c0 38 -23 59 -64 59c-27 0 -48 -5 -68 -13l5 36c20 9 45 15 76 15c63 0 99 -34 99 -92c0 -57 -36 -94 -79 -104v-2c35 -8 63 -35 63 -81c0 -83 -55 -138 -140 -138z" />
    <glyph glyph-name="fiveeighths" unicode="&#x215d;" horiz-adv-x="695" 
d="M511 -6c-73 0 -121 37 -121 98c0 59 47 95 101 117c-34 25 -56 55 -56 94c0 57 43 108 118 108c66 0 107 -35 107 -93c0 -49 -38 -86 -86 -108c42 -29 66 -57 66 -102c0 -67 -51 -114 -129 -114zM512 31c54 0 84 30 84 73c0 38 -26 58 -76 87c-43 -19 -86 -46 -86 -96
c0 -39 30 -64 78 -64zM545 227c38 20 72 45 72 89c0 34 -22 58 -65 58s-72 -28 -72 -67c0 -35 24 -56 65 -80zM118 284c-39 0 -70 12 -86 24l6 34c19 -11 46 -20 79 -20c69 0 100 48 100 109c0 45 -22 72 -76 72c-25 0 -45 -3 -64 -8l39 199h175l-6 -39h-138l-24 -122
c12 4 25 6 38 6c68 0 103 -41 103 -106c0 -84 -53 -149 -146 -149zM67 -40l497 753h43l-498 -753h-42z" />
    <glyph glyph-name="twothirds" unicode="&#x2154;" horiz-adv-x="712" 
d="M513 -6c-40 0 -72 12 -89 24l6 36c19 -11 47 -22 79 -22c61 0 96 37 96 98c0 44 -28 65 -73 65h-27l6 36h27c47 0 83 27 83 84c0 38 -23 58 -64 58c-26 0 -47 -4 -67 -13l5 36c19 9 44 16 75 16c64 0 99 -35 99 -93c0 -57 -36 -94 -79 -104v-1c36 -8 63 -35 63 -82
c0 -83 -55 -138 -140 -138zM43 289l5 30l108 115c58 59 95 99 95 163c0 40 -21 66 -66 66c-29 0 -56 -9 -78 -21l6 36c20 12 46 22 83 22c70 0 104 -41 104 -102c0 -68 -41 -114 -104 -176l-90 -93v-2h159l-6 -38h-216zM101 -40l497 753h43l-498 -753h-42z" />
    <glyph glyph-name="seveneighths" unicode="&#x215e;" horiz-adv-x="672" 
d="M488 -6c-73 0 -121 37 -121 98c0 59 47 95 101 117c-34 25 -56 55 -56 94c0 57 43 108 118 108c66 0 107 -35 107 -93c0 -49 -38 -86 -86 -108c42 -29 66 -57 66 -102c0 -67 -51 -114 -129 -114zM489 31c54 0 84 30 84 73c0 38 -26 58 -76 87c-43 -19 -86 -46 -86 -96
c0 -39 30 -64 78 -64zM522 227c38 20 72 45 72 89c0 34 -22 58 -65 58s-72 -28 -72 -67c0 -35 24 -56 65 -80zM74 290l178 363v2h-166l7 39h213l-5 -33l-180 -371h-47zM33 -40l497 753h43l-498 -753h-42z" />
    <glyph glyph-name="uni24C5" unicode="&#x24c5;" horiz-adv-x="668" 
d="M341 -10c-175 0 -296 133 -296 355s121 355 296 355c176 0 297 -133 297 -355c0 -220 -122 -355 -297 -355zM341 22c157 0 260 119 260 323c0 205 -104 324 -260 324c-157 0 -260 -119 -260 -324c0 -204 104 -323 260 -323zM248 161v376h103c83 0 118 -40 118 -115
s-39 -118 -114 -118h-62v-143h-45zM293 341h56c53 0 74 29 74 81c0 53 -22 78 -77 78h-53v-159z" />
    <glyph glyph-name="dollar.old" horiz-adv-x="381" 
d="M72 -94l22 89c-49 8 -85 28 -104 44l7 43c26 -19 61 -39 108 -46l72 281l-8 5c-64 37 -102 82 -102 153c0 17 2 42 10 65c24 70 88 106 171 106h12l17 65h36l-18 -69c45 -7 72 -23 88 -35l-7 -43c-18 13 -49 31 -91 38l-64 -253l9 -5c64 -36 110 -78 110 -157
c0 -16 -2 -39 -7 -60c-20 -82 -86 -136 -189 -136h-15l-21 -85h-36zM289 185c0 55 -33 87 -81 114l-68 -266h4c73 0 122 33 138 99c5 17 7 37 7 53zM116 477c0 -51 27 -81 74 -109l60 237h-2c-61 0 -105 -24 -123 -75c-6 -17 -9 -38 -9 -53z" />
    <glyph glyph-name="Euro.old" horiz-adv-x="437" 
d="M39 363l6 41h61c7 26 15 53 25 78c45 124 125 166 212 166c57 0 93 -16 114 -31l-7 -42c-27 15 -59 29 -109 29c-67 0 -124 -31 -161 -135c-8 -21 -15 -43 -21 -65h175l-7 -41h-178c-7 -32 -12 -64 -15 -94h178l-6 -41h-175c-1 -13 -1 -26 -1 -38
c0 -109 45 -156 129 -156c51 0 92 17 122 33l-6 -42c-26 -17 -70 -34 -121 -34c-106 0 -176 61 -176 200c0 11 0 24 1 37h-61l6 41h58c3 30 8 62 15 94h-58z" />
    <glyph glyph-name="sterling.old" horiz-adv-x="398" 
d="M44 298l7 43h64l19 119c21 135 94 187 185 187c47 0 81 -14 97 -25l-6 -39c-20 9 -47 20 -90 20c-69 0 -118 -38 -135 -145l-19 -117h149l-8 -43h-147l-14 -89c-14 -93 -40 -134 -87 -164v-2h280l-7 -43h-340l6 38c54 29 81 67 96 171l14 89h-64z" />
    <glyph glyph-name="yen.old" horiz-adv-x="400" 
d="M136 0l22 143h-126l7 41h126l13 84h-127l7 42h113l-93 329h52l44 -162c13 -58 39 -147 39 -147h1s54 87 84 146l95 163h52l-195 -329h110l-7 -42h-125l-12 -84h125l-6 -41h-126l-22 -143h-51z" />
    <glyph glyph-name="zero.old" horiz-adv-x="475" 
d="M206 -9c-115 0 -170 79 -170 198c0 28 4 71 12 117c29 167 103 291 237 291c116 0 168 -84 168 -197c0 -29 -6 -75 -13 -113c-31 -196 -112 -296 -234 -296zM208 34c101 0 154 98 181 253c7 41 12 85 12 114c0 88 -33 154 -118 154c-114 0 -161 -131 -182 -249
c-9 -50 -13 -89 -13 -117c0 -92 34 -155 120 -155z" />
    <glyph glyph-name="one.old" horiz-adv-x="251" 
d="M80 0l83 530l-108 -21l5 32l143 52h21l-93 -593h-51z" />
    <glyph glyph-name="two.old" horiz-adv-x="372" 
d="M-21 0l5 38l159 152c106 101 164 163 164 257c0 64 -37 107 -106 107c-52 0 -92 -14 -123 -30l7 39c26 16 67 34 122 34c99 0 152 -60 152 -147c0 -105 -68 -178 -184 -285l-127 -120v-2h257l-7 -43h-319z" />
    <glyph glyph-name="three.old" horiz-adv-x="396" 
d="M109 -107c-64 0 -109 20 -135 38l6 40c35 -20 71 -35 128 -35c79 0 133 37 157 102c10 24 15 53 15 82c0 82 -47 122 -135 122h-42l7 43h46c64 0 115 30 137 86c9 22 13 46 13 71c0 71 -33 116 -109 116c-45 0 -83 -12 -115 -27l7 41c29 16 72 28 116 28
c108 1 154 -66 154 -154c0 -30 -6 -58 -16 -84c-22 -52 -66 -84 -117 -96v-2c55 -12 105 -56 105 -143c0 -32 -5 -67 -16 -97c-33 -83 -105 -131 -206 -131z" />
    <glyph glyph-name="four.old" horiz-adv-x="442" 
d="M232 -99l29 183h-270l6 39l349 469h44l-72 -464h90l-6 -44h-91l-29 -183h-50zM53 128h214l57 363h-2l-269 -361v-2z" />
    <glyph glyph-name="five.old" horiz-adv-x="397" 
d="M110 -108c-55 0 -103 18 -130 38l7 40c35 -21 75 -34 122 -34c82 0 132 38 157 101c13 31 19 68 19 105c0 84 -40 130 -131 130c-41 0 -77 -7 -101 -13l61 332h272l-7 -44h-227l-46 -241c15 4 44 9 71 9c106 0 161 -63 161 -172c0 -39 -7 -79 -22 -116
c-29 -76 -93 -135 -206 -135z" />
    <glyph glyph-name="six.old" horiz-adv-x="444" 
d="M211 -9c-113 0 -169 82 -169 211c0 33 3 76 12 132c30 192 104 368 290 368c57 0 92 -15 111 -28l-6 -40c-21 12 -54 24 -106 24c-119 0 -195 -89 -233 -300c36 31 88 57 147 57c101 0 155 -64 155 -167c0 -53 -13 -111 -38 -157c-34 -60 -89 -100 -163 -100zM211 33
c53 0 93 30 118 75c20 40 31 91 31 137c0 82 -40 127 -115 127c-60 0 -105 -23 -141 -52c-7 -39 -11 -80 -11 -120c0 -99 33 -167 118 -167z" />
    <glyph glyph-name="seven.old" horiz-adv-x="372" 
d="M25 -102l318 646v3h-279l7 44h332l-8 -42l-317 -651h-53z" />
    <glyph glyph-name="eight.old" horiz-adv-x="443" 
d="M202 -10c-113 0 -185 68 -185 166c0 104 83 169 175 208c-61 42 -100 92 -100 162c0 97 66 176 181 176c105 0 162 -65 161 -153c0 -82 -61 -145 -149 -187c69 -47 117 -96 117 -180c0 -108 -76 -192 -200 -192zM204 33c94 0 146 61 146 147c0 68 -42 111 -127 164
c-81 -37 -153 -92 -153 -186c0 -75 50 -125 134 -125zM254 381c74 39 128 90 128 164c0 66 -37 114 -111 114c-80 0 -126 -55 -127 -129c0 -63 34 -100 110 -149z" />
    <glyph glyph-name="nine.old" horiz-adv-x="443" 
d="M115 -110c-53 0 -94 15 -115 29l7 39c25 -13 57 -25 108 -25c73 0 130 34 171 106c29 52 49 119 63 196c-32 -30 -87 -58 -148 -58c-102 0 -157 65 -157 168c0 128 74 256 203 256c116 0 169 -83 169 -216c0 -28 -3 -72 -9 -118c-13 -86 -37 -177 -71 -239
c-47 -88 -117 -138 -221 -138zM211 221c62 0 110 24 144 52c3 21 6 46 8 70c1 16 1 33 1 43c0 87 -25 172 -117 172c-76 0 -125 -66 -143 -143c-5 -23 -7 -45 -7 -69c0 -80 39 -125 114 -125z" />
    <glyph glyph-name="percent.old" horiz-adv-x="663" 
d="M169 300c-65 0 -107 46 -107 121c0 22 2 45 6 68c15 76 56 145 138 145c69 0 109 -46 109 -120c0 -21 -2 -44 -7 -66c-14 -82 -58 -148 -139 -148zM171 338c47 0 79 39 92 111c4 24 7 47 7 67c0 51 -25 80 -64 80c-49 0 -80 -38 -93 -109c-4 -24 -6 -50 -6 -68
c0 -52 23 -81 64 -81zM131 -30h-46l457 674h47zM475 -7c-66 0 -108 46 -108 120c0 23 2 46 7 69c15 76 55 144 138 144c68 0 108 -46 107 -119c0 -24 -2 -47 -6 -70c-15 -80 -59 -145 -138 -144zM476 30c48 0 79 38 92 111c4 24 6 46 6 68c0 50 -23 80 -63 80
c-49 0 -80 -39 -92 -111c-4 -23 -6 -48 -6 -67c0 -52 23 -81 63 -81z" />
    <glyph glyph-name="perthousand.old" horiz-adv-x="954" 
d="M766 -7c-66 0 -108 46 -108 120c0 21 2 44 7 69c15 76 55 144 138 144c68 0 108 -46 107 -119c0 -24 -2 -47 -6 -70c-15 -80 -59 -145 -138 -144zM767 30c48 0 79 38 92 111c4 24 6 46 6 68c0 50 -23 80 -63 80c-49 0 -80 -39 -92 -111c-4 -24 -6 -48 -6 -67
c0 -52 23 -81 63 -81zM476 30c48 0 79 38 92 111c4 24 6 46 6 68c0 50 -23 80 -63 80c-49 0 -80 -39 -92 -111c-4 -23 -6 -48 -6 -67c0 -52 23 -81 63 -81zM169 300c-65 0 -107 46 -107 121c0 22 2 45 6 68c15 76 56 145 138 145c69 0 109 -46 109 -120c0 -21 -2 -44 -7 -66
c-14 -82 -58 -148 -139 -148zM475 -7c-66 0 -108 46 -108 120c0 23 2 46 7 69c15 76 55 144 138 144c68 0 108 -46 107 -119c0 -24 -2 -47 -6 -70c-15 -80 -59 -145 -138 -144zM171 338c47 0 79 39 92 111c4 24 7 47 7 67c0 51 -25 80 -64 80c-49 0 -80 -38 -93 -109
c-4 -24 -6 -50 -6 -68c0 -52 23 -81 64 -81zM131 -30h-46l457 674h47z" />
    <glyph glyph-name="plus.old" horiz-adv-x="413" 
d="M161 124l26 155h-143l8 44h141l24 153h48l-25 -153h142l-8 -44h-141l-24 -155h-48z" />
    <glyph glyph-name="minus.old" horiz-adv-x="410" 
d="M44 277l8 46h327l-8 -46h-327z" />
    <glyph glyph-name="multiply.old" horiz-adv-x="419" 
d="M66 127l-27 32l145 130l-102 129l35 31l102 -129l144 129l27 -33l-144 -129l102 -129l-34 -31l-103 129z" />
    <glyph glyph-name="divide.old" horiz-adv-x="416" 
d="M46 276l7 46h330l-7 -46h-330zM158 133l12 70h57l-11 -70h-58zM200 391l11 71h58l-12 -71h-57z" />
    <glyph glyph-name="equal.old" horiz-adv-x="427" 
d="M62 343l7 45h329l-6 -45h-330zM37 186l7 44h329l-6 -44h-330z" />
    <glyph glyph-name="less.old" horiz-adv-x="388" 
d="M315 98l-275 166l6 42l328 165l-9 -54l-270 -133l228 -135z" />
    <glyph glyph-name="greater.old" horiz-adv-x="388" 
d="M22 97l9 55l270 133l-228 135l8 51l275 -166l-6 -42z" />
    <glyph glyph-name="numbersign.old" horiz-adv-x="413" 
d="M68 403l7 43h73l47 195h41l-47 -195h112l48 195h41l-48 -195h70l-7 -43h-73l-35 -146h71l-7 -43h-74l-51 -214h-41l51 214h-113l-51 -214h-41l51 214h-68l7 43h72l34 146h-69zM179 403l-35 -146h113l34 146h-112z" />
    <glyph glyph-name="zero.num" horiz-adv-x="330" 
d="M174 284c-76 0 -118 47 -118 132c0 25 3 57 11 101c18 108 67 183 158 183c76 0 117 -49 117 -128c0 -24 -4 -56 -11 -99c-20 -119 -70 -189 -157 -189zM175 322c62 0 91 58 108 152c8 49 11 75 11 98c0 57 -21 91 -71 91c-63 0 -92 -60 -108 -148
c-8 -47 -12 -74 -12 -100c0 -59 21 -93 72 -93z" />
    <glyph glyph-name="one.num" horiz-adv-x="191" 
d="M89 290l56 357l-78 -15l5 30l102 35h24l-63 -407h-46z" />
    <glyph glyph-name="two.num" horiz-adv-x="277" 
d="M31 289l5 30l108 115c58 59 95 99 95 163c0 40 -21 66 -66 66c-29 0 -56 -9 -78 -21l6 36c20 12 46 22 83 22c70 0 104 -41 104 -102c0 -68 -41 -114 -104 -176l-90 -93v-2h159l-6 -38h-216z" />
    <glyph glyph-name="three.num" horiz-adv-x="262" 
d="M112 283c-41 0 -72 12 -88 24l5 36c19 -11 46 -21 80 -21c59 0 95 36 95 96c0 45 -29 65 -74 65h-26l7 37h25c48 0 84 27 84 83c0 38 -23 59 -64 59c-27 0 -48 -5 -68 -13l5 36c20 9 45 15 76 15c63 0 99 -34 99 -92c0 -57 -36 -94 -79 -104v-2c35 -8 63 -35 63 -81
c0 -83 -55 -138 -140 -138z" />
    <glyph glyph-name="four.num" horiz-adv-x="286" 
d="M174 290l17 106h-158l4 32l205 266h40l-40 -261h52l-6 -37h-53l-17 -106h-44zM86 433h111l29 182h-2l-138 -180v-2z" />
    <glyph glyph-name="five.num" horiz-adv-x="264" 
d="M115 284c-39 0 -70 12 -86 24l6 34c19 -11 46 -20 79 -20c69 0 100 48 100 109c0 45 -22 72 -76 72c-25 0 -45 -3 -64 -8l39 199h175l-6 -39h-138l-24 -122c12 4 25 6 38 6c68 0 103 -41 103 -106c0 -84 -53 -149 -146 -149z" />
    <glyph glyph-name="six.num" horiz-adv-x="297" 
d="M165 284c-76 0 -111 51 -111 122c0 17 1 40 8 85c21 133 74 209 179 209c39 0 62 -10 73 -17l-6 -35c-13 6 -35 14 -68 14c-60 0 -108 -38 -129 -154c18 16 49 31 85 31c62 0 97 -38 97 -103c0 -79 -47 -152 -128 -152zM166 321c44 0 73 39 79 87c1 9 2 17 2 24
c0 47 -23 70 -64 70c-35 0 -59 -12 -77 -26c-5 -32 -6 -57 -6 -72c0 -8 1 -17 3 -26c6 -35 25 -57 63 -57z" />
    <glyph glyph-name="seven.num" horiz-adv-x="247" 
d="M53 290l178 363v2h-166l7 39h213l-5 -33l-180 -371h-47z" />
    <glyph glyph-name="eight.num" horiz-adv-x="297" 
d="M161 284c-74 0 -121 36 -121 97c0 59 47 95 101 118c-34 25 -56 55 -56 94c0 57 42 107 118 107c65 0 106 -34 106 -92c0 -49 -38 -87 -85 -108c41 -29 66 -57 66 -103c0 -67 -51 -113 -129 -113zM161 320c54 0 84 31 84 74c0 37 -25 58 -75 87c-44 -20 -86 -46 -86 -96
c0 -39 29 -65 77 -65zM194 516c40 21 72 46 72 90c0 33 -21 58 -64 58c-44 0 -73 -28 -73 -68c0 -34 24 -55 65 -80z" />
    <glyph glyph-name="nine.num" horiz-adv-x="298" 
d="M124 284c-40 0 -65 11 -77 18l6 36c13 -6 36 -15 71 -15c60 0 108 35 127 154c-19 -17 -51 -32 -84 -32c-63 0 -99 39 -99 103c0 82 48 152 128 152c76 0 111 -50 111 -124c0 -17 -1 -37 -7 -79c-18 -137 -69 -213 -176 -213zM180 482c32 0 57 13 75 27c1 11 4 33 4 43
c1 12 1 27 -1 41c-2 39 -20 70 -64 70c-43 0 -69 -35 -77 -82c-2 -13 -3 -25 -2 -36c2 -42 24 -63 65 -63z" />
    <glyph glyph-name="zero.den" horiz-adv-x="330" 
d="M132 -6c-75 0 -118 46 -118 131c0 26 4 58 11 102c18 107 68 183 158 183c76 0 117 -49 117 -129c0 -23 -4 -55 -11 -98c-19 -120 -69 -189 -157 -189zM133 31c62 0 92 58 108 153c8 49 11 75 11 98c0 57 -21 91 -70 91c-64 0 -93 -60 -109 -149c-8 -46 -12 -73 -12 -99
c0 -59 22 -94 72 -94z" />
    <glyph glyph-name="one.den" horiz-adv-x="191" 
d="M47 0l56 358l-77 -16l4 30l103 36h23l-63 -408h-46z" />
    <glyph glyph-name="two.den" horiz-adv-x="277" 
d="M-11 0l4 29l108 115c58 60 96 100 96 163c0 40 -22 66 -66 66c-30 0 -57 -9 -78 -20l5 36c21 11 47 21 83 21c70 0 105 -41 105 -101c0 -68 -42 -115 -105 -177l-89 -92v-2h159l-6 -38h-216z" />
    <glyph glyph-name="three.den" horiz-adv-x="262" 
d="M70 -6c-40 0 -72 12 -89 24l6 36c19 -11 47 -22 79 -22c61 0 96 37 96 98c0 44 -28 65 -73 65h-27l6 36h27c47 0 83 27 83 84c0 38 -23 58 -64 58c-26 0 -47 -4 -67 -13l5 36c19 9 44 16 75 16c64 0 99 -35 99 -93c0 -57 -36 -94 -79 -104v-1c36 -8 63 -35 63 -82
c0 -83 -55 -138 -140 -138z" />
    <glyph glyph-name="four.den" horiz-adv-x="286" 
d="M132 0l17 106h-158l5 32l204 266h41l-41 -261h52l-6 -37h-53l-16 -106h-45zM44 143h111l29 182h-1l-139 -181v-1z" />
    <glyph glyph-name="five.den" horiz-adv-x="264" 
d="M73 -6c-39 0 -69 12 -86 24l7 35c19 -12 46 -21 79 -21c69 0 100 48 100 109c0 46 -23 73 -76 73c-25 0 -46 -4 -65 -9l40 199h175l-6 -38h-139l-25 -122c14 3 26 4 39 4c68 0 103 -39 103 -105c0 -84 -52 -149 -146 -149z" />
    <glyph glyph-name="six.den" horiz-adv-x="297" 
d="M123 -6c-75 0 -111 52 -111 123c0 17 1 40 8 84c21 134 75 210 179 210c39 0 62 -10 74 -17l-6 -35c-13 6 -36 14 -68 14c-61 0 -108 -39 -129 -154c18 15 49 31 85 31c61 0 97 -39 97 -104c0 -79 -47 -152 -129 -152zM124 32c45 0 73 39 79 86c2 10 2 17 2 25
c0 46 -23 70 -64 70c-34 0 -59 -12 -76 -27c-6 -31 -7 -56 -7 -71c0 -8 1 -17 3 -26c6 -35 25 -57 63 -57z" />
    <glyph glyph-name="seven.den" horiz-adv-x="247" 
d="M11 0l179 364v1h-166l6 39h214l-5 -32l-180 -372h-48z" />
    <glyph glyph-name="eight.den" horiz-adv-x="297" 
d="M119 -6c-73 0 -121 37 -121 98c0 59 47 95 101 117c-34 25 -56 55 -56 94c0 57 43 108 118 108c66 0 107 -35 107 -93c0 -49 -38 -86 -86 -108c42 -29 66 -57 66 -102c0 -67 -51 -114 -129 -114zM120 31c54 0 84 30 84 73c0 38 -26 58 -76 87c-43 -19 -86 -46 -86 -96
c0 -39 30 -64 78 -64zM153 227c38 20 72 45 72 89c0 34 -22 58 -65 58s-72 -28 -72 -67c0 -35 24 -56 65 -80z" />
    <glyph glyph-name="nine.den" horiz-adv-x="298" 
d="M82 -6c-40 0 -65 12 -77 19l6 35c13 -5 36 -15 71 -15c60 0 108 36 126 154c-18 -16 -50 -31 -83 -31c-63 0 -99 38 -99 103c0 82 48 152 128 152c76 0 111 -50 111 -124c0 -17 -1 -37 -7 -79c-18 -137 -69 -214 -176 -214zM137 193c33 0 58 12 75 27c2 11 5 32 5 42
c1 12 1 28 -1 42c-2 39 -20 70 -64 70c-43 0 -69 -36 -77 -83c-2 -13 -3 -25 -2 -35c2 -42 24 -63 64 -63z" />
    <glyph glyph-name="zero.sub" horiz-adv-x="330" 
d="M113 -123c-76 0 -118 47 -118 131c0 26 4 58 11 102c18 108 67 183 158 183c76 0 116 -49 116 -129c0 -23 -3 -55 -10 -98c-20 -120 -70 -189 -157 -189zM114 -86c62 0 92 59 108 153c8 49 11 75 11 98c0 57 -21 91 -71 91c-63 0 -92 -60 -108 -149
c-8 -46 -12 -73 -12 -99c0 -59 22 -94 72 -94z" />
    <glyph glyph-name="one.sub" horiz-adv-x="191" 
d="M28 -117l55 357l-77 -15l5 29l103 37h23l-64 -408h-45z" />
    <glyph glyph-name="two.sub" horiz-adv-x="277" 
d="M-31 -118l4 30l108 115c58 60 95 99 95 163c0 39 -21 65 -66 65c-29 0 -56 -9 -78 -20l6 36c20 12 47 22 82 22c71 0 105 -42 105 -101c0 -69 -42 -116 -104 -178l-90 -92v-2h159l-5 -38h-216z" />
    <glyph glyph-name="three.sub" horiz-adv-x="262" 
d="M52 -124c-40 0 -71 12 -89 25l6 35c20 -11 46 -22 80 -22c60 0 95 37 95 98c0 44 -28 65 -73 65h-26l6 36h25c48 0 84 27 84 83c0 38 -23 59 -64 59c-26 0 -47 -4 -68 -13l6 36c20 9 44 15 76 15c63 0 98 -34 98 -92c0 -57 -35 -94 -78 -104v-2c35 -8 62 -34 62 -81
c0 -83 -54 -138 -140 -138z" />
    <glyph glyph-name="four.sub" horiz-adv-x="286" 
d="M113 -117l17 106h-158l5 31l204 267h40l-40 -261h52l-6 -37h-53l-16 -106h-45zM25 26h111l29 181h-1l-139 -180v-1z" />
    <glyph glyph-name="five.sub" horiz-adv-x="264" 
d="M54 -123c-40 0 -70 12 -87 23l7 35c19 -11 46 -21 79 -21c69 0 99 48 99 110c0 45 -22 72 -75 72c-25 0 -46 -4 -65 -8l40 199h175l-6 -39h-138l-25 -122c13 3 25 5 39 5c68 0 102 -40 102 -106c0 -83 -53 -148 -145 -148z" />
    <glyph glyph-name="six.sub" horiz-adv-x="297" 
d="M104 -123c-75 0 -111 50 -111 122c0 17 1 40 8 84c21 133 75 210 179 210c39 0 62 -9 74 -17l-6 -35c-13 6 -36 14 -68 14c-61 0 -108 -38 -129 -154c17 15 49 30 85 30c61 0 96 -37 96 -102c0 -79 -46 -152 -128 -152zM105 -86c45 0 73 39 79 87c2 9 2 16 2 24
c0 47 -23 70 -64 70c-34 0 -59 -12 -77 -27c-5 -31 -6 -56 -6 -71c0 -7 1 -17 3 -26c6 -35 25 -57 63 -57z" />
    <glyph glyph-name="seven.sub" horiz-adv-x="247" 
d="M-7 -117l179 364v1h-166l6 39h214l-5 -33l-180 -371h-48z" />
    <glyph glyph-name="eight.sub" horiz-adv-x="297" 
d="M101 -124c-74 0 -122 38 -122 98c0 59 47 95 102 117c-35 25 -56 56 -56 95c0 56 42 107 117 107c66 0 107 -34 107 -93c0 -49 -38 -86 -86 -108c41 -29 66 -56 66 -101c0 -68 -51 -115 -128 -115zM100 -87c55 0 85 30 85 73c0 38 -26 59 -75 87c-44 -19 -87 -46 -87 -96
c0 -38 30 -64 77 -64zM134 109c39 20 71 46 71 90c0 33 -20 58 -64 58c-43 0 -72 -29 -72 -68c0 -35 24 -55 65 -80z" />
    <glyph glyph-name="nine.sub" horiz-adv-x="298" 
d="M63 -123c-40 0 -65 11 -77 18l6 36c13 -6 36 -16 71 -16c60 0 108 36 126 154c-18 -16 -50 -31 -83 -31c-62 0 -99 38 -99 103c0 82 49 152 128 152c76 0 111 -50 111 -124c0 -17 -1 -37 -6 -79c-19 -137 -69 -213 -177 -213zM119 75c33 0 57 12 75 27c2 11 4 32 4 43
c1 11 2 27 0 41c-3 39 -21 70 -64 70c-44 0 -70 -36 -78 -83c-2 -13 -3 -24 -2 -34c2 -43 24 -64 65 -64z" />
    <glyph glyph-name="zero.sup" horiz-adv-x="330" 
d="M175 320c-75 0 -117 46 -117 131c0 26 4 58 11 101c18 108 67 184 158 184c76 0 117 -49 117 -129c0 -23 -4 -55 -11 -98c-20 -120 -70 -189 -158 -189zM177 357c62 0 92 59 108 152c8 50 11 76 11 99c0 56 -21 91 -70 91c-63 0 -93 -60 -109 -149
c-8 -46 -12 -73 -12 -99c0 -59 21 -94 72 -94z" />
    <glyph glyph-name="one.sup" horiz-adv-x="191" 
d="M91 325l56 358l-77 -16l4 30l102 36h25l-64 -408h-46z" />
    <glyph glyph-name="two.sup" horiz-adv-x="277" 
d="M35 325l5 29l108 115c58 60 95 100 95 163c0 40 -21 66 -66 66c-30 0 -57 -9 -78 -20l6 36c20 12 46 22 82 22c71 0 105 -42 105 -102c0 -68 -42 -115 -104 -177l-90 -92v-2h159l-6 -38h-216z" />
    <glyph glyph-name="three.sup" horiz-adv-x="262" 
d="M118 319c-41 0 -73 11 -90 24l6 35c20 -11 46 -21 80 -21c59 0 95 36 95 98c0 43 -29 64 -74 64h-26l7 37h25c48 0 84 26 84 83c0 38 -23 59 -65 59c-25 0 -46 -5 -67 -13l6 36c19 9 44 15 75 15c64 0 99 -35 99 -92c0 -58 -36 -95 -79 -105v-1c35 -8 62 -35 62 -82
c0 -82 -53 -137 -138 -137z" />
    <glyph glyph-name="four.sup" horiz-adv-x="286" 
d="M178 326l16 106h-158l5 31l205 267h40l-40 -261h52l-6 -37h-53l-16 -106h-45zM90 469h111l29 182h-2l-138 -181v-1z" />
    <glyph glyph-name="five.sup" horiz-adv-x="264" 
d="M119 320c-40 0 -70 12 -87 23l7 35c18 -12 45 -21 78 -21c70 0 100 48 100 110c0 45 -22 72 -76 72c-24 0 -45 -4 -64 -9l40 200h174l-6 -39h-137l-26 -122c14 3 26 5 39 5c69 0 102 -40 102 -106c0 -84 -52 -148 -144 -148z" />
    <glyph glyph-name="six.sup" horiz-adv-x="297" 
d="M167 320c-76 0 -111 51 -111 122c0 17 1 40 8 84c20 134 74 211 179 211c39 0 62 -10 74 -18l-6 -35c-14 6 -36 14 -68 14c-61 0 -109 -38 -130 -154c18 15 49 31 85 31c62 0 97 -38 97 -103c0 -79 -47 -152 -128 -152zM168 357c45 0 72 39 79 87c2 9 2 16 2 24
c0 47 -23 70 -65 70c-33 0 -58 -12 -76 -27c-5 -31 -6 -56 -6 -71c0 -7 1 -17 3 -26c6 -35 25 -57 63 -57z" />
    <glyph glyph-name="seven.sup" horiz-adv-x="247" 
d="M58 326l179 363v2h-166l6 39h213l-4 -33l-181 -371h-47z" />
    <glyph glyph-name="eight.sup" horiz-adv-x="297" 
d="M164 319c-73 0 -121 38 -121 98c0 59 47 95 101 117c-34 25 -56 56 -56 95c0 56 42 107 118 107c65 0 107 -35 107 -93c0 -49 -38 -86 -86 -108c41 -29 66 -57 66 -102c0 -67 -51 -114 -129 -114zM164 356c54 0 84 30 84 73c0 38 -25 58 -75 87c-44 -19 -86 -46 -86 -96
c0 -38 30 -64 77 -64zM198 552c39 20 71 46 71 89c0 34 -21 58 -64 58c-44 0 -72 -28 -72 -67c0 -35 24 -56 65 -80z" />
    <glyph glyph-name="nine.sup" horiz-adv-x="298" 
d="M126 320c-40 0 -64 11 -77 18l6 36c13 -6 36 -15 71 -15c60 0 108 35 127 153c-19 -16 -50 -31 -84 -31c-62 0 -99 38 -99 103c0 82 49 152 129 152c75 0 110 -50 110 -124c0 -17 0 -37 -6 -79c-18 -137 -69 -213 -177 -213zM182 518c33 0 58 12 75 27c2 11 4 32 4 43
c1 11 2 28 -1 41c-2 39 -20 70 -63 70c-44 0 -69 -36 -77 -82c-3 -13 -3 -25 -3 -35c2 -43 24 -64 65 -64z" />
    <glyph glyph-name="uni2033" unicode="&#x2033;" horiz-adv-x="250" 
d="M83 535l41 158h55l-52 -158h-44zM188 535l41 158h54l-53 -158h-42z" />
    <glyph glyph-name="uni2032" unicode="&#x2032;" horiz-adv-x="147" 
d="M83 535l41 158h55l-52 -158h-44z" />
    <glyph glyph-name="a.alt" horiz-adv-x="382" 
d="M132 -7c-76 0 -124 45 -124 123c0 91 53 148 164 165l117 18l9 54c13 82 -18 118 -94 118c-45 0 -84 -11 -111 -22l5 38c32 15 76 27 119 27c99 0 148 -51 131 -159l-55 -355h-42l2 41h-3c-24 -23 -61 -48 -118 -48zM146 32c47 0 84 22 108 42l28 184l-103 -14
c-75 -11 -118 -49 -118 -126c0 -56 31 -86 85 -86z" />
    <glyph glyph-name="f.alt" horiz-adv-x="251" 
d="M40 0l72 466h-64l7 41h64l13 80c17 109 71 152 148 152c33 0 54 -8 67 -17l-5 -37c-12 6 -32 12 -58 12c-54 0 -88 -27 -102 -114l-12 -76h102l-6 -41h-103l-73 -466h-50z" />
    <glyph glyph-name="g.alt" horiz-adv-x="421" 
d="M123 -197c-60 0 -111 16 -139 35l6 38c27 -13 76 -32 131 -32c91 0 139 36 153 131l14 87h-3c-25 -27 -72 -55 -130 -55c-80 0 -132 51 -132 155c0 30 3 69 10 105c24 136 104 247 237 247c57 0 101 -10 134 -27l-80 -516c-19 -121 -91 -168 -201 -168zM167 48
c51 0 97 25 127 54l55 356c-18 9 -46 16 -79 16c-107 0 -164 -91 -186 -213c-6 -32 -10 -67 -10 -96c0 -82 34 -117 93 -117z" />
    <glyph glyph-name="l.alt" horiz-adv-x="194" 
d="M100 -6c-54 0 -82 34 -71 100l101 640h49l-99 -641c-6 -37 4 -56 36 -56c13 0 24 2 33 5l-5 -36c-9 -6 -26 -12 -44 -12z" />
    <glyph glyph-name="aacute.alt" horiz-adv-x="382" 
d="M207 586l78 131h57l-89 -131h-46zM132 -7c-76 0 -124 45 -124 123c0 91 53 148 164 165l117 18l9 54c13 82 -18 118 -94 118c-45 0 -84 -11 -111 -22l5 38c32 15 76 27 119 27c99 0 148 -51 131 -159l-55 -355h-42l2 41h-3c-24 -23 -61 -48 -118 -48zM146 32
c47 0 84 22 108 42l28 184l-103 -14c-75 -11 -118 -49 -118 -126c0 -56 31 -86 85 -86z" />
    <glyph glyph-name="abreve.alt" horiz-adv-x="382" 
d="M132 -7c-76 0 -124 45 -124 123c0 91 53 148 164 165l117 18l9 54c13 82 -18 118 -94 118c-45 0 -84 -11 -111 -22l5 38c32 15 76 27 119 27c99 0 148 -51 131 -159l-55 -355h-42l2 41h-3c-24 -23 -61 -48 -118 -48zM146 32c47 0 84 22 108 42l28 184l-103 -14
c-75 -11 -118 -49 -118 -126c0 -56 31 -86 85 -86zM240 586c-64 0 -100 43 -94 104h39c-2 -40 17 -64 57 -64c38 0 63 22 73 64h38c-9 -63 -53 -104 -113 -104z" />
    <glyph glyph-name="acircumflex.alt" horiz-adv-x="382" 
d="M130 586l102 122h44l64 -122h-40l-51 83l-76 -83h-43zM132 -7c-76 0 -124 45 -124 123c0 91 53 148 164 165l117 18l9 54c13 82 -18 118 -94 118c-45 0 -84 -11 -111 -22l5 38c32 15 76 27 119 27c99 0 148 -51 131 -159l-55 -355h-42l2 41h-3c-24 -23 -61 -48 -118 -48z
M146 32c47 0 84 22 108 42l28 184l-103 -14c-75 -11 -118 -49 -118 -126c0 -56 31 -86 85 -86z" />
    <glyph glyph-name="adieresis.alt" horiz-adv-x="382" 
d="M278 612l10 60h52l-10 -60h-52zM148 612l10 60h51l-10 -60h-51zM132 -7c-76 0 -124 45 -124 123c0 91 53 148 164 165l117 18l9 54c13 82 -18 118 -94 118c-45 0 -84 -11 -111 -22l5 38c32 15 76 27 119 27c99 0 148 -51 131 -159l-55 -355h-42l2 41h-3
c-24 -23 -61 -48 -118 -48zM146 32c47 0 84 22 108 42l28 184l-103 -14c-75 -11 -118 -49 -118 -126c0 -56 31 -86 85 -86z" />
    <glyph glyph-name="agrave.alt" horiz-adv-x="382" 
d="M132 -7c-76 0 -124 45 -124 123c0 91 53 148 164 165l117 18l9 54c13 82 -18 118 -94 118c-45 0 -84 -11 -111 -22l5 38c32 15 76 27 119 27c99 0 148 -51 131 -159l-55 -355h-42l2 41h-3c-24 -23 -61 -48 -118 -48zM146 32c47 0 84 22 108 42l28 184l-103 -14
c-75 -11 -118 -49 -118 -126c0 -56 31 -86 85 -86zM217 586l-56 131h53l45 -131h-42z" />
    <glyph glyph-name="amacron.alt" horiz-adv-x="382" 
d="M132 -7c-76 0 -124 45 -124 123c0 91 53 148 164 165l117 18l9 54c13 82 -18 118 -94 118c-45 0 -84 -11 -111 -22l5 38c32 15 76 27 119 27c99 0 148 -51 131 -159l-55 -355h-42l2 41h-3c-24 -23 -61 -48 -118 -48zM146 32c47 0 84 22 108 42l28 184l-103 -14
c-75 -11 -118 -49 -118 -126c0 -56 31 -86 85 -86zM148 620l7 43h187l-6 -43h-188z" />
    <glyph glyph-name="aogonek.alt" horiz-adv-x="382" 
d="M236 -198c-51 0 -78 28 -78 70c0 55 51 100 93 131l2 38h-3c-24 -23 -61 -48 -118 -48c-76 0 -124 45 -124 123c0 91 53 148 164 165l117 18l9 54c13 82 -18 118 -94 118c-45 0 -84 -11 -111 -22l5 38c32 15 76 27 119 27c99 0 148 -51 131 -159l-55 -354
c-41 -36 -88 -78 -88 -123c0 -24 15 -39 41 -39c15 0 26 3 34 5l-5 -33c-8 -4 -23 -9 -39 -9zM146 32c47 0 84 22 108 42l28 184l-103 -14c-77 -11 -118 -49 -118 -126c0 -56 31 -86 85 -86z" />
    <glyph glyph-name="aring.alt" horiz-adv-x="382" 
d="M246 574c-45 0 -77 33 -77 78c0 46 35 84 83 84c46 0 77 -33 77 -76c0 -48 -36 -86 -83 -86zM247 608c27 0 46 23 46 52c0 23 -17 42 -41 42c-27 0 -46 -21 -46 -50c0 -24 15 -44 41 -44zM132 -7c-76 0 -124 45 -124 123c0 91 53 148 164 165l117 18l9 54
c13 82 -18 118 -94 118c-45 0 -84 -11 -111 -22l5 38c32 15 76 27 119 27c99 0 148 -51 131 -159l-55 -355h-42l2 41h-3c-24 -23 -61 -48 -118 -48zM146 32c47 0 84 22 108 42l28 184l-103 -14c-75 -11 -118 -49 -118 -126c0 -56 31 -86 85 -86z" />
    <glyph glyph-name="aringacute.alt" horiz-adv-x="382" 
d="M240 768l65 114h57l-77 -114h-45zM132 -7c-76 0 -124 45 -124 123c0 91 53 148 164 165l117 18l9 54c13 82 -18 118 -94 118c-45 0 -84 -11 -111 -22l5 38c32 15 76 27 119 27c99 0 148 -51 131 -159l-55 -355h-42l2 41h-3c-24 -23 -61 -48 -118 -48zM146 32
c47 0 84 22 108 42l28 184l-103 -14c-75 -11 -118 -49 -118 -126c0 -56 31 -86 85 -86zM247 574c-45 0 -77 33 -77 78c0 46 35 84 83 84c46 0 77 -33 77 -76c0 -48 -36 -86 -83 -86zM248 608c27 0 46 23 46 52c0 23 -17 42 -41 42c-27 0 -46 -21 -46 -50
c0 -24 15 -44 41 -44z" />
    <glyph glyph-name="atilde.alt" horiz-adv-x="382" 
d="M132 -7c-76 0 -124 45 -124 123c0 91 53 148 164 165l117 18l9 54c13 82 -18 118 -94 118c-45 0 -84 -11 -111 -22l5 38c32 15 76 27 119 27c99 0 148 -51 131 -159l-55 -355h-42l2 41h-3c-24 -23 -61 -48 -118 -48zM146 32c47 0 84 22 108 42l28 184l-103 -14
c-75 -11 -118 -49 -118 -126c0 -56 31 -86 85 -86zM126 603c6 52 35 80 72 80c41 0 63 -38 93 -38c19 0 32 13 36 39h36c-8 -52 -37 -81 -72 -81c-41 0 -64 38 -93 38c-19 0 -32 -13 -37 -38h-35z" />
    <glyph glyph-name="gbreve.alt" horiz-adv-x="421" 
 />
    <glyph glyph-name="gcircumflex.alt" horiz-adv-x="421" 
 />
    <glyph glyph-name="gcommaaccent.alt" horiz-adv-x="421" 
 />
    <glyph glyph-name="gdotaccent.alt" horiz-adv-x="421" 
 />
    <glyph glyph-name="lacute.alt" horiz-adv-x="194" 
d="M100 -6c-54 0 -82 34 -71 100l101 640h49l-99 -641c-6 -37 4 -56 36 -56c13 0 24 2 33 5l-5 -36c-9 -6 -26 -12 -44 -12zM141 780l65 114h57l-77 -114h-45z" />
    <glyph glyph-name="lcaron.alt" horiz-adv-x="194" 
d="M100 -6c-54 0 -82 34 -71 100l101 640h49l-99 -641c-6 -37 4 -56 36 -56c13 0 24 2 33 5l-5 -36c-9 -6 -26 -12 -44 -12zM236 598h-37l30 135h49z" />
    <glyph glyph-name="lcommaaccent.alt" horiz-adv-x="194" 
d="M9 -167l31 125h53l-45 -125h-39zM100 -6c-54 0 -82 34 -71 100l101 640h49l-99 -641c-6 -37 4 -56 36 -56c13 0 24 2 33 5l-5 -36c-9 -6 -26 -12 -44 -12z" />
    <glyph glyph-name="ldot.alt" horiz-adv-x="194" 
d="M100 -6c-54 0 -82 34 -71 100l101 640h49l-99 -641c-6 -37 4 -56 36 -56c13 0 24 2 33 5l-5 -36c-9 -6 -26 -12 -44 -12zM161 328l11 67h54l-9 -67h-56z" />
    <glyph glyph-name="lslash.alt" horiz-adv-x="201" 
d="M18 333l8 48l61 37l50 316h50l-44 -282l79 48l-8 -49l-79 -47l-48 -311c-6 -37 5 -56 36 -56c14 0 25 2 34 5l-5 -36c-9 -6 -27 -12 -45 -12c-54 0 -81 34 -70 100l43 276z" />
    <glyph glyph-name="f_b.alt" horiz-adv-x="656" 
d="M250 22l104 666c-11 4 -31 8 -54 8c-73 0 -106 -31 -121 -120l-10 -69h99l-5 -41h-101l-73 -466h-49l72 466h-65l7 41h64l11 72c18 111 76 160 172 160c51 0 89 -12 108 -21l-41 -257h2c35 28 78 53 136 53c77 0 128 -47 128 -155c0 -38 -4 -78 -11 -118
c-26 -149 -88 -248 -228 -248c-54 0 -112 11 -145 29zM363 424l-58 -374c22 -10 58 -17 94 -17c104 0 152 79 175 221c6 34 9 72 9 103c0 83 -37 115 -92 115s-96 -24 -128 -48z" />
    <glyph glyph-name="f_f.alt" horiz-adv-x="455" 
d="M244 0l72 466h-154l-73 -466h-49l72 466h-65l7 41h64l12 76c17 104 65 149 138 149c29 0 49 -8 60 -14l-6 -37c-11 4 -27 8 -50 8c-50 0 -79 -31 -92 -110l-11 -72h154l12 80c18 109 71 152 147 152c34 0 55 -8 69 -17l-6 -37c-13 6 -32 12 -59 12
c-53 0 -87 -28 -101 -114l-11 -76h101l-6 -41h-102l-73 -466h-50z" />
    <glyph glyph-name="f_f_b.alt" horiz-adv-x="862" 
d="M456 22l104 666c-11 4 -31 8 -54 8c-73 0 -106 -31 -121 -120l-10 -69h100l-7 -41h-100l-73 -466h-50l73 466h-155l-73 -466h-50l73 466h-65l6 41h66l11 76c17 105 65 149 138 149c28 0 49 -8 59 -14l-6 -37c-10 4 -27 8 -49 8c-51 0 -80 -32 -92 -110l-11 -72h155l10 72
c18 111 76 160 172 160c50 0 90 -12 107 -21l-40 -257h2c35 28 78 53 137 53c76 0 127 -47 127 -155c0 -35 -4 -72 -10 -110c-23 -152 -87 -256 -229 -256c-54 0 -112 11 -145 29zM569 424l-59 -374c23 -10 59 -17 95 -17c103 0 152 79 175 221c5 34 9 72 9 103
c0 83 -36 115 -92 115c-55 0 -96 -24 -128 -48z" />
    <glyph glyph-name="f_f_h.alt" horiz-adv-x="861" 
d="M245 0l72 466h-154l-73 -466h-50l73 466h-65l6 41h65l11 76c18 104 65 149 139 149c28 0 48 -8 59 -14l-6 -37c-10 4 -27 8 -49 8c-51 0 -80 -31 -92 -110l-11 -72h154l11 72c17 111 75 160 171 160c51 0 89 -12 108 -21l-41 -261h3c42 32 95 57 153 57
c73 0 103 -38 103 -99c0 -10 -2 -23 -3 -34l-60 -381h-50l59 378c2 11 3 22 3 31c0 40 -19 63 -70 63c-52 0 -101 -23 -144 -52l-66 -420h-50l108 688c-11 4 -31 8 -54 8c-72 0 -106 -31 -120 -120l-10 -69h99l-6 -41h-100l-73 -466h-50z" />
    <glyph glyph-name="f_f_i.alt" horiz-adv-x="595" 
d="M246 0l72 466h-155l-73 -466h-50l73 466h-64l5 41h66l11 76c17 104 65 149 138 149c28 0 48 -8 59 -14l-6 -37c-10 4 -27 8 -49 8c-50 0 -79 -31 -92 -110l-11 -72h154l13 81c17 105 64 151 137 151c26 0 46 -8 56 -14l-6 -37c-11 4 -27 8 -45 8c-49 0 -79 -30 -92 -109
l-12 -80h206l-79 -507h-50l73 466h-156l-73 -466h-50zM548 615l9 62h52l-10 -62h-51z" />
    <glyph glyph-name="f_f_j.alt" horiz-adv-x="596" 
d="M245 0l72 466h-154l-73 -466h-50l72 466h-64l6 41h65l11 76c18 104 65 149 139 149c28 0 48 -8 59 -14l-6 -37c-10 4 -27 8 -49 8c-51 0 -80 -31 -92 -110l-11 -72h154l12 81c17 105 64 151 137 151c26 0 47 -8 57 -14l-6 -37c-12 4 -28 8 -46 8c-49 0 -79 -30 -91 -109
l-12 -80h205l-90 -578c-13 -84 -49 -124 -120 -124c-23 0 -46 7 -58 15l6 36c13 -5 27 -8 44 -8c48 0 69 23 79 87l83 531h-157l-72 -466h-50zM547 615l10 62h51l-10 -62h-51z" />
    <glyph glyph-name="f_f_k.alt" horiz-adv-x="804" 
d="M245 0l72 466h-154l-73 -466h-50l73 466h-65l6 41h65l11 76c18 104 65 149 139 149c28 0 48 -8 59 -14l-6 -37c-10 4 -27 8 -49 8c-51 0 -80 -31 -92 -110l-11 -72h154l11 72c17 111 75 160 171 160c51 0 89 -12 108 -21l-113 -718h-50l108 688c-11 4 -31 8 -54 8
c-72 0 -106 -31 -120 -120l-10 -69h99l-6 -41h-100l-74 -466h-49zM700 0l-136 268l203 238l56 1l-204 -240l135 -267h-54z" />
    <glyph glyph-name="f_f_l.alt" horiz-adv-x="593" 
d="M245 0l73 466h-155l-73 -466h-50l73 466h-64l5 41h66l11 76c17 105 65 149 138 149c28 0 48 -8 59 -14l-6 -37c-10 4 -27 8 -49 8c-50 0 -79 -32 -92 -110l-11 -72h154l12 72c16 111 75 160 171 160c50 0 89 -12 107 -21l-112 -718h-50l107 688c-11 4 -31 8 -53 8
c-73 0 -107 -31 -120 -120l-11 -69h99l-6 -41h-100l-73 -466h-50z" />
    <glyph glyph-name="f_h.alt" horiz-adv-x="656" 
d="M40 0l73 466h-65l6 41h65l11 72c18 111 76 160 172 160c51 0 89 -12 107 -21l-41 -261h3c42 32 95 57 154 57c72 0 102 -39 102 -100c0 -10 -2 -22 -3 -33l-59 -381h-51l59 378c1 10 3 21 3 30c0 41 -18 64 -69 64c-52 0 -102 -23 -145 -52l-65 -420h-51l108 688
c-10 4 -31 8 -54 8c-72 0 -106 -31 -120 -120l-11 -69h100l-6 -41h-100l-73 -466h-50z" />
    <glyph glyph-name="f_i.alt" horiz-adv-x="390" 
d="M40 0l73 466h-65l7 41h65l12 81c17 105 64 151 137 151c26 0 46 -8 57 -14l-7 -37c-11 4 -27 8 -45 8c-49 0 -79 -30 -92 -109l-12 -80h206l-78 -507h-51l73 466h-157l-73 -466h-50zM343 615l9 62h52l-10 -62h-51z" />
    <glyph glyph-name="f_j.alt" horiz-adv-x="391" 
d="M40 0l73 466h-65l6 41h65l13 81c16 105 64 151 137 151c26 0 46 -8 56 -14l-6 -37c-12 4 -28 8 -46 8c-49 0 -78 -30 -91 -109l-13 -80h207l-90 -578c-13 -84 -49 -124 -120 -124c-24 0 -46 7 -59 15l6 36c13 -5 27 -8 44 -8c48 0 69 23 79 87l83 531h-156l-73 -466h-50z
M342 615l9 62h52l-10 -62h-51z" />
    <glyph glyph-name="f_k.alt" horiz-adv-x="601" 
d="M496 0l-135 268l203 238l56 1l-205 -240l135 -267h-54zM40 0l73 466h-64l5 41h66l11 72c17 111 75 160 171 160c50 0 89 -12 107 -21l-112 -718h-51l108 688c-10 4 -30 8 -53 8c-73 0 -106 -31 -120 -120l-11 -69h100l-7 -41h-100l-73 -466h-50z" />
    <glyph glyph-name="f_l.alt" horiz-adv-x="388" 
d="M40 0l73 466h-65l6 41h65l11 72c18 111 75 160 172 160c50 0 89 -12 107 -21l-112 -718h-50l107 688c-10 4 -30 8 -54 8c-72 0 -105 -31 -120 -120l-10 -69h99l-6 -41h-100l-73 -466h-50z" />
    <glyph glyph-name="registered.alt" horiz-adv-x="673" 
d="M350 -10c-175 0 -296 133 -296 355s121 355 296 355c177 0 298 -133 298 -355c0 -220 -122 -355 -298 -355zM350 22c157 0 261 119 261 323c0 205 -104 324 -261 324s-259 -119 -259 -324c0 -204 103 -323 259 -323zM252 162v376h101c83 0 117 -37 117 -107
c0 -54 -25 -89 -67 -99v-2l84 -168h-48l-80 161h-62v-161h-45zM297 359h56c51 0 71 25 71 72c0 48 -20 70 -75 70h-52v-142z" />
    <glyph glyph-name="questiondown.uc" horiz-adv-x="329" 
d="M159 -11c-97 0 -153 53 -153 140c0 78 32 122 116 194c64 57 84 78 92 131l8 62h50l-10 -66c-10 -67 -32 -94 -110 -161c-68 -58 -91 -95 -91 -157c0 -60 37 -98 108 -98c48 0 79 11 113 26l-7 -43c-33 -15 -66 -28 -116 -28zM234 622l12 71h57l-12 -71h-57z" />
    <glyph glyph-name="exclamdown.uc" horiz-adv-x="202" 
d="M33 0l88 516h43l-75 -516h-56zM130 622l11 71h56l-10 -71h-57z" />
    <glyph glyph-name="hyphen.uc" horiz-adv-x="263" 
d="M55 321l6 44h171l-6 -44h-171z" />
    <glyph glyph-name="endash.uc" horiz-adv-x="351" 
d="M39 323l6 42h294l-7 -42h-293z" />
    <glyph glyph-name="emdash.uc" horiz-adv-x="573" 
d="M39 323l6 42h516l-6 -42h-516z" />
    <glyph glyph-name="guilsinglleft.uc" horiz-adv-x="214" 
d="M100 92l-65 181l3 22l124 181h50l-128 -194l64 -190h-48z" />
    <glyph glyph-name="guilsinglright.uc" horiz-adv-x="214" 
d="M5 92l130 194l-65 190h47l66 -181l-4 -22l-123 -181h-51z" />
    <glyph glyph-name="guillemotleft.uc" horiz-adv-x="343" 
d="M230 91l-63 181l4 22l121 181h50l-125 -194l61 -190h-48zM97 91l-62 181l3 22l121 181h50l-125 -194l61 -190h-48z" />
    <glyph glyph-name="guillemotright.uc" horiz-adv-x="344" 
d="M139 91l125 193l-61 191h48l62 -181l-3 -22l-121 -181h-50zM5 91l127 193l-62 191h48l62 -181l-3 -22l-121 -181h-51z" />
    <glyph glyph-name="parenleft.uc" horiz-adv-x="254" 
d="M145 -91c-42 65 -94 188 -94 340c0 226 99 397 209 514h47c-114 -130 -204 -296 -204 -514c0 -142 38 -259 84 -340h-42z" />
    <glyph glyph-name="parenright.uc" horiz-adv-x="260" 
d="M139 762c43 -64 95 -187 95 -340c0 -226 -99 -397 -209 -513h-46c113 130 203 295 203 514c0 141 -37 258 -84 339h41z" />
    <glyph glyph-name="bracketleft.uc" horiz-adv-x="263" 
d="M13 -91l133 854h166l-7 -42h-116l-121 -771h116l-6 -41h-165z" />
    <glyph glyph-name="bracketright.uc" horiz-adv-x="264" 
d="M-24 -91l6 41h116l121 771h-116l6 42h166l-133 -854h-166z" />
    <glyph glyph-name="braceleft.uc" horiz-adv-x="285" 
d="M202 -94c-101 4 -132 50 -132 111c0 16 2 37 11 90c6 40 20 122 20 130c5 55 -18 78 -76 81l7 43c62 3 93 20 105 96l26 170c14 93 46 140 174 143l-6 -42c-79 -4 -107 -26 -119 -104l-26 -170c-11 -69 -38 -104 -102 -115v-3c50 -10 72 -40 68 -90
c0 -12 -10 -71 -17 -115c-7 -50 -14 -93 -14 -104c-2 -54 24 -74 88 -79z" />
    <glyph glyph-name="braceright.uc" horiz-adv-x="285" 
d="M-26 -94l6 42c80 3 107 26 119 104l26 169c11 70 38 105 102 117v1c-50 11 -72 41 -68 92c0 11 11 72 17 114c8 50 14 93 14 104c3 54 -24 74 -88 79l7 42c101 -4 132 -50 132 -111c0 -16 -2 -36 -10 -89c-6 -41 -21 -122 -21 -131c-6 -54 18 -78 76 -81l-7 -43
c-61 -3 -93 -19 -104 -96l-27 -170c-13 -93 -46 -140 -174 -143z" />
    <glyph glyph-name="slash.uc" horiz-adv-x="276" 
d="M-30 -60l312 793h47l-312 -793h-47z" />
    <glyph glyph-name="backslash.uc" horiz-adv-x="267" 
d="M160 -60l-66 793h43l67 -793h-44z" />
    <glyph glyph-name="bar.uc" horiz-adv-x="227" 
d="M100 -58v789h47v-789h-47z" />
    <glyph glyph-name="at.uc" horiz-adv-x="643" 
d="M306 -9c-174 0 -274 103 -274 277c0 230 144 434 363 434c160 0 249 -107 249 -258c0 -176 -85 -295 -184 -295c-47 0 -68 25 -72 57h-2c-22 -31 -61 -56 -104 -56c-58 0 -94 42 -94 112c0 43 8 86 22 123c33 88 98 145 176 145c42 0 83 -12 102 -23l-54 -258
c-1 -8 -3 -21 -3 -27c-1 -21 7 -37 34 -37c70 0 137 108 137 257c0 133 -71 224 -209 224c-192 0 -319 -186 -319 -397c0 -153 85 -242 234 -242c73 0 142 22 178 38l-5 -35c-36 -19 -103 -39 -175 -39zM297 190c35 0 65 20 87 47l51 243c-11 6 -28 12 -54 12
c-53 0 -100 -46 -125 -119c-12 -33 -19 -71 -19 -107c0 -48 20 -76 60 -76z" />
    <glyph glyph-name="uni2009" unicode="&#x2009;" horiz-adv-x="73" 
 />
    <glyph glyph-name="f_f_l.alt1" horiz-adv-x="685" 
d="M592 -6c-61 0 -89 37 -77 109l99 582c-13 6 -34 11 -61 11c-76 0 -120 -33 -137 -126l-10 -63h114l-6 -43h-115l-111 -657h-51l111 657h-176l-110 -657h-51l110 657h-74l6 43h75l12 71c18 108 76 154 156 154c29 0 50 -6 63 -13l-6 -39c-12 5 -29 9 -53 9
c-60 0 -96 -36 -109 -114l-11 -68h175l10 64c20 120 91 168 189 168c52 0 93 -12 116 -24l-104 -613c-7 -45 7 -64 37 -64c18 0 29 2 40 4l-6 -36c-9 -6 -26 -12 -45 -12z" />
    <glyph glyph-name="f_f_l.alt2" horiz-adv-x="682" 
d="M589 -6c-61 0 -89 36 -77 109l99 582c-13 6 -34 11 -61 11c-76 0 -120 -33 -137 -126l-10 -63h114l-6 -43h-115l-79 -464h-51l79 464h-176l-78 -464h-51l78 464h-74l6 43h75l12 71c18 108 76 154 156 154c29 0 50 -6 63 -13l-6 -39c-12 5 -29 9 -53 9
c-60 0 -96 -36 -109 -114l-11 -68h175l10 64c20 120 91 168 189 168c52 0 93 -12 116 -24l-104 -613c-7 -45 6 -65 37 -65c18 0 29 3 40 5l-6 -36c-9 -6 -26 -12 -45 -12z" />
    <glyph glyph-name="f_l.alt1" horiz-adv-x="458" 
d="M365 -6c-61 0 -89 36 -76 109l98 582c-12 6 -34 11 -61 11c-76 0 -120 -33 -136 -127l-11 -62h114l-6 -43h-115l-110 -657h-51l110 657h-74l6 43h75l10 64c20 120 91 168 189 168c53 0 93 -12 116 -25l-103 -612c-8 -45 6 -65 37 -65c18 0 29 3 39 5l-6 -36
c-9 -6 -26 -12 -45 -12z" />
    <glyph glyph-name="f_l.alt2" horiz-adv-x="455" 
d="M362 -6c-61 0 -89 37 -76 109l98 582c-12 6 -34 11 -61 11c-76 0 -120 -33 -136 -126l-11 -63h114l-6 -43h-115l-78 -464h-51l78 464h-74l6 43h75l10 64c20 120 91 168 189 168c53 0 93 -12 116 -24l-103 -613c-8 -45 6 -64 37 -64c18 0 29 2 39 4l-6 -36
c-9 -6 -26 -12 -45 -12z" />
    <glyph glyph-name="germandbls.alt" horiz-adv-x="442" 
d="M15 0l85 546c20 123 82 193 187 193c89 0 137 -49 137 -117c0 -64 -43 -110 -82 -150c-40 -39 -76 -71 -76 -115c0 -31 17 -49 43 -71l33 -28c37 -33 62 -67 62 -122c0 -23 -5 -45 -14 -65c-23 -48 -71 -79 -136 -79c-53 0 -86 16 -105 29l7 43c25 -15 52 -29 97 -29
c44 0 73 19 88 48c8 14 12 31 12 49c0 39 -19 64 -48 89l-30 26c-33 28 -59 58 -59 105c0 53 37 90 76 130c40 40 80 81 80 138c0 44 -30 76 -88 76c-79 0 -117 -56 -133 -152l-85 -544h-51z" />
    </font>
</defs>
</svg>
