<?xml version="1.0" standalone="no"?>
<!DOCTYPE svg PUBLIC "-//W3C//DTD SVG 1.1//EN" "http://www.w3.org/Graphics/SVG/1.1/DTD/svg11.dtd" >
<svg xmlns="http://www.w3.org/2000/svg" width="100%" height="100%">
<metadata>
Created by FontXChange 20110222 at Mon May 27 11:41:44 2019
 By craig radcliffe
(c)2008-12 Paul Barnes and Christian Schwartz, under exclusive license to Schwartzco Inc./Commercial Type. All rights reserved.
</metadata>
<defs>
<font id="GuardianSansCond-Regular" horiz-adv-x="417" >
  <font-face 
    font-family="GuardianSansCond"
    font-weight="400"
    font-stretch="condensed"
    units-per-em="1000"
    panose-1="2 11 5 3 3 2 2 6 2 3"
    ascent="809"
    descent="-191"
    x-height="513"
    cap-height="693"
    bbox="-146 -216 1018 1044"
    underline-thickness="50"
    underline-position="-50"
    stemh="70"
    stemv="82"
    unicode-range="U+0020-FB04"
  />
<missing-glyph horiz-adv-x="415" 
 />
    <glyph glyph-name="f_b" unicode="fb" horiz-adv-x="725" 
d="M475 -10c-59 0 -130 13 -162 26v651c-14 3 -35 6 -57 6c-69 0 -97 -29 -97 -109v-51h94v-68h-94v-445h-82v445h-62v68h62v56c0 118 66 172 177 172c59 0 110 -8 140 -20v-236h4c29 18 69 36 127 36c90 0 169 -53 169 -233v-35c0 -170 -73 -263 -219 -263zM479 59
c72 0 130 39 130 183v42c0 130 -37 168 -117 168c-43 0 -79 -16 -98 -25v-356c17 -6 47 -12 85 -12z" />
    <glyph glyph-name="f_f" unicode="ff" horiz-adv-x="503" 
d="M77 0v445h-62v68h62v68c0 103 53 153 131 153c35 0 57 -9 70 -15v-59c-11 2 -26 5 -51 5c-47 0 -68 -29 -68 -91v-61h154v74c0 105 51 154 135 154c36 0 61 -9 75 -16v-59c-13 3 -32 7 -56 7c-52 0 -73 -30 -73 -93v-67h96v-68h-96v-445h-81v445h-154v-445h-82z" />
    <glyph glyph-name="f_f_b" unicode="ffb" horiz-adv-x="960" 
d="M711 -10c-60 0 -130 13 -162 26v651c-14 3 -36 6 -57 6c-69 0 -98 -29 -98 -109v-51h94v-68h-94v-445h-81v445h-154v-445h-82v445h-62v68h62v68c0 103 53 153 131 153c35 0 57 -9 70 -15v-59c-11 2 -26 5 -51 5c-47 0 -68 -29 -68 -91v-61h154v56c0 118 65 172 176 172
c60 0 111 -8 141 -20v-236h4c29 18 69 36 126 36c91 0 169 -53 169 -233v-35c0 -170 -73 -263 -218 -263zM715 59c72 0 130 39 130 183v42c0 130 -38 168 -118 168c-42 0 -78 -16 -97 -25v-356c17 -6 47 -12 85 -12z" />
    <glyph glyph-name="f_f_h" unicode="ffh" horiz-adv-x="956" 
d="M549 0v667c-14 3 -36 6 -57 6c-69 0 -98 -29 -98 -109v-51h94v-68h-94v-445h-81v445h-154v-445h-82v445h-62v68h62v68c0 103 53 153 131 153c35 0 57 -9 70 -15v-59c-11 2 -26 5 -51 5c-47 0 -68 -29 -68 -91v-61h154v56c0 118 65 172 176 172c59 0 111 -8 141 -20v-247
h4c36 26 86 47 143 47c83 0 126 -39 126 -126v-395h-82v384c0 48 -20 67 -78 67c-44 0 -87 -17 -113 -31v-420h-81z" />
    <glyph glyph-name="f_f_i" unicode="ffi" horiz-adv-x="685" 
d="M77 0v445h-62v68h62v68c0 103 53 153 131 153c35 0 57 -9 70 -15v-59c-11 2 -26 5 -51 5c-47 0 -68 -29 -68 -91v-61h154v74c0 104 52 154 130 154c34 0 53 -8 65 -14v-59c-10 3 -25 5 -46 5c-47 0 -68 -29 -68 -92v-68h236v-513h-81v445h-155v-445h-81v445h-154v-445
h-82zM548 611v88h82v-88h-82z" />
    <glyph glyph-name="f_f_j" unicode="ffj" horiz-adv-x="685" 
d="M507 -195c-31 0 -51 6 -67 16v57c13 -2 28 -4 44 -4c44 0 65 23 65 77v494h-155v-445h-81v445h-154v-445h-82v445h-62v68h62v68c0 103 53 153 131 153c35 0 57 -9 70 -15v-59c-11 2 -26 5 -51 5c-47 0 -68 -29 -68 -91v-61h154v74c0 104 52 154 130 154
c34 0 53 -8 65 -14v-59c-10 3 -25 5 -46 5c-47 0 -68 -29 -68 -92v-68h236v-566c0 -81 -33 -142 -123 -142zM548 611v88h82v-88h-82z" />
    <glyph glyph-name="f_f_k" unicode="ffk" horiz-adv-x="907" 
d="M549 0v667c-15 3 -36 6 -57 6c-69 0 -98 -29 -98 -109v-51h94v-68h-94v-445h-81v445h-154v-445h-82v445h-62v68h62v68c0 103 53 153 131 153c35 0 57 -9 70 -15v-59c-11 2 -26 5 -51 5c-47 0 -68 -29 -68 -91v-61h154v56c0 118 65 172 176 172c59 0 111 -8 141 -20v-721
h-81zM646 265l151 248h88l-151 -240l163 -273h-93z" />
    <glyph glyph-name="f_f_l" unicode="ffl" horiz-adv-x="686" 
d="M77 0v445h-62v68h62v68c0 103 53 153 131 153c35 0 57 -9 70 -15v-59c-11 2 -26 5 -51 5c-47 0 -68 -29 -68 -91v-61h154v56c0 118 65 172 176 172c59 0 111 -8 141 -20v-721h-81v667c-14 3 -36 6 -57 6c-69 0 -98 -29 -98 -109v-51h94v-68h-94v-445h-81v445h-154v-445
h-82z" />
    <glyph glyph-name="f_h" unicode="fh" horiz-adv-x="720" 
d="M313 0v667c-14 3 -36 6 -57 6c-69 0 -97 -29 -97 -109v-51h94v-68h-94v-445h-82v445h-62v68h62v56c0 118 65 172 176 172c59 0 111 -8 141 -20v-247h4c36 26 86 47 143 47c83 0 126 -39 126 -126v-395h-81v384c0 48 -21 67 -79 67c-44 0 -87 -17 -113 -31v-420h-81z" />
    <glyph glyph-name="f_i" unicode="fi" horiz-adv-x="450" 
d="M77 0v445h-62v68h62v74c0 104 53 154 130 154c34 0 54 -8 66 -14v-59c-10 3 -26 5 -47 5c-46 0 -67 -29 -67 -92v-68h235v-513h-81v445h-154v-445h-82zM312 611v88h83v-88h-83z" />
    <glyph glyph-name="f_j" unicode="fj" horiz-adv-x="450" 
d="M271 -195c-31 0 -50 6 -67 16v57c13 -2 29 -4 44 -4c44 0 65 23 65 77v494h-154v-445h-82v445h-62v68h62v74c0 104 53 154 130 154c34 0 54 -8 66 -14v-59c-10 3 -26 5 -47 5c-46 0 -67 -29 -67 -92v-68h235v-566c0 -81 -32 -142 -123 -142zM312 611v88h83v-88h-83z" />
    <glyph glyph-name="f_k" unicode="fk" horiz-adv-x="671" 
d="M253 741c59 0 111 -8 141 -20v-721h-81v667c-14 3 -36 6 -57 6c-69 0 -97 -29 -97 -109v-51h94v-68h-94v-445h-82v445h-62v68h62v56c0 118 65 172 176 172zM411 265l150 248h88l-151 -240l163 -273h-92z" />
    <glyph glyph-name="f_l" unicode="fl" horiz-adv-x="450" 
d="M394 0h-81v667c-15 3 -36 6 -57 6c-69 0 -97 -29 -97 -109v-51h94v-68h-94v-445h-82v445h-62v68h62v56c0 118 65 172 176 172c59 0 111 -8 141 -20v-721z" />
    <glyph glyph-name=".notdef" horiz-adv-x="415" 
 />
    <glyph glyph-name="Eth" unicode="&#xd0;" horiz-adv-x="545" 
d="M6 312v72h58v309h168c179 0 278 -99 278 -318v-37c0 -211 -87 -338 -277 -338h-169v312h-58zM148 72h87c127 0 185 75 185 252v51c0 188 -72 246 -195 246h-77v-237h151v-72h-151v-240z" />
    <glyph glyph-name="eth" unicode="&#xf0;" horiz-adv-x="459" 
d="M102 602l95 47c-30 30 -64 57 -99 85h106c19 -13 40 -30 62 -51l78 38l24 -49l-62 -31c65 -76 124 -189 124 -347v-29c0 -173 -68 -273 -202 -273c-124 0 -199 80 -199 253v22c0 161 74 254 195 254c32 0 55 -9 72 -18h5c-18 38 -40 72 -66 104l-108 -53zM343 289
c0 53 -6 100 -17 142c-22 12 -52 22 -90 22c-78 0 -121 -57 -121 -177v-34c0 -142 50 -181 115 -181c77 0 113 61 113 202v26z" />
    <glyph glyph-name="Lslash" unicode="&#x141;" horiz-adv-x="420" 
d="M3 215v74l62 32v372h84v-330l164 82v-74l-164 -82v-217h248v-72h-332v246z" />
    <glyph glyph-name="lslash" unicode="&#x142;" horiz-adv-x="215" 
d="M7 298v75l58 38v323h82v-268l65 43v-76l-65 -44v-389h-82v336z" />
    <glyph glyph-name="Scaron" unicode="&#x160;" horiz-adv-x="422" 
d="M328 853l-84 -116h-68l-84 116h64l54 -57l55 57h63zM185 -11c-72 0 -124 19 -159 40v72c43 -21 98 -39 153 -39c87 0 127 41 127 125c0 75 -31 96 -96 125l-50 22c-75 33 -129 78 -129 185c0 115 71 184 198 184c70 0 108 -16 136 -31v-72c-30 15 -77 31 -137 31
c-74 0 -114 -36 -114 -106c0 -61 20 -86 80 -112l50 -22c86 -38 148 -74 148 -196c0 -117 -58 -206 -207 -206z" />
    <glyph glyph-name="scaron" unicode="&#x161;" horiz-adv-x="345" 
d="M297 722l-87 -135h-72l-88 135h64l60 -72l60 72h63zM155 -8c-55 0 -99 11 -131 30v66c32 -13 67 -27 122 -27c68 0 94 30 94 79c0 45 -20 65 -71 83l-40 14c-63 22 -104 60 -104 139c0 90 58 145 162 145c58 0 90 -13 112 -26v-67c-24 11 -62 24 -108 24
c-56 0 -88 -19 -88 -69c0 -40 17 -59 61 -74l40 -14c80 -28 117 -63 117 -147c0 -100 -62 -156 -166 -156z" />
    <glyph glyph-name="Yacute" unicode="&#xdd;" horiz-adv-x="473" 
d="M195 0v264l-186 429h89l94 -226c31 -74 48 -115 48 -115h3s15 37 47 115l92 226h82l-184 -429v-264h-85zM204 738l55 118h90l-76 -118h-69z" />
    <glyph glyph-name="yacute" unicode="&#xfd;" horiz-adv-x="414" 
d="M89 -197c-21 0 -45 6 -60 14v58c12 -2 31 -4 46 -4c42 0 65 20 84 83l16 48l-167 511h89l98 -325c13 -43 18 -65 18 -65h2s7 32 17 64l91 326h82l-173 -570c-28 -93 -63 -140 -143 -140zM171 587l72 137h90l-93 -137h-69z" />
    <glyph glyph-name="Thorn" unicode="&#xde;" horiz-adv-x="472" 
d="M65 0v693h84v-122h107c130 0 195 -67 195 -197c0 -140 -75 -207 -190 -207h-112v-167h-84zM149 238h96c84 0 118 39 118 128c0 97 -33 132 -116 132h-98v-260z" />
    <glyph glyph-name="thorn" unicode="&#xfe;" horiz-adv-x="466" 
d="M55 -191v925h82v-254h4c23 20 64 41 119 41c101 0 177 -63 177 -241v-33c0 -174 -71 -255 -195 -255c-50 0 -85 15 -105 28v-211h-82zM233 61c75 0 119 47 119 174v41c0 134 -40 173 -113 173c-51 0 -86 -16 -102 -28v-333c15 -12 49 -27 96 -27z" />
    <glyph glyph-name="Zcaron" unicode="&#x17d;" horiz-adv-x="444" 
d="M354 853l-84 -116h-68l-84 116h64l54 -57l55 57h63zM25 0v62l296 556v3h-274v72h373v-63l-298 -555v-3h289v-72h-386z" />
    <glyph glyph-name="zcaron" unicode="&#x17e;" horiz-adv-x="382" 
d="M325 722l-87 -135h-72l-88 135h64l60 -72l60 72h63zM28 0v60l226 383v3h-214v67h313v-57l-229 -385v-3h227v-68h-323z" />
    <glyph glyph-name="onehalf" unicode="&#xbd;" horiz-adv-x="690" 
d="M51 -40l427 753h66l-427 -753h-66zM89 278v345l-71 -9v41l103 41h35v-418h-67zM426 0v43l90 115c41 48 64 86 64 134c0 50 -23 75 -70 75c-33 0 -59 -8 -78 -18v52c21 11 53 21 94 21c82 0 126 -45 126 -124c0 -64 -31 -110 -80 -164l-63 -77v-2h151v-55h-234z" />
    <glyph glyph-name="onequarter" unicode="&#xbc;" horiz-adv-x="654" 
d="M89 278v345l-71 -9v41l103 41h35v-418h-67zM60 -40l427 753h66l-427 -753h-66zM514 0v99h-161v45l167 271h60v-265h52v-51h-52v-99h-66zM417 150h100v159h-2l-98 -156v-3z" />
    <glyph glyph-name="threequarters" unicode="&#xbe;" horiz-adv-x="701" 
d="M121 270c-46 0 -76 9 -96 22v53c20 -10 48 -19 77 -19c52 0 85 19 85 73c0 48 -26 68 -75 68h-34v52h31c42 0 67 20 67 63c0 48 -25 61 -71 61c-27 0 -50 -5 -69 -12v52c21 9 53 16 90 16c76 0 119 -38 119 -102c0 -58 -26 -85 -66 -98v-1c48 -10 78 -39 78 -104
c0 -78 -51 -124 -136 -124zM106 -40l427 753h66l-427 -753h-66zM561 0v99h-161v45l167 271h60v-265h52v-51h-52v-99h-66zM464 150h100v159h-2l-98 -156v-3z" />
    <glyph glyph-name="brokenbar" unicode="&#xa6;" horiz-adv-x="250" 
d="M88 -120v392h74v-392h-74zM88 349v379h74v-379h-74z" />
    <glyph glyph-name="minus" unicode="&#x2212;" horiz-adv-x="439" 
d="M41 314v73h358v-73h-358z" />
    <glyph glyph-name="multiply" unicode="&#xd7;" horiz-adv-x="475" 
d="M111 165l-49 48l127 131l-124 129l51 49l122 -127l123 127l48 -48l-124 -129l126 -131l-49 -49l-126 130z" />
    <glyph glyph-name="space" unicode=" " horiz-adv-x="158" 
 />
    <glyph glyph-name="exclam" unicode="!" horiz-adv-x="237" 
d="M84 200l-12 493h93l-12 -493h-69zM73 0v97h92v-97h-92z" />
    <glyph glyph-name="quotedbl" unicode="&#x22;" horiz-adv-x="312" 
d="M53 510l-10 183h87l-10 -183h-67zM191 510l-10 183h87l-10 -183h-67z" />
    <glyph glyph-name="numbersign" unicode="#" horiz-adv-x="449" 
d="M45 421v72h83l26 200h66l-26 -200h97l26 200h66l-27 -200h69v-72h-79l-17 -130h72v-71h-81l-29 -220h-66l29 220h-97l-29 -220h-66l29 220h-71v71h80l17 130h-72zM184 421l-17 -130h97l17 130h-97z" />
    <glyph glyph-name="dollar" unicode="$" horiz-adv-x="434" 
d="M147 -110l9 101c-56 5 -99 21 -126 39v66c39 -22 83 -36 132 -39l24 272l-16 6c-74 27 -134 73 -134 182s63 181 184 186l6 62h57l-6 -65c45 -6 74 -20 94 -31v-66c-23 11 -56 26 -100 32l-23 -245l6 -2c86 -31 142 -77 142 -196c0 -114 -61 -194 -184 -202l-9 -100h-56z
M317 184c0 69 -20 100 -76 124l-23 -249c67 11 99 54 99 125zM114 523c0 -60 18 -90 80 -114l20 227c-66 -5 -100 -43 -100 -113z" />
    <glyph glyph-name="percent" unicode="%" horiz-adv-x="715" 
d="M118 -40l399 753h72l-400 -753h-71zM169 340c-92 0 -142 60 -142 174v16c0 105 50 173 141 173c92 0 142 -61 142 -170v-15c0 -106 -48 -178 -141 -178zM170 398c45 0 67 30 67 111v27c0 79 -25 110 -68 110c-44 0 -69 -30 -69 -109v-27c0 -82 24 -112 70 -112zM547 -9
c-92 0 -142 60 -142 174v16c0 105 50 173 141 173c92 0 142 -61 142 -170v-15c0 -106 -49 -178 -141 -178zM548 48c45 0 67 31 67 112v27c0 79 -25 110 -68 110c-44 0 -69 -30 -69 -109v-27c0 -82 24 -113 70 -113z" />
    <glyph glyph-name="ampersand" unicode="&#x26;" horiz-adv-x="542" 
d="M241 -10c-140 0 -213 76 -213 196c0 95 47 158 130 206c-33 46 -59 91 -59 152c0 104 67 159 156 159c90 0 146 -54 146 -142c0 -90 -51 -136 -132 -184l133 -193c16 42 24 94 26 154h75c-2 -84 -20 -161 -55 -221l82 -117h-96l-37 52c-41 -39 -93 -62 -156 -62zM240 59
c49 0 88 17 118 49l-163 230c-53 -35 -81 -79 -81 -143c0 -86 44 -136 126 -136zM183 551c0 -45 18 -75 42 -110l8 -12c51 35 85 63 85 128c0 53 -25 79 -66 79c-45 0 -69 -29 -69 -85z" />
    <glyph glyph-name="quotesingle" unicode="'" horiz-adv-x="173" 
d="M53 510l-10 183h87l-10 -183h-67z" />
    <glyph glyph-name="parenleft" unicode="(" horiz-adv-x="280" 
d="M206 -120c-81 83 -163 233 -163 414v23c0 181 82 333 163 417h69c-77 -93 -146 -247 -146 -408v-34c0 -155 69 -318 146 -412h-69z" />
    <glyph glyph-name="parenright" unicode=")" horiz-adv-x="280" 
d="M5 -120c78 94 147 247 147 404v34c0 159 -69 322 -147 416h70c80 -84 162 -237 162 -417v-23c0 -182 -82 -331 -162 -414h-70z" />
    <glyph glyph-name="asterisk" unicode="*" horiz-adv-x="322" 
d="M190 693l-3 -94l77 49l29 -52l-82 -42l82 -44l-29 -51l-77 49l3 -95h-60l4 95l-77 -49l-29 51l82 43l-82 43l29 52l76 -49l-3 94h60z" />
    <glyph glyph-name="plus" unicode="+" horiz-adv-x="439" 
d="M182 161v153h-141v73h141v151h75v-151h142v-73h-142v-153h-75z" />
    <glyph glyph-name="comma" unicode="," horiz-adv-x="211" 
d="M49 -92l17 192h93l-41 -192h-69z" />
    <glyph glyph-name="hyphen" unicode="-" horiz-adv-x="272" 
d="M52 240v71h168v-71h-168z" />
    <glyph glyph-name="period" unicode="." horiz-adv-x="216" 
d="M62 0v97h92v-97h-92z" />
    <glyph glyph-name="slash" unicode="/" horiz-adv-x="299" 
d="M2 -120l205 854h72l-205 -854h-72z" />
    <glyph glyph-name="zero" unicode="0" horiz-adv-x="535" 
d="M269 -11c-137 0 -227 89 -227 330v51c0 229 86 333 226 333c138 0 225 -95 225 -327v-54c0 -221 -78 -333 -224 -333zM270 60c101 0 135 86 135 249v75c0 165 -40 249 -138 249c-97 0 -135 -87 -135 -244v-74c0 -162 35 -255 138 -255z" />
    <glyph glyph-name="one" unicode="1" horiz-adv-x="288" 
d="M130 0v601l-108 -11v48l161 61h30v-699h-83z" />
    <glyph glyph-name="two" unicode="2" horiz-adv-x="425" 
d="M27 0v62l153 199c61 81 109 150 109 241c0 84 -36 128 -124 128c-51 0 -92 -13 -123 -28v67c36 20 84 34 149 34c126 0 187 -74 187 -193c0 -115 -55 -192 -132 -288l-121 -147v-3h261v-72h-359z" />
    <glyph glyph-name="three" unicode="3" horiz-adv-x="422" 
d="M171 -10c-71 0 -115 15 -148 36v69c33 -18 78 -32 125 -32c89 0 144 38 144 135c0 89 -42 128 -127 128h-53v72h47c72 0 115 39 115 118c0 88 -43 115 -118 115c-50 0 -84 -11 -113 -23v67c33 17 80 28 138 28c113 0 180 -63 180 -171c0 -94 -42 -139 -110 -160v-3
c79 -17 129 -66 129 -174c0 -130 -80 -205 -209 -205z" />
    <glyph glyph-name="four" unicode="4" horiz-adv-x="474" 
d="M282 0v173h-271v62l281 458h72v-449h98v-71h-98v-173h-82zM95 244h187v299h-4l-183 -296v-3z" />
    <glyph glyph-name="five" unicode="5" horiz-adv-x="421" 
d="M171 -10c-66 0 -116 14 -147 33v68c33 -17 74 -29 125 -29c99 0 144 50 144 151c0 98 -45 138 -142 138c-40 0 -78 -6 -105 -12l21 354h299v-72h-229l-13 -203c15 3 34 5 58 5c130 0 200 -64 200 -210c0 -133 -74 -223 -211 -223z" />
    <glyph glyph-name="six" unicode="6" horiz-adv-x="489" 
d="M255 60c71 0 108 56 108 152c0 98 -37 144 -114 144c-53 0 -94 -20 -117 -35v-34c0 -144 37 -227 123 -227zM255 -11c-143 0 -212 119 -212 299v57c0 277 120 358 263 358c49 0 92 -9 114 -23v-66c-21 7 -62 17 -103 17c-92 0 -180 -29 -185 -249c33 26 81 47 142 47
c115 0 177 -80 177 -209c0 -135 -70 -231 -196 -231z" />
    <glyph glyph-name="seven" unicode="7" horiz-adv-x="389" 
d="M72 0l217 617v4h-272v72h356v-69l-214 -624h-87z" />
    <glyph glyph-name="eight" unicode="8" horiz-adv-x="494" 
d="M247 -10c-136 0 -211 70 -211 179c0 94 58 152 131 188c-61 35 -107 88 -107 174c0 96 68 172 191 172s190 -66 190 -168c0 -82 -52 -138 -112 -171c76 -40 129 -89 129 -186c0 -105 -76 -188 -211 -188zM248 61c73 0 125 35 125 108c0 77 -56 111 -152 156
c-59 -29 -101 -78 -101 -149c0 -70 49 -115 128 -115zM274 394c54 38 83 76 83 137c0 60 -34 102 -106 102c-68 0 -106 -36 -106 -97c0 -64 44 -102 129 -142z" />
    <glyph glyph-name="nine" unicode="9" horiz-adv-x="489" 
d="M183 -11c-49 0 -95 11 -116 26v66c21 -8 66 -19 106 -19c108 0 181 33 184 248c-33 -26 -81 -47 -140 -47c-115 0 -179 81 -179 209c0 140 70 231 200 231c142 0 208 -110 208 -299v-57c0 -277 -106 -358 -263 -358zM241 336c53 0 93 19 116 35v34
c0 151 -37 227 -119 227c-75 0 -112 -52 -112 -152c0 -98 39 -144 115 -144z" />
    <glyph glyph-name="colon" unicode=":" horiz-adv-x="224" 
d="M65 0v97h92v-97h-92zM65 301v97h92v-97h-92z" />
    <glyph glyph-name="semicolon" unicode=";" horiz-adv-x="224" 
d="M49 -92l17 192h93l-41 -192h-69zM66 301v97h92v-97h-92z" />
    <glyph glyph-name="less" unicode="&#x3c;" horiz-adv-x="406" 
d="M356 112l-317 175v66l317 174v-85l-235 -121l235 -122v-87z" />
    <glyph glyph-name="equal" unicode="=" horiz-adv-x="451" 
d="M51 352v69h350v-69h-350zM51 190v70h350v-70h-350z" />
    <glyph glyph-name="greater" unicode="&#x3e;" horiz-adv-x="406" 
d="M50 112v86l235 124l-235 120v85l317 -174v-66z" />
    <glyph glyph-name="question" unicode="?" horiz-adv-x="353" 
d="M99 200v58c0 71 27 95 87 154c40 39 54 65 54 123c0 74 -43 97 -110 97c-49 0 -77 -9 -108 -19v67c32 14 76 23 129 23c105 0 177 -51 177 -165c0 -80 -23 -114 -89 -178c-46 -45 -63 -61 -63 -110v-50h-77zM93 0v97h92v-97h-92z" />
    <glyph glyph-name="at" unicode="@" horiz-adv-x="784" 
d="M391 -150c-219 0 -346 115 -346 366c0 269 148 461 386 461c212 0 311 -143 311 -336c0 -207 -82 -308 -195 -310c-61 0 -90 25 -99 62h-4c-25 -33 -61 -61 -109 -61c-80 0 -121 59 -121 155c0 185 76 291 189 291c38 0 69 -14 87 -32h4l6 26h73l-52 -318
c-6 -40 4 -62 36 -62c72 0 117 94 117 245c0 167 -71 279 -244 279c-204 0 -317 -165 -317 -403c0 -200 95 -302 277 -302c82 0 150 22 190 36v-54c-45 -23 -119 -43 -189 -43zM358 98c35 0 65 21 83 40l38 250c-12 13 -39 26 -71 26c-86 0 -111 -115 -111 -219
c0 -69 20 -97 61 -97z" />
    <glyph glyph-name="A" unicode="A" horiz-adv-x="511" 
d="M11 0l198 693h93l199 -693h-86l-54 191h-219l-52 -191h-79zM253 590h-3s-11 -53 -21 -88l-66 -240h177l-66 240c-9 34 -21 88 -21 88z" />
    <glyph glyph-name="B" unicode="B" horiz-adv-x="490" 
d="M65 0v693h172c148 0 199 -64 199 -172c0 -77 -29 -133 -106 -154v-4c79 -11 130 -56 130 -167c0 -119 -65 -196 -216 -196h-179zM149 71h88c100 0 135 44 135 131c0 91 -46 122 -135 122h-88v-253zM149 393h70c81 0 131 30 131 117c0 86 -41 111 -123 111h-78v-228z" />
    <glyph glyph-name="C" unicode="C" horiz-adv-x="474" 
d="M294 -10c-161 0 -257 98 -257 329v54c0 251 120 330 268 330c60 0 104 -14 136 -33v-70c-44 18 -85 31 -141 31c-102 0 -174 -61 -174 -249v-63c0 -165 48 -257 178 -257c62 0 109 19 145 38v-71c-37 -23 -89 -39 -155 -39z" />
    <glyph glyph-name="D" unicode="D" horiz-adv-x="546" 
d="M65 0v693h168c179 0 278 -99 278 -318v-37c0 -211 -87 -338 -277 -338h-169zM149 72h87c127 0 185 75 185 252v51c0 188 -72 246 -195 246h-77v-549z" />
    <glyph glyph-name="E" unicode="E" horiz-adv-x="449" 
d="M65 0v693h346v-72h-262v-227h205v-71h-205v-251h265v-72h-349z" />
    <glyph glyph-name="F" unicode="F" horiz-adv-x="425" 
d="M65 0v693h337v-72h-253v-239h199v-72h-199v-310h-84z" />
    <glyph glyph-name="G" unicode="G" horiz-adv-x="533" 
d="M302 -10c-167 0 -265 87 -265 338v38c0 236 105 337 279 337c71 0 115 -17 144 -35v-71c-36 17 -79 34 -149 34c-141 0 -185 -100 -185 -255v-48c0 -170 39 -266 183 -266c36 0 71 6 92 14v202h-114v71h197v-323c-40 -18 -101 -36 -182 -36z" />
    <glyph glyph-name="H" unicode="H" horiz-adv-x="561" 
d="M65 0v693h84v-298h263v298h84v-693h-84v323h-263v-323h-84z" />
    <glyph glyph-name="I" unicode="I" horiz-adv-x="217" 
d="M67 0v693h84v-693h-84z" />
    <glyph glyph-name="J" unicode="J" horiz-adv-x="351" 
d="M128 -7c-47 0 -78 7 -107 20v68c25 -8 58 -15 99 -15c63 0 85 34 85 101v526h84v-526c0 -100 -41 -174 -161 -174z" />
    <glyph glyph-name="K" unicode="K" horiz-adv-x="500" 
d="M390 0l-219 355l217 338h91l-215 -331l223 -362h-97zM65 0v693h84v-693h-84z" />
    <glyph glyph-name="L" unicode="L" horiz-adv-x="418" 
d="M65 0v693h84v-621h248v-72h-332z" />
    <glyph glyph-name="M" unicode="M" horiz-adv-x="677" 
d="M65 0v693h129l116 -457c16 -64 29 -141 29 -141h2s13 78 29 141l114 457h128v-693h-80v419c0 65 4 184 4 184h-3s-21 -95 -35 -150l-119 -453h-86l-117 447c-11 42 -35 154 -35 154h-3s4 -117 4 -183v-418h-77z" />
    <glyph glyph-name="N" unicode="N" horiz-adv-x="558" 
d="M65 0v693h106l193 -439c27 -58 55 -135 55 -135h2s-5 55 -5 126v448h77v-693h-95l-199 441c-35 78 -59 146 -59 146h-3s5 -52 5 -132v-455h-77z" />
    <glyph glyph-name="O" unicode="O" horiz-adv-x="568" 
d="M284 -10c-156 0 -247 100 -247 333v46c0 213 83 334 247 334c160 0 247 -107 247 -332v-50c0 -206 -80 -331 -247 -331zM285 60c111 0 157 96 157 247v64c0 163 -40 262 -160 262c-113 0 -156 -102 -156 -246v-63c0 -162 39 -264 159 -264z" />
    <glyph glyph-name="P" unicode="P" horiz-adv-x="470" 
d="M65 0v693h175c137 0 206 -64 206 -206c0 -136 -77 -211 -203 -211h-94v-276h-84zM149 347h81c91 0 127 43 127 137c0 102 -35 137 -126 137h-82v-274z" />
    <glyph glyph-name="Q" unicode="Q" horiz-adv-x="570" 
d="M541 -116l-334 114c-107 37 -170 124 -170 327v44c0 213 83 334 247 334c159 0 247 -107 247 -332v-49c0 -173 -54 -274 -156 -309l189 -51zM285 57c111 0 157 99 157 249v65c0 163 -41 262 -160 263c-111 0 -156 -102 -156 -247v-64c0 -163 39 -266 159 -266z" />
    <glyph glyph-name="R" unicode="R" horiz-adv-x="487" 
d="M65 0v693h167c143 0 207 -59 207 -198c0 -104 -44 -154 -112 -179v-5l152 -311h-91l-142 295h-97v-295h-84zM149 364h81c85 0 120 40 120 128c0 93 -32 129 -124 129h-77v-257z" />
    <glyph glyph-name="S" unicode="S" horiz-adv-x="422" 
d="M185 -11c-72 0 -124 19 -159 40v72c43 -21 98 -39 153 -39c87 0 127 41 127 125c0 75 -31 96 -96 125l-50 22c-75 33 -129 78 -129 185c0 115 71 184 198 184c70 0 108 -16 136 -31v-72c-30 15 -77 31 -137 31c-74 0 -114 -36 -114 -106c0 -61 20 -86 80 -112l50 -22
c86 -38 148 -74 148 -196c0 -117 -58 -206 -207 -206z" />
    <glyph glyph-name="T" unicode="T" horiz-adv-x="445" 
d="M180 0v621h-166v72h415v-72h-165v-621h-84z" />
    <glyph glyph-name="U" unicode="U" horiz-adv-x="548" 
d="M275 -11c-145 0 -213 78 -213 218v486h84v-476c0 -113 41 -157 133 -157c91 0 127 43 127 158v475h80v-483c0 -146 -67 -221 -211 -221z" />
    <glyph glyph-name="V" unicode="V" horiz-adv-x="501" 
d="M206 0l-195 693h88l131 -487c14 -51 23 -93 23 -93h2s9 40 23 93l131 487h81l-197 -693h-87z" />
    <glyph glyph-name="W" unicode="W" horiz-adv-x="731" 
d="M155 0l-139 693h85l90 -480c4 -22 14 -86 14 -86h3s10 58 16 86l107 480h78l102 -478c5 -23 18 -89 18 -89h2s6 47 14 90l90 477h80l-140 -693h-90l-97 443c-8 45 -20 110 -20 110h-2s-12 -65 -21 -109l-99 -444h-91z" />
    <glyph glyph-name="X" unicode="X" horiz-adv-x="504" 
d="M20 0l190 354l-177 339h92l91 -179c23 -45 44 -85 44 -85h3s20 41 41 85l86 179h85l-169 -337l178 -356h-90l-98 199c-25 50 -43 83 -43 83h-3s-21 -43 -44 -85l-101 -197h-85z" />
    <glyph glyph-name="Y" unicode="Y" horiz-adv-x="473" 
d="M195 0v264l-186 429h89l94 -226c31 -74 48 -115 48 -115h3s15 37 47 115l92 226h82l-184 -429v-264h-85z" />
    <glyph glyph-name="Z" unicode="Z" horiz-adv-x="444" 
d="M25 0v62l296 556v3h-274v72h373v-63l-298 -555v-3h289v-72h-386z" />
    <glyph glyph-name="bracketleft" unicode="[" horiz-adv-x="287" 
d="M65 -120v854h195v-65h-115v-724h115v-65h-195z" />
    <glyph glyph-name="backslash" unicode="\" horiz-adv-x="296" 
d="M222 -120l-205 854h72l204 -854h-71z" />
    <glyph glyph-name="bracketright" unicode="]" horiz-adv-x="287" 
d="M28 -120v65h114v724h-114v65h194v-854h-194z" />
    <glyph glyph-name="asciicircum" unicode="^" horiz-adv-x="384" 
d="M34 457l124 236h68l124 -236h-70l-88 156l-89 -156h-69z" />
    <glyph glyph-name="underscore" unicode="_" horiz-adv-x="277" 
d="M-2 -110v56h281v-56h-281z" />
    <glyph glyph-name="grave" unicode="`" 
d="M180 587l-93 137h90l72 -137h-69z" />
    <glyph glyph-name="a" unicode="a" horiz-adv-x="409" 
d="M169 -8c-87 0 -144 47 -144 146c0 91 50 138 145 152l106 16v50c0 72 -26 95 -105 95c-45 0 -81 -9 -107 -18v60c35 16 79 28 138 28c104 0 156 -48 156 -144v-377h-67l-8 36h-5c-22 -24 -60 -44 -109 -44zM191 56c37 0 68 12 85 26v160l-82 -10c-57 -7 -84 -33 -84 -89
c0 -58 27 -87 81 -87z" />
    <glyph glyph-name="b" unicode="b" horiz-adv-x="466" 
d="M216 -10c-59 0 -129 13 -162 26v718h82v-249h4c28 18 69 36 126 36c91 0 169 -53 169 -233v-35c0 -170 -73 -263 -219 -263zM220 59c73 0 131 39 131 183v42c0 130 -38 168 -118 168c-43 0 -78 -16 -97 -25v-356c17 -6 46 -12 84 -12z" />
    <glyph glyph-name="c" unicode="c" horiz-adv-x="378" 
d="M234 -8c-127 0 -205 73 -205 248v32c0 179 91 249 212 249c52 0 86 -12 112 -29v-68c-32 14 -63 28 -117 28c-89 0 -123 -67 -123 -171v-40c0 -131 44 -180 130 -180c55 0 95 20 116 32v-66c-27 -19 -67 -35 -125 -35z" />
    <glyph glyph-name="d" unicode="d" horiz-adv-x="466" 
d="M212 -8c-99 0 -181 61 -181 246v23c0 167 68 260 198 260c42 0 80 -11 102 -25v238h81v-734h-69l-7 38h-4c-25 -26 -68 -46 -120 -46zM235 59c42 0 75 18 96 34v338c-18 12 -53 21 -91 21c-87 0 -124 -55 -124 -182v-29c0 -124 39 -182 119 -182z" />
    <glyph glyph-name="e" unicode="e" horiz-adv-x="427" 
d="M243 -8c-144 0 -214 86 -214 250v27c0 170 74 252 190 252c121 0 180 -69 180 -240v-52h-286c3 -120 49 -167 139 -167c55 0 98 16 134 36v-60c-24 -22 -76 -46 -143 -46zM216 454c-61 0 -101 -43 -103 -158h201c0 112 -28 158 -98 158z" />
    <glyph glyph-name="f" unicode="f" horiz-adv-x="267" 
d="M77 0v445h-62v68h62v74c0 105 52 154 136 154c35 0 60 -9 74 -16v-59c-13 3 -32 7 -56 7c-52 0 -72 -30 -72 -93v-67h95v-68h-95v-445h-82z" />
    <glyph glyph-name="g" unicode="g" horiz-adv-x="427" 
d="M207 -193c-128 0 -197 50 -197 127c0 60 40 96 88 114v4c-29 11 -52 33 -52 71c0 37 20 66 53 92c-32 21 -60 64 -60 126v15c0 104 71 165 168 165c25 0 47 -3 66 -8h146v-64h-70c16 -21 28 -49 28 -89v-15c0 -106 -74 -161 -169 -161c-25 0 -49 3 -69 10
c-10 -10 -18 -27 -18 -43c0 -25 13 -41 46 -41h98c100 0 153 -45 153 -138c0 -95 -68 -165 -211 -165zM205 -128c96 0 131 34 131 91c0 44 -20 71 -81 71h-104c-32 -12 -58 -42 -58 -85c0 -49 37 -77 112 -77zM208 247c55 0 89 31 89 93v21c0 68 -36 97 -89 97
c-56 0 -89 -32 -89 -95v-21c0 -65 37 -95 89 -95z" />
    <glyph glyph-name="h" unicode="h" horiz-adv-x="461" 
d="M54 0v734h82v-260h4c36 26 85 47 142 47c83 0 126 -39 126 -126v-395h-81v384c0 48 -20 67 -79 67c-44 0 -86 -17 -112 -31v-420h-82z" />
    <glyph glyph-name="i" unicode="i" horiz-adv-x="193" 
d="M56 0v513h82v-513h-82zM55 611v88h83v-88h-83z" />
    <glyph glyph-name="j" unicode="j" horiz-adv-x="192" 
d="M13 -197c-30 0 -50 6 -66 16v57c12 -2 28 -5 44 -5c43 0 64 23 64 78v564h81v-568c0 -81 -32 -142 -123 -142zM54 611v88h83v-88h-83z" />
    <glyph glyph-name="k" unicode="k" horiz-adv-x="415" 
d="M136 734v-734h-82v734h82zM152 265l151 248h90l-151 -241l163 -272h-95z" />
    <glyph glyph-name="l" unicode="l" horiz-adv-x="193" 
d="M56 0v734h81v-734h-81z" />
    <glyph glyph-name="m" unicode="m" horiz-adv-x="695" 
d="M54 0v513h78v-41h4c34 25 82 49 133 49c53 0 85 -17 105 -53h4c42 30 90 53 145 53c74 0 120 -36 120 -126v-395h-82v385c0 44 -16 66 -71 66c-35 0 -71 -14 -101 -31v-420h-81v385c0 46 -18 66 -70 66c-40 0 -74 -15 -102 -31v-420h-82z" />
    <glyph glyph-name="n" unicode="n" horiz-adv-x="461" 
d="M54 0v513h78v-41h4c37 27 89 49 147 49c83 0 125 -39 125 -126v-395h-81v384c0 48 -20 67 -79 67c-44 0 -86 -17 -112 -31v-420h-82z" />
    <glyph glyph-name="o" unicode="o" horiz-adv-x="456" 
d="M228 -8c-132 0 -199 91 -199 247v33c0 152 74 249 199 249c130 0 199 -88 199 -248v-32c0 -152 -72 -249 -199 -249zM229 59c77 0 114 70 114 170v53c0 118 -43 172 -116 172c-79 0 -114 -71 -114 -170v-54c0 -111 42 -171 116 -171z" />
    <glyph glyph-name="p" unicode="p" horiz-adv-x="466" 
d="M54 -191v704h78v-39h4c25 24 70 47 125 47c105 0 174 -66 174 -237v-34c0 -168 -64 -258 -194 -258c-47 0 -84 14 -105 28v-211h-82zM229 59c84 0 122 57 122 183v39c0 121 -33 171 -113 171c-46 0 -83 -17 -102 -32v-336c16 -12 53 -25 93 -25z" />
    <glyph glyph-name="q" unicode="q" horiz-adv-x="464" 
d="M331 28h-4c-23 -16 -65 -36 -119 -36c-91 0 -177 54 -177 235v33c0 187 88 261 219 261c73 0 128 -15 162 -32v-680h-81v219zM245 454c-77 0 -129 -44 -129 -184v-41c0 -128 41 -169 119 -169c44 0 77 17 96 32v349c-19 6 -48 13 -86 13z" />
    <glyph glyph-name="r" unicode="r" horiz-adv-x="288" 
d="M54 0v513h78v-54h4c25 32 68 61 115 61c11 0 22 -2 28 -4v-74c-9 1 -23 2 -31 2c-44 0 -82 -14 -112 -37v-407h-82z" />
    <glyph glyph-name="s" unicode="s" horiz-adv-x="345" 
d="M155 -8c-55 0 -99 11 -131 30v66c32 -13 67 -27 122 -27c68 0 94 30 94 79c0 45 -20 65 -71 83l-40 14c-63 22 -104 60 -104 139c0 90 58 145 162 145c58 0 90 -13 112 -26v-67c-24 11 -62 24 -108 24c-56 0 -88 -19 -88 -69c0 -40 17 -59 61 -74l40 -14
c80 -28 117 -63 117 -147c0 -100 -62 -156 -166 -156z" />
    <glyph glyph-name="t" unicode="t" horiz-adv-x="290" 
d="M191 -6c-70 0 -115 31 -115 117v334h-61v68h61v120h81v-120h106v-68h-106v-323c0 -47 16 -61 59 -61c21 0 39 4 53 8v-55c-16 -10 -40 -20 -78 -20z" />
    <glyph glyph-name="u" unicode="u" horiz-adv-x="455" 
d="M181 -8c-91 0 -129 55 -129 137v384h82v-382c0 -44 14 -69 77 -69c43 0 84 18 108 32v419h82v-513h-70l-8 41h-4c-34 -24 -81 -49 -138 -49z" />
    <glyph glyph-name="v" unicode="v" horiz-adv-x="419" 
d="M168 0l-157 513h87l92 -327c13 -49 20 -84 20 -84h4s8 34 21 84l92 327h80l-155 -513h-84z" />
    <glyph glyph-name="w" unicode="w" horiz-adv-x="622" 
d="M134 0l-121 513h85l63 -302c12 -59 20 -101 20 -101h3s10 43 23 101l70 302h75l71 -302c15 -62 23 -101 23 -101h3s9 41 20 100l62 303h78l-119 -513h-86l-65 265c-15 62 -26 114 -26 114h-3s-10 -51 -26 -114l-65 -265h-85z" />
    <glyph glyph-name="x" unicode="x" horiz-adv-x="406" 
d="M13 0l145 259l-138 254h92l63 -121c24 -47 34 -66 34 -66h2l31 67l58 120h83l-131 -252l141 -261h-90l-65 128c-23 46 -35 67 -35 67h-1s-14 -28 -37 -68l-66 -127h-86z" />
    <glyph glyph-name="y" unicode="y" horiz-adv-x="414" 
d="M89 -197c-21 0 -45 6 -60 14v58c12 -2 31 -4 46 -4c42 0 65 20 84 83l16 48l-167 511h89l98 -325c13 -43 18 -65 18 -65h2s7 32 17 64l91 326h82l-173 -570c-28 -93 -63 -140 -143 -140z" />
    <glyph glyph-name="z" unicode="z" horiz-adv-x="382" 
d="M28 0v60l226 383v3h-214v67h313v-57l-229 -385v-3h227v-68h-323z" />
    <glyph glyph-name="braceleft" unicode="{" horiz-adv-x="317" 
d="M288 -122c-152 5 -181 68 -181 154v151c0 65 -23 90 -94 92v68c71 2 94 28 94 93v152c0 85 29 148 181 153v-66c-71 -6 -101 -16 -101 -93v-150c0 -53 -12 -104 -92 -121v-3c80 -17 92 -67 92 -121v-150c0 -76 30 -87 101 -93v-66z" />
    <glyph glyph-name="bar" unicode="|" horiz-adv-x="243" 
d="M87 -120v854h70v-854h-70z" />
    <glyph glyph-name="braceright" unicode="}" horiz-adv-x="317" 
d="M28 -122v66c71 6 102 17 102 93v150c0 54 12 104 92 121v3c-80 17 -92 68 -92 121v150c0 77 -31 87 -102 93v66c152 -5 181 -68 181 -153v-152c0 -65 23 -90 94 -92v-68c-71 -2 -94 -28 -94 -93v-151c0 -86 -29 -149 -181 -154z" />
    <glyph glyph-name="asciitilde" unicode="~" horiz-adv-x="342" 
d="M30 244c7 77 46 105 89 105c44 0 72 -34 103 -34c17 0 29 14 33 36h58c-6 -72 -44 -105 -88 -105c-45 0 -75 34 -102 34c-20 0 -31 -15 -35 -36h-58z" />
    <glyph glyph-name="Adieresis" unicode="&#xc4;" horiz-adv-x="511" 
d="M11 0l198 693h93l199 -693h-86l-54 191h-219l-52 -191h-79zM253 590h-3s-11 -53 -21 -88l-66 -240h177l-66 240c-9 34 -21 88 -21 88zM287 743v87h81v-87h-81zM139 743v87h81v-87h-81z" />
    <glyph glyph-name="Aring" unicode="&#xc5;" horiz-adv-x="511" 
d="M11 0l198 693h93l199 -693h-86l-54 191h-219l-52 -191h-79zM253 590h-3s-11 -53 -21 -88l-66 -240h177l-66 240c-9 34 -21 88 -21 88zM256 728c-49 0 -85 34 -85 85c0 50 36 86 85 86s85 -35 85 -85s-36 -86 -85 -86zM256 768c25 0 41 18 41 46c0 27 -16 45 -41 45
c-26 0 -41 -18 -41 -45c0 -28 16 -46 41 -46z" />
    <glyph glyph-name="Ccedilla" unicode="&#xc7;" horiz-adv-x="474" 
d="M294 -10c-6 0 -12 0 -18 1v-40c49 -3 83 -24 83 -69c0 -58 -39 -92 -151 -98v50c62 6 86 18 86 42c0 25 -23 31 -68 31v90c-120 25 -189 125 -189 322v54c0 251 120 330 268 330c60 0 104 -14 136 -33v-70c-44 18 -85 31 -141 31c-102 0 -174 -61 -174 -249v-63
c0 -165 48 -257 178 -257c62 0 109 19 145 38v-71c-37 -23 -89 -39 -155 -39z" />
    <glyph glyph-name="Eacute" unicode="&#xc9;" horiz-adv-x="449" 
d="M205 738l55 118h90l-76 -118h-69zM65 0v693h346v-72h-262v-227h205v-71h-205v-251h265v-72h-349z" />
    <glyph glyph-name="Ntilde" unicode="&#xd1;" horiz-adv-x="558" 
d="M164 744c4 69 40 100 81 100c43 0 66 -30 96 -30c16 0 26 10 30 32h54c-5 -65 -39 -100 -82 -100c-40 0 -66 30 -94 30c-18 0 -27 -11 -31 -32h-54zM65 0v693h106l193 -439c27 -58 55 -135 55 -135h2s-5 55 -5 126v448h77v-693h-95l-199 441c-35 78 -59 146 -59 146h-3
s5 -52 5 -132v-455h-77z" />
    <glyph glyph-name="Odieresis" unicode="&#xd6;" horiz-adv-x="568" 
d="M317 743v87h81v-87h-81zM169 743v87h81v-87h-81zM284 -10c-156 0 -247 100 -247 333v46c0 213 83 334 247 334c160 0 247 -107 247 -332v-50c0 -206 -80 -331 -247 -331zM285 60c111 0 157 96 157 247v64c0 163 -40 262 -160 262c-113 0 -156 -102 -156 -246v-63
c0 -162 39 -264 159 -264z" />
    <glyph glyph-name="Udieresis" unicode="&#xdc;" horiz-adv-x="548" 
d="M275 -11c-145 0 -213 78 -213 218v486h84v-476c0 -113 41 -157 133 -157c91 0 127 43 127 158v475h80v-483c0 -146 -67 -221 -211 -221zM308 743v87h81v-87h-81zM160 743v87h81v-87h-81z" />
    <glyph glyph-name="aacute" unicode="&#xe1;" horiz-adv-x="409" 
d="M169 -8c-87 0 -144 47 -144 146c0 91 50 138 145 152l106 16v50c0 72 -26 95 -105 95c-45 0 -81 -9 -107 -18v60c35 16 79 28 138 28c104 0 156 -48 156 -144v-377h-67l-8 36h-5c-22 -24 -60 -44 -109 -44zM191 56c37 0 68 12 85 26v160l-82 -10c-57 -7 -84 -33 -84 -89
c0 -58 27 -87 81 -87zM157 587l72 137h90l-93 -137h-69z" />
    <glyph glyph-name="agrave" unicode="&#xe0;" horiz-adv-x="409" 
d="M169 -8c-87 0 -144 47 -144 146c0 91 50 138 145 152l106 16v50c0 72 -26 95 -105 95c-45 0 -81 -9 -107 -18v60c35 16 79 28 138 28c104 0 156 -48 156 -144v-377h-67l-8 36h-5c-22 -24 -60 -44 -109 -44zM191 56c37 0 68 12 85 26v160l-82 -10c-57 -7 -84 -33 -84 -89
c0 -58 27 -87 81 -87zM175 587l-93 137h90l72 -137h-69z" />
    <glyph glyph-name="acircumflex" unicode="&#xe2;" horiz-adv-x="409" 
d="M169 -8c-87 0 -144 47 -144 146c0 91 50 138 145 152l106 16v50c0 72 -26 95 -105 95c-45 0 -81 -9 -107 -18v60c35 16 79 28 138 28c104 0 156 -48 156 -144v-377h-67l-8 36h-5c-22 -24 -60 -44 -109 -44zM191 56c37 0 68 12 85 26v160l-82 -10c-57 -7 -84 -33 -84 -89
c0 -58 27 -87 81 -87zM82 587l88 135h72l87 -135h-63l-61 73l-59 -73h-64z" />
    <glyph glyph-name="adieresis" unicode="&#xe4;" horiz-adv-x="409" 
d="M169 -8c-87 0 -144 47 -144 146c0 91 50 138 145 152l106 16v50c0 72 -26 95 -105 95c-45 0 -81 -9 -107 -18v60c35 16 79 28 138 28c104 0 156 -48 156 -144v-377h-67l-8 36h-5c-22 -24 -60 -44 -109 -44zM191 56c37 0 68 12 85 26v160l-82 -10c-57 -7 -84 -33 -84 -89
c0 -58 27 -87 81 -87zM243 610v87h81v-87h-81zM88 610v87h81v-87h-81z" />
    <glyph glyph-name="atilde" unicode="&#xe3;" horiz-adv-x="409" 
d="M169 -8c-87 0 -144 47 -144 146c0 91 50 138 145 152l106 16v50c0 72 -26 95 -105 95c-45 0 -81 -9 -107 -18v60c35 16 79 28 138 28c104 0 156 -48 156 -144v-377h-67l-8 36h-5c-22 -24 -60 -44 -109 -44zM191 56c37 0 68 12 85 26v160l-82 -10c-57 -7 -84 -33 -84 -89
c0 -58 27 -87 81 -87zM71 602c4 70 41 101 82 101c43 0 65 -33 95 -33c16 0 26 11 30 36h54c-5 -66 -40 -102 -83 -102c-41 0 -65 33 -93 33c-18 0 -27 -12 -31 -35h-54z" />
    <glyph glyph-name="aring" unicode="&#xe5;" horiz-adv-x="409" 
d="M169 -8c-87 0 -144 47 -144 146c0 91 50 138 145 152l106 16v50c0 72 -26 95 -105 95c-45 0 -81 -9 -107 -18v60c35 16 79 28 138 28c104 0 156 -48 156 -144v-377h-67l-8 36h-5c-22 -24 -60 -44 -109 -44zM191 56c37 0 68 12 85 26v160l-82 -10c-57 -7 -84 -33 -84 -89
c0 -58 27 -87 81 -87zM201 577c-49 0 -85 34 -85 85c0 50 36 86 85 86s85 -35 85 -85s-36 -86 -85 -86zM201 617c25 0 41 17 41 46c0 26 -16 45 -41 45c-26 0 -41 -18 -41 -45c0 -29 16 -46 41 -46z" />
    <glyph glyph-name="ccedilla" unicode="&#xe7;" horiz-adv-x="378" 
d="M234 -8c-6 0 -11 0 -16 1v-42c50 -3 84 -24 84 -69c0 -58 -40 -92 -152 -98v50c62 6 87 18 87 42c0 25 -23 31 -69 31v93c-88 23 -139 98 -139 240v32c0 179 91 249 212 249c52 0 86 -12 112 -29v-68c-32 14 -63 28 -117 28c-89 0 -123 -67 -123 -171v-40
c0 -131 44 -180 130 -180c55 0 95 20 116 32v-66c-27 -19 -67 -35 -125 -35z" />
    <glyph glyph-name="eacute" unicode="&#xe9;" horiz-adv-x="427" 
d="M177 587l72 137h90l-93 -137h-69zM243 -8c-144 0 -214 86 -214 250v27c0 170 74 252 190 252c121 0 180 -69 180 -240v-52h-286c3 -120 49 -167 139 -167c55 0 98 16 134 36v-60c-24 -22 -76 -46 -143 -46zM216 454c-61 0 -101 -43 -103 -158h201c0 112 -28 158 -98 158z
" />
    <glyph glyph-name="egrave" unicode="&#xe8;" horiz-adv-x="427" 
d="M243 -8c-144 0 -214 86 -214 250v27c0 170 74 252 190 252c121 0 180 -69 180 -240v-52h-286c3 -120 49 -167 139 -167c55 0 98 16 134 36v-60c-24 -22 -76 -46 -143 -46zM216 454c-61 0 -101 -43 -103 -158h201c0 112 -28 158 -98 158zM194 587l-93 137h90l72 -137h-69z
" />
    <glyph glyph-name="ecircumflex" unicode="&#xea;" horiz-adv-x="427" 
d="M97 587l88 135h72l87 -135h-63l-61 73l-59 -73h-64zM243 -8c-144 0 -214 86 -214 250v27c0 170 74 252 190 252c121 0 180 -69 180 -240v-52h-286c3 -120 49 -167 139 -167c55 0 98 16 134 36v-60c-24 -22 -76 -46 -143 -46zM216 454c-61 0 -101 -43 -103 -158h201
c0 112 -28 158 -98 158z" />
    <glyph glyph-name="edieresis" unicode="&#xeb;" horiz-adv-x="427" 
d="M260 611v87h81v-87h-81zM105 611v87h81v-87h-81zM243 -8c-144 0 -214 86 -214 250v27c0 170 74 252 190 252c121 0 180 -69 180 -240v-52h-286c3 -120 49 -167 139 -167c55 0 98 16 134 36v-60c-24 -22 -76 -46 -143 -46zM216 454c-61 0 -101 -43 -103 -158h201
c0 112 -28 158 -98 158z" />
    <glyph glyph-name="iacute" unicode="&#xed;" horiz-adv-x="193" 
d="M54 587l72 137h90l-93 -137h-69zM56 0v513h82v-513h-82z" />
    <glyph glyph-name="igrave" unicode="&#xec;" horiz-adv-x="193" 
d="M56 0v513h82v-513h-82zM70 587l-93 137h90l72 -137h-69z" />
    <glyph glyph-name="icircumflex" unicode="&#xee;" horiz-adv-x="193" 
d="M-14 587l76 136h70l75 -136h-64l-47 70l-45 -70h-65zM56 0v513h82v-513h-82z" />
    <glyph glyph-name="idieresis" unicode="&#xef;" horiz-adv-x="193" 
d="M123 611v87h78v-87h-78zM-7 611v87h78v-87h-78zM56 0v513h82v-513h-82z" />
    <glyph glyph-name="ntilde" unicode="&#xf1;" horiz-adv-x="461" 
d="M47 0v513h78v-41h4c37 27 89 49 147 49c83 0 125 -39 125 -126v-395h-81v384c0 48 -20 67 -79 67c-44 0 -86 -17 -112 -31v-420h-82zM99 602c4 70 41 101 82 101c43 0 65 -33 95 -33c16 0 26 11 30 36h54c-5 -66 -40 -102 -83 -102c-41 0 -65 33 -93 33
c-18 0 -27 -12 -31 -35h-54z" />
    <glyph glyph-name="oacute" unicode="&#xf3;" horiz-adv-x="456" 
d="M183 587l72 137h90l-93 -137h-69zM228 -8c-132 0 -199 91 -199 247v33c0 152 74 249 199 249c130 0 199 -88 199 -248v-32c0 -152 -72 -249 -199 -249zM229 59c77 0 114 70 114 170v53c0 118 -43 172 -116 172c-79 0 -114 -71 -114 -170v-54c0 -111 42 -171 116 -171z
" />
    <glyph glyph-name="ograve" unicode="&#xf2;" horiz-adv-x="456" 
d="M228 -8c-132 0 -199 91 -199 247v33c0 152 74 249 199 249c130 0 199 -88 199 -248v-32c0 -152 -72 -249 -199 -249zM229 59c77 0 114 70 114 170v53c0 118 -43 172 -116 172c-79 0 -114 -71 -114 -170v-54c0 -111 42 -171 116 -171zM200 587l-93 137h90l72 -137h-69z
" />
    <glyph glyph-name="ocircumflex" unicode="&#xf4;" horiz-adv-x="456" 
d="M103 587l88 135h72l87 -135h-63l-61 73l-59 -73h-64zM228 -8c-132 0 -199 91 -199 247v33c0 152 74 249 199 249c130 0 199 -88 199 -248v-32c0 -152 -72 -249 -199 -249zM229 59c77 0 114 70 114 170v53c0 118 -43 172 -116 172c-79 0 -114 -71 -114 -170v-54
c0 -111 42 -171 116 -171z" />
    <glyph glyph-name="odieresis" unicode="&#xf6;" horiz-adv-x="456" 
d="M268 611v87h81v-87h-81zM113 611v87h81v-87h-81zM228 -8c-132 0 -199 91 -199 247v33c0 152 74 249 199 249c130 0 199 -88 199 -248v-32c0 -152 -72 -249 -199 -249zM229 59c77 0 114 70 114 170v53c0 118 -43 172 -116 172c-79 0 -114 -71 -114 -170v-54
c0 -111 42 -171 116 -171z" />
    <glyph glyph-name="otilde" unicode="&#xf5;" horiz-adv-x="456" 
d="M228 -8c-132 0 -199 91 -199 247v33c0 152 74 249 199 249c130 0 199 -88 199 -248v-32c0 -152 -72 -249 -199 -249zM229 59c77 0 114 70 114 170v53c0 118 -43 172 -116 172c-79 0 -114 -71 -114 -170v-54c0 -111 42 -171 116 -171zM96 602c4 70 41 101 82 101
c43 0 65 -33 95 -33c16 0 26 11 30 36h54c-5 -66 -40 -102 -83 -102c-41 0 -65 33 -93 33c-18 0 -27 -12 -31 -35h-54z" />
    <glyph glyph-name="uacute" unicode="&#xfa;" horiz-adv-x="455" 
d="M185 587l72 137h90l-93 -137h-69zM181 -8c-91 0 -129 55 -129 137v384h82v-382c0 -44 14 -69 77 -69c43 0 84 18 108 32v419h82v-513h-70l-8 41h-4c-34 -24 -81 -49 -138 -49z" />
    <glyph glyph-name="ugrave" unicode="&#xf9;" horiz-adv-x="455" 
d="M181 -8c-91 0 -129 55 -129 137v384h82v-382c0 -44 14 -69 77 -69c43 0 84 18 108 32v419h82v-513h-70l-8 41h-4c-34 -24 -81 -49 -138 -49zM202 587l-93 137h90l72 -137h-69z" />
    <glyph glyph-name="ucircumflex" unicode="&#xfb;" horiz-adv-x="455" 
d="M105 587l88 135h72l87 -135h-63l-61 73l-59 -73h-64zM181 -8c-91 0 -129 55 -129 137v384h82v-382c0 -44 14 -69 77 -69c43 0 84 18 108 32v419h82v-513h-70l-8 41h-4c-34 -24 -81 -49 -138 -49z" />
    <glyph glyph-name="udieresis" unicode="&#xfc;" horiz-adv-x="455" 
d="M266 611v87h81v-87h-81zM111 611v87h81v-87h-81zM181 -8c-91 0 -129 55 -129 137v384h82v-382c0 -44 14 -69 77 -69c43 0 84 18 108 32v419h82v-513h-70l-8 41h-4c-34 -24 -81 -49 -138 -49z" />
    <glyph glyph-name="dagger" unicode="&#x2020;" horiz-adv-x="432" 
d="M178 -69v496h-148v70h148v196h76v-196h149v-70h-149v-496h-76z" />
    <glyph glyph-name="degree" unicode="&#xb0;" horiz-adv-x="337" 
d="M169 445c-76 0 -129 55 -129 129c0 71 52 129 128 129c77 0 129 -55 129 -129c0 -73 -52 -129 -128 -129zM169 494c42 0 69 31 69 80c0 48 -28 79 -70 79s-69 -31 -69 -79s29 -80 70 -80z" />
    <glyph glyph-name="cent" unicode="&#xa2;" horiz-adv-x="377" 
d="M155 -112l13 111c-87 22 -139 97 -139 239v32c0 178 87 248 202 250l8 65h62l-9 -71c26 -5 46 -14 62 -23v-67c-20 9 -43 18 -70 23l-49 -390h8c55 0 95 20 116 30v-60c-27 -19 -67 -36 -127 -36h-5l-13 -103h-59zM113 240c0 -92 22 -145 64 -168l46 379
c-80 -5 -110 -70 -110 -171v-40z" />
    <glyph glyph-name="sterling" unicode="&#xa3;" horiz-adv-x="445" 
d="M44 312v64h65v126c0 148 88 201 185 201c54 0 92 -13 112 -25v-67c-26 11 -56 18 -93 18c-71 0 -118 -29 -118 -131v-122h156v-64h-156v-72c0 -90 -17 -129 -58 -165v-2h274v-73h-374v62c55 36 72 78 72 171v79h-65z" />
    <glyph glyph-name="section" unicode="&#xa7;" horiz-adv-x="419" 
d="M191 -130c-61 0 -105 11 -138 34v68c37 -18 69 -32 129 -32c65 0 103 28 103 87c0 51 -15 68 -70 89l-75 29c-72 28 -118 68 -118 152c0 73 40 109 89 127c-30 25 -50 63 -50 123c0 92 57 156 170 156c60 0 97 -14 120 -28v-68c-25 13 -63 26 -114 26
c-66 0 -97 -26 -97 -82c0 -46 16 -67 58 -84l78 -30c80 -31 124 -64 124 -155c0 -63 -27 -106 -84 -129c37 -26 52 -65 52 -118c0 -108 -67 -165 -177 -165zM321 270c0 51 -23 75 -76 94l-75 27c-45 -11 -69 -40 -69 -86s21 -71 69 -89l64 -24l20 -7c41 12 67 41 67 85z" />
    <glyph glyph-name="bullet" unicode="&#x2022;" horiz-adv-x="306" 
d="M152 206c-64 0 -113 50 -113 115c0 66 49 115 113 115s115 -49 115 -115c0 -65 -50 -115 -115 -115z" />
    <glyph glyph-name="paragraph" unicode="&#xb6;" horiz-adv-x="500" 
d="M243 -120v458h-42c-94 0 -172 59 -172 179c0 99 55 176 195 176h211v-813h-63v760h-66v-760h-63z" />
    <glyph glyph-name="germandbls" unicode="&#xdf;" horiz-adv-x="477" 
d="M304 -9c-49 0 -78 7 -106 22v66c30 -11 57 -19 97 -19c50 0 82 25 82 65c0 33 -14 54 -51 79l-39 27c-53 37 -79 72 -79 134c0 101 117 154 117 237c0 47 -32 72 -84 72c-65 0 -105 -40 -105 -127v-547h-82v554c0 137 92 188 190 188c101 0 161 -47 161 -136
c0 -114 -119 -165 -119 -233c0 -33 14 -55 45 -75l44 -30c50 -35 82 -72 82 -137c0 -90 -62 -140 -153 -140z" />
    <glyph glyph-name="registered" unicode="&#xae;" horiz-adv-x="367" 
d="M184 317c-97 0 -165 74 -165 195c0 118 68 192 165 192s164 -73 164 -192c0 -118 -68 -195 -164 -195zM184 346c80 0 130 63 130 166c0 101 -50 164 -130 164c-81 0 -131 -63 -131 -164c0 -103 50 -166 131 -166zM124 418v194h63c42 0 63 -18 63 -57
c0 -30 -11 -45 -27 -52v-2l38 -83h-44l-32 76h-19v-76h-42zM166 528h17c18 0 24 8 24 25c0 19 -6 25 -25 25h-16v-50z" />
    <glyph glyph-name="copyright" unicode="&#xa9;" horiz-adv-x="670" 
d="M336 -11c-179 0 -302 135 -302 357c0 219 123 355 302 355s302 -135 302 -355c0 -218 -125 -357 -302 -357zM336 37c150 0 247 113 247 309s-98 307 -247 307c-152 0 -247 -111 -247 -307s97 -309 247 -309zM346 149c-91 0 -150 56 -150 187v24c0 136 68 185 155 185
c37 0 67 -11 83 -20v-63c-22 11 -46 19 -83 19c-58 0 -80 -43 -80 -115v-30c0 -87 27 -124 87 -124c39 0 62 12 79 21v-60c-20 -12 -49 -24 -91 -24z" />
    <glyph glyph-name="trademark" unicode="&#x2122;" horiz-adv-x="554" 
d="M256 405v288h80l55 -208h3l57 208h80v-288h-56v215h-2l-58 -215h-50l-58 215h-2v-215h-49zM87 405v239h-71v49h199v-49h-72v-239h-56z" />
    <glyph glyph-name="acute" unicode="&#xb4;" 
d="M168 587l72 137h90l-93 -137h-69z" />
    <glyph glyph-name="dieresis" unicode="&#xa8;" horiz-adv-x="425" 
d="M249 611v87h81v-87h-81zM94 611v87h81v-87h-81z" />
    <glyph glyph-name="AE" unicode="&#xc6;" horiz-adv-x="738" 
d="M-1 0l304 693h398v-72h-262v-227h205v-72h-205v-250h265v-72h-348v193h-190l-83 -193h-84zM352 625l-154 -359h158v359h-4z" />
    <glyph glyph-name="Oslash" unicode="&#xd8;" horiz-adv-x="568" 
d="M281 -10c-71 0 -123 26 -161 67l-38 -57h-74l75 111c-33 62 -46 140 -46 215v43c0 213 83 334 252 334c65 0 115 -23 152 -60l34 50h74l-68 -102c35 -61 50 -140 50 -219v-51c0 -206 -81 -331 -250 -331zM285 60c111 0 157 96 157 247v99c0 41 -4 78 -13 109l-266 -395
c26 -39 65 -60 122 -60zM126 289c0 -37 3 -71 9 -100l264 391c-26 34 -64 53 -117 53c-113 1 -156 -102 -156 -246v-98z" />
    <glyph glyph-name="yen" unicode="&#xa5;" horiz-adv-x="481" 
d="M201 0v150h-135v63h135v76h-135v64h118l-161 340h93l78 -173c35 -79 52 -126 52 -126h3s17 47 51 125l78 174h85l-161 -340h119v-64h-135v-76h135v-63h-135v-150h-85z" />
    <glyph glyph-name="ordfeminine" unicode="&#xaa;" horiz-adv-x="370" 
d="M150 224c-82 0 -133 45 -133 134c0 82 49 124 135 137l91 13v41c0 64 -22 85 -93 85c-41 0 -73 -9 -97 -16v57c32 14 74 25 128 25c92 0 140 -43 140 -130v-338h-64l-8 32h-4c-20 -22 -52 -40 -95 -40zM168 285c33 0 60 11 75 23v140l-69 -8c-52 -6 -76 -30 -76 -79
c0 -51 24 -76 70 -76z" />
    <glyph glyph-name="ordmasculine" unicode="&#xba;" horiz-adv-x="413" 
d="M205 224c-120 0 -180 83 -180 223v29c0 137 67 224 181 224c120 0 182 -79 182 -222v-30c0 -136 -66 -224 -183 -224zM207 288c67 0 99 61 99 149v49c0 103 -38 151 -101 151c-69 0 -99 -63 -99 -150v-48c0 -98 36 -151 101 -151z" />
    <glyph glyph-name="ae" unicode="&#xe6;" horiz-adv-x="672" 
d="M488 -8c-75 0 -131 23 -166 69c-35 -39 -82 -69 -155 -69c-86 0 -142 48 -142 145c0 88 52 136 147 149l104 13v57c0 72 -27 95 -106 95c-45 0 -81 -9 -106 -18v60c34 16 79 28 139 28c66 0 108 -23 128 -70c31 47 78 70 136 70c117 0 177 -71 177 -236v-49h-286
c1 -126 47 -174 139 -174c55 0 98 16 134 36v-60c-24 -22 -80 -46 -143 -46zM297 105c-15 36 -23 80 -23 132l-79 -10c-59 -7 -87 -32 -87 -87c0 -57 29 -84 80 -84c43 0 78 17 109 49zM461 454c-60 0 -99 -52 -103 -153h201c0 105 -28 153 -98 153z" />
    <glyph glyph-name="oslash" unicode="&#xf8;" horiz-adv-x="456" 
d="M228 -8c-53 0 -96 15 -128 43l-25 -35h-68l57 80c-24 40 -35 94 -35 159v33c0 152 74 249 199 249c50 0 91 -14 123 -40l23 32h68l-54 -76c25 -41 39 -96 39 -164v-32c0 -152 -73 -249 -199 -249zM229 58c77 0 114 71 114 171v65c0 27 -3 50 -7 70l-194 -270
c20 -25 49 -36 87 -36zM113 218c0 -24 1 -45 5 -63l191 267c-20 23 -48 33 -82 33c-79 0 -114 -72 -114 -171v-66z" />
    <glyph glyph-name="questiondown" unicode="&#xbf;" horiz-adv-x="354" 
d="M202 -130c-104 0 -177 51 -177 165c0 80 24 114 89 178c46 45 63 61 63 110v50h78v-58c0 -71 -27 -95 -87 -154c-40 -39 -55 -65 -55 -123c0 -74 44 -97 111 -97c48 0 76 9 108 19v-67c-32 -14 -77 -23 -130 -23zM169 476v97h91v-97h-91z" />
    <glyph glyph-name="exclamdown" unicode="&#xa1;" horiz-adv-x="237" 
d="M72 -120l12 493h69l12 -493h-93zM72 476v97h92v-97h-92z" />
    <glyph glyph-name="florin" unicode="&#x192;" horiz-adv-x="356" 
d="M24 384v73h84l18 126c16 113 74 158 158 158c33 0 56 -6 69 -11v-63c-17 3 -32 5 -53 5c-51 0 -83 -26 -94 -100l-16 -115h103v-73h-114l-58 -416c-16 -108 -68 -149 -140 -149c-36 0 -58 7 -72 15v60c9 -2 28 -6 47 -6c40 0 73 18 83 88l57 408h-72z" />
    <glyph glyph-name="guillemotleft" unicode="&#xab;" horiz-adv-x="394" 
d="M126 56l-91 181v31l91 181h76l-94 -197l94 -196h-76zM282 56l-91 181v31l91 181h76l-94 -197l94 -196h-76z" />
    <glyph glyph-name="guillemotright" unicode="&#xbb;" horiz-adv-x="396" 
d="M36 56l94 196l-94 197h77l91 -181v-31l-91 -181h-77zM193 56l94 196l-94 197h77l91 -181v-31l-91 -181h-77z" />
    <glyph glyph-name="ellipsis" unicode="&#x2026;" horiz-adv-x="623" 
d="M266 0v97h92v-97h-92zM469 0v97h93v-97h-93zM62 0v97h92v-97h-92z" />
    <glyph glyph-name="uni00A0" unicode="&#xa0;" horiz-adv-x="158" 
 />
    <glyph glyph-name="Agrave" unicode="&#xc0;" horiz-adv-x="511" 
d="M11 0l198 693h93l199 -693h-86l-54 191h-219l-52 -191h-79zM253 590h-3s-11 -53 -21 -88l-66 -240h177l-66 240c-9 34 -21 88 -21 88zM226 737l-72 119h89l51 -119h-68z" />
    <glyph glyph-name="Atilde" unicode="&#xc3;" horiz-adv-x="511" 
d="M11 0l198 693h93l199 -693h-86l-54 191h-219l-52 -191h-79zM253 590h-3s-11 -53 -21 -88l-66 -240h177l-66 240c-9 34 -21 88 -21 88zM125 744c4 69 40 100 81 100c43 0 66 -30 96 -30c16 0 26 10 30 32h54c-5 -65 -39 -100 -82 -100c-40 0 -66 30 -94 30
c-18 0 -27 -11 -31 -32h-54z" />
    <glyph glyph-name="Otilde" unicode="&#xd5;" horiz-adv-x="568" 
d="M152 744c4 69 40 100 81 100c43 0 66 -30 96 -30c16 0 26 10 30 32h54c-5 -65 -39 -100 -82 -100c-40 0 -66 30 -94 30c-18 0 -27 -11 -31 -32h-54zM284 -10c-156 0 -247 100 -247 333v46c0 213 83 334 247 334c160 0 247 -107 247 -332v-50c0 -206 -80 -331 -247 -331z
M285 60c111 0 157 96 157 247v64c0 163 -40 262 -160 262c-113 0 -156 -102 -156 -246v-63c0 -162 39 -264 159 -264z" />
    <glyph glyph-name="OE" unicode="&#x152;" horiz-adv-x="773" 
d="M309 0c-177 0 -272 89 -272 322v34c0 225 78 337 270 337h428v-72h-262v-227h205v-72h-205v-250h265v-72h-429zM311 74h78v545h-87c-128 0 -176 -77 -176 -253v-44c0 -190 63 -248 185 -248z" />
    <glyph glyph-name="oe" unicode="&#x153;" horiz-adv-x="740" 
d="M227 -8c-132 0 -198 91 -198 247v33c0 152 73 249 199 249c76 0 127 -34 156 -92c31 63 83 92 148 92c123 0 180 -71 180 -240v-51h-286c2 -121 48 -168 139 -168c55 0 98 16 134 36v-60c-25 -22 -79 -46 -142 -46c-90 0 -144 36 -174 97c-30 -59 -82 -97 -156 -97z
M229 59c77 0 113 70 113 170v53c0 117 -42 172 -117 172c-77 0 -112 -69 -112 -170v-54c0 -111 41 -171 116 -171zM529 454c-61 0 -101 -44 -103 -159h201c0 113 -29 159 -98 159z" />
    <glyph glyph-name="endash" unicode="&#x2013;" horiz-adv-x="359" 
d="M30 252v66h299v-66h-299z" />
    <glyph glyph-name="emdash" unicode="&#x2014;" horiz-adv-x="594" 
d="M30 252v66h534v-66h-534z" />
    <glyph glyph-name="quotedblleft" unicode="&#x201c;" horiz-adv-x="317" 
d="M31 510l36 183h67l-15 -183h-88zM172 510l36 183h67l-15 -183h-88z" />
    <glyph glyph-name="quotedblright" unicode="&#x201d;" horiz-adv-x="317" 
d="M43 510l16 183h88l-36 -183h-68zM183 510l16 183h88l-36 -183h-68z" />
    <glyph glyph-name="quoteleft" unicode="&#x2018;" horiz-adv-x="179" 
d="M31 510l36 183h67l-15 -183h-88z" />
    <glyph glyph-name="quoteright" unicode="&#x2019;" horiz-adv-x="177" 
d="M44 510l16 183h88l-36 -183h-68z" />
    <glyph glyph-name="divide" unicode="&#xf7;" horiz-adv-x="439" 
d="M41 314v73h357v-73h-357zM173 165v96h92v-96h-92zM173 437v97h92v-97h-92z" />
    <glyph glyph-name="ydieresis" unicode="&#xff;" horiz-adv-x="414" 
d="M89 -197c-21 0 -45 6 -60 14v58c12 -2 31 -4 46 -4c42 0 65 20 84 83l16 48l-167 511h89l98 -325c13 -43 18 -65 18 -65h2s7 32 17 64l91 326h82l-173 -570c-28 -93 -63 -140 -143 -140zM255 611v87h81v-87h-81zM100 611v87h81v-87h-81z" />
    <glyph glyph-name="Ydieresis" unicode="&#x178;" horiz-adv-x="473" 
d="M195 0v264l-186 429h89l94 -226c31 -74 48 -115 48 -115h3s15 37 47 115l92 226h82l-184 -429v-264h-85zM275 743v87h81v-87h-81zM127 743v87h81v-87h-81z" />
    <glyph glyph-name="fraction" unicode="&#x2044;" horiz-adv-x="203" 
d="M-146 -40l427 753h66l-427 -753h-66z" />
    <glyph glyph-name="Euro" unicode="&#x20ac;" horiz-adv-x="486" 
d="M20 386v64h61c20 203 126 253 243 253c56 0 94 -13 123 -30v-70c-40 16 -75 28 -128 28c-79 0 -137 -32 -149 -181h188v-64h-190v-83h190v-64h-187c13 -132 66 -177 154 -177c57 0 95 18 128 35v-70c-34 -22 -79 -37 -136 -37c-120 0 -217 57 -236 249h-61v64h58v83h-58z
" />
    <glyph glyph-name="guilsinglleft" unicode="&#x2039;" horiz-adv-x="238" 
d="M126 56l-91 181v31l91 181h76l-94 -197l94 -196h-76z" />
    <glyph glyph-name="guilsinglright" unicode="&#x203a;" horiz-adv-x="238" 
d="M36 56l94 196l-94 197h77l91 -181v-31l-91 -181h-77z" />
    <glyph glyph-name="daggerdbl" unicode="&#x2021;" horiz-adv-x="438" 
d="M33 127v70h148v230h-148v70h148v196h76v-196h149v-70h-149v-230h149v-70h-149v-196h-76v196h-148z" />
    <glyph glyph-name="periodcentered" unicode="&#xb7;" horiz-adv-x="214" 
d="M62 276v96h90v-96h-90z" />
    <glyph glyph-name="quotesinglbase" unicode="&#x201a;" horiz-adv-x="179" 
d="M43 -76l16 183h88l-36 -183h-68z" />
    <glyph glyph-name="quotedblbase" unicode="&#x201e;" horiz-adv-x="317" 
d="M183 -76l16 183h88l-36 -183h-68zM42 -76l16 183h88l-36 -183h-68z" />
    <glyph glyph-name="perthousand" unicode="&#x2030;" horiz-adv-x="1046" 
d="M171 340c-93 0 -143 60 -143 174v16c0 105 50 173 141 173c92 0 142 -61 142 -170v-15c0 -106 -48 -178 -140 -178zM119 -40l399 753h72l-399 -753h-72zM877 -9c-92 0 -142 60 -142 174v16c0 105 50 173 141 173c92 0 142 -61 142 -170v-15c0 -106 -49 -178 -141 -178z
M548 -9c-92 0 -142 60 -142 174v16c0 105 50 173 141 173c92 0 142 -61 142 -170v-15c0 -106 -48 -178 -141 -178zM171 398c45 0 67 30 67 111v27c0 79 -25 110 -68 110s-68 -30 -68 -109v-27c0 -82 23 -112 69 -112zM878 48c45 0 67 31 67 112v27c0 79 -25 110 -68 110
c-44 0 -69 -30 -69 -109v-27c0 -82 24 -113 70 -113zM549 48c45 0 67 31 67 112v27c0 79 -25 110 -68 110s-68 -30 -68 -109v-27c0 -82 23 -113 69 -113z" />
    <glyph glyph-name="Acircumflex" unicode="&#xc2;" horiz-adv-x="511" 
d="M11 0l198 693h93l199 -693h-86l-54 191h-219l-52 -191h-79zM253 590h-3s-11 -53 -21 -88l-66 -240h177l-66 240c-9 34 -21 88 -21 88zM136 737l84 116h68l84 -116h-63l-56 56l-53 -56h-64z" />
    <glyph glyph-name="Ecircumflex" unicode="&#xca;" horiz-adv-x="449" 
d="M123 737l84 116h68l84 -116h-63l-56 56l-53 -56h-64zM65 0v693h346v-72h-262v-227h205v-71h-205v-251h265v-72h-349z" />
    <glyph glyph-name="Aacute" unicode="&#xc1;" horiz-adv-x="511" 
d="M11 0l198 693h93l199 -693h-86l-54 191h-219l-52 -191h-79zM253 590h-3s-11 -53 -21 -88l-66 -240h177l-66 240c-9 34 -21 88 -21 88zM218 738l55 118h90l-76 -118h-69z" />
    <glyph glyph-name="Edieresis" unicode="&#xcb;" horiz-adv-x="449" 
d="M65 0v693h346v-72h-262v-227h205v-71h-205v-251h265v-72h-349zM275 743v87h81v-87h-81zM127 743v87h81v-87h-81z" />
    <glyph glyph-name="Egrave" unicode="&#xc8;" horiz-adv-x="449" 
d="M218 737l-72 119h89l51 -119h-68zM65 0v693h346v-72h-262v-227h205v-71h-205v-251h265v-72h-349z" />
    <glyph glyph-name="Iacute" unicode="&#xcd;" horiz-adv-x="217" 
d="M67 0v693h84v-693h-84zM73 738l55 118h90l-76 -118h-69z" />
    <glyph glyph-name="Icircumflex" unicode="&#xce;" horiz-adv-x="217" 
d="M-3 737l77 116h67l76 -116h-60l-51 58l-48 -58h-61zM67 0v693h84v-693h-84z" />
    <glyph glyph-name="Idieresis" unicode="&#xcf;" horiz-adv-x="217" 
d="M135 743v87h78v-87h-78zM3 743v87h78v-87h-78zM67 0v693h84v-693h-84z" />
    <glyph glyph-name="Igrave" unicode="&#xcc;" horiz-adv-x="217" 
d="M67 0v693h84v-693h-84zM80 737l-72 119h89l51 -119h-68z" />
    <glyph glyph-name="Oacute" unicode="&#xd3;" horiz-adv-x="568" 
d="M248 738l55 118h90l-76 -118h-69zM284 -10c-156 0 -247 100 -247 333v46c0 213 83 334 247 334c160 0 247 -107 247 -332v-50c0 -206 -80 -331 -247 -331zM285 60c111 0 157 96 157 247v64c0 163 -40 262 -160 262c-113 0 -156 -102 -156 -246v-63
c0 -162 39 -264 159 -264z" />
    <glyph glyph-name="Ocircumflex" unicode="&#xd4;" horiz-adv-x="568" 
d="M165 737l84 116h68l84 -116h-63l-56 56l-53 -56h-64zM284 -10c-156 0 -247 100 -247 333v46c0 213 83 334 247 334c160 0 247 -107 247 -332v-50c0 -206 -80 -331 -247 -331zM285 60c111 0 157 96 157 247v64c0 163 -40 262 -160 262c-113 0 -156 -102 -156 -246v-63
c0 -162 39 -264 159 -264z" />
    <glyph glyph-name="Ograve" unicode="&#xd2;" horiz-adv-x="568" 
d="M259 737l-72 119h89l51 -119h-68zM284 -10c-156 0 -247 100 -247 333v46c0 213 83 334 247 334c160 0 247 -107 247 -332v-50c0 -206 -80 -331 -247 -331zM285 60c111 0 157 96 157 247v64c0 163 -40 262 -160 262c-113 0 -156 -102 -156 -246v-63
c0 -162 39 -264 159 -264z" />
    <glyph glyph-name="Uacute" unicode="&#xda;" horiz-adv-x="548" 
d="M239 738l55 118h90l-76 -118h-69zM275 -11c-145 0 -213 78 -213 218v486h84v-476c0 -113 41 -157 133 -157c91 0 127 43 127 158v475h80v-483c0 -146 -67 -221 -211 -221z" />
    <glyph glyph-name="Ucircumflex" unicode="&#xdb;" horiz-adv-x="548" 
d="M156 737l84 116h68l84 -116h-63l-56 56l-53 -56h-64zM275 -11c-145 0 -213 78 -213 218v486h84v-476c0 -113 41 -157 133 -157c91 0 127 43 127 158v475h80v-483c0 -146 -67 -221 -211 -221z" />
    <glyph glyph-name="Ugrave" unicode="&#xd9;" horiz-adv-x="548" 
d="M249 737l-72 119h89l51 -119h-68zM275 -11c-145 0 -213 78 -213 218v486h84v-476c0 -113 41 -157 133 -157c91 0 127 43 127 158v475h80v-483c0 -146 -67 -221 -211 -221z" />
    <glyph glyph-name="dotlessi" unicode="&#x131;" horiz-adv-x="192" 
d="M55 0v513h82v-513h-82z" />
    <glyph glyph-name="circumflex" unicode="&#x2c6;" 
d="M84 587l88 135h72l87 -135h-63l-61 73l-59 -73h-64z" />
    <glyph glyph-name="tilde" unicode="&#x2dc;" 
d="M75 602c4 70 41 101 82 101c43 0 65 -33 95 -33c16 0 26 11 30 36h54c-5 -66 -40 -102 -83 -102c-41 0 -65 33 -93 33c-18 0 -27 -12 -31 -35h-54z" />
    <glyph glyph-name="macron" unicode="&#xaf;" 
d="M107 613v69h203v-69h-203z" />
    <glyph glyph-name="breve" unicode="&#x2d8;" 
d="M208 590c-69 0 -111 50 -114 117h60c5 -34 22 -53 54 -53s49 19 54 53h61c-3 -67 -47 -117 -115 -117z" />
    <glyph glyph-name="dotaccent" unicode="&#x2d9;" 
d="M166 611v88h83v-88h-83z" />
    <glyph glyph-name="ring" unicode="&#x2da;" 
d="M208 577c-49 0 -85 34 -85 85c0 50 36 86 85 86s85 -35 85 -85s-36 -86 -85 -86zM208 617c25 0 41 17 41 46c0 26 -16 45 -41 45c-26 0 -41 -18 -41 -45c0 -29 16 -46 41 -46z" />
    <glyph glyph-name="cedilla" unicode="&#xb8;" 
d="M170 -216v50c62 6 87 18 87 42c0 25 -23 31 -69 31v93h50v-49c50 -3 84 -24 84 -69c0 -58 -40 -92 -152 -98z" />
    <glyph glyph-name="hungarumlaut" unicode="&#x2dd;" 
d="M228 587l39 137h85l-59 -137h-65zM91 587l41 137h84l-59 -137h-66z" />
    <glyph glyph-name="ogonek" unicode="&#x2db;" 
d="M216 -200c-62 0 -98 29 -98 83c0 57 48 98 78 117h59c-33 -34 -67 -67 -67 -106c0 -30 23 -37 49 -37c9 0 21 2 27 4v-52c-10 -5 -29 -9 -48 -9z" />
    <glyph glyph-name="caron" unicode="&#x2c7;" 
d="M332 722l-87 -135h-72l-88 135h64l60 -72l60 72h63z" />
    <glyph glyph-name="space_uni0326" horiz-adv-x="411" 
d="M151 -177l12 134h87l-40 -134h-59z" />
    <glyph glyph-name="caron.alt" horiz-adv-x="411" 
d="M237 584h-57l9 150h76z" />
    <glyph glyph-name="space_uni0326.alt" horiz-adv-x="411" 
d="M261 742l-16 -139h-88l45 139h59z" />
    <glyph glyph-name="acute.pl" 
d="M201 587l36 137h87l-58 -137h-65z" />
    <glyph glyph-name="grave.uc" 
d="M178 737l-72 119h89l51 -119h-68z" />
    <glyph glyph-name="dieresis.uc" 
d="M241 743v87h81v-87h-81zM93 743v87h81v-87h-81z" />
    <glyph glyph-name="macron.uc" 
d="M106 746v68h204v-68h-204z" />
    <glyph glyph-name="acute.uc" 
d="M173 738l55 118h90l-76 -118h-69z" />
    <glyph glyph-name="circumflex.uc" 
d="M89 737l84 116h68l84 -116h-63l-56 56l-53 -56h-64z" />
    <glyph glyph-name="caron.uc" 
d="M325 853l-84 -116h-68l-84 116h64l54 -57l55 57h63z" />
    <glyph glyph-name="breve.uc" 
d="M208 736c-69 0 -111 50 -114 117h60c5 -34 22 -53 54 -53s49 19 54 53h61c-3 -67 -47 -117 -115 -117z" />
    <glyph glyph-name="dotaccent.uc" 
d="M167 745v89h82v-89h-82z" />
    <glyph glyph-name="ring.uc" 
d="M208 728c-49 0 -85 34 -85 85c0 50 36 86 85 86s85 -35 85 -85s-36 -86 -85 -86zM208 768c25 0 41 18 41 46c0 27 -16 45 -41 45c-26 0 -41 -18 -41 -45c0 -28 16 -46 41 -46z" />
    <glyph glyph-name="tilde.uc" 
d="M75 744c4 69 40 100 81 100c43 0 66 -30 96 -30c16 0 26 10 30 32h54c-5 -65 -39 -100 -82 -100c-40 0 -66 30 -94 30c-18 0 -27 -11 -31 -32h-54z" />
    <glyph glyph-name="hungarumlaut.uc" 
d="M230 737l32 118h85l-51 -118h-66zM94 737l33 118h85l-52 -118h-66z" />
    <glyph glyph-name="acute.ucpl" 
d="M194 738l34 118h87l-56 -118h-65z" />
    <glyph glyph-name="Dcroat" unicode="&#x110;" horiz-adv-x="546" 
d="M6 312v72h58v309h168c179 0 278 -99 278 -318v-37c0 -211 -87 -338 -277 -338h-169v312h-58zM148 72h87c127 0 185 75 185 252v51c0 188 -72 246 -195 246h-77v-237h151v-72h-151v-240z" />
    <glyph glyph-name="Eng" unicode="&#x14a;" horiz-adv-x="558" 
d="M65 0v693h106l193 -439c27 -58 55 -135 55 -135h2s-5 55 -5 126v448h77v-705c0 -100 -45 -162 -148 -162c-38 0 -69 7 -94 19v66c20 -7 50 -13 83 -13c48 0 74 22 80 65l-215 478c-35 78 -59 146 -59 146h-3s5 -52 5 -132v-455h-77z" />
    <glyph glyph-name="IJ" unicode="&#x132;" horiz-adv-x="533" 
d="M313 -7c-42 0 -74 6 -101 16v69c24 -8 55 -12 88 -12c67 0 85 41 85 113v514h84v-515c0 -103 -39 -185 -156 -185zM67 0v693h84v-693h-84z" />
    <glyph glyph-name="uni0237" unicode="&#x237;" horiz-adv-x="192" 
d="M13 -197c-30 0 -50 6 -66 16v57c12 -2 28 -5 44 -5c43 0 64 23 64 78v564h81v-568c0 -81 -32 -142 -123 -142z" />
    <glyph glyph-name="dcroat" unicode="&#x111;" horiz-adv-x="466" 
d="M207 590v57h124v87h81v-87h53v-57h-53v-590h-69l-7 38h-4c-25 -26 -68 -46 -120 -46c-99 0 -181 61 -181 246v23c0 167 68 260 198 260c42 0 80 -11 102 -25v94h-124zM235 59c42 0 75 18 96 34v338c-18 12 -53 21 -91 21c-87 0 -124 -55 -124 -182v-29
c0 -124 39 -182 119 -182z" />
    <glyph glyph-name="eng" unicode="&#x14b;" horiz-adv-x="462" 
d="M287 -197c-31 0 -51 6 -67 16v57c13 -2 28 -5 44 -5c44 0 65 23 65 78v435c0 48 -21 67 -79 67c-44 0 -87 -17 -113 -31v-420h-83v513h80v-41h4c37 27 89 49 147 49c82 0 125 -39 125 -126v-450c0 -81 -33 -142 -123 -142z" />
    <glyph glyph-name="ij" unicode="&#x133;" horiz-adv-x="193" 
d="M56 0v513h82v-513h-82zM55 611v88h83v-88h-83zM201 -197c-30 0 -50 6 -66 16v57c12 -2 28 -5 44 -5c43 0 64 23 64 78v564h81v-568c0 -81 -32 -142 -123 -142zM242 611v88h83v-88h-83z" />
    <glyph glyph-name="Abreve" unicode="&#x102;" horiz-adv-x="511" 
d="M11 0l198 693h93l199 -693h-86l-54 191h-219l-52 -191h-79zM253 590h-3s-11 -53 -21 -88l-66 -240h177l-66 240c-9 34 -21 88 -21 88zM255 736c-69 0 -111 50 -114 117h60c5 -34 22 -53 54 -53s49 19 54 53h61c-3 -67 -47 -117 -115 -117z" />
    <glyph glyph-name="Amacron" unicode="&#x100;" horiz-adv-x="511" 
d="M11 0l198 693h93l199 -693h-86l-54 191h-219l-52 -191h-79zM253 590h-3s-11 -53 -21 -88l-66 -240h177l-66 240c-9 34 -21 88 -21 88zM152 746v68h204v-68h-204z" />
    <glyph glyph-name="Aogonek" unicode="&#x104;" horiz-adv-x="511" 
d="M456 -197c-61 0 -99 31 -99 83c0 48 32 89 58 114l-54 191h-218l-53 -191h-79l198 693h93l198 -689c-37 -31 -73 -69 -73 -107c0 -29 21 -37 48 -37c11 0 23 1 29 3v-51c-10 -5 -29 -9 -48 -9zM253 590h-3s-11 -54 -21 -89l-66 -239h177l-66 240c-9 34 -21 88 -21 88z
" />
    <glyph glyph-name="Aringacute" unicode="&#x1fa;" horiz-adv-x="511" 
d="M11 0l198 693h93l199 -693h-86l-54 191h-219l-52 -191h-79zM253 590h-3s-11 -53 -21 -88l-66 -240h177l-66 240c-9 34 -21 88 -21 88zM223 926l55 118h90l-76 -118h-69zM254 728c-49 0 -85 34 -85 85c0 50 36 86 85 86s85 -35 85 -85s-36 -86 -85 -86zM254 768
c25 0 41 18 41 46c0 27 -16 45 -41 45c-26 0 -41 -18 -41 -45c0 -28 16 -46 41 -46z" />
    <glyph glyph-name="AEacute" unicode="&#x1fc;" horiz-adv-x="738" 
d="M459 738l55 118h90l-76 -118h-69zM-1 0l304 693h398v-72h-262v-227h205v-72h-205v-250h265v-72h-348v193h-190l-83 -193h-84zM352 625l-154 -359h158v359h-4z" />
    <glyph glyph-name="Cacute" unicode="&#x106;" horiz-adv-x="474" 
d="M294 -10c-161 0 -257 98 -257 329v54c0 251 120 330 268 330c60 0 104 -14 136 -33v-70c-44 18 -85 31 -141 31c-102 0 -174 -61 -174 -249v-63c0 -165 48 -257 178 -257c62 0 109 19 145 38v-71c-37 -23 -89 -39 -155 -39zM247 738l55 118h90l-76 -118h-69z" />
    <glyph glyph-name="Ccaron" unicode="&#x10c;" horiz-adv-x="474" 
d="M399 853l-84 -116h-68l-84 116h64l54 -57l55 57h63zM294 -10c-161 0 -257 98 -257 329v54c0 251 120 330 268 330c60 0 104 -14 136 -33v-70c-44 18 -85 31 -141 31c-102 0 -174 -61 -174 -249v-63c0 -165 48 -257 178 -257c62 0 109 19 145 38v-71
c-37 -23 -89 -39 -155 -39z" />
    <glyph glyph-name="Ccircumflex" unicode="&#x108;" horiz-adv-x="474" 
d="M162 737l84 116h68l84 -116h-63l-56 56l-53 -56h-64zM294 -10c-161 0 -257 98 -257 329v54c0 251 120 330 268 330c60 0 104 -14 136 -33v-70c-44 18 -85 31 -141 31c-102 0 -174 -61 -174 -249v-63c0 -165 48 -257 178 -257c62 0 109 19 145 38v-71
c-37 -23 -89 -39 -155 -39z" />
    <glyph glyph-name="Cdotaccent" unicode="&#x10a;" horiz-adv-x="474" 
d="M294 -10c-161 0 -257 98 -257 329v54c0 251 120 330 268 330c60 0 104 -14 136 -33v-70c-44 18 -85 31 -141 31c-102 0 -174 -61 -174 -249v-63c0 -165 48 -257 178 -257c62 0 109 19 145 38v-71c-37 -23 -89 -39 -155 -39zM241 745v89h82v-89h-82z" />
    <glyph glyph-name="Cacute.pl" horiz-adv-x="474" 
d="M294 -10c-161 0 -257 98 -257 329v54c0 251 120 330 268 330c60 0 104 -14 136 -33v-70c-44 18 -85 31 -141 31c-102 0 -174 -61 -174 -249v-63c0 -165 48 -257 178 -257c62 0 109 19 145 38v-71c-37 -23 -89 -39 -155 -39zM247 738l34 118h87l-56 -118h-65z" />
    <glyph glyph-name="Dcaron" unicode="&#x10e;" horiz-adv-x="546" 
d="M373 853l-84 -116h-68l-84 116h64l54 -57l55 57h63zM65 0v693h168c179 0 278 -99 278 -318v-37c0 -211 -87 -338 -277 -338h-169zM149 72h87c127 0 185 75 185 252v51c0 188 -72 246 -195 246h-77v-549z" />
    <glyph glyph-name="Ebreve" unicode="&#x114;" horiz-adv-x="449" 
d="M65 0v693h346v-72h-262v-227h205v-71h-205v-251h265v-72h-349zM241 736c-69 0 -111 50 -114 117h60c5 -34 22 -53 54 -53s49 19 54 53h61c-3 -67 -47 -117 -115 -117z" />
    <glyph glyph-name="Ecaron" unicode="&#x11a;" horiz-adv-x="449" 
d="M361 853l-84 -116h-68l-84 116h64l54 -57l55 57h63zM65 0v693h346v-72h-262v-227h205v-71h-205v-251h265v-72h-349z" />
    <glyph glyph-name="Edotaccent" unicode="&#x116;" horiz-adv-x="449" 
d="M203 745v89h82v-89h-82zM65 0v693h346v-72h-262v-227h205v-71h-205v-251h265v-72h-349z" />
    <glyph glyph-name="Emacron" unicode="&#x112;" horiz-adv-x="449" 
d="M65 0v693h346v-72h-262v-227h205v-71h-205v-251h265v-72h-349zM139 746v68h204v-68h-204z" />
    <glyph glyph-name="Eogonek" unicode="&#x118;" horiz-adv-x="449" 
d="M414 0h-40c-31 -26 -68 -65 -68 -103c0 -29 22 -37 49 -37c10 0 22 1 29 3v-51c-10 -5 -29 -9 -48 -9c-62 0 -100 31 -100 83c0 53 39 90 72 114h-243v693h346v-72h-262v-227h205v-71h-205v-251h265v-72z" />
    <glyph glyph-name="Gbreve" unicode="&#x11e;" horiz-adv-x="533" 
d="M288 736c-69 0 -111 50 -114 117h60c5 -34 22 -53 54 -53s49 19 54 53h61c-3 -67 -47 -117 -115 -117zM302 -10c-167 0 -265 87 -265 338v38c0 236 105 337 279 337c71 0 115 -17 144 -35v-71c-36 17 -79 34 -149 34c-141 0 -185 -100 -185 -255v-48
c0 -170 39 -266 183 -266c36 0 71 6 92 14v202h-114v71h197v-323c-40 -18 -101 -36 -182 -36z" />
    <glyph glyph-name="Gcircumflex" unicode="&#x11c;" horiz-adv-x="533" 
d="M169 737l84 116h68l84 -116h-63l-56 56l-53 -56h-64zM302 -10c-167 0 -265 87 -265 338v38c0 236 105 337 279 337c71 0 115 -17 144 -35v-71c-36 17 -79 34 -149 34c-141 0 -185 -100 -185 -255v-48c0 -170 39 -266 183 -266c36 0 71 6 92 14v202h-114v71h197v-323
c-40 -18 -101 -36 -182 -36z" />
    <glyph glyph-name="Gcommaaccent" unicode="&#x122;" horiz-adv-x="533" 
d="M239 -177l12 134h87l-40 -134h-59zM302 -10c-167 0 -265 87 -265 338v38c0 236 105 337 279 337c71 0 115 -17 144 -35v-71c-36 17 -79 34 -149 34c-141 0 -185 -100 -185 -255v-48c0 -170 39 -266 183 -266c36 0 71 6 92 14v202h-114v71h197v-323
c-40 -18 -101 -36 -182 -36z" />
    <glyph glyph-name="Gdotaccent" unicode="&#x120;" horiz-adv-x="533" 
d="M251 745v89h82v-89h-82zM302 -10c-167 0 -265 87 -265 338v38c0 236 105 337 279 337c71 0 115 -17 144 -35v-71c-36 17 -79 34 -149 34c-141 0 -185 -100 -185 -255v-48c0 -170 39 -266 183 -266c36 0 71 6 92 14v202h-114v71h197v-323c-40 -18 -101 -36 -182 -36z" />
    <glyph glyph-name="Hbar" unicode="&#x126;" horiz-adv-x="569" 
d="M15 503v61h54v129h84v-129h262v129h84v-129h55v-61h-55v-503h-84v323h-262v-323h-84v503h-54zM153 395h262v108h-262v-108z" />
    <glyph glyph-name="Hcircumflex" unicode="&#x124;" horiz-adv-x="561" 
d="M65 0v693h84v-298h263v298h84v-693h-84v323h-263v-323h-84zM163 737l84 116h68l84 -116h-63l-56 56l-53 -56h-64z" />
    <glyph glyph-name="Idotaccent" unicode="&#x130;" horiz-adv-x="217" 
d="M67 0v693h84v-693h-84zM68 745v89h82v-89h-82z" />
    <glyph glyph-name="Ibreve" unicode="&#x12c;" horiz-adv-x="217" 
d="M67 0v693h84v-693h-84zM109 736c-69 0 -111 50 -114 117h60c5 -34 22 -53 54 -53s49 19 54 53h61c-3 -67 -47 -117 -115 -117z" />
    <glyph glyph-name="Imacron" unicode="&#x12a;" horiz-adv-x="217" 
d="M67 0v693h84v-693h-84zM25 749v70h167v-70h-167z" />
    <glyph glyph-name="Iogonek" unicode="&#x12e;" horiz-adv-x="217" 
d="M12 -114c0 48 29 85 55 108v699h84v-690c-36 -30 -69 -67 -69 -106c0 -28 19 -37 45 -37c11 0 23 1 30 3v-51c-11 -5 -29 -9 -48 -9c-62 0 -97 32 -97 83z" />
    <glyph glyph-name="Itilde" unicode="&#x128;" horiz-adv-x="217" 
d="M67 0v693h84v-693h-84zM-22 744c4 69 40 100 81 100c43 0 66 -30 96 -30c16 0 26 10 30 32h54c-5 -65 -39 -100 -82 -100c-40 0 -66 30 -94 30c-18 0 -27 -11 -31 -32h-54z" />
    <glyph glyph-name="Jcircumflex" unicode="&#x134;" horiz-adv-x="351" 
d="M127 737l84 116h68l84 -116h-63l-56 56l-53 -56h-64zM128 -7c-47 0 -78 7 -107 20v68c25 -8 58 -15 99 -15c63 0 85 34 85 101v526h84v-526c0 -100 -41 -174 -161 -174z" />
    <glyph glyph-name="Kcommaaccent" unicode="&#x136;" horiz-adv-x="501" 
d="M205 -177l12 134h87l-40 -134h-59zM390 0l-219 355l217 338h91l-215 -331l223 -362h-97zM65 0v693h84v-693h-84z" />
    <glyph glyph-name="Lacute" unicode="&#x139;" horiz-adv-x="418" 
d="M76 738l55 118h90l-76 -118h-69zM65 0v693h84v-621h248v-72h-332z" />
    <glyph glyph-name="Lcaron" unicode="&#x13d;" horiz-adv-x="418" 
d="M278 525h-58l9 168h77zM65 0v693h84v-621h248v-72h-332z" />
    <glyph glyph-name="Lcommaaccent" unicode="&#x13b;" horiz-adv-x="419" 
d="M183 -177l12 134h87l-40 -134h-59zM65 0v693h84v-621h248v-72h-332z" />
    <glyph glyph-name="Ldot" unicode="&#x13f;" horiz-adv-x="418" 
d="M294 319v96h89v-96h-89zM65 0v693h84v-621h248v-72h-332z" />
    <glyph glyph-name="Nacute" unicode="&#x143;" horiz-adv-x="558" 
d="M253 738l55 118h90l-76 -118h-69zM65 0v693h106l193 -439c27 -58 55 -135 55 -135h2s-5 55 -5 126v448h77v-693h-95l-199 441c-35 78 -59 146 -59 146h-3s5 -52 5 -132v-455h-77z" />
    <glyph glyph-name="Ncaron" unicode="&#x147;" horiz-adv-x="558" 
d="M411 853l-84 -116h-68l-84 116h64l54 -57l55 57h63zM65 0v693h106l193 -439c27 -58 55 -135 55 -135h2s-5 55 -5 126v448h77v-693h-95l-199 441c-35 78 -59 146 -59 146h-3s5 -52 5 -132v-455h-77z" />
    <glyph glyph-name="Ncommaaccent" unicode="&#x145;" horiz-adv-x="558" 
d="M226 -177l12 134h87l-40 -134h-59zM65 0v693h106l193 -439c27 -58 55 -135 55 -135h2s-5 55 -5 126v448h77v-693h-95l-199 441c-35 78 -59 146 -59 146h-3s5 -52 5 -132v-455h-77z" />
    <glyph glyph-name="Nacute.pl" horiz-adv-x="558" 
d="M259 738l34 118h87l-56 -118h-65zM65 0v693h106l193 -439c27 -58 55 -135 55 -135h2s-5 55 -5 126v448h77v-693h-95l-199 441c-35 78 -59 146 -59 146h-3s5 -52 5 -132v-455h-77z" />
    <glyph glyph-name="Obreve" unicode="&#x14e;" horiz-adv-x="568" 
d="M284 736c-69 0 -111 50 -114 117h60c5 -34 22 -53 54 -53s49 19 54 53h61c-3 -67 -47 -117 -115 -117zM284 -10c-156 0 -247 100 -247 333v46c0 213 83 334 247 334c160 0 247 -107 247 -332v-50c0 -206 -80 -331 -247 -331zM285 60c111 0 157 96 157 247v64
c0 163 -40 262 -160 262c-113 0 -156 -102 -156 -246v-63c0 -162 39 -264 159 -264z" />
    <glyph glyph-name="Ohungarumlaut" unicode="&#x150;" horiz-adv-x="568" 
d="M313 737l32 118h85l-51 -118h-66zM177 737l33 118h85l-52 -118h-66zM284 -10c-156 0 -247 100 -247 333v46c0 213 83 334 247 334c160 0 247 -107 247 -332v-50c0 -206 -80 -331 -247 -331zM285 60c111 0 157 96 157 247v64c0 163 -40 262 -160 262
c-113 0 -156 -102 -156 -246v-63c0 -162 39 -264 159 -264z" />
    <glyph glyph-name="Omacron" unicode="&#x14c;" horiz-adv-x="568" 
d="M181 746v68h204v-68h-204zM284 -10c-156 0 -247 100 -247 333v46c0 213 83 334 247 334c160 0 247 -107 247 -332v-50c0 -206 -80 -331 -247 -331zM285 60c111 0 157 96 157 247v64c0 163 -40 262 -160 262c-113 0 -156 -102 -156 -246v-63c0 -162 39 -264 159 -264z" />
    <glyph glyph-name="Oacute.pl" horiz-adv-x="568" 
d="M252 738l34 118h87l-56 -118h-65zM284 -10c-156 0 -247 100 -247 333v46c0 213 83 334 247 334c160 0 247 -107 247 -332v-50c0 -206 -80 -331 -247 -331zM285 60c111 0 157 96 157 247v64c0 163 -40 262 -160 262c-113 0 -156 -102 -156 -246v-63
c0 -162 39 -264 159 -264z" />
    <glyph glyph-name="Oslashacute" unicode="&#x1fe;" horiz-adv-x="568" 
d="M281 -10c-71 0 -123 26 -161 67l-38 -57h-74l75 111c-33 62 -46 140 -46 215v43c0 213 83 334 252 334c65 0 115 -23 152 -60l34 50h74l-68 -102c35 -61 50 -140 50 -219v-51c0 -206 -81 -331 -250 -331zM285 60c111 0 157 96 157 247v99c0 41 -4 78 -13 109l-266 -395
c26 -39 65 -60 122 -60zM126 289c0 -37 3 -71 9 -100l264 391c-26 34 -64 53 -117 53c-113 1 -156 -102 -156 -246v-98zM247 738l55 118h90l-76 -118h-69z" />
    <glyph glyph-name="Racute" unicode="&#x154;" horiz-adv-x="487" 
d="M203 738l55 118h90l-76 -118h-69zM65 0v693h167c143 0 207 -59 207 -198c0 -104 -44 -154 -112 -179v-5l152 -311h-91l-142 295h-97v-295h-84zM149 364h81c85 0 120 40 120 128c0 93 -32 129 -124 129h-77v-257z" />
    <glyph glyph-name="Rcaron" unicode="&#x158;" horiz-adv-x="487" 
d="M357 853l-84 -116h-68l-84 116h64l54 -57l55 57h63zM65 0v693h167c143 0 207 -59 207 -198c0 -104 -44 -154 -112 -179v-5l152 -311h-91l-142 295h-97v-295h-84zM149 364h81c85 0 120 40 120 128c0 93 -32 129 -124 129h-77v-257z" />
    <glyph glyph-name="Rcommaaccent" unicode="&#x156;" horiz-adv-x="487" 
d="M209 -177l12 134h87l-40 -134h-59zM65 0v693h167c143 0 207 -59 207 -198c0 -104 -44 -154 -112 -179v-5l152 -311h-91l-142 295h-97v-295h-84zM149 364h81c85 0 120 40 120 128c0 93 -32 129 -124 129h-77v-257z" />
    <glyph glyph-name="Sacute" unicode="&#x15a;" horiz-adv-x="422" 
d="M185 -11c-72 0 -124 19 -159 40v72c43 -21 98 -39 153 -39c87 0 127 41 127 125c0 75 -31 96 -96 125l-50 22c-75 33 -129 78 -129 185c0 115 71 184 198 184c70 0 108 -16 136 -31v-72c-30 15 -77 31 -137 31c-74 0 -114 -36 -114 -106c0 -61 20 -86 80 -112l50 -22
c86 -38 148 -74 148 -196c0 -117 -58 -206 -207 -206zM175 738l55 118h90l-76 -118h-69z" />
    <glyph glyph-name="Scedilla" unicode="&#x15e;" horiz-adv-x="422" 
d="M138 -216v50c62 6 87 18 87 42c0 25 -23 31 -69 31v83c-57 5 -100 21 -130 39v72c43 -21 98 -39 153 -39c87 0 127 41 127 125c0 75 -31 96 -96 125l-50 22c-75 33 -129 78 -129 185c0 115 71 184 198 184c70 0 108 -16 136 -31v-72c-30 15 -77 31 -137 31
c-74 0 -114 -36 -114 -106c0 -61 20 -86 80 -112l50 -22c86 -38 148 -74 148 -196c0 -112 -53 -197 -186 -205v-39c50 -3 84 -24 84 -69c0 -58 -40 -92 -152 -98z" />
    <glyph glyph-name="Scircumflex" unicode="&#x15c;" horiz-adv-x="422" 
d="M93 737l84 116h68l84 -116h-63l-56 56l-53 -56h-64zM185 -11c-72 0 -124 19 -159 40v72c43 -21 98 -39 153 -39c87 0 127 41 127 125c0 75 -31 96 -96 125l-50 22c-75 33 -129 78 -129 185c0 115 71 184 198 184c70 0 108 -16 136 -31v-72c-30 15 -77 31 -137 31
c-74 0 -114 -36 -114 -106c0 -61 20 -86 80 -112l50 -22c86 -38 148 -74 148 -196c0 -117 -58 -206 -207 -206z" />
    <glyph glyph-name="Scommaaccent" unicode="&#x218;" horiz-adv-x="422" 
d="M145 -177l12 134h87l-40 -134h-59zM185 -11c-72 0 -124 19 -159 40v72c43 -21 98 -39 153 -39c87 0 127 41 127 125c0 75 -31 96 -96 125l-50 22c-75 33 -129 78 -129 185c0 115 71 184 198 184c70 0 108 -16 136 -31v-72c-30 15 -77 31 -137 31
c-74 0 -114 -36 -114 -106c0 -61 20 -86 80 -112l50 -22c86 -38 148 -74 148 -196c0 -117 -58 -206 -207 -206z" />
    <glyph glyph-name="Sacute.pl" horiz-adv-x="422" 
d="M185 -11c-72 0 -124 19 -159 40v72c43 -21 98 -39 153 -39c87 0 127 41 127 125c0 75 -31 96 -96 125l-50 22c-75 33 -129 78 -129 185c0 115 71 184 198 184c70 0 108 -16 136 -31v-72c-30 15 -77 31 -137 31c-74 0 -114 -36 -114 -106c0 -61 20 -86 80 -112l50 -22
c86 -38 148 -74 148 -196c0 -117 -58 -206 -207 -206zM184 738l34 118h87l-56 -118h-65z" />
    <glyph glyph-name="Tcaron" unicode="&#x164;" horiz-adv-x="445" 
d="M339 853l-84 -116h-68l-84 116h64l54 -57l55 57h63zM180 0v621h-166v72h415v-72h-165v-621h-84z" />
    <glyph glyph-name="Tcommaaccent" unicode="&#x162;" horiz-adv-x="445" 
d="M168 -177l12 134h87l-40 -134h-59zM180 0v621h-166v72h415v-72h-165v-621h-84z" />
    <glyph glyph-name="uni021A" unicode="&#x21a;" horiz-adv-x="445" 
d="M168 -177l12 134h87l-40 -134h-59zM180 0v621h-166v72h415v-72h-165v-621h-84z" />
    <glyph glyph-name="Tbar" unicode="&#x166;" horiz-adv-x="445" 
d="M65 360v61h115v200h-166v72h415v-72h-165v-200h116v-61h-116v-360h-84v360h-115z" />
    <glyph glyph-name="Ubreve" unicode="&#x16c;" horiz-adv-x="548" 
d="M275 -11c-145 0 -213 78 -213 218v486h84v-476c0 -113 41 -157 133 -157c91 0 127 43 127 158v475h80v-483c0 -146 -67 -221 -211 -221zM275 736c-69 0 -111 50 -114 117h60c5 -34 22 -53 54 -53s49 19 54 53h61c-3 -67 -47 -117 -115 -117z" />
    <glyph glyph-name="Uhungarumlaut" unicode="&#x170;" horiz-adv-x="548" 
d="M308 737l32 118h85l-51 -118h-66zM172 737l33 118h85l-52 -118h-66zM275 -11c-145 0 -213 78 -213 218v486h84v-476c0 -113 41 -157 133 -157c91 0 127 43 127 158v475h80v-483c0 -146 -67 -221 -211 -221z" />
    <glyph glyph-name="Umacron" unicode="&#x16a;" horiz-adv-x="548" 
d="M275 -11c-145 0 -213 78 -213 218v486h84v-476c0 -113 41 -157 133 -157c91 0 127 43 127 158v475h80v-483c0 -146 -67 -221 -211 -221zM173 746v68h204v-68h-204z" />
    <glyph glyph-name="Uogonek" unicode="&#x172;" horiz-adv-x="548" 
d="M361 -6c-40 -24 -74 -59 -74 -100c0 -30 23 -37 49 -37c9 0 21 2 27 4v-52c-10 -5 -29 -9 -48 -9c-62 0 -98 29 -98 83c0 48 33 84 62 106h-12c-140 3 -205 81 -205 219v485h83v-478c0 -114 42 -158 134 -158c90 0 127 43 127 159v477h80v-482c0 -134 -58 -176 -125 -217
z" />
    <glyph glyph-name="Uring" unicode="&#x16e;" horiz-adv-x="548" 
d="M275 -11c-145 0 -213 78 -213 218v486h84v-476c0 -113 41 -157 133 -157c91 0 127 43 127 158v475h80v-483c0 -146 -67 -221 -211 -221zM275 710c-49 0 -85 34 -85 85c0 50 36 86 85 86s85 -35 85 -85s-36 -86 -85 -86zM275 750c25 0 41 18 41 46c0 27 -16 45 -41 45
c-26 0 -41 -18 -41 -45c0 -28 16 -46 41 -46z" />
    <glyph glyph-name="Utilde" unicode="&#x168;" horiz-adv-x="548" 
d="M275 -11c-145 0 -213 78 -213 218v486h84v-476c0 -113 41 -157 133 -157c91 0 127 43 127 158v475h80v-483c0 -146 -67 -221 -211 -221zM145 744c4 69 40 100 81 100c43 0 66 -30 96 -30c16 0 26 10 30 32h54c-5 -65 -39 -100 -82 -100c-40 0 -66 30 -94 30
c-18 0 -27 -11 -31 -32h-54z" />
    <glyph glyph-name="Wacute" unicode="&#x1e82;" horiz-adv-x="731" 
d="M332 738l55 118h90l-76 -118h-69zM155 0l-139 693h85l90 -480c4 -22 14 -86 14 -86h3s10 58 16 86l107 480h78l102 -478c5 -23 18 -89 18 -89h2s6 47 14 90l90 477h80l-140 -693h-90l-97 443c-8 45 -20 110 -20 110h-2s-12 -65 -21 -109l-99 -444h-91z" />
    <glyph glyph-name="Wcircumflex" unicode="&#x174;" horiz-adv-x="731" 
d="M249 737l84 116h68l84 -116h-63l-56 56l-53 -56h-64zM155 0l-139 693h85l90 -480c4 -22 14 -86 14 -86h3s10 58 16 86l107 480h78l102 -478c5 -23 18 -89 18 -89h2s6 47 14 90l90 477h80l-140 -693h-90l-97 443c-8 45 -20 110 -20 110h-2s-12 -65 -21 -109l-99 -444h-91z
" />
    <glyph glyph-name="Wdieresis" unicode="&#x1e84;" horiz-adv-x="731" 
d="M401 743v87h81v-87h-81zM253 743v87h81v-87h-81zM155 0l-139 693h85l90 -480c4 -22 14 -86 14 -86h3s10 58 16 86l107 480h78l102 -478c5 -23 18 -89 18 -89h2s6 47 14 90l90 477h80l-140 -693h-90l-97 443c-8 45 -20 110 -20 110h-2s-12 -65 -21 -109l-99 -444h-91z" />
    <glyph glyph-name="Wgrave" unicode="&#x1e80;" horiz-adv-x="731" 
d="M339 737l-72 119h89l51 -119h-68zM155 0l-139 693h85l90 -480c4 -22 14 -86 14 -86h3s10 58 16 86l107 480h78l102 -478c5 -23 18 -89 18 -89h2s6 47 14 90l90 477h80l-140 -693h-90l-97 443c-8 45 -20 110 -20 110h-2s-12 -65 -21 -109l-99 -444h-91z" />
    <glyph glyph-name="Ycircumflex" unicode="&#x176;" horiz-adv-x="473" 
d="M195 0v264l-186 429h89l94 -226c31 -74 48 -115 48 -115h3s15 37 47 115l92 226h82l-184 -429v-264h-85zM122 737l84 116h68l84 -116h-63l-56 56l-53 -56h-64z" />
    <glyph glyph-name="Ygrave" unicode="&#x1ef2;" horiz-adv-x="473" 
d="M195 0v264l-186 429h89l94 -226c31 -74 48 -115 48 -115h3s15 37 47 115l92 226h82l-184 -429v-264h-85zM212 737l-72 119h89l51 -119h-68z" />
    <glyph glyph-name="Zacute" unicode="&#x179;" horiz-adv-x="444" 
d="M193 738l55 118h90l-76 -118h-69zM25 0v62l296 556v3h-274v72h373v-63l-298 -555v-3h289v-72h-386z" />
    <glyph glyph-name="Zacute.pl" horiz-adv-x="444" 
d="M197 738l34 118h87l-56 -118h-65zM25 0v62l296 556v3h-274v72h373v-63l-298 -555v-3h289v-72h-386z" />
    <glyph glyph-name="Zdotaccent" unicode="&#x17b;" horiz-adv-x="444" 
d="M25 0v62l296 556v3h-274v72h373v-63l-298 -555v-3h289v-72h-386zM189 745v89h82v-89h-82z" />
    <glyph glyph-name="abreve" unicode="&#x103;" horiz-adv-x="409" 
d="M169 -8c-87 0 -144 47 -144 146c0 91 50 138 145 152l106 16v50c0 72 -26 95 -105 95c-45 0 -81 -9 -107 -18v60c35 16 79 28 138 28c104 0 156 -48 156 -144v-377h-67l-8 36h-5c-22 -24 -60 -44 -109 -44zM191 56c37 0 68 12 85 26v160l-82 -10c-57 -7 -84 -33 -84 -89
c0 -58 27 -87 81 -87zM202 590c-69 0 -111 50 -114 117h60c5 -34 22 -53 54 -53s49 19 54 53h61c-3 -67 -47 -117 -115 -117z" />
    <glyph glyph-name="amacron" unicode="&#x101;" horiz-adv-x="409" 
d="M169 -8c-87 0 -144 47 -144 146c0 91 50 138 145 152l106 16v50c0 72 -26 95 -105 95c-45 0 -81 -9 -107 -18v60c35 16 79 28 138 28c104 0 156 -48 156 -144v-377h-67l-8 36h-5c-22 -24 -60 -44 -109 -44zM191 56c37 0 68 12 85 26v160l-82 -10c-57 -7 -84 -33 -84 -89
c0 -58 27 -87 81 -87zM103 613v69h203v-69h-203z" />
    <glyph glyph-name="aogonek" unicode="&#x105;" horiz-adv-x="409" 
d="M169 -8c-87 0 -144 47 -144 146c0 91 50 138 145 152l106 16v50c0 72 -26 95 -105 95c-45 0 -81 -9 -107 -18v60c35 16 79 28 138 28c104 0 156 -48 156 -144v-375c-35 -30 -70 -67 -70 -105c0 -29 21 -37 48 -37c11 0 22 1 29 3v-51c-10 -5 -29 -9 -48 -9
c-61 0 -100 31 -100 83c0 54 41 92 74 115l-8 35h-5c-22 -24 -60 -44 -109 -44zM191 56c37 0 68 12 85 26v160l-82 -10c-57 -7 -84 -33 -84 -89c0 -58 27 -87 81 -87z" />
    <glyph glyph-name="aringacute" unicode="&#x1fb;" horiz-adv-x="409" 
d="M169 -8c-87 0 -144 47 -144 146c0 91 50 138 145 152l106 16v50c0 72 -26 95 -105 95c-45 0 -81 -9 -107 -18v60c35 16 79 28 138 28c104 0 156 -48 156 -144v-377h-67l-8 36h-5c-22 -24 -60 -44 -109 -44zM191 56c37 0 68 12 85 26v160l-82 -10c-57 -7 -84 -33 -84 -89
c0 -58 27 -87 81 -87zM200 577c-49 0 -85 34 -85 85c0 50 36 86 85 86s85 -35 85 -85s-36 -86 -85 -86zM200 617c25 0 41 17 41 46c0 26 -16 45 -41 45c-26 0 -41 -18 -41 -45c0 -29 16 -46 41 -46zM165 792l55 118h90l-76 -118h-69z" />
    <glyph glyph-name="aeacute" unicode="&#x1fd;" horiz-adv-x="672" 
d="M307 587l72 137h90l-93 -137h-69zM488 -8c-75 0 -131 23 -166 69c-35 -39 -82 -69 -155 -69c-86 0 -142 48 -142 145c0 88 52 136 147 149l104 13v57c0 72 -27 95 -106 95c-45 0 -81 -9 -106 -18v60c34 16 79 28 139 28c66 0 108 -23 128 -70c31 47 78 70 136 70
c117 0 177 -71 177 -236v-49h-286c1 -126 47 -174 139 -174c55 0 98 16 134 36v-60c-24 -22 -80 -46 -143 -46zM297 105c-15 36 -23 80 -23 132l-79 -10c-59 -7 -87 -32 -87 -87c0 -57 29 -84 80 -84c43 0 78 17 109 49zM461 454c-60 0 -99 -52 -103 -153h201
c0 105 -28 153 -98 153z" />
    <glyph glyph-name="cacute" unicode="&#x107;" horiz-adv-x="378" 
d="M180 587l72 137h90l-93 -137h-69zM234 -8c-127 0 -205 73 -205 248v32c0 179 91 249 212 249c52 0 86 -12 112 -29v-68c-32 14 -63 28 -117 28c-89 0 -123 -67 -123 -171v-40c0 -131 44 -180 130 -180c55 0 95 20 116 32v-66c-27 -19 -67 -35 -125 -35z" />
    <glyph glyph-name="ccaron" unicode="&#x10d;" horiz-adv-x="378" 
d="M344 722l-87 -135h-72l-88 135h64l60 -72l60 72h63zM234 -8c-127 0 -205 73 -205 248v32c0 179 91 249 212 249c52 0 86 -12 112 -29v-68c-32 14 -63 28 -117 28c-89 0 -123 -67 -123 -171v-40c0 -131 44 -180 130 -180c55 0 95 20 116 32v-66c-27 -19 -67 -35 -125 -35z
" />
    <glyph glyph-name="ccircumflex" unicode="&#x109;" horiz-adv-x="378" 
d="M96 587l88 135h72l87 -135h-63l-61 73l-59 -73h-64zM234 -8c-127 0 -205 73 -205 248v32c0 179 91 249 212 249c52 0 86 -12 112 -29v-68c-32 14 -63 28 -117 28c-89 0 -123 -67 -123 -171v-40c0 -131 44 -180 130 -180c55 0 95 20 116 32v-66c-27 -19 -67 -35 -125 -35z
" />
    <glyph glyph-name="cdotaccent" unicode="&#x10b;" horiz-adv-x="378" 
d="M234 -8c-127 0 -205 73 -205 248v32c0 179 91 249 212 249c52 0 86 -12 112 -29v-68c-32 14 -63 28 -117 28c-89 0 -123 -67 -123 -171v-40c0 -131 44 -180 130 -180c55 0 95 20 116 32v-66c-27 -19 -67 -35 -125 -35zM178 611v88h83v-88h-83z" />
    <glyph glyph-name="cacute.pl" horiz-adv-x="378" 
d="M234 -8c-127 0 -205 73 -205 248v32c0 179 91 249 212 249c52 0 86 -12 112 -29v-68c-32 14 -63 28 -117 28c-89 0 -123 -67 -123 -171v-40c0 -131 44 -180 130 -180c55 0 95 20 116 32v-66c-27 -19 -67 -35 -125 -35zM189 587l36 137h87l-58 -137h-65z" />
    <glyph glyph-name="dcaron" unicode="&#x10f;" horiz-adv-x="466" 
d="M510 584h-57l9 150h76zM212 -8c-99 0 -181 61 -181 246v23c0 167 68 260 198 260c42 0 80 -11 102 -25v238h81v-734h-69l-7 38h-4c-25 -26 -68 -46 -120 -46zM235 59c42 0 75 18 96 34v338c-18 12 -53 21 -91 21c-87 0 -124 -55 -124 -182v-29c0 -124 39 -182 119 -182z
" />
    <glyph glyph-name="ebreve" unicode="&#x115;" horiz-adv-x="427" 
d="M243 -8c-144 0 -214 86 -214 250v27c0 170 74 252 190 252c121 0 180 -69 180 -240v-52h-286c3 -120 49 -167 139 -167c55 0 98 16 134 36v-60c-24 -22 -76 -46 -143 -46zM216 454c-61 0 -101 -43 -103 -158h201c0 112 -28 158 -98 158zM220 590c-69 0 -111 50 -114 117
h60c5 -34 22 -53 54 -53s49 19 54 53h61c-3 -67 -47 -117 -115 -117z" />
    <glyph glyph-name="ecaron" unicode="&#x11b;" horiz-adv-x="427" 
d="M345 722l-87 -135h-72l-88 135h64l60 -72l60 72h63zM243 -8c-144 0 -214 86 -214 250v27c0 170 74 252 190 252c121 0 180 -69 180 -240v-52h-286c3 -120 49 -167 139 -167c55 0 98 16 134 36v-60c-24 -22 -76 -46 -143 -46zM216 454c-61 0 -101 -43 -103 -158h201
c0 112 -28 158 -98 158z" />
    <glyph glyph-name="edotaccent" unicode="&#x117;" horiz-adv-x="427" 
d="M243 -8c-144 0 -214 86 -214 250v27c0 170 74 252 190 252c121 0 180 -69 180 -240v-52h-286c3 -120 49 -167 139 -167c55 0 98 16 134 36v-60c-24 -22 -76 -46 -143 -46zM216 454c-61 0 -101 -43 -103 -158h201c0 112 -28 158 -98 158zM179 611v88h83v-88h-83z" />
    <glyph glyph-name="emacron" unicode="&#x113;" horiz-adv-x="427" 
d="M243 -8c-144 0 -214 86 -214 250v27c0 170 74 252 190 252c121 0 180 -69 180 -240v-52h-286c3 -120 49 -167 139 -167c55 0 98 16 134 36v-60c-24 -22 -76 -46 -143 -46zM216 454c-61 0 -101 -43 -103 -158h201c0 112 -28 158 -98 158zM120 613v69h203v-69h-203z" />
    <glyph glyph-name="eogonek" unicode="&#x119;" horiz-adv-x="427" 
d="M290 -197c-61 0 -100 31 -100 83c0 48 32 83 63 106h-10c-144 0 -214 86 -214 250v27c0 170 74 252 190 252c121 0 180 -69 180 -240v-52h-286c3 -119 49 -167 139 -167c55 0 98 16 134 36v-60c-15 -13 -42 -28 -64 -46c-30 -25 -61 -59 -61 -95c0 -29 21 -37 48 -37
c11 0 22 1 29 3v-51c-10 -5 -29 -9 -48 -9zM216 454c-62 0 -99 -44 -103 -158h201c0 112 -28 158 -98 158z" />
    <glyph glyph-name="gbreve" unicode="&#x11f;" horiz-adv-x="427" 
d="M207 -193c-128 0 -197 50 -197 127c0 60 40 96 88 114v4c-29 11 -52 33 -52 71c0 37 20 66 53 92c-32 21 -60 64 -60 126v15c0 104 71 165 168 165c25 0 47 -3 66 -8h146v-64h-70c16 -21 28 -49 28 -89v-15c0 -106 -74 -161 -169 -161c-25 0 -49 3 -69 10
c-10 -10 -18 -27 -18 -43c0 -25 13 -41 46 -41h98c100 0 153 -45 153 -138c0 -95 -68 -165 -211 -165zM205 -128c96 0 131 34 131 91c0 44 -20 71 -81 71h-104c-32 -12 -58 -42 -58 -85c0 -49 37 -77 112 -77zM208 247c55 0 89 31 89 93v21c0 68 -36 97 -89 97
c-56 0 -89 -32 -89 -95v-21c0 -65 37 -95 89 -95zM219 590c-69 0 -111 50 -114 117h60c5 -34 22 -53 54 -53s49 19 54 53h61c-3 -67 -47 -117 -115 -117z" />
    <glyph glyph-name="gcircumflex" unicode="&#x11d;" horiz-adv-x="427" 
d="M97 587l88 135h72l87 -135h-63l-61 73l-59 -73h-64zM207 -193c-128 0 -197 50 -197 127c0 60 40 96 88 114v4c-29 11 -52 33 -52 71c0 37 20 66 53 92c-32 21 -60 64 -60 126v15c0 104 71 165 168 165c25 0 47 -3 66 -8h146v-64h-70c16 -21 28 -49 28 -89v-15
c0 -106 -74 -161 -169 -161c-25 0 -49 3 -69 10c-10 -10 -18 -27 -18 -43c0 -25 13 -41 46 -41h98c100 0 153 -45 153 -138c0 -95 -68 -165 -211 -165zM205 -128c96 0 131 34 131 91c0 44 -20 71 -81 71h-104c-32 -12 -58 -42 -58 -85c0 -49 37 -77 112 -77zM208 247
c55 0 89 31 89 93v21c0 68 -36 97 -89 97c-56 0 -89 -32 -89 -95v-21c0 -65 37 -95 89 -95z" />
    <glyph glyph-name="gcommaaccent" unicode="&#x123;" horiz-adv-x="427" 
d="M277 742l-16 -139h-88l45 139h59zM207 -193c-128 0 -197 50 -197 127c0 60 40 96 88 114v4c-29 11 -52 33 -52 71c0 37 20 66 53 92c-32 21 -60 64 -60 126v15c0 104 71 165 168 165c25 0 47 -3 66 -8h146v-64h-70c16 -21 28 -49 28 -89v-15c0 -106 -74 -161 -169 -161
c-25 0 -49 3 -69 10c-10 -10 -18 -27 -18 -43c0 -25 13 -41 46 -41h98c100 0 153 -45 153 -138c0 -95 -68 -165 -211 -165zM205 -128c96 0 131 34 131 91c0 44 -20 71 -81 71h-104c-32 -12 -58 -42 -58 -85c0 -49 37 -77 112 -77zM208 247c55 0 89 31 89 93v21
c0 68 -36 97 -89 97c-56 0 -89 -32 -89 -95v-21c0 -65 37 -95 89 -95z" />
    <glyph glyph-name="gdotaccent" unicode="&#x121;" horiz-adv-x="427" 
d="M207 -193c-128 0 -197 50 -197 127c0 60 40 96 88 114v4c-29 11 -52 33 -52 71c0 37 20 66 53 92c-32 21 -60 64 -60 126v15c0 104 71 165 168 165c25 0 47 -3 66 -8h146v-64h-70c16 -21 28 -49 28 -89v-15c0 -106 -74 -161 -169 -161c-25 0 -49 3 -69 10
c-10 -10 -18 -27 -18 -43c0 -25 13 -41 46 -41h98c100 0 153 -45 153 -138c0 -95 -68 -165 -211 -165zM205 -128c96 0 131 34 131 91c0 44 -20 71 -81 71h-104c-32 -12 -58 -42 -58 -85c0 -49 37 -77 112 -77zM208 247c55 0 89 31 89 93v21c0 68 -36 97 -89 97
c-56 0 -89 -32 -89 -95v-21c0 -65 37 -95 89 -95zM173 611v88h83v-88h-83z" />
    <glyph glyph-name="hbar" unicode="&#x127;" horiz-adv-x="461" 
d="M0 590v57h53v87h82v-87h120v-57h-120v-116h4c36 26 85 47 142 47c83 0 126 -39 126 -126v-395h-81v384c0 48 -20 67 -79 67c-44 0 -86 -17 -112 -31v-420h-82v590h-53z" />
    <glyph glyph-name="hcircumflex" unicode="&#x125;" horiz-adv-x="461" 
d="M54 0v734h82v-260h4c36 26 85 47 142 47c83 0 126 -39 126 -126v-395h-81v384c0 48 -20 67 -79 67c-44 0 -86 -17 -112 -31v-420h-82zM114 786l84 116h68l84 -116h-63l-56 56l-53 -56h-64z" />
    <glyph glyph-name="ibreve" unicode="&#x12d;" horiz-adv-x="193" 
d="M96 592c-69 0 -106 48 -106 114h60c3 -33 17 -51 46 -51c30 0 44 18 46 51h61c-1 -66 -38 -114 -107 -114zM56 0v513h82v-513h-82z" />
    <glyph glyph-name="imacron" unicode="&#x12b;" horiz-adv-x="193" 
d="M16 613v69h162v-69h-162zM56 0v513h82v-513h-82z" />
    <glyph glyph-name="iogonek" unicode="&#x12f;" horiz-adv-x="193" 
d="M0 -114c0 48 30 83 56 107v520h82v-510c-35 -30 -67 -67 -67 -106c0 -28 19 -37 45 -37c11 0 22 1 29 3v-51c-10 -5 -29 -9 -48 -9c-60 0 -97 32 -97 83zM55 611v88h83v-88h-83z" />
    <glyph glyph-name="itilde" unicode="&#x129;" horiz-adv-x="193" 
d="M-25 603c5 70 39 99 76 99c39 0 59 -30 85 -30c14 0 22 9 24 33h55c-5 -66 -37 -100 -76 -100c-40 0 -60 31 -84 31c-15 0 -23 -11 -25 -33h-55zM56 0v513h82v-513h-82z" />
    <glyph glyph-name="idotaccent" horiz-adv-x="193" 
d="M56 0v513h82v-513h-82zM55 611v88h83v-88h-83z" />
    <glyph glyph-name="jcircumflex" unicode="&#x135;" horiz-adv-x="192" 
d="M-14 587l75 136h70l76 -136h-65l-47 70l-45 -70h-64zM13 -197c-30 0 -50 6 -66 16v57c12 -2 28 -5 44 -5c43 0 64 23 64 78v564h81v-568c0 -81 -32 -142 -123 -142z" />
    <glyph glyph-name="kcommaaccent" unicode="&#x137;" horiz-adv-x="412" 
d="M165 -177l12 134h87l-40 -134h-59zM136 734v-734h-82v734h82zM152 265l151 248h90l-151 -241l163 -272h-95z" />
    <glyph glyph-name="lacute" unicode="&#x13a;" horiz-adv-x="193" 
d="M63 787l55 118h90l-76 -118h-69zM56 0v734h81v-734h-81z" />
    <glyph glyph-name="lcaron" unicode="&#x13e;" horiz-adv-x="193" 
d="M234 584h-57l9 150h76zM56 0v734h81v-734h-81z" />
    <glyph glyph-name="lcommaaccent" unicode="&#x13c;" horiz-adv-x="195" 
d="M44 -177l12 134h87l-40 -134h-59zM57 0v734h81v-734h-81z" />
    <glyph glyph-name="ldot" unicode="&#x140;" horiz-adv-x="246" 
d="M179 314v86h80v-86h-80zM56 0v734h81v-734h-81z" />
    <glyph glyph-name="nacute" unicode="&#x144;" horiz-adv-x="461" 
d="M196 587l72 137h90l-93 -137h-69zM54 0v513h78v-41h4c37 27 89 49 147 49c83 0 125 -39 125 -126v-395h-81v384c0 48 -20 67 -79 67c-44 0 -86 -17 -112 -31v-420h-82z" />
    <glyph glyph-name="napostrophe" unicode="&#x149;" horiz-adv-x="480" 
d="M-30 510l16 183h88l-36 -183h-68zM73 0v513h78v-41h4c37 27 89 49 147 49c83 0 125 -39 125 -126v-395h-81v384c0 48 -20 67 -79 67c-44 0 -86 -17 -112 -31v-420h-82z" />
    <glyph glyph-name="ncaron" unicode="&#x148;" horiz-adv-x="461" 
d="M358 722l-87 -135h-72l-88 135h64l60 -72l60 72h63zM54 0v513h78v-41h4c37 27 89 49 147 49c83 0 125 -39 125 -126v-395h-81v384c0 48 -20 67 -79 67c-44 0 -86 -17 -112 -31v-420h-82z" />
    <glyph glyph-name="ncommaaccent" unicode="&#x146;" horiz-adv-x="461" 
d="M182 -177l12 134h87l-40 -134h-59zM54 0v513h78v-41h4c37 27 89 49 147 49c83 0 125 -39 125 -126v-395h-81v384c0 48 -20 67 -79 67c-44 0 -86 -17 -112 -31v-420h-82z" />
    <glyph glyph-name="nacute.pl" horiz-adv-x="461" 
d="M205 587l36 137h87l-58 -137h-65zM54 0v513h78v-41h4c37 27 89 49 147 49c83 0 125 -39 125 -126v-395h-81v384c0 48 -20 67 -79 67c-44 0 -86 -17 -112 -31v-420h-82z" />
    <glyph glyph-name="obreve" unicode="&#x14f;" horiz-adv-x="456" 
d="M228 -8c-132 0 -199 91 -199 247v33c0 152 74 249 199 249c130 0 199 -88 199 -248v-32c0 -152 -72 -249 -199 -249zM229 59c77 0 114 70 114 170v53c0 118 -43 172 -116 172c-79 0 -114 -71 -114 -170v-54c0 -111 42 -171 116 -171zM227 590c-69 0 -111 50 -114 117h60
c5 -34 22 -53 54 -53s49 19 54 53h61c-3 -67 -47 -117 -115 -117z" />
    <glyph glyph-name="ohungarumlaut" unicode="&#x151;" horiz-adv-x="456" 
d="M258 587l39 137h85l-59 -137h-65zM121 587l41 137h84l-59 -137h-66zM228 -8c-132 0 -199 91 -199 247v33c0 152 74 249 199 249c130 0 199 -88 199 -248v-32c0 -152 -72 -249 -199 -249zM229 59c77 0 114 70 114 170v53c0 118 -43 172 -116 172c-79 0 -114 -71 -114 -170
v-54c0 -111 42 -171 116 -171z" />
    <glyph glyph-name="omacron" unicode="&#x14d;" horiz-adv-x="456" 
d="M126 613v69h203v-69h-203zM228 -8c-132 0 -199 91 -199 247v33c0 152 74 249 199 249c130 0 199 -88 199 -248v-32c0 -152 -72 -249 -199 -249zM229 59c77 0 114 70 114 170v53c0 118 -43 172 -116 172c-79 0 -114 -71 -114 -170v-54c0 -111 42 -171 116 -171z" />
    <glyph glyph-name="oacute.pl" horiz-adv-x="457" 
d="M196 587l36 137h87l-58 -137h-65zM228 -8c-132 0 -199 91 -199 247v33c0 152 74 249 199 249c130 0 199 -88 199 -248v-32c0 -152 -72 -249 -199 -249zM229 59c77 0 114 70 114 170v53c0 118 -43 172 -116 172c-79 0 -114 -71 -114 -170v-54c0 -111 42 -171 116 -171z
" />
    <glyph glyph-name="oslashacute" unicode="&#x1ff;" horiz-adv-x="456" 
d="M228 -8c-53 0 -96 15 -128 43l-25 -35h-68l57 80c-24 40 -35 94 -35 159v33c0 152 74 249 199 249c50 0 91 -14 123 -40l23 32h68l-54 -76c25 -41 39 -96 39 -164v-32c0 -152 -73 -249 -199 -249zM229 58c77 0 114 71 114 171v65c0 27 -3 50 -7 70l-194 -270
c20 -25 49 -36 87 -36zM113 218c0 -24 1 -45 5 -63l191 267c-20 23 -48 33 -82 33c-79 0 -114 -72 -114 -171v-66zM180 587l72 137h90l-93 -137h-69z" />
    <glyph glyph-name="racute" unicode="&#x155;" horiz-adv-x="288" 
d="M135 587l72 137h90l-93 -137h-69zM54 0v513h78v-54h4c25 32 68 61 115 61c11 0 22 -2 28 -4v-74c-9 1 -23 2 -31 2c-44 0 -82 -14 -112 -37v-407h-82z" />
    <glyph glyph-name="rcaron" unicode="&#x159;" horiz-adv-x="288" 
d="M303 722l-87 -135h-72l-88 135h64l60 -72l60 72h63zM54 0v513h78v-54h4c25 32 68 61 115 61c11 0 22 -2 28 -4v-74c-9 1 -23 2 -31 2c-44 0 -82 -14 -112 -37v-407h-82z" />
    <glyph glyph-name="rcommaaccent" unicode="&#x157;" horiz-adv-x="288" 
d="M40 -177l12 134h87l-40 -134h-59zM54 0v513h78v-54h4c25 32 68 61 115 61c11 0 22 -2 28 -4v-74c-9 1 -23 2 -31 2c-44 0 -82 -14 -112 -37v-407h-82z" />
    <glyph glyph-name="sacute" unicode="&#x15b;" horiz-adv-x="345" 
d="M139 587l72 137h90l-93 -137h-69zM155 -8c-55 0 -99 11 -131 30v66c32 -13 67 -27 122 -27c68 0 94 30 94 79c0 45 -20 65 -71 83l-40 14c-63 22 -104 60 -104 139c0 90 58 145 162 145c58 0 90 -13 112 -26v-67c-24 11 -62 24 -108 24c-56 0 -88 -19 -88 -69
c0 -40 17 -59 61 -74l40 -14c80 -28 117 -63 117 -147c0 -100 -62 -156 -166 -156z" />
    <glyph glyph-name="scedilla" unicode="&#x15f;" horiz-adv-x="345" 
d="M100 -216v50c62 6 87 18 87 42c0 25 -23 31 -69 31v87c-38 4 -70 13 -94 28v66c32 -13 67 -27 122 -27c68 0 94 30 94 79c0 45 -20 65 -71 83l-40 14c-63 22 -104 60 -104 139c0 90 58 145 162 145c58 0 90 -13 112 -26v-67c-24 11 -62 24 -108 24c-56 0 -88 -19 -88 -69
c0 -40 17 -59 61 -74l40 -14c80 -28 117 -63 117 -147c0 -96 -57 -151 -153 -155v-42c50 -3 84 -24 84 -69c0 -58 -40 -92 -152 -98z" />
    <glyph glyph-name="scircumflex" unicode="&#x15d;" horiz-adv-x="345" 
d="M50 587l88 135h72l87 -135h-63l-61 73l-59 -73h-64zM155 -8c-55 0 -99 11 -131 30v66c32 -13 67 -27 122 -27c68 0 94 30 94 79c0 45 -20 65 -71 83l-40 14c-63 22 -104 60 -104 139c0 90 58 145 162 145c58 0 90 -13 112 -26v-67c-24 11 -62 24 -108 24
c-56 0 -88 -19 -88 -69c0 -40 17 -59 61 -74l40 -14c80 -28 117 -63 117 -147c0 -100 -62 -156 -166 -156z" />
    <glyph glyph-name="scommaaccent" unicode="&#x219;" horiz-adv-x="345" 
d="M116 -177l12 134h87l-40 -134h-59zM155 -8c-55 0 -99 11 -131 30v66c32 -13 67 -27 122 -27c68 0 94 30 94 79c0 45 -20 65 -71 83l-40 14c-63 22 -104 60 -104 139c0 90 58 145 162 145c58 0 90 -13 112 -26v-67c-24 11 -62 24 -108 24c-56 0 -88 -19 -88 -69
c0 -40 17 -59 61 -74l40 -14c80 -28 117 -63 117 -147c0 -100 -62 -156 -166 -156z" />
    <glyph glyph-name="sacute.pl" horiz-adv-x="345" 
d="M155 -8c-55 0 -99 11 -131 30v66c32 -13 67 -27 122 -27c68 0 94 30 94 79c0 45 -20 65 -71 83l-40 14c-63 22 -104 60 -104 139c0 90 58 145 162 145c58 0 90 -13 112 -26v-67c-24 11 -62 24 -108 24c-56 0 -88 -19 -88 -69c0 -40 17 -59 61 -74l40 -14
c80 -28 117 -63 117 -147c0 -100 -62 -156 -166 -156zM142 587l36 137h87l-58 -137h-65z" />
    <glyph glyph-name="tbar" unicode="&#x167;" horiz-adv-x="290" 
d="M15 293v57h61v95h-61v68h61v120h81v-120h106v-68h-106v-95h106v-57h-106v-171c0 -47 16 -61 59 -61c21 0 39 4 53 8v-55c-16 -10 -40 -20 -78 -20c-70 0 -115 31 -115 117v182h-61z" />
    <glyph glyph-name="tcaron" unicode="&#x165;" horiz-adv-x="290" 
d="M263 584h-57l9 150h76zM191 -6c-70 0 -115 31 -115 117v334h-61v68h61v120h81v-120h106v-68h-106v-323c0 -47 16 -61 59 -61c21 0 39 4 53 8v-55c-16 -10 -40 -20 -78 -20z" />
    <glyph glyph-name="tcommaaccent" unicode="&#x163;" horiz-adv-x="290" 
d="M120 -177l12 134h87l-40 -134h-59zM191 -6c-70 0 -115 31 -115 117v334h-61v68h61v120h81v-120h106v-68h-106v-323c0 -47 16 -61 59 -61c21 0 39 4 53 8v-55c-16 -10 -40 -20 -78 -20z" />
    <glyph glyph-name="uni021B" unicode="&#x21b;" horiz-adv-x="290" 
d="M120 -177l12 134h87l-40 -134h-59zM191 -6c-70 0 -115 31 -115 117v334h-61v68h61v120h81v-120h106v-68h-106v-323c0 -47 16 -61 59 -61c21 0 39 4 53 8v-55c-16 -10 -40 -20 -78 -20z" />
    <glyph glyph-name="ubreve" unicode="&#x16d;" horiz-adv-x="455" 
d="M181 -8c-91 0 -129 55 -129 137v384h82v-382c0 -44 14 -69 77 -69c43 0 84 18 108 32v419h82v-513h-70l-8 41h-4c-34 -24 -81 -49 -138 -49zM229 590c-69 0 -111 50 -114 117h60c5 -34 22 -53 54 -53s49 19 54 53h61c-3 -67 -47 -117 -115 -117z" />
    <glyph glyph-name="uhungarumlaut" unicode="&#x171;" horiz-adv-x="455" 
d="M181 -8c-91 0 -129 55 -129 137v384h82v-382c0 -44 14 -69 77 -69c43 0 84 18 108 32v419h82v-513h-70l-8 41h-4c-34 -24 -81 -49 -138 -49zM260 587l39 137h85l-59 -137h-65zM123 587l41 137h84l-59 -137h-66z" />
    <glyph glyph-name="umacron" unicode="&#x16b;" horiz-adv-x="455" 
d="M181 -8c-91 0 -129 55 -129 137v384h82v-382c0 -44 14 -69 77 -69c43 0 84 18 108 32v419h82v-513h-70l-8 41h-4c-34 -24 -81 -49 -138 -49zM128 613v69h203v-69h-203z" />
    <glyph glyph-name="uogonek" unicode="&#x173;" horiz-adv-x="455" 
d="M401 513v-511c-35 -29 -71 -67 -71 -105c0 -29 21 -37 48 -37c11 0 23 1 29 3v-51c-10 -5 -28 -9 -47 -9c-62 0 -100 31 -100 83c0 53 38 90 71 114l-8 41h-4c-34 -24 -81 -49 -138 -49c-91 0 -129 55 -129 137v384h82v-382c0 -44 14 -69 77 -69c43 0 84 18 108 32v419
h82z" />
    <glyph glyph-name="uring" unicode="&#x16f;" horiz-adv-x="455" 
d="M229 577c-49 0 -85 34 -85 85c0 50 36 86 85 86s85 -35 85 -85s-36 -86 -85 -86zM229 617c25 0 41 17 41 46c0 26 -16 45 -41 45c-26 0 -41 -18 -41 -45c0 -29 16 -46 41 -46zM181 -8c-91 0 -129 55 -129 137v384h82v-382c0 -44 14 -69 77 -69c43 0 84 18 108 32v419h82
v-513h-70l-8 41h-4c-34 -24 -81 -49 -138 -49z" />
    <glyph glyph-name="utilde" unicode="&#x169;" horiz-adv-x="455" 
d="M181 -8c-91 0 -129 55 -129 137v384h82v-382c0 -44 14 -69 77 -69c43 0 84 18 108 32v419h82v-513h-70l-8 41h-4c-34 -24 -81 -49 -138 -49zM98 602c4 70 41 101 82 101c43 0 65 -33 95 -33c16 0 26 11 30 36h54c-5 -66 -40 -102 -83 -102c-41 0 -65 33 -93 33
c-18 0 -27 -12 -31 -35h-54z" />
    <glyph glyph-name="wacute" unicode="&#x1e83;" horiz-adv-x="622" 
d="M270 587l72 137h90l-93 -137h-69zM134 0l-121 513h85l63 -302c12 -59 20 -101 20 -101h3s10 43 23 101l70 302h75l71 -302c15 -62 23 -101 23 -101h3s9 41 20 100l62 303h78l-119 -513h-86l-65 265c-15 62 -26 114 -26 114h-3s-10 -51 -26 -114l-65 -265h-85z" />
    <glyph glyph-name="wcircumflex" unicode="&#x175;" horiz-adv-x="622" 
d="M189 587l88 135h72l87 -135h-63l-61 73l-59 -73h-64zM134 0l-121 513h85l63 -302c12 -59 20 -101 20 -101h3s10 43 23 101l70 302h75l71 -302c15 -62 23 -101 23 -101h3s9 41 20 100l62 303h78l-119 -513h-86l-65 265c-15 62 -26 114 -26 114h-3s-10 -51 -26 -114
l-65 -265h-85z" />
    <glyph glyph-name="wdieresis" unicode="&#x1e85;" horiz-adv-x="622" 
d="M354 611v87h81v-87h-81zM199 611v87h81v-87h-81zM134 0l-121 513h85l63 -302c12 -59 20 -101 20 -101h3s10 43 23 101l70 302h75l71 -302c15 -62 23 -101 23 -101h3s9 41 20 100l62 303h78l-119 -513h-86l-65 265c-15 62 -26 114 -26 114h-3s-10 -51 -26 -114l-65 -265
h-85z" />
    <glyph glyph-name="wgrave" unicode="&#x1e81;" horiz-adv-x="622" 
d="M134 0l-121 513h85l63 -302c12 -59 20 -101 20 -101h3s10 43 23 101l70 302h75l71 -302c15 -62 23 -101 23 -101h3s9 41 20 100l62 303h78l-119 -513h-86l-65 265c-15 62 -26 114 -26 114h-3s-10 -51 -26 -114l-65 -265h-85zM286 587l-93 137h90l72 -137h-69z" />
    <glyph glyph-name="ycircumflex" unicode="&#x177;" horiz-adv-x="414" 
d="M89 -197c-21 0 -45 6 -60 14v58c12 -2 31 -4 46 -4c42 0 65 20 84 83l16 48l-167 511h89l98 -325c13 -43 18 -65 18 -65h2s7 32 17 64l91 326h82l-173 -570c-28 -93 -63 -140 -143 -140zM88 587l88 135h72l87 -135h-63l-61 73l-59 -73h-64z" />
    <glyph glyph-name="ygrave" unicode="&#x1ef3;" horiz-adv-x="414" 
d="M89 -197c-21 0 -45 6 -60 14v58c12 -2 31 -4 46 -4c42 0 65 20 84 83l16 48l-167 511h89l98 -325c13 -43 18 -65 18 -65h2s7 32 17 64l91 326h82l-173 -570c-28 -93 -63 -140 -143 -140zM187 587l-93 137h90l72 -137h-69z" />
    <glyph glyph-name="zacute" unicode="&#x17a;" horiz-adv-x="382" 
d="M158 587l72 137h90l-93 -137h-69zM28 0v60l226 383v3h-214v67h313v-57l-229 -385v-3h227v-68h-323z" />
    <glyph glyph-name="zacute.pl" horiz-adv-x="382" 
d="M166 587l36 137h87l-58 -137h-65zM28 0v60l226 383v3h-214v67h313v-57l-229 -385v-3h227v-68h-323z" />
    <glyph glyph-name="zdotaccent" unicode="&#x17c;" horiz-adv-x="382" 
d="M28 0v60l226 383v3h-214v67h313v-57l-229 -385v-3h227v-68h-323zM159 611v88h83v-88h-83z" />
    <glyph glyph-name="oneeighth" unicode="&#x215b;" horiz-adv-x="675" 
d="M515 -6c-86 0 -135 41 -135 109c0 52 32 86 75 109c-36 22 -62 52 -62 104c0 59 45 106 124 106c80 0 123 -42 123 -103c0 -48 -30 -80 -66 -101c46 -24 76 -50 76 -107c0 -73 -53 -117 -135 -117zM514 47c42 0 70 20 70 58c0 43 -28 58 -86 83c-28 -16 -54 -39 -54 -78
c0 -41 27 -63 70 -63zM529 242c28 20 47 39 47 73c0 32 -20 54 -60 54c-36 0 -58 -19 -58 -51c0 -35 23 -52 71 -76zM89 278v345l-71 -9v41l103 41h35v-418h-67zM34 -40l427 753h66l-427 -753h-66z" />
    <glyph glyph-name="onethird" unicode="&#x2153;" horiz-adv-x="679" 
d="M514 -7c-46 0 -76 9 -96 22v53c20 -10 48 -19 77 -19c52 0 85 19 85 73c0 48 -26 68 -75 68h-34v52h31c42 0 67 20 67 63c0 48 -25 61 -71 61c-27 0 -50 -5 -69 -12v52c21 9 53 16 90 16c76 0 119 -38 119 -102c0 -58 -26 -85 -66 -98v-1c48 -10 78 -39 78 -104
c0 -78 -51 -124 -136 -124zM89 278v345l-71 -9v41l103 41h35v-418h-67zM46 -40l427 753h66l-427 -753h-66z" />
    <glyph glyph-name="threeeighths" unicode="&#x215c;" horiz-adv-x="724" 
d="M563 -6c-86 0 -135 41 -135 109c0 52 32 86 75 109c-36 22 -62 52 -62 104c0 59 45 106 124 106c80 0 123 -42 123 -103c0 -48 -30 -80 -66 -101c46 -24 76 -50 76 -107c0 -73 -53 -117 -135 -117zM562 47c42 0 70 20 70 58c0 43 -28 58 -86 83c-28 -16 -54 -39 -54 -78
c0 -41 27 -63 70 -63zM577 242c28 20 47 39 47 73c0 32 -20 54 -60 54c-36 0 -58 -19 -58 -51c0 -35 23 -52 71 -76zM94 -40l427 753h66l-427 -753h-66zM123 270c-46 0 -76 9 -96 22v53c20 -10 48 -19 77 -19c52 0 85 19 85 73c0 48 -26 68 -75 68h-34v52h31
c42 0 67 20 67 63c0 48 -25 61 -71 61c-27 0 -50 -5 -69 -12v52c21 9 53 16 90 16c76 0 119 -38 119 -102c0 -58 -26 -85 -66 -98v-1c48 -10 78 -39 78 -104c0 -78 -51 -124 -136 -124z" />
    <glyph glyph-name="fiveeighths" unicode="&#x215d;" horiz-adv-x="715" 
d="M554 -6c-86 0 -135 41 -135 109c0 52 32 86 75 109c-36 22 -62 52 -62 104c0 59 45 106 124 106c80 0 123 -42 123 -103c0 -48 -30 -80 -66 -101c46 -24 76 -50 76 -107c0 -73 -53 -117 -135 -117zM553 47c42 0 70 20 70 58c0 43 -28 58 -86 83c-28 -16 -54 -39 -54 -78
c0 -41 27 -63 70 -63zM568 242c28 20 47 39 47 73c0 32 -20 54 -60 54c-36 0 -58 -19 -58 -51c0 -35 23 -52 71 -76zM120 272c-40 0 -76 8 -95 20v51c20 -9 49 -16 79 -16c57 0 84 29 84 81c0 54 -26 76 -86 76c-24 0 -48 -3 -63 -7l12 216h192v-56h-140l-6 -103
c9 2 18 3 36 3c81 0 125 -43 125 -129c0 -82 -54 -136 -138 -136zM86 -40l427 753h66l-427 -753h-66z" />
    <glyph glyph-name="twothirds" unicode="&#x2154;" horiz-adv-x="735" 
d="M570 -7c-46 0 -76 9 -96 22v53c20 -10 48 -19 77 -19c52 0 85 19 85 73c0 48 -26 68 -75 68h-34v52h31c42 0 67 20 67 63c0 48 -25 61 -71 61c-27 0 -50 -5 -69 -12v52c21 9 53 16 90 16c76 0 119 -38 119 -102c0 -58 -26 -85 -66 -98v-1c48 -10 78 -39 78 -104
c0 -78 -51 -124 -136 -124zM26 278v42l90 115c41 48 64 86 64 135c0 50 -23 75 -70 75c-33 0 -59 -9 -78 -18v51c21 12 53 21 94 21c82 0 126 -45 126 -124c0 -63 -31 -109 -80 -164l-63 -77v-1h151v-55h-234zM125 -40l427 753h66l-427 -753h-66z" />
    <glyph glyph-name="seveneighths" unicode="&#x215e;" horiz-adv-x="683" 
d="M522 -6c-86 0 -135 41 -135 109c0 52 32 86 75 109c-36 22 -62 52 -62 104c0 59 45 106 124 106c80 0 123 -42 123 -103c0 -48 -30 -80 -66 -101c46 -24 76 -50 76 -107c0 -73 -53 -117 -135 -117zM521 47c42 0 70 20 70 58c0 43 -28 58 -86 83c-28 -16 -54 -39 -54 -78
c0 -41 27 -63 70 -63zM536 242c28 20 47 39 47 73c0 32 -20 54 -60 54c-36 0 -58 -19 -58 -51c0 -35 23 -52 71 -76zM58 278l126 356v2h-156v57h229v-46l-127 -369h-72zM48 -40l427 753h66l-427 -753h-66z" />
    <glyph glyph-name="uni24C5" unicode="&#x24c5;" horiz-adv-x="673" 
d="M337 -11c-178 0 -302 135 -302 357c0 219 124 355 302 355c179 0 302 -135 302 -355c0 -218 -124 -357 -302 -357zM337 37c150 0 247 113 247 309s-98 307 -247 307c-151 0 -247 -111 -247 -307s97 -309 247 -309zM234 163v373h115c81 0 121 -37 121 -119
c0 -80 -44 -121 -118 -121h-49v-133h-69zM303 352h36c41 0 61 17 61 65c0 51 -23 62 -63 62h-34v-127z" />
    <glyph glyph-name="dollar.old" horiz-adv-x="407" 
d="M132 -98l9 90c-50 5 -88 19 -114 36v67c36 -19 76 -34 121 -38l26 244l-14 5c-69 25 -128 68 -128 172c0 105 63 173 179 175l7 62h57l-7 -66c41 -5 67 -17 85 -28v-67c-21 10 -53 24 -92 30l-24 -220c84 -30 139 -75 139 -183c0 -115 -62 -184 -179 -190l-9 -89h-56z
M111 485c0 -56 17 -81 71 -103l22 204c-63 -5 -93 -40 -93 -101zM294 175c0 55 -18 83 -66 105l-23 -220c60 10 89 50 89 115z" />
    <glyph glyph-name="Euro.old" horiz-adv-x="443" 
d="M20 356v67h56c19 180 113 230 227 230c47 0 86 -12 114 -29v-66c-36 14 -71 26 -120 26c-77 0 -127 -32 -138 -161h175v-67h-177v-74h177v-67h-174c12 -108 54 -157 143 -157c54 0 88 16 119 32v-66c-28 -19 -71 -34 -126 -34c-119 0 -201 60 -219 225h-57v67h53v74h-53z
" />
    <glyph glyph-name="sterling.old" horiz-adv-x="401" 
d="M33 288v67h61v104c0 143 82 193 177 193c48 0 85 -13 105 -25v-59c-24 9 -55 16 -91 16c-67 0 -110 -30 -110 -125v-104h141v-67h-141v-63c0 -85 -17 -120 -60 -154v-2h266v-69h-356v60c52 33 69 71 69 159v69h-61z" />
    <glyph glyph-name="yen.old" horiz-adv-x="423" 
d="M172 0v124h-125v67h125v68h-125v67h104l-142 317h87l73 -171c28 -64 46 -119 46 -119h2s21 56 47 119l71 171h80l-140 -317h104v-67h-126v-68h126v-67h-126v-124h-81z" />
    <glyph glyph-name="zero.old" horiz-adv-x="488" 
d="M244 -11c-128 0 -211 84 -211 287v36c0 197 82 291 211 291s211 -86 211 -286v-38c0 -206 -89 -290 -211 -290zM246 56c88 0 127 72 127 209v60c0 140 -42 211 -129 211c-88 0 -126 -72 -126 -206v-60c0 -136 38 -214 128 -214z" />
    <glyph glyph-name="one.old" horiz-adv-x="281" 
d="M127 0v499l-108 -14v48l157 66h33v-599h-82z" />
    <glyph glyph-name="two.old" horiz-adv-x="393" 
d="M23 0v59l129 145c82 91 116 144 116 219s-35 111 -105 111c-48 0 -86 -13 -116 -27v60c33 20 77 36 137 36c111 0 168 -66 168 -175c0 -94 -48 -167 -143 -264l-89 -92v-3h236v-69h-333z" />
    <glyph glyph-name="three.old" horiz-adv-x="405" 
d="M160 -110c-65 0 -108 16 -141 36v64c33 -16 76 -32 124 -32c85 0 142 41 142 141c0 88 -45 128 -128 128h-53v69h47c69 0 115 37 115 119c0 88 -39 121 -111 121c-52 0 -85 -13 -113 -25v63c33 18 82 29 133 29c113 0 173 -61 173 -174c0 -89 -37 -137 -102 -157v-3
c72 -16 123 -66 123 -174c0 -130 -81 -205 -209 -205z" />
    <glyph glyph-name="four.old" horiz-adv-x="474" 
d="M286 -100v173h-271v61l281 459h70v-451h93v-69h-93v-173h-80zM98 142h188v302h-4l-184 -299v-3z" />
    <glyph glyph-name="five.old" horiz-adv-x="404" 
d="M160 -110c-62 0 -110 14 -141 33v64c34 -17 73 -28 125 -28c99 0 143 53 143 155c0 98 -43 138 -141 138c-40 0 -79 -5 -105 -12l20 353h300v-71h-232l-12 -207c14 3 35 5 59 5c127 0 195 -61 195 -206c0 -132 -74 -224 -211 -224z" />
    <glyph glyph-name="six.old" horiz-adv-x="454" 
d="M238 -11c-146 0 -204 119 -204 294v57c0 277 114 363 248 363c51 0 93 -10 114 -23v-63c-21 8 -63 18 -101 18c-91 0 -174 -40 -178 -260c31 25 79 48 137 48c113 0 173 -73 173 -203c0 -131 -66 -231 -189 -231zM239 57c69 0 105 59 105 155c0 100 -37 142 -112 142
c-53 0 -92 -20 -115 -36v-38c0 -149 38 -223 122 -223z" />
    <glyph glyph-name="seven.old" horiz-adv-x="387" 
d="M62 -100l224 619v4h-264v70h344v-66l-218 -627h-86z" />
    <glyph glyph-name="eight.old" horiz-adv-x="466" 
d="M232 -10c-123 0 -198 69 -198 179c0 89 52 153 122 191c-57 37 -101 84 -101 171c0 98 69 172 180 172c113 0 179 -62 179 -168c0 -82 -48 -143 -108 -177c73 -36 126 -83 126 -179c0 -100 -66 -189 -200 -189zM232 59c74 0 117 46 117 110c0 74 -37 109 -143 157
c-48 -31 -93 -81 -93 -152c0 -75 47 -115 119 -115zM255 390c53 38 78 80 78 141s-29 104 -99 104c-60 0 -96 -37 -96 -101s31 -100 117 -144z" />
    <glyph glyph-name="nine.old" horiz-adv-x="455" 
d="M174 -111c-53 0 -99 11 -120 26v62c21 -9 67 -19 107 -19c103 0 172 49 176 260c-28 -25 -79 -48 -132 -48c-117 0 -177 72 -177 203c0 130 64 230 189 230c142 0 204 -105 204 -294v-57c0 -271 -97 -363 -247 -363zM226 239c49 0 89 20 112 36v42
c0 150 -39 218 -122 218c-70 0 -105 -57 -105 -154c0 -102 37 -142 115 -142z" />
    <glyph glyph-name="percent.old" horiz-adv-x="718" 
d="M164 295c-89 0 -136 57 -136 165v10c0 99 47 164 135 164s136 -59 136 -161v-9c0 -100 -46 -169 -135 -169zM555 -8c-89 0 -136 58 -136 165v10c0 99 47 164 135 164s136 -59 136 -161v-9c0 -100 -46 -169 -135 -169zM141 -29l360 671h71l-360 -671h-71zM556 47
c43 0 63 28 63 103v25c0 73 -24 101 -64 101c-41 0 -64 -27 -64 -101v-24c0 -76 21 -104 65 -104zM164 350c43 0 64 28 64 103v25c0 73 -24 100 -65 100s-64 -27 -64 -100v-24c0 -76 22 -104 65 -104z" />
    <glyph glyph-name="perthousand.old" horiz-adv-x="1031" 
d="M164 295c-89 0 -136 57 -136 165v10c0 99 47 164 135 164s136 -59 136 -161v-9c0 -100 -46 -169 -135 -169zM555 -8c-89 0 -136 58 -136 165v10c0 99 47 164 135 164s136 -59 136 -161v-9c0 -100 -46 -169 -135 -169zM141 -29l360 671h71l-360 -671h-71zM556 47
c43 0 63 28 63 103v25c0 73 -24 101 -64 101c-41 0 -64 -27 -64 -101v-24c0 -76 21 -104 65 -104zM164 350c43 0 64 28 64 103v25c0 73 -24 100 -65 100s-64 -27 -64 -100v-24c0 -76 22 -104 65 -104zM868 -8c-89 0 -136 58 -136 165v10c0 99 47 164 135 164
s136 -59 136 -161v-9c0 -100 -47 -169 -135 -169zM868 47c43 0 64 28 64 103v25c0 73 -24 101 -65 101s-64 -27 -64 -101v-24c0 -76 22 -104 65 -104z" />
    <glyph glyph-name="plus.old" horiz-adv-x="470" 
d="M197 116v153h-141v73h141v151h75v-151h142v-73h-142v-153h-75z" />
    <glyph glyph-name="minus.old" horiz-adv-x="470" 
d="M56 269v73h358v-73h-358z" />
    <glyph glyph-name="multiply.old" horiz-adv-x="478" 
d="M112 115l-49 48l127 131l-124 129l51 49l122 -127l123 127l48 -48l-124 -129l126 -131l-49 -49l-126 130z" />
    <glyph glyph-name="divide.old" horiz-adv-x="469" 
d="M56 269v73h357v-73h-357zM188 120v96h92v-96h-92zM188 392v97h92v-97h-92z" />
    <glyph glyph-name="equal.old" horiz-adv-x="463" 
d="M56 337v69h350v-69h-350zM56 175v70h350v-70h-350z" />
    <glyph glyph-name="less.old" horiz-adv-x="433" 
d="M371 84l-317 175v66l317 174v-85l-235 -121l235 -122v-87z" />
    <glyph glyph-name="greater.old" horiz-adv-x="433" 
d="M61 84v86l235 124l-235 120v85l317 -174v-66z" />
    <glyph glyph-name="numbersign.old" horiz-adv-x="438" 
d="M65 0l26 199h-69v69h78l17 125h-68v69h77l24 181h63l-24 -181h94l23 181h63l-24 -181h70v-69h-79l-16 -125h69v-69h-78l-26 -199h-63l26 199h-94l-25 -199h-64zM164 268h93l17 125h-94z" />
    <glyph glyph-name="zero.num" horiz-adv-x="344" 
d="M173 272c-90 0 -148 53 -148 198v30c0 137 57 200 147 200s147 -57 147 -196v-32c0 -133 -53 -200 -146 -200zM173 326c57 0 76 46 76 139v44c0 94 -23 138 -77 138c-55 0 -76 -45 -76 -135v-43c0 -93 19 -143 77 -143z" />
    <glyph glyph-name="one.num" horiz-adv-x="210" 
d="M87 278v345l-71 -9v41l103 41h35v-418h-67z" />
    <glyph glyph-name="two.num" horiz-adv-x="287" 
d="M24 278v42l90 115c41 48 64 86 64 135c0 50 -23 75 -70 75c-33 0 -59 -9 -78 -18v51c21 12 53 21 94 21c82 0 126 -45 126 -124c0 -63 -31 -109 -80 -164l-63 -77v-1h151v-55h-234z" />
    <glyph glyph-name="three.num" horiz-adv-x="284" 
d="M121 270c-46 0 -76 9 -96 22v53c20 -10 48 -19 77 -19c52 0 85 19 85 73c0 48 -26 68 -75 68h-34v52h31c42 0 67 20 67 63c0 48 -25 61 -71 61c-27 0 -50 -5 -69 -12v52c21 9 53 16 90 16c76 0 119 -38 119 -102c0 -58 -26 -85 -66 -98v-1c48 -10 78 -39 78 -104
c0 -78 -51 -124 -136 -124z" />
    <glyph glyph-name="four.num" horiz-adv-x="313" 
d="M177 278v99h-161v45l167 271h60v-265h52v-51h-52v-99h-66zM80 428h100v159h-2l-98 -156v-3z" />
    <glyph glyph-name="five.num" horiz-adv-x="284" 
d="M117 272c-40 0 -76 8 -95 20v51c20 -9 49 -16 79 -16c57 0 84 29 84 81c0 54 -26 76 -86 76c-24 0 -48 -3 -63 -7l12 216h192v-56h-140l-6 -103c9 2 18 3 36 3c81 0 125 -43 125 -129c0 -82 -54 -136 -138 -136z" />
    <glyph glyph-name="six.num" horiz-adv-x="314" 
d="M164 272c-97 0 -139 71 -139 179v35c0 162 73 214 168 214c38 0 66 -6 79 -14v-52c-13 4 -40 10 -67 10c-60 0 -108 -18 -111 -130c19 15 47 26 84 26c76 0 113 -49 113 -126c0 -83 -42 -142 -127 -142zM163 325c40 0 61 31 61 84c0 54 -22 79 -65 79
c-31 0 -53 -11 -65 -19v-20c0 -80 20 -124 69 -124z" />
    <glyph glyph-name="seven.num" horiz-adv-x="279" 
d="M53 278l126 356v2h-156v57h229v-46l-127 -369h-72z" />
    <glyph glyph-name="eight.num" horiz-adv-x="314" 
d="M157 272c-86 0 -135 41 -135 109c0 52 32 86 75 109c-36 22 -62 52 -62 104c0 59 45 106 124 106c80 0 123 -42 123 -103c0 -48 -30 -80 -66 -101c46 -24 76 -50 76 -107c0 -73 -53 -117 -135 -117zM156 325c42 0 70 20 70 58c0 43 -28 58 -86 83
c-28 -16 -54 -39 -54 -78c0 -41 27 -63 70 -63zM171 520c28 20 47 39 47 73c0 32 -20 54 -60 54c-36 0 -58 -19 -58 -51c0 -35 23 -52 71 -76z" />
    <glyph glyph-name="nine.num" horiz-adv-x="314" 
d="M151 700c92 0 138 -61 138 -177v-36c0 -162 -69 -215 -168 -215c-39 0 -68 7 -81 16v52c13 -5 42 -12 69 -12c66 0 109 21 111 131c-20 -15 -47 -26 -82 -26c-78 0 -116 50 -116 126c0 83 43 141 129 141zM151 648c-41 0 -61 -31 -61 -84c0 -55 21 -79 65 -79
c31 0 52 11 65 19v20c0 85 -22 124 -69 124z" />
    <glyph glyph-name="zero.den" horiz-adv-x="344" 
d="M173 -4c-90 0 -148 53 -148 198v30c0 137 57 200 147 200s147 -57 147 -196v-32c0 -133 -53 -200 -146 -200zM173 51c57 0 76 45 76 138v44c0 94 -23 138 -77 138c-55 0 -76 -45 -76 -135v-43c0 -93 19 -142 77 -142z" />
    <glyph glyph-name="one.den" horiz-adv-x="210" 
d="M87 0v346l-71 -10v42l103 40h35v-418h-67z" />
    <glyph glyph-name="two.den" horiz-adv-x="287" 
d="M24 0v43l90 115c41 48 64 86 64 134c0 50 -23 75 -70 75c-33 0 -59 -8 -78 -18v52c21 11 53 21 94 21c82 0 126 -45 126 -124c0 -64 -31 -110 -80 -164l-63 -77v-2h151v-55h-234z" />
    <glyph glyph-name="three.den" horiz-adv-x="284" 
d="M121 -7c-46 0 -76 9 -96 22v53c20 -10 48 -19 77 -19c52 0 85 19 85 73c0 48 -26 68 -75 68h-34v52h31c42 0 67 20 67 63c0 48 -25 61 -71 61c-27 0 -50 -5 -69 -12v52c21 9 53 16 90 16c76 0 119 -38 119 -102c0 -58 -26 -85 -66 -98v-1c48 -10 78 -39 78 -104
c0 -78 -51 -124 -136 -124z" />
    <glyph glyph-name="four.den" horiz-adv-x="313" 
d="M177 0v99h-161v45l167 271h60v-265h52v-51h-52v-99h-66zM80 150h100v159h-2l-98 -156v-3z" />
    <glyph glyph-name="five.den" horiz-adv-x="284" 
d="M117 -5c-40 0 -76 8 -95 19v51c20 -9 49 -16 79 -16c57 0 84 29 84 82c0 54 -26 76 -86 76c-24 0 -48 -4 -63 -8l12 216h192v-55h-140l-6 -104c9 2 18 3 36 3c81 0 125 -42 125 -128c0 -82 -54 -136 -138 -136z" />
    <glyph glyph-name="six.den" horiz-adv-x="314" 
d="M164 -5c-97 0 -139 70 -139 179v34c0 163 73 215 168 215c38 0 66 -7 79 -15v-52c-13 5 -40 11 -67 11c-60 0 -108 -18 -111 -130c19 14 47 26 84 26c76 0 113 -50 113 -127c0 -82 -42 -141 -127 -141zM163 47c40 0 61 31 61 84c0 55 -22 79 -65 79
c-31 0 -53 -11 -65 -19v-20c0 -80 20 -124 69 -124z" />
    <glyph glyph-name="seven.den" horiz-adv-x="279" 
d="M53 0l126 357v2h-156v56h229v-45l-127 -370h-72z" />
    <glyph glyph-name="eight.den" horiz-adv-x="314" 
d="M157 -6c-86 0 -135 41 -135 109c0 52 32 86 75 109c-36 22 -62 52 -62 104c0 59 45 106 124 106c80 0 123 -42 123 -103c0 -48 -30 -80 -66 -101c46 -24 76 -50 76 -107c0 -73 -53 -117 -135 -117zM156 47c42 0 70 20 70 58c0 43 -28 58 -86 83c-28 -16 -54 -39 -54 -78
c0 -41 27 -63 70 -63zM171 242c28 20 47 39 47 73c0 32 -20 54 -60 54c-36 0 -58 -19 -58 -51c0 -35 23 -52 71 -76z" />
    <glyph glyph-name="nine.den" horiz-adv-x="314" 
d="M151 423c92 0 138 -62 138 -177v-36c0 -163 -69 -215 -168 -215c-39 0 -68 7 -81 15v52c13 -5 42 -11 69 -11c66 0 109 21 111 130c-20 -14 -47 -26 -82 -26c-78 0 -116 51 -116 126c0 83 43 142 129 142zM151 370c-41 0 -61 -31 -61 -84c0 -54 21 -79 65 -79
c31 0 52 12 65 19v20c0 85 -22 124 -69 124z" />
    <glyph glyph-name="zero.sub" horiz-adv-x="344" 
d="M173 -125c-90 0 -148 53 -148 197v30c0 138 57 201 147 201s147 -57 147 -197v-32c0 -133 -53 -199 -146 -199zM173 -71c57 0 76 46 76 138v44c0 94 -23 138 -77 138c-55 0 -76 -45 -76 -135v-43c0 -92 19 -142 77 -142z" />
    <glyph glyph-name="one.sub" horiz-adv-x="210" 
d="M87 -120v346l-71 -10v42l103 40h35v-418h-67z" />
    <glyph glyph-name="two.sub" horiz-adv-x="287" 
d="M24 -120v43l90 115c41 48 64 86 64 134c0 50 -23 75 -70 75c-33 0 -59 -8 -78 -18v52c21 11 53 21 94 21c82 0 126 -45 126 -124c0 -64 -31 -110 -80 -164l-63 -77v-2h151v-55h-234z" />
    <glyph glyph-name="three.sub" horiz-adv-x="284" 
d="M121 -128c-46 0 -76 10 -96 22v53c20 -10 48 -18 77 -18c52 0 85 19 85 72c0 48 -26 68 -75 68h-34v53h31c42 0 67 19 67 63c0 48 -25 61 -71 61c-27 0 -50 -5 -69 -13v52c21 10 53 17 90 17c76 0 119 -38 119 -103c0 -57 -26 -85 -66 -98v-1c48 -9 78 -39 78 -104
c0 -78 -51 -124 -136 -124z" />
    <glyph glyph-name="four.sub" horiz-adv-x="313" 
d="M177 -120v99h-161v45l167 271h60v-265h52v-51h-52v-99h-66zM80 30h100v159h-2l-98 -156v-3z" />
    <glyph glyph-name="five.sub" horiz-adv-x="284" 
d="M117 -125c-40 0 -76 8 -95 19v51c20 -9 49 -16 79 -16c57 0 84 29 84 82c0 54 -26 76 -86 76c-24 0 -48 -4 -63 -8l12 216h192v-55h-140l-6 -104c9 2 18 3 36 3c81 0 125 -42 125 -128c0 -82 -54 -136 -138 -136z" />
    <glyph glyph-name="six.sub" horiz-adv-x="314" 
d="M164 -125c-97 0 -139 70 -139 179v34c0 163 73 215 168 215c38 0 66 -7 79 -15v-52c-13 5 -40 11 -67 11c-60 0 -108 -18 -111 -130c19 14 47 26 84 26c76 0 113 -50 113 -127c0 -82 -42 -141 -127 -141zM163 -73c40 0 61 31 61 84c0 55 -22 79 -65 79
c-31 0 -53 -11 -65 -19v-20c0 -80 20 -124 69 -124z" />
    <glyph glyph-name="seven.sub" horiz-adv-x="279" 
d="M53 -120l126 357v2h-156v56h229v-45l-127 -370h-72z" />
    <glyph glyph-name="eight.sub" horiz-adv-x="314" 
d="M157 -126c-86 0 -135 41 -135 109c0 52 32 86 75 109c-36 22 -62 52 -62 104c0 59 45 106 124 106c80 0 123 -42 123 -103c0 -48 -30 -80 -66 -101c46 -24 76 -50 76 -107c0 -73 -53 -117 -135 -117zM156 -73c42 0 70 20 70 58c0 43 -28 58 -86 83
c-28 -16 -54 -39 -54 -78c0 -41 27 -63 70 -63zM171 122c28 20 47 39 47 73c0 32 -20 54 -60 54c-36 0 -58 -19 -58 -51c0 -35 23 -52 71 -76z" />
    <glyph glyph-name="nine.sub" horiz-adv-x="314" 
d="M151 303c92 0 138 -62 138 -177v-36c0 -163 -69 -215 -168 -215c-39 0 -68 7 -81 15v52c13 -5 42 -11 69 -11c66 0 109 21 111 130c-20 -14 -47 -26 -82 -26c-78 0 -116 51 -116 126c0 83 43 142 129 142zM151 250c-41 0 -61 -31 -61 -84c0 -54 21 -79 65 -79
c31 0 52 12 65 19v20c0 85 -22 124 -69 124z" />
    <glyph glyph-name="zero.sup" horiz-adv-x="344" 
d="M173 317c-90 0 -148 53 -148 197v30c0 138 57 201 147 201s147 -57 147 -197v-32c0 -133 -53 -199 -146 -199zM173 371c57 0 76 46 76 138v44c0 94 -23 138 -77 138c-55 0 -76 -45 -76 -135v-43c0 -92 19 -142 77 -142z" />
    <glyph glyph-name="one.sup" horiz-adv-x="210" 
d="M87 322v346l-71 -10v42l103 40h35v-418h-67z" />
    <glyph glyph-name="two.sup" horiz-adv-x="287" 
d="M24 322v43l90 115c41 48 64 86 64 134c0 50 -23 75 -70 75c-33 0 -59 -8 -78 -18v52c21 11 53 21 94 21c82 0 126 -45 126 -124c0 -64 -31 -110 -80 -164l-63 -77v-2h151v-55h-234z" />
    <glyph glyph-name="three.sup" horiz-adv-x="284" 
d="M121 315c-46 0 -76 9 -96 22v53c20 -10 48 -19 77 -19c52 0 85 19 85 73c0 48 -26 68 -75 68h-34v52h31c42 0 67 20 67 63c0 48 -25 61 -71 61c-27 0 -50 -5 -69 -12v52c21 9 53 16 90 16c76 0 119 -38 119 -102c0 -58 -26 -85 -66 -98v-1c48 -10 78 -39 78 -104
c0 -78 -51 -124 -136 -124z" />
    <glyph glyph-name="four.sup" horiz-adv-x="313" 
d="M177 322v99h-161v45l167 271h60v-265h52v-51h-52v-99h-66zM80 472h100v159h-2l-98 -156v-3z" />
    <glyph glyph-name="five.sup" horiz-adv-x="284" 
d="M117 317c-40 0 -76 8 -95 19v51c20 -9 49 -16 79 -16c57 0 84 29 84 82c0 54 -26 76 -86 76c-24 0 -48 -4 -63 -8l12 216h192v-55h-140l-6 -104c9 2 18 3 36 3c81 0 125 -42 125 -128c0 -82 -54 -136 -138 -136z" />
    <glyph glyph-name="six.sup" horiz-adv-x="314" 
d="M164 317c-97 0 -139 70 -139 179v34c0 163 73 215 168 215c38 0 66 -7 79 -15v-52c-13 5 -40 11 -67 11c-60 0 -108 -18 -111 -130c19 14 47 26 84 26c76 0 113 -50 113 -127c0 -82 -42 -141 -127 -141zM163 369c40 0 61 31 61 84c0 55 -22 79 -65 79
c-31 0 -53 -11 -65 -19v-20c0 -80 20 -124 69 -124z" />
    <glyph glyph-name="seven.sup" horiz-adv-x="279" 
d="M53 322l126 357v2h-156v56h229v-45l-127 -370h-72z" />
    <glyph glyph-name="eight.sup" horiz-adv-x="314" 
d="M157 316c-86 0 -135 41 -135 109c0 52 32 86 75 109c-36 22 -62 52 -62 104c0 59 45 106 124 106c80 0 123 -42 123 -103c0 -48 -30 -80 -66 -101c46 -24 76 -50 76 -107c0 -73 -53 -117 -135 -117zM156 369c42 0 70 20 70 58c0 43 -28 58 -86 83
c-28 -16 -54 -39 -54 -78c0 -41 27 -63 70 -63zM171 564c28 20 47 39 47 73c0 32 -20 54 -60 54c-36 0 -58 -19 -58 -51c0 -35 23 -52 71 -76z" />
    <glyph glyph-name="nine.sup" horiz-adv-x="314" 
d="M151 745c92 0 138 -62 138 -177v-36c0 -163 -69 -215 -168 -215c-39 0 -68 7 -81 15v52c13 -5 42 -11 69 -11c66 0 109 21 111 130c-20 -14 -47 -26 -82 -26c-78 0 -116 51 -116 126c0 83 43 142 129 142zM151 692c-41 0 -61 -31 -61 -84c0 -54 21 -79 65 -79
c31 0 52 12 65 19v20c0 85 -22 124 -69 124z" />
    <glyph glyph-name="uni2033" unicode="&#x2033;" horiz-adv-x="327" 
d="M48 510l16 183h88l-36 -183h-68zM189 510l16 183h88l-36 -183h-68z" />
    <glyph glyph-name="uni2032" unicode="&#x2032;" horiz-adv-x="179" 
d="M45 510l16 183h88l-36 -183h-68z" />
    <glyph glyph-name="g.alt" horiz-adv-x="464" 
d="M211 -205c-67 0 -123 14 -153 32v63c23 -10 77 -25 132 -25c90 0 139 29 139 129v53h-4c-22 -25 -59 -44 -115 -44c-93 0 -180 54 -180 237v32c0 175 74 249 186 249c58 0 93 -22 114 -40h4l7 32h69v-527c0 -140 -75 -191 -199 -191zM234 71c45 0 78 19 95 37v312
c-19 16 -56 31 -97 31c-79 0 -118 -45 -118 -171v-37c0 -130 45 -172 120 -172z" />
    <glyph glyph-name="l.alt" horiz-adv-x="229" 
d="M152 -8c-57 0 -97 28 -97 113v629h82v-622c0 -42 15 -52 43 -52c12 0 27 1 38 4v-55c-15 -9 -35 -17 -66 -17z" />
    <glyph glyph-name="gbreve.alt" horiz-adv-x="464" 
d="M211 -205c-67 0 -123 14 -153 32v63c23 -10 77 -25 132 -25c90 0 139 29 139 129v53h-4c-22 -25 -59 -44 -115 -44c-93 0 -180 54 -180 237v32c0 175 74 249 186 249c58 0 93 -22 114 -40h4l7 32h69v-527c0 -140 -75 -191 -199 -191zM234 71c45 0 78 19 95 37v312
c-19 16 -56 31 -97 31c-79 0 -118 -45 -118 -171v-37c0 -130 45 -172 120 -172zM230 590c-69 0 -111 50 -114 117h60c5 -34 22 -53 54 -53s49 19 54 53h61c-3 -67 -47 -117 -115 -117z" />
    <glyph glyph-name="gcircumflex.alt" horiz-adv-x="464" 
d="M106 587l88 135h72l87 -135h-63l-61 73l-59 -73h-64zM211 -205c-67 0 -123 14 -153 32v63c23 -10 77 -25 132 -25c90 0 139 29 139 129v53h-4c-22 -25 -59 -44 -115 -44c-93 0 -180 54 -180 237v32c0 175 74 249 186 249c58 0 93 -22 114 -40h4l7 32h69v-527
c0 -140 -75 -191 -199 -191zM234 71c45 0 78 19 95 37v312c-19 16 -56 31 -97 31c-79 0 -118 -45 -118 -171v-37c0 -130 45 -172 120 -172z" />
    <glyph glyph-name="gcommaaccent.alt" horiz-adv-x="464" 
d="M287 742l-16 -139h-88l45 139h59zM211 -205c-67 0 -123 14 -153 32v63c23 -10 77 -25 132 -25c90 0 139 29 139 129v53h-4c-22 -25 -59 -44 -115 -44c-93 0 -180 54 -180 237v32c0 175 74 249 186 249c58 0 93 -22 114 -40h4l7 32h69v-527c0 -140 -75 -191 -199 -191z
M234 71c45 0 78 19 95 37v312c-19 16 -56 31 -97 31c-79 0 -118 -45 -118 -171v-37c0 -130 45 -172 120 -172z" />
    <glyph glyph-name="gdotaccent.alt" horiz-adv-x="464" 
d="M211 -205c-67 0 -123 14 -153 32v63c23 -10 77 -25 132 -25c90 0 139 29 139 129v53h-4c-22 -25 -59 -44 -115 -44c-93 0 -180 54 -180 237v32c0 175 74 249 186 249c58 0 93 -22 114 -40h4l7 32h69v-527c0 -140 -75 -191 -199 -191zM234 71c45 0 78 19 95 37v312
c-19 16 -56 31 -97 31c-79 0 -118 -45 -118 -171v-37c0 -130 45 -172 120 -172zM188 611v88h83v-88h-83z" />
    <glyph glyph-name="lacute.alt" horiz-adv-x="229" 
d="M152 -8c-57 0 -97 28 -97 113v629h82v-622c0 -42 15 -52 43 -52c12 0 27 1 38 4v-55c-15 -9 -35 -17 -66 -17zM64 787l55 118h90l-76 -118h-69z" />
    <glyph glyph-name="lcaron.alt" horiz-adv-x="229" 
d="M152 -8c-57 0 -97 28 -97 113v629h82v-622c0 -42 15 -52 43 -52c12 0 27 1 38 4v-55c-15 -9 -35 -17 -66 -17zM231 584h-57l9 150h76z" />
    <glyph glyph-name="lcommaaccent.alt" horiz-adv-x="229" 
d="M82 -177l12 134h87l-40 -134h-59zM152 -8c-57 0 -97 28 -97 113v629h82v-622c0 -42 15 -52 43 -52c12 0 27 1 38 4v-55c-15 -9 -35 -17 -66 -17z" />
    <glyph glyph-name="ldot.alt" horiz-adv-x="250" 
d="M179 314v86h80v-86h-80zM151 -8c-57 0 -97 28 -97 113v629h82v-622c0 -42 15 -52 43 -52c12 0 27 1 38 4v-55c-15 -9 -35 -17 -66 -17z" />
    <glyph glyph-name="lslash.alt" horiz-adv-x="235" 
d="M6 369l56 35v330h82v-278l82 53v-76l-82 -53v-268c0 -42 15 -52 43 -52c12 0 26 1 38 4v-55c-15 -9 -35 -17 -66 -17c-57 0 -97 28 -97 113v223l-56 -35v76z" />
    <glyph glyph-name="f_f_l.alt" horiz-adv-x="723" 
d="M645 -8c-56 0 -96 28 -96 113v562c-14 3 -36 6 -57 6c-69 0 -98 -29 -98 -109v-51h94v-68h-94v-445h-81v445h-154v-445h-82v445h-62v68h62v68c0 103 53 153 131 153c35 0 57 -9 70 -15v-59c-11 2 -26 5 -51 5c-47 0 -68 -29 -68 -91v-61h154v56c0 118 65 172 176 172
c59 0 111 -8 141 -20v-609c0 -42 15 -52 43 -52c12 0 27 1 39 4v-55c-16 -9 -36 -17 -67 -17z" />
    <glyph glyph-name="f_l.alt" horiz-adv-x="487" 
d="M410 -8c-57 0 -97 28 -97 113v562c-14 3 -35 6 -57 6c-69 0 -97 -29 -97 -109v-51h94v-68h-94v-445h-82v445h-62v68h62v56c0 118 65 172 176 172c59 0 111 -8 141 -20v-609c0 -42 15 -52 44 -52c12 0 26 1 38 4v-55c-16 -9 -36 -17 -66 -17z" />
    <glyph glyph-name="registered.alt" horiz-adv-x="670" 
d="M336 -11c-179 0 -302 135 -302 357c0 219 123 355 302 355s302 -135 302 -355c0 -218 -125 -357 -302 -357zM336 37c150 0 247 113 247 309s-98 307 -247 307c-152 0 -247 -111 -247 -307s97 -309 247 -309zM227 163v373h114c81 0 121 -34 121 -112
c0 -54 -26 -87 -62 -97v-4l75 -160h-72l-69 149h-38v-149h-69zM296 368h40c37 0 55 16 55 56c0 44 -19 55 -58 55h-37v-111z" />
    <glyph glyph-name="questiondown.uc" horiz-adv-x="356" 
d="M204 -10c-104 0 -177 51 -177 165c0 80 24 114 89 178c46 45 63 61 63 110v50h78v-58c0 -71 -27 -95 -87 -154c-40 -39 -55 -65 -55 -123c0 -74 44 -97 111 -97c48 0 76 9 108 19v-67c-32 -14 -77 -23 -130 -23zM171 596v97h91v-97h-91z" />
    <glyph glyph-name="exclamdown.uc" horiz-adv-x="237" 
d="M72 0l12 493h69l12 -493h-93zM72 596v97h92v-97h-92z" />
    <glyph glyph-name="hyphen.uc" horiz-adv-x="288" 
d="M52 303v71h184v-71h-184z" />
    <glyph glyph-name="endash.uc" horiz-adv-x="377" 
d="M39 307v66h299v-66h-299z" />
    <glyph glyph-name="emdash.uc" horiz-adv-x="612" 
d="M39 307v66h534v-66h-534z" />
    <glyph glyph-name="guilsinglleft.uc" horiz-adv-x="238" 
d="M126 88l-91 181v31l91 181h76l-94 -197l94 -196h-76z" />
    <glyph glyph-name="guilsinglright.uc" horiz-adv-x="238" 
d="M36 88l94 196l-94 197h77l91 -181v-31l-91 -181h-77z" />
    <glyph glyph-name="guillemotleft.uc" horiz-adv-x="394" 
d="M282 85l-92 181v32l92 180h76l-94 -196l94 -197h-76zM125 85l-91 181v32l91 180h76l-93 -196l93 -197h-76z" />
    <glyph glyph-name="guillemotright.uc" horiz-adv-x="394" 
d="M193 88l93 196l-93 197h76l91 -180v-32l-91 -181h-76zM36 88l94 196l-94 197h77l91 -180v-32l-91 -181h-77z" />
    <glyph glyph-name="parenleft.uc" horiz-adv-x="291" 
d="M210 -91c-81 83 -163 233 -163 414v23c0 181 82 333 163 417h69c-77 -93 -146 -247 -146 -408v-34c0 -155 69 -318 146 -412h-69z" />
    <glyph glyph-name="parenright.uc" horiz-adv-x="290" 
d="M10 -91c78 94 147 247 147 404v34c0 159 -69 322 -147 416h70c80 -84 162 -237 162 -417v-23c0 -182 -82 -331 -162 -414h-70z" />
    <glyph glyph-name="bracketleft.uc" horiz-adv-x="288" 
d="M65 -91v854h195v-65h-115v-724h115v-65h-195z" />
    <glyph glyph-name="bracketright.uc" horiz-adv-x="288" 
d="M28 -91v65h114v724h-114v65h194v-854h-194z" />
    <glyph glyph-name="braceleft.uc" horiz-adv-x="320" 
d="M291 -93c-152 5 -181 68 -181 154v151c0 65 -23 90 -94 92v68c71 2 94 28 94 93v152c0 85 29 148 181 153v-66c-71 -6 -101 -16 -101 -93v-150c0 -53 -12 -104 -92 -121v-3c80 -17 92 -67 92 -121v-150c0 -76 30 -87 101 -93v-66z" />
    <glyph glyph-name="braceright.uc" horiz-adv-x="320" 
d="M28 -93v66c71 6 102 17 102 93v150c0 54 12 104 92 121v3c-80 17 -92 68 -92 121v150c0 77 -31 87 -102 93v66c152 -5 181 -68 181 -153v-152c0 -65 23 -90 94 -92v-68c-71 -2 -94 -28 -94 -93v-151c0 -86 -29 -149 -181 -154z" />
    <glyph glyph-name="slash.uc" horiz-adv-x="296" 
d="M90 -56h-72l188 785h73z" />
    <glyph glyph-name="backslash.uc" horiz-adv-x="295" 
d="M277 -56h-72l-189 785h73z" />
    <glyph glyph-name="bar.uc" horiz-adv-x="248" 
d="M90 -56v785h70v-785h-70z" />
    <glyph glyph-name="at.uc" horiz-adv-x="684" 
d="M338 -10c-188 0 -300 98 -300 316c0 233 131 397 337 397c184 0 271 -122 271 -290c0 -181 -74 -268 -174 -268c-50 0 -75 19 -84 54h-3c-21 -29 -54 -53 -95 -53c-67 0 -105 48 -105 136c0 155 66 249 164 249c32 0 58 -12 73 -26h4l5 21h68l-46 -277
c-4 -28 2 -48 30 -48c63 0 99 81 99 208c0 144 -60 238 -209 238c-174 0 -271 -141 -271 -344c0 -173 80 -258 236 -258c71 0 131 18 166 32v-50c-39 -20 -103 -37 -166 -37zM313 207c29 0 51 15 67 31l32 215c-9 10 -30 21 -57 21c-73 0 -93 -99 -93 -187
c0 -57 18 -80 51 -80z" />
    <glyph glyph-name="uni2009" unicode="&#x2009;" horiz-adv-x="74" 
 />
    </font>
</defs>
</svg>
