<?xml version="1.0" standalone="no"?>
<!DOCTYPE svg PUBLIC "-//W3C//DTD SVG 1.1//EN" "http://www.w3.org/Graphics/SVG/1.1/DTD/svg11.dtd" >
<svg xmlns="http://www.w3.org/2000/svg" width="100%" height="100%">
<metadata>
Created by FontXChange 20110222 at Mon May 27 11:40:15 2019
 By craig radcliffe
(c)2008-12 Paul Barnes and Christian Schwartz, under exclusive license to Schwartzco Inc./Commercial Type. All rights reserved.
</metadata>
<defs>
<font id="GuardianSansCond-Bold" horiz-adv-x="423" >
  <font-face 
    font-family="GuardianSansCond"
    font-weight="700"
    font-stretch="condensed"
    units-per-em="1000"
    panose-1="2 11 8 3 3 2 2 6 2 3"
    ascent="809"
    descent="-191"
    x-height="532"
    cap-height="693"
    bbox="-163 -223 1125 1076"
    underline-thickness="50"
    underline-position="-50"
    stemh="132"
    stemv="160"
    unicode-range="U+0020-FB04"
  />
<missing-glyph horiz-adv-x="422" 
 />
    <glyph glyph-name="f_b" unicode="fb" horiz-adv-x="799" 
d="M526 -9c-82 0 -158 14 -204 35v601c-8 1 -21 3 -34 3c-45 0 -62 -19 -62 -69v-29h61v-115h-61v-417h-161v417h-56v115h56v39c0 130 72 171 223 171c92 0 158 -9 194 -19v-227h4c28 24 68 44 125 44c92 0 168 -58 168 -237v-33c0 -199 -85 -279 -253 -279zM533 101
c49 0 81 28 81 145v40c0 106 -23 128 -73 128c-25 0 -47 -8 -59 -15v-289c11 -5 29 -9 51 -9z" />
    <glyph glyph-name="f_f" unicode="ff" horiz-adv-x="579" 
d="M65 0v417h-56v115h56v47c0 105 55 156 149 156c40 0 68 -7 84 -13v-102c-5 1 -15 3 -29 3c-30 0 -43 -18 -43 -56v-35h96v54c0 111 65 156 165 156c46 0 83 -8 101 -15v-101c-11 2 -28 4 -45 4c-44 0 -61 -21 -61 -64v-34h87v-115h-87v-417h-160v417h-96v-417h-161z" />
    <glyph glyph-name="f_f_b" unicode="ffb" horiz-adv-x="1057" 
d="M784 -9c-83 0 -159 14 -204 35v601c-8 1 -22 3 -35 3c-44 0 -63 -19 -63 -69v-29h62v-115h-62v-417h-160v417h-96v-417h-161v417h-56v115h56v47c0 105 55 156 149 156c40 0 68 -7 84 -13v-102c-5 1 -15 3 -29 3c-30 0 -43 -18 -43 -56v-35h96v39c0 130 73 171 220 171
c91 0 162 -9 198 -19v-227h4c28 24 67 44 124 44c93 0 169 -58 169 -237v-33c0 -199 -86 -279 -253 -279zM791 101c48 0 81 28 81 145v40c0 106 -24 128 -74 128c-25 0 -47 -8 -58 -15v-289c11 -5 28 -9 51 -9z" />
    <glyph glyph-name="f_f_h" unicode="ffh" horiz-adv-x="1050" 
d="M580 0v627c-8 1 -22 3 -35 3c-44 0 -63 -19 -63 -69v-29h62v-115h-62v-417h-160v417h-96v-417h-161v417h-56v115h56v47c0 105 55 156 149 156c40 0 68 -7 84 -13v-102c-5 1 -15 3 -29 3c-30 0 -43 -18 -43 -56v-35h96v39c0 130 73 171 220 171c91 0 162 -9 198 -19v-233
h4c32 27 76 50 139 50c84 0 133 -38 133 -134v-406h-160v369c0 32 -16 43 -50 43c-25 0 -51 -9 -66 -16v-396h-160z" />
    <glyph glyph-name="f_f_i" unicode="ffi" horiz-adv-x="775" 
d="M65 0v417h-56v115h56v47c0 105 55 156 149 156c40 0 68 -7 84 -13v-102c-5 1 -15 3 -29 3c-30 0 -43 -18 -43 -56v-35h96v54c0 106 54 156 148 156c42 0 69 -7 85 -13v-101c-5 1 -16 2 -28 2c-31 0 -45 -17 -45 -56v-42h257v-532h-159v417h-98v-417h-160v417h-96v-417
h-161zM588 590v131h152v-131h-152z" />
    <glyph glyph-name="f_f_j" unicode="ffj" horiz-adv-x="776" 
d="M576 -195c-41 0 -73 8 -89 18v102c8 -1 21 -3 34 -3c39 0 59 17 59 62v433h-98v-417h-160v417h-96v-417h-161v417h-56v115h56v47c0 105 55 156 149 156c40 0 68 -7 84 -13v-102c-5 1 -15 3 -29 3c-30 0 -43 -18 -43 -56v-35h96v54c0 106 54 156 148 156
c42 0 69 -7 85 -13v-101c-5 1 -16 2 -28 2c-31 0 -45 -17 -45 -56v-42h257v-563c0 -100 -43 -164 -163 -164zM588 590v131h152v-131h-152z" />
    <glyph glyph-name="f_f_k" unicode="ffk" horiz-adv-x="1030" 
d="M580 0v627c-8 1 -22 3 -35 3c-44 0 -63 -19 -63 -69v-29h62v-115h-62v-417h-160v417h-96v-417h-161v417h-56v115h56v47c0 105 55 156 149 156c40 0 68 -7 84 -13v-102c-5 1 -15 3 -29 3c-30 0 -43 -18 -43 -56v-35h96v39c0 130 72 171 223 171c92 0 159 -9 195 -19v-426
l122 235h160l-133 -243l139 -289h-170l-118 260v-260h-160z" />
    <glyph glyph-name="f_f_l" unicode="ffl" horiz-adv-x="776" 
d="M65 0v417h-56v115h56v47c0 105 55 156 149 156c40 0 68 -7 84 -13v-102c-5 1 -15 3 -29 3c-30 0 -43 -18 -43 -56v-35h96v39c0 130 73 171 220 171c91 0 162 -9 198 -19v-723h-160v627c-8 1 -22 3 -35 3c-44 0 -63 -19 -63 -69v-29h62v-115h-62v-417h-160v417h-96v-417
h-161z" />
    <glyph glyph-name="f_h" unicode="fh" horiz-adv-x="793" 
d="M322 0v627c-8 1 -22 3 -34 3c-45 0 -62 -19 -62 -69v-29h61v-115h-61v-417h-161v417h-56v115h56v39c0 130 73 171 220 171c91 0 161 -9 197 -19v-233h4c33 27 77 50 139 50c84 0 134 -38 134 -134v-406h-160v369c0 32 -16 43 -51 43c-25 0 -50 -9 -66 -16v-396h-160z" />
    <glyph glyph-name="f_i" unicode="fi" horiz-adv-x="518" 
d="M65 0v417h-56v115h56v54c0 106 55 156 148 156c42 0 70 -7 86 -13v-101c-5 1 -16 2 -29 2c-31 0 -44 -17 -44 -56v-42h256v-532h-160v417h-96v-417h-161zM331 590v131h152v-131h-152z" />
    <glyph glyph-name="f_j" unicode="fj" horiz-adv-x="519" 
d="M320 -195c-42 0 -73 8 -90 18v102c9 -1 21 -3 33 -3c40 0 59 17 59 62v433h-96v-417h-161v417h-56v115h56v54c0 106 55 156 148 156c42 0 70 -7 86 -13v-101c-5 1 -16 2 -29 2c-31 0 -44 -17 -44 -56v-42h256v-563c0 -100 -42 -164 -162 -164zM331 590v131h152v-131h-152
z" />
    <glyph glyph-name="f_k" unicode="fk" horiz-adv-x="773" 
d="M288 742c92 0 158 -9 194 -19v-428l122 237h160l-133 -243l140 -289h-170l-119 262v-262h-160v627c-8 1 -22 3 -34 3c-45 0 -62 -19 -62 -69v-29h61v-115h-61v-417h-161v417h-56v115h56v39c0 130 72 171 223 171z" />
    <glyph glyph-name="f_l" unicode="fl" horiz-adv-x="518" 
d="M482 0h-160v627c-8 1 -22 3 -34 3c-45 0 -62 -19 -62 -69v-29h61v-115h-61v-417h-161v417h-56v115h56v39c0 130 72 171 223 171c92 0 158 -9 194 -19v-723z" />
    <glyph glyph-name=".notdef" horiz-adv-x="422" 
 />
    <glyph glyph-name="Eth" unicode="&#xd0;" horiz-adv-x="596" 
d="M48 0v286h-41v123h41v284h227c186 0 298 -80 298 -316v-49c0 -231 -114 -328 -297 -328h-228zM222 129h55c77 0 113 51 113 189v61c0 142 -41 185 -116 185h-52v-155h95v-123h-95v-157z" />
    <glyph glyph-name="eth" unicode="&#xf0;" horiz-adv-x="510" 
d="M85 616l91 31c-31 32 -65 61 -99 88h182c18 -12 37 -26 55 -41l87 29l21 -63l-54 -18c69 -78 122 -186 122 -335v-26c0 -194 -87 -289 -237 -289c-154 0 -234 83 -234 260v25c0 170 77 250 186 250c29 0 51 -8 65 -16h5c-15 29 -32 56 -52 81l-116 -39zM324 302
c0 39 -5 76 -13 110c-13 7 -31 12 -53 12c-50 0 -74 -32 -74 -130v-42c0 -121 27 -146 71 -146c49 0 69 40 69 151v45z" />
    <glyph glyph-name="Lslash" unicode="&#x141;" horiz-adv-x="453" 
d="M2 204v125l48 21v343h175v-278l137 59v-125l-137 -59v-160h211v-130h-386v224z" />
    <glyph glyph-name="lslash" unicode="&#x142;" horiz-adv-x="260" 
d="M3 255v125l46 27v328h160v-244l51 29v-126l-51 -30v-364h-160v281z" />
    <glyph glyph-name="Scaron" unicode="&#x160;" horiz-adv-x="468" 
d="M389 855l-91 -128h-130l-91 128h114l42 -44l43 44h113zM206 -10c-76 0 -144 15 -184 36v132c44 -18 99 -34 159 -34c67 0 96 22 96 71c0 45 -21 56 -72 77l-43 17c-96 38 -142 98 -142 205c0 130 78 209 233 209c87 0 131 -13 163 -29v-129c-36 14 -85 26 -145 26
c-57 0 -83 -19 -83 -61c0 -39 22 -52 66 -69l44 -17c92 -34 152 -81 152 -207c0 -144 -80 -227 -244 -227z" />
    <glyph glyph-name="scaron" unicode="&#x161;" horiz-adv-x="389" 
d="M354 730l-91 -150h-132l-92 150h114l44 -56l44 56h113zM169 -8c-61 0 -117 12 -151 30v112c33 -12 72 -26 126 -26c49 0 74 10 74 40c0 27 -13 35 -50 49l-40 15c-80 30 -112 83 -112 162c0 108 69 166 196 166c60 0 102 -8 134 -23v-112c-30 11 -69 21 -116 21
c-42 0 -65 -8 -65 -33c0 -22 11 -30 49 -43l37 -13c85 -30 121 -72 121 -164c0 -121 -68 -181 -203 -181z" />
    <glyph glyph-name="Yacute" unicode="&#xdd;" horiz-adv-x="545" 
d="M186 0v254l-189 439h190l55 -151c25 -69 41 -121 41 -121h3s14 51 39 121l55 151h168l-185 -436v-257h-177zM220 727l48 133h161l-82 -133h-127z" />
    <glyph glyph-name="yacute" unicode="&#xfd;" horiz-adv-x="481" 
d="M124 -196c-31 0 -67 6 -88 13v109c14 -2 34 -5 49 -5c41 0 63 13 75 53l8 27l-167 531h167l57 -221c14 -59 22 -110 22 -110h4s11 60 23 109l54 222h151l-170 -580c-31 -103 -79 -148 -185 -148zM177 580l57 151h161l-90 -151h-128z" />
    <glyph glyph-name="Thorn" unicode="&#xde;" horiz-adv-x="547" 
d="M44 0v693h179v-111h84c162 0 225 -73 225 -215c0 -149 -67 -223 -223 -223h-86v-144h-179zM223 260h56c55 0 76 25 76 99c0 78 -24 99 -74 99h-58v-198z" />
    <glyph glyph-name="thorn" unicode="&#xfe;" horiz-adv-x="514" 
d="M38 -193v930h160l-1 -243h4c27 25 67 46 122 46c97 0 172 -62 172 -241v-38c0 -196 -77 -269 -205 -269c-44 0 -77 10 -92 19v-204h-160zM254 102c50 0 76 31 76 141v40c0 107 -25 130 -72 130c-28 0 -50 -8 -60 -16v-281c9 -6 30 -14 56 -14z" />
    <glyph glyph-name="Zcaron" unicode="&#x17d;" horiz-adv-x="489" 
d="M409 855l-91 -128h-130l-91 128h114l42 -44l43 44h113zM24 0v122l240 438v3h-227v130h425v-123l-241 -437v-3h242v-130h-439z" />
    <glyph glyph-name="zcaron" unicode="&#x17e;" horiz-adv-x="417" 
d="M374 730l-91 -150h-132l-92 150h114l44 -56l44 56h113zM20 0v114l190 300v3h-184v115h372v-105l-198 -308v-3h195v-116h-375z" />
    <glyph glyph-name="onehalf" unicode="&#xbd;" horiz-adv-x="764" 
d="M73 -40l431 753h109l-432 -753h-108zM77 271v308l-63 -7v72l111 50h79v-423h-127zM474 0v79l75 87c36 39 57 69 57 109c0 41 -20 59 -58 59c-30 0 -54 -8 -69 -15v87c23 11 61 23 116 23c98 0 144 -50 144 -133c0 -65 -29 -111 -81 -159l-43 -45v-2h126v-90h-267z" />
    <glyph glyph-name="onequarter" unicode="&#xbc;" horiz-adv-x="734" 
d="M77 271v308l-63 -7v72l111 50h79v-423h-127zM78 -40l431 753h109l-432 -753h-108zM550 0v87h-158v78l161 257h118v-251h46v-84h-46v-87h-121zM484 169h69v115h-2l-67 -112v-3z" />
    <glyph glyph-name="threequarters" unicode="&#xbe;" horiz-adv-x="771" 
d="M132 265c-55 0 -92 10 -114 22v82c20 -7 47 -13 74 -13c47 0 67 14 67 47c0 31 -17 43 -52 43h-39v80h37c36 0 52 14 52 42s-17 41 -61 41c-24 0 -50 -5 -68 -9v81c24 10 62 18 110 18c90 0 142 -36 142 -106c0 -57 -28 -87 -70 -99v-2c51 -9 80 -35 80 -101
c0 -80 -56 -126 -158 -126zM114 -42l431 753h109l-432 -753h-108zM587 0v87h-158v78l161 257h118v-251h46v-84h-46v-87h-121zM521 169h69v115h-2l-67 -112v-3z" />
    <glyph glyph-name="brokenbar" unicode="&#xa6;" horiz-adv-x="258" 
d="M58 -120v399h142v-399h-142zM58 359v373h142v-373h-142z" />
    <glyph glyph-name="minus" unicode="&#x2212;" horiz-adv-x="456" 
d="M27 286v131h403v-131h-403z" />
    <glyph glyph-name="multiply" unicode="&#xd7;" horiz-adv-x="480" 
d="M124 128l-90 90l116 121l-116 118l93 92l113 -117l114 117l92 -91l-116 -119l117 -120l-92 -91l-116 119z" />
    <glyph glyph-name="space" unicode=" " horiz-adv-x="137" 
 />
    <glyph glyph-name="exclam" unicode="!" horiz-adv-x="259" 
d="M62 216l-24 477h183l-25 -477h-134zM52 0v145h155v-145h-155z" />
    <glyph glyph-name="quotedbl" unicode="&#x22;" horiz-adv-x="384" 
d="M40 479l-14 214h147l-14 -214h-119zM225 479l-14 214h147l-14 -214h-119z" />
    <glyph glyph-name="numbersign" unicode="#" horiz-adv-x="488" 
d="M47 403v126h75l21 164h107l-20 -164h71l21 164h107l-21 -164h59v-126h-74l-13 -104h60v-126h-76l-21 -173h-107l22 173h-73l-21 -173h-106l21 173h-60v126h74l14 104h-60zM214 403l-13 -104h72l13 104h-72z" />
    <glyph glyph-name="dollar" unicode="$" horiz-adv-x="480" 
d="M113 -115l20 111c-46 7 -84 19 -110 35v122c42 -17 86 -31 133 -36l31 172c-99 23 -166 78 -166 205c0 122 72 209 228 209h14l12 62h78l-13 -69c40 -6 67 -17 86 -28v-122c-29 11 -65 23 -108 30l-29 -156c114 -28 170 -80 170 -205c0 -144 -87 -225 -241 -225h-9
l-19 -105h-77zM309 194c0 40 -11 60 -48 74l-29 -153c53 6 77 31 77 79zM166 507c0 -33 11 -54 49 -68l26 142c-52 -3 -75 -27 -75 -74z" />
    <glyph glyph-name="percent" unicode="%" horiz-adv-x="788" 
d="M142 -40l385 753h111l-385 -753h-111zM177 323c-101 0 -160 60 -160 185v9c0 122 60 186 159 186c97 0 162 -56 162 -183v-8c0 -127 -64 -189 -161 -189zM178 408c30 0 44 18 44 87v36c0 69 -16 88 -45 88c-30 0 -44 -20 -44 -87v-36c0 -69 14 -88 45 -88zM611 -9
c-101 0 -160 60 -160 185v10c0 122 60 185 159 185c97 0 161 -56 161 -182v-9c0 -126 -63 -189 -160 -189zM612 76c30 0 44 18 44 87v36c0 69 -16 88 -45 88c-30 0 -44 -19 -44 -87v-36c0 -69 14 -88 45 -88z" />
    <glyph glyph-name="ampersand" unicode="&#x26;" horiz-adv-x="613" 
d="M253 -9c-157 0 -236 76 -236 200c0 98 53 161 136 201c-30 44 -47 83 -47 137c0 105 74 174 197 174c124 0 186 -61 186 -155c0 -84 -47 -133 -135 -180l88 -124c12 32 19 69 22 110h123c-3 -88 -29 -162 -68 -219l95 -135h-185l-23 32c-47 -27 -100 -41 -153 -41z
M276 105c24 0 47 5 68 15l-127 181c-25 -25 -38 -54 -38 -95c0 -63 33 -101 97 -101zM262 540c0 -32 13 -59 37 -94c34 26 52 54 52 98c0 39 -16 57 -44 57s-45 -16 -45 -61z" />
    <glyph glyph-name="quotesingle" unicode="'" horiz-adv-x="199" 
d="M40 479l-14 214h147l-14 -214h-119z" />
    <glyph glyph-name="parenleft" unicode="(" horiz-adv-x="329" 
d="M199 -118c-80 74 -170 220 -170 414v24c0 194 89 340 170 415h128c-73 -93 -139 -241 -139 -407v-34c0 -167 66 -318 139 -412h-128z" />
    <glyph glyph-name="parenright" unicode=")" horiz-adv-x="329" 
d="M3 -118c73 94 138 240 138 405v34c0 167 -65 320 -138 414h128c79 -75 170 -222 170 -415v-24c0 -194 -91 -340 -170 -414h-128z" />
    <glyph glyph-name="asterisk" unicode="*" horiz-adv-x="354" 
d="M226 693l-6 -96l75 56l48 -90l-89 -39l89 -39l-48 -88l-75 56l6 -98h-98l5 98l-75 -56l-47 88l89 39l-89 39l48 89l74 -55l-5 96h98z" />
    <glyph glyph-name="plus" unicode="+" horiz-adv-x="461" 
d="M161 137v149h-134v131h134v148h138v-148h136v-131h-136v-149h-138z" />
    <glyph glyph-name="comma" unicode="," horiz-adv-x="225" 
d="M27 -74l13 223h158l-47 -223h-124z" />
    <glyph glyph-name="hyphen" unicode="-" horiz-adv-x="283" 
d="M31 222v127h222v-127h-222z" />
    <glyph glyph-name="period" unicode="." horiz-adv-x="224" 
d="M35 0v148h154v-148h-154z" />
    <glyph glyph-name="slash" unicode="/" horiz-adv-x="345" 
d="M-10 -118l210 853h139l-211 -853h-138z" />
    <glyph glyph-name="zero" unicode="0" horiz-adv-x="585" 
d="M293 -10c-160 0 -266 93 -266 331v50c0 233 109 332 265 332c157 0 266 -89 266 -326v-51c0 -237 -112 -336 -265 -336zM294 120c60 0 80 47 80 178v94c0 138 -25 181 -82 181s-80 -46 -80 -176v-94c0 -131 21 -183 82 -183z" />
    <glyph glyph-name="one" unicode="1" horiz-adv-x="337" 
d="M110 0v525l-94 -8v102l168 76h100v-695h-174z" />
    <glyph glyph-name="two" unicode="2" horiz-adv-x="457" 
d="M19 0v119l122 150c57 69 102 119 102 196c0 66 -34 100 -108 100c-44 0 -81 -12 -107 -24v127c34 17 95 35 174 35c154 0 226 -84 226 -207c0 -119 -59 -191 -137 -275l-79 -88v-3h219v-130h-412z" />
    <glyph glyph-name="three" unicode="3" horiz-adv-x="462" 
d="M193 -9c-85 0 -142 16 -177 36v120c33 -13 79 -22 123 -22c79 0 113 25 113 89c0 59 -32 81 -94 81h-57v120h55c61 0 90 24 90 77c0 55 -30 77 -100 77c-44 0 -85 -8 -114 -17v120c38 18 97 31 171 31c137 0 218 -60 218 -175c0 -92 -45 -141 -112 -161v-3
c80 -16 128 -59 128 -167c0 -131 -89 -206 -244 -206z" />
    <glyph glyph-name="four" unicode="4" horiz-adv-x="540" 
d="M273 0v148h-261v115l267 431h166v-422h83v-124h-83v-148h-172zM145 272h131v212h-4l-127 -209v-3z" />
    <glyph glyph-name="five" unicode="5" horiz-adv-x="459" 
d="M189 -9c-83 0 -137 15 -174 34v122c33 -11 73 -20 117 -20c81 0 116 31 116 96c0 66 -32 94 -117 94c-35 0 -64 -3 -94 -8l19 384h355v-131h-227l-7 -131c16 3 32 5 59 5c133 0 198 -67 198 -212c0 -146 -90 -233 -245 -233z" />
    <glyph glyph-name="six" unicode="6" horiz-adv-x="541" 
d="M280 109c44 0 66 34 66 110c0 83 -25 107 -74 107c-28 0 -52 -10 -64 -17v-48c0 -108 21 -152 72 -152zM283 -10c-169 0 -256 109 -256 306v52c0 261 122 355 301 355c73 0 124 -11 151 -24v-127c-24 7 -70 15 -115 15c-101 0 -153 -30 -157 -160c28 16 68 32 128 32
c119 0 185 -69 185 -208s-72 -241 -237 -241z" />
    <glyph glyph-name="seven" unicode="7" horiz-adv-x="451" 
d="M50 0l205 553v5h-242v135h422v-121l-196 -572h-189z" />
    <glyph glyph-name="eight" unicode="8" horiz-adv-x="538" 
d="M262 -9c-164 0 -242 70 -242 179c0 80 47 134 121 166c-57 34 -101 85 -101 175c0 115 84 192 236 192c148 0 222 -70 222 -179c0 -73 -44 -125 -105 -151c81 -41 124 -89 124 -182c0 -128 -94 -200 -255 -200zM260 106c53 0 84 25 84 74c0 50 -32 78 -109 108
c-36 -22 -61 -55 -61 -104c0 -47 31 -78 86 -78zM296 422c31 21 52 49 52 93c0 42 -21 72 -70 72c-47 0 -70 -26 -70 -67c0 -47 27 -73 88 -98z" />
    <glyph glyph-name="nine" unicode="9" horiz-adv-x="542" 
d="M214 -10c-75 0 -130 13 -157 27v126c24 -7 75 -17 120 -17c110 0 154 32 156 160c-27 -16 -67 -31 -119 -31c-124 0 -193 68 -193 209c0 138 71 239 240 239c168 0 254 -108 254 -304v-54c0 -259 -113 -355 -301 -355zM270 367c28 0 51 9 63 17v48c0 111 -21 152 -71 152
c-45 0 -67 -32 -67 -109c0 -84 25 -108 75 -108z" />
    <glyph glyph-name="colon" unicode=":" horiz-adv-x="229" 
d="M37 0v148h154v-148h-154zM37 292v148h154v-148h-154z" />
    <glyph glyph-name="semicolon" unicode=";" horiz-adv-x="234" 
d="M27 -74l13 223h158l-47 -223h-124zM39 292v148h154v-148h-154z" />
    <glyph glyph-name="less" unicode="&#x3c;" horiz-adv-x="402" 
d="M367 90l-339 170v123l339 170v-140l-198 -91l198 -91v-141z" />
    <glyph glyph-name="equal" unicode="=" horiz-adv-x="447" 
d="M32 338v124h383v-124h-383zM32 142v126h383v-126h-383z" />
    <glyph glyph-name="greater" unicode="&#x3e;" horiz-adv-x="402" 
d="M34 90v141l199 92l-199 90v140l340 -170v-123z" />
    <glyph glyph-name="question" unicode="?" horiz-adv-x="394" 
d="M82 216v44c0 68 17 97 75 149c35 32 51 51 51 95c0 50 -30 71 -95 71c-42 0 -69 -7 -95 -14v117c36 14 90 25 156 25c124 0 201 -56 201 -178c0 -88 -28 -126 -85 -176c-53 -45 -70 -56 -70 -103v-30h-138zM75 0v145h155v-145h-155z" />
    <glyph glyph-name="at" unicode="@" horiz-adv-x="820" 
d="M403 -157c-220 0 -375 114 -375 377c0 276 169 458 422 458c219 0 344 -131 344 -336c0 -209 -103 -310 -223 -310c-73 0 -105 23 -120 60h-4c-22 -28 -58 -57 -111 -57c-77 0 -131 49 -131 157c0 168 73 282 193 282c38 0 67 -12 85 -28h4l5 21h130l-53 -294
c-6 -32 -2 -51 23 -51c59 0 103 85 103 215c0 156 -69 252 -252 252c-188 0 -314 -136 -314 -369c0 -206 110 -290 278 -290c97 1 170 23 225 45v-76c-50 -30 -134 -56 -229 -56zM384 129c19 0 35 9 45 19l38 228c-7 7 -20 14 -40 14c-57 0 -80 -120 -80 -197
c0 -46 14 -64 37 -64z" />
    <glyph glyph-name="A" unicode="A" horiz-adv-x="588" 
d="M3 0l185 693h210l187 -693h-179l-33 132h-177l-31 -132h-162zM285 519h-4s-9 -57 -22 -118l-36 -152h122l-37 152c-12 61 -23 118 -23 118z" />
    <glyph glyph-name="B" unicode="B" horiz-adv-x="557" 
d="M43 0v693h262c138 0 207 -59 207 -174c0 -85 -36 -136 -111 -154v-4c82 -13 137 -55 137 -167c0 -116 -68 -194 -229 -194h-266zM217 117h56c57 0 83 27 83 96c0 67 -29 88 -85 88h-54v-184zM217 410h49c48 0 77 18 77 85c0 64 -26 83 -74 83h-52v-168z" />
    <glyph glyph-name="C" unicode="C" horiz-adv-x="497" 
d="M315 -10c-186 0 -291 99 -291 333v43c0 254 131 337 298 337c68 0 118 -12 150 -28v-128c-32 11 -67 19 -113 19c-96 0 -146 -50 -146 -191v-44c0 -134 36 -204 143 -204c55 0 93 12 121 24v-128c-34 -18 -90 -33 -162 -33z" />
    <glyph glyph-name="D" unicode="D" horiz-adv-x="592" 
d="M44 0v693h227c186 0 298 -80 298 -316v-49c0 -231 -114 -328 -298 -328h-227zM220 129h51c77 0 113 51 113 189v61c0 142 -40 185 -116 185h-48v-435z" />
    <glyph glyph-name="E" unicode="E" horiz-adv-x="483" 
d="M44 0v693h406v-130h-231v-145h187v-127h-187v-161h240v-130h-415z" />
    <glyph glyph-name="F" unicode="F" horiz-adv-x="466" 
d="M43 0v693h403v-130h-227v-168h184v-127h-184v-268h-176z" />
    <glyph glyph-name="G" unicode="G" horiz-adv-x="573" 
d="M323 -9c-189 0 -299 79 -299 336v39c0 247 125 337 313 337c85 0 144 -18 174 -33v-131c-33 12 -79 26 -146 26c-124 0 -157 -64 -157 -182v-90c0 -115 23 -173 113 -173c23 0 43 5 55 8v141h-75v123h240v-361c-43 -19 -127 -40 -218 -40z" />
    <glyph glyph-name="H" unicode="H" horiz-adv-x="604" 
d="M44 0v693h176v-271h164v271h176v-693h-176v291h-164v-291h-176z" />
    <glyph glyph-name="I" unicode="I" horiz-adv-x="266" 
d="M45 0v693h177v-693h-177z" />
    <glyph glyph-name="J" unicode="J" horiz-adv-x="383" 
d="M148 -7c-62 0 -103 11 -132 25v124c17 -4 43 -10 70 -10c52 0 80 20 80 78v483h177v-507c0 -114 -55 -193 -195 -193z" />
    <glyph glyph-name="K" unicode="K" horiz-adv-x="579" 
d="M44 0v693h176v-322l168 322h182l-179 -325l189 -368h-198l-162 339v-339h-176z" />
    <glyph glyph-name="L" unicode="L" horiz-adv-x="448" 
d="M44 0v693h176v-563h211v-130h-387z" />
    <glyph glyph-name="M" unicode="M" horiz-adv-x="755" 
d="M44 0v693h236l69 -287c19 -78 30 -151 30 -151h3s11 73 30 151l68 287h231v-693h-165v259c0 110 6 243 6 243h-3s-24 -109 -45 -203l-73 -299h-125l-72 296c-19 78 -47 206 -47 206h-3s5 -127 5 -244v-258h-145z" />
    <glyph glyph-name="N" unicode="N" horiz-adv-x="601" 
d="M44 0v693h195l117 -280c29 -70 56 -150 56 -150h3s-7 63 -7 167v263h149v-693h-177l-123 280c-33 75 -68 179 -68 179h-3s6 -73 7 -200v-259h-149z" />
    <glyph glyph-name="O" unicode="O" horiz-adv-x="613" 
d="M306 -10c-169 0 -282 98 -282 334v45c0 229 120 334 282 334c166 0 282 -93 282 -330v-46c0 -234 -120 -337 -282 -337zM307 122c67 0 95 54 95 178v86c0 134 -27 185 -97 185c-68 0 -95 -56 -95 -177v-86c0 -134 27 -186 97 -186z" />
    <glyph glyph-name="P" unicode="P" horiz-adv-x="541" 
d="M44 0v693h246c164 0 236 -71 236 -223c0 -156 -74 -234 -234 -234h-72v-236h-176zM220 353h47c58 0 81 32 81 108c0 82 -24 107 -79 107h-49v-215z" />
    <glyph glyph-name="Q" unicode="Q" horiz-adv-x="613" 
d="M574 -105l-315 92c-134 38 -235 101 -235 337v45c0 229 120 334 283 334c167 0 283 -92 283 -328v-43c0 -158 -56 -239 -140 -270l157 -32zM308 119c67 0 95 54 95 178v89c0 134 -27 185 -97 185c-67 0 -94 -56 -94 -177v-89c0 -134 27 -186 96 -186z" />
    <glyph glyph-name="R" unicode="R" horiz-adv-x="559" 
d="M44 0v693h251c157 0 231 -62 231 -212c0 -95 -37 -145 -94 -173v-4l127 -304h-181l-102 258h-56v-258h-176zM218 368h52c56 0 78 33 78 102s-20 99 -80 99h-50v-201z" />
    <glyph glyph-name="S" unicode="S" horiz-adv-x="468" 
d="M206 -10c-76 0 -144 15 -184 36v132c44 -18 99 -34 159 -34c67 0 96 22 96 71c0 45 -21 56 -72 77l-43 17c-96 38 -142 98 -142 205c0 130 78 209 233 209c87 0 131 -13 163 -29v-129c-36 14 -85 26 -145 26c-57 0 -83 -19 -83 -61c0 -39 22 -52 66 -69l44 -17
c92 -34 152 -81 152 -207c0 -144 -80 -227 -244 -227z" />
    <glyph glyph-name="T" unicode="T" horiz-adv-x="496" 
d="M159 0v563h-147v130h471v-130h-147v-563h-177z" />
    <glyph glyph-name="U" unicode="U" horiz-adv-x="587" 
d="M297 -10c-182 0 -257 81 -257 232v471h177v-468c0 -70 22 -102 84 -102c61 0 81 32 81 102v468h165v-470c0 -152 -78 -233 -250 -233z" />
    <glyph glyph-name="V" unicode="V" horiz-adv-x="582" 
d="M189 0l-184 693h182l82 -353c14 -70 28 -147 28 -147h3s13 73 29 147l81 353h167l-184 -693h-204z" />
    <glyph glyph-name="W" unicode="W" horiz-adv-x="812" 
d="M145 0l-133 693h175l52 -318c10 -58 21 -136 21 -136h3s9 77 21 137l60 317h145l58 -316c12 -63 22 -139 22 -139h3s9 65 21 139l54 316h154l-134 -693h-183l-54 294c-11 60 -19 135 -19 135h-3s-11 -79 -21 -135l-54 -294h-188z" />
    <glyph glyph-name="X" unicode="X" horiz-adv-x="590" 
d="M9 0l169 353l-155 340h192l57 -135c18 -46 34 -92 34 -92h3s15 45 32 92l53 135h174l-153 -330l165 -363h-191l-66 157c-22 56 -34 89 -34 89h-3s-13 -36 -35 -89l-68 -157h-174z" />
    <glyph glyph-name="Y" unicode="Y" horiz-adv-x="545" 
d="M186 0v254l-189 439h190l55 -151c25 -69 41 -121 41 -121h3s14 51 39 121l55 151h168l-185 -436v-257h-177z" />
    <glyph glyph-name="Z" unicode="Z" horiz-adv-x="489" 
d="M24 0v122l240 438v3h-227v130h425v-123l-241 -437v-3h242v-130h-439z" />
    <glyph glyph-name="bracketleft" unicode="[" horiz-adv-x="323" 
d="M44 -118v853h259v-120h-101v-613h101v-120h-259z" />
    <glyph glyph-name="backslash" unicode="\" horiz-adv-x="344" 
d="M215 -118l-210 853h138l210 -853h-138z" />
    <glyph glyph-name="bracketright" unicode="]" horiz-adv-x="323" 
d="M20 -118v119h100v615h-100v119h257v-853h-257z" />
    <glyph glyph-name="asciicircum" unicode="^" horiz-adv-x="415" 
d="M13 440l129 253h130l130 -253h-127l-67 122l-68 -122h-127z" />
    <glyph glyph-name="underscore" unicode="_" horiz-adv-x="331" 
d="M-3 -149v100h337v-100h-337z" />
    <glyph glyph-name="grave" unicode="`" 
d="M162 580l-89 151h160l57 -151h-128z" />
    <glyph glyph-name="a" unicode="a" horiz-adv-x="462" 
d="M166 -8c-92 0 -152 51 -152 153c0 109 63 151 170 169l85 13v22c0 52 -22 68 -90 68c-46 0 -94 -8 -123 -17v109c42 18 104 31 185 31c126 0 188 -48 188 -164v-376h-133l-11 36h-5c-20 -26 -59 -44 -114 -44zM222 97c20 0 38 7 47 15v118l-44 -4c-38 -3 -54 -22 -54 -62
c0 -48 17 -67 51 -67z" />
    <glyph glyph-name="b" unicode="b" horiz-adv-x="512" 
d="M238 -9c-82 0 -157 14 -203 35v709h160v-239h4c27 24 68 44 124 44c93 0 169 -58 169 -237v-33c0 -199 -85 -279 -254 -279zM246 101c49 0 81 28 81 145v40c0 106 -24 128 -73 128c-25 0 -47 -8 -58 -15v-289c10 -5 28 -9 50 -9z" />
    <glyph glyph-name="c" unicode="c" horiz-adv-x="399" 
d="M252 -8c-155 0 -233 81 -233 258v26c0 180 88 264 239 264c59 0 96 -9 122 -22v-120c-26 10 -51 19 -93 19c-67 0 -103 -39 -103 -127v-36c0 -100 30 -139 104 -139c42 0 74 12 96 21v-113c-25 -16 -71 -31 -132 -31z" />
    <glyph glyph-name="d" unicode="d" horiz-adv-x="511" 
d="M201 -8c-103 0 -181 66 -181 253v27c0 190 78 268 207 268c41 0 73 -9 90 -19v214h160v-735h-139l-10 38h-4c-27 -25 -65 -46 -123 -46zM260 111c24 0 44 9 57 19v285c-11 6 -30 12 -53 12c-55 0 -79 -34 -79 -144v-34c0 -104 25 -138 75 -138z" />
    <glyph glyph-name="e" unicode="e" horiz-adv-x="475" 
d="M269 -8c-169 0 -250 88 -250 263v21c0 166 78 264 226 264c155 0 212 -87 212 -265v-55h-275c5 -81 40 -111 122 -111c52 0 101 15 134 30v-103c-33 -22 -92 -44 -169 -44zM245 430c-38 0 -60 -23 -64 -115h124c0 88 -18 115 -60 115z" />
    <glyph glyph-name="f" unicode="f" horiz-adv-x="321" 
d="M65 0v417h-56v115h56v53c0 111 65 157 165 157c45 0 82 -8 100 -15v-101c-11 2 -28 4 -45 4c-44 0 -60 -21 -60 -64v-34h87v-115h-87v-417h-160z" />
    <glyph glyph-name="g" unicode="g" horiz-adv-x="478" 
d="M223 -195c-155 0 -225 46 -225 119c0 58 39 86 89 103v5c-32 14 -55 42 -55 87c0 46 27 79 62 104c-38 23 -69 66 -69 132v16c0 110 82 169 203 169c33 0 63 -3 87 -9h156v-96h-59c8 -15 16 -35 16 -62v-14c0 -109 -77 -166 -197 -166c-25 0 -48 2 -65 6
c-6 -7 -10 -18 -10 -28c0 -19 10 -28 37 -28h114c113 0 169 -52 169 -153c0 -116 -80 -185 -253 -185zM226 -93c74 0 100 21 100 55c0 29 -18 44 -63 44h-88c-20 -9 -36 -28 -36 -52c0 -30 25 -47 87 -47zM229 285c33 0 50 21 50 73v12c0 59 -18 78 -51 78
c-35 0 -51 -23 -51 -76v-12c0 -54 17 -75 52 -75z" />
    <glyph glyph-name="h" unicode="h" horiz-adv-x="505" 
d="M35 0v735h160v-245h4c32 27 77 50 139 50c84 0 133 -38 133 -134v-406h-160v369c0 32 -15 43 -50 43c-26 0 -51 -9 -66 -16v-396h-160z" />
    <glyph glyph-name="i" unicode="i" horiz-adv-x="233" 
d="M37 0v532h160v-532h-160zM36 590v131h162v-131h-162z" />
    <glyph glyph-name="j" unicode="j" horiz-adv-x="234" 
d="M34 -196c-41 0 -72 9 -89 18v102c8 -1 21 -3 34 -3c38 0 58 17 58 62v549h160v-564c0 -100 -43 -164 -163 -164zM36 590v131h162v-131h-162z" />
    <glyph glyph-name="k" unicode="k" horiz-adv-x="486" 
d="M195 735v-437l122 234h161l-133 -244l139 -288h-171l-118 261v-261h-160v735h160z" />
    <glyph glyph-name="l" unicode="l" horiz-adv-x="233" 
d="M37 0v735h160v-735h-160z" />
    <glyph glyph-name="m" unicode="m" horiz-adv-x="757" 
d="M35 0v532h155v-44h4c33 27 76 52 138 52c56 0 93 -17 113 -57h4c39 32 86 57 147 57c80 0 127 -36 127 -133v-407h-160v370c0 30 -13 42 -45 42c-22 0 -42 -7 -59 -16v-396h-160v370c0 31 -14 42 -45 42c-22 0 -43 -8 -59 -16v-396h-160z" />
    <glyph glyph-name="n" unicode="n" horiz-adv-x="505" 
d="M35 0v532h155v-44h4c34 29 80 52 144 52c85 0 133 -38 133 -134v-406h-160v369c0 32 -15 43 -50 43c-26 0 -51 -9 -66 -16v-396h-160z" />
    <glyph glyph-name="o" unicode="o" horiz-adv-x="507" 
d="M253 -8c-157 0 -234 96 -234 259v30c0 170 94 259 234 259c155 0 235 -86 235 -256v-29c0 -173 -93 -263 -235 -263zM254 108c47 0 69 40 69 129v55c0 104 -25 132 -71 132c-48 0 -68 -37 -68 -130v-54c0 -99 23 -132 70 -132z" />
    <glyph glyph-name="p" unicode="p" horiz-adv-x="511" 
d="M35 -191v723h155v-43h4c27 28 68 51 129 51c100 0 169 -62 169 -242v-29c0 -200 -77 -277 -209 -277c-43 0 -72 9 -88 17v-200h-160zM249 101c54 0 78 35 78 145v38c0 102 -22 129 -72 129c-27 0 -48 -9 -60 -17v-282c10 -6 31 -13 54 -13z" />
    <glyph glyph-name="q" unicode="q" horiz-adv-x="511" 
d="M317 28h-4c-26 -23 -62 -36 -113 -36c-96 0 -180 62 -180 245v31c0 200 91 272 259 272c87 0 159 -15 198 -32v-699h-160v219zM265 426c-52 0 -80 -29 -80 -145v-38c0 -106 25 -130 74 -130c26 0 46 9 58 18v287c-11 4 -29 8 -52 8z" />
    <glyph glyph-name="r" unicode="r" horiz-adv-x="340" 
d="M35 0v532h155v-59h4c24 40 62 66 109 66c11 0 22 -2 27 -4v-148c-8 2 -26 3 -41 3c-37 0 -69 -7 -94 -21v-369h-160z" />
    <glyph glyph-name="s" unicode="s" horiz-adv-x="389" 
d="M169 -8c-61 0 -117 12 -151 30v112c33 -12 72 -26 126 -26c49 0 74 10 74 40c0 27 -13 35 -50 49l-40 15c-80 30 -112 83 -112 162c0 108 69 166 196 166c60 0 102 -8 134 -23v-112c-30 11 -69 21 -116 21c-42 0 -65 -8 -65 -33c0 -22 11 -30 49 -43l37 -13
c85 -30 121 -72 121 -164c0 -121 -68 -181 -203 -181z" />
    <glyph glyph-name="t" unicode="t" horiz-adv-x="333" 
d="M211 -7c-94 0 -146 33 -146 135v289h-56v115h56v121h160v-121h88v-115h-88v-260c0 -33 13 -43 46 -43c17 0 32 3 43 6v-105c-18 -12 -56 -22 -103 -22z" />
    <glyph glyph-name="u" unicode="u" horiz-adv-x="501" 
d="M171 -8c-90 0 -137 46 -137 144v396h160v-369c0 -31 13 -44 50 -44c24 0 48 9 62 16v397h160v-532h-140l-11 45h-4c-34 -27 -78 -53 -140 -53z" />
    <glyph glyph-name="v" unicode="v" horiz-adv-x="488" 
d="M157 0l-155 532h167l63 -270c8 -35 17 -85 17 -85h4s9 49 17 85l63 270h153l-154 -532h-175z" />
    <glyph glyph-name="w" unicode="w" horiz-adv-x="687" 
d="M126 0l-120 532h160l39 -208c12 -69 19 -119 19 -119h2s9 49 23 119l42 208h127l43 -208c14 -70 22 -119 22 -119h3s7 52 19 120l38 207h138l-118 -532h-154l-39 174c-14 64 -26 131 -26 131h-2s-11 -69 -25 -131l-40 -174h-151z" />
    <glyph glyph-name="x" unicode="x" horiz-adv-x="487" 
d="M5 0l135 275l-127 257h174l39 -88c19 -44 29 -76 29 -76h2c0 1 12 36 27 76l37 88h149l-121 -254l134 -278h-174l-44 102c-19 42 -32 76 -32 76h-1s-13 -34 -31 -77l-45 -101h-151z" />
    <glyph glyph-name="y" unicode="y" horiz-adv-x="481" 
d="M124 -196c-31 0 -67 6 -88 13v109c14 -2 34 -5 49 -5c41 0 63 13 75 53l8 27l-167 531h167l57 -221c14 -59 22 -110 22 -110h4s11 60 23 109l54 222h151l-170 -580c-31 -103 -79 -148 -185 -148z" />
    <glyph glyph-name="z" unicode="z" horiz-adv-x="417" 
d="M20 0v114l190 300v3h-184v115h372v-105l-198 -308v-3h195v-116h-375z" />
    <glyph glyph-name="braceleft" unicode="{" horiz-adv-x="347" 
d="M327 -120c-187 4 -238 61 -238 168v122c0 57 -24 75 -77 78v121c53 3 77 18 77 75v123c0 107 51 168 238 172v-122c-53 -5 -82 -14 -82 -75v-105c0 -62 -19 -110 -105 -127v-3c86 -17 105 -65 105 -128v-105c0 -61 29 -67 82 -72v-122z" />
    <glyph glyph-name="bar" unicode="|" horiz-adv-x="239" 
d="M58 -120v855h123v-855h-123z" />
    <glyph glyph-name="braceright" unicode="}" horiz-adv-x="347" 
d="M20 -119v121c52 6 81 14 81 75v105c0 63 20 111 107 128v3c-87 17 -107 65 -107 128v102c0 61 -29 69 -81 74v122c186 -4 238 -63 238 -170v-121c0 -57 23 -73 76 -76v-121c-53 -3 -76 -19 -76 -76v-124c0 -107 -52 -167 -238 -170z" />
    <glyph glyph-name="asciitilde" unicode="~" horiz-adv-x="387" 
d="M18 228c5 117 56 154 111 154c51 0 81 -33 112 -33c16 0 26 13 29 32h100c-5 -109 -54 -154 -111 -154c-51 0 -83 33 -111 33c-19 0 -28 -14 -30 -32h-100z" />
    <glyph glyph-name="Adieresis" unicode="&#xc4;" horiz-adv-x="588" 
d="M3 0l185 693h210l187 -693h-179l-33 132h-177l-31 -132h-162zM285 519h-4s-9 -57 -22 -118l-36 -152h122l-37 152c-12 61 -23 118 -23 118zM315 729v121h136v-121h-136zM128 729v121h136v-121h-136z" />
    <glyph glyph-name="Aring" unicode="&#xc5;" horiz-adv-x="588" 
d="M3 0l185 693h210l187 -693h-179l-33 132h-177l-31 -132h-162zM285 519h-4s-9 -57 -22 -118l-36 -152h122l-37 152c-12 61 -23 118 -23 118zM293 715c-63 0 -110 43 -110 105s45 105 110 105s110 -42 110 -104s-45 -106 -110 -106zM293 778c24 0 39 16 39 42
s-16 43 -39 43s-39 -17 -39 -43c0 -24 16 -42 39 -42z" />
    <glyph glyph-name="Ccedilla" unicode="&#xc7;" horiz-adv-x="497" 
d="M315 -10c-9 0 -17 0 -25 1v-33c65 -3 94 -30 94 -78c0 -64 -54 -98 -185 -103v64c57 6 78 14 78 36c0 21 -15 27 -58 28v96c-126 31 -195 132 -195 322v43c0 254 131 337 298 337c68 0 118 -12 150 -28v-128c-32 11 -67 19 -113 19c-96 0 -146 -50 -146 -191v-44
c0 -134 36 -204 143 -204c55 0 93 12 121 24v-128c-34 -18 -90 -33 -162 -33z" />
    <glyph glyph-name="Eacute" unicode="&#xc9;" horiz-adv-x="483" 
d="M181 727l48 133h161l-82 -133h-127zM44 0v693h406v-130h-231v-145h187v-127h-187v-161h240v-130h-415z" />
    <glyph glyph-name="Ntilde" unicode="&#xd1;" horiz-adv-x="601" 
d="M155 730c7 96 55 127 105 127c45 0 74 -26 98 -26c15 0 22 9 25 25h95c-9 -95 -55 -128 -106 -128c-45 0 -74 26 -97 26c-17 0 -23 -9 -27 -24h-93zM44 0v693h195l117 -280c29 -70 56 -150 56 -150h3s-7 63 -7 167v263h149v-693h-177l-123 280c-33 75 -68 179 -68 179h-3
s6 -73 7 -200v-259h-149z" />
    <glyph glyph-name="Odieresis" unicode="&#xd6;" horiz-adv-x="613" 
d="M332 729v121h136v-121h-136zM145 729v121h136v-121h-136zM306 -10c-169 0 -282 98 -282 334v45c0 229 120 334 282 334c166 0 282 -93 282 -330v-46c0 -234 -120 -337 -282 -337zM307 122c67 0 95 54 95 178v86c0 134 -27 185 -97 185c-68 0 -95 -56 -95 -177v-86
c0 -134 27 -186 97 -186z" />
    <glyph glyph-name="Udieresis" unicode="&#xdc;" horiz-adv-x="587" 
d="M297 -10c-182 0 -257 81 -257 232v471h177v-468c0 -70 22 -102 84 -102c61 0 81 32 81 102v468h165v-470c0 -152 -78 -233 -250 -233zM323 729v121h136v-121h-136zM136 729v121h136v-121h-136z" />
    <glyph glyph-name="aacute" unicode="&#xe1;" horiz-adv-x="462" 
d="M166 -8c-92 0 -152 51 -152 153c0 109 63 151 170 169l85 13v22c0 52 -22 68 -90 68c-46 0 -94 -8 -123 -17v109c42 18 104 31 185 31c126 0 188 -48 188 -164v-376h-133l-11 36h-5c-20 -26 -59 -44 -114 -44zM222 97c20 0 38 7 47 15v118l-44 -4c-38 -3 -54 -22 -54 -62
c0 -48 17 -67 51 -67zM165 580l57 151h161l-90 -151h-128z" />
    <glyph glyph-name="agrave" unicode="&#xe0;" horiz-adv-x="462" 
d="M166 -8c-92 0 -152 51 -152 153c0 109 63 151 170 169l85 13v22c0 52 -22 68 -90 68c-46 0 -94 -8 -123 -17v109c42 18 104 31 185 31c126 0 188 -48 188 -164v-376h-133l-11 36h-5c-20 -26 -59 -44 -114 -44zM222 97c20 0 38 7 47 15v118l-44 -4c-38 -3 -54 -22 -54 -62
c0 -48 17 -67 51 -67zM179 580l-89 151h160l57 -151h-128z" />
    <glyph glyph-name="acircumflex" unicode="&#xe2;" horiz-adv-x="462" 
d="M166 -8c-92 0 -152 51 -152 153c0 109 63 151 170 169l85 13v22c0 52 -22 68 -90 68c-46 0 -94 -8 -123 -17v109c42 18 104 31 185 31c126 0 188 -48 188 -164v-376h-133l-11 36h-5c-20 -26 -59 -44 -114 -44zM222 97c20 0 38 7 47 15v118l-44 -4c-38 -3 -54 -22 -54 -62
c0 -48 17 -67 51 -67zM79 580l92 150h132l92 -150h-113l-45 57l-44 -57h-114z" />
    <glyph glyph-name="adieresis" unicode="&#xe4;" horiz-adv-x="462" 
d="M166 -8c-92 0 -152 51 -152 153c0 109 63 151 170 169l85 13v22c0 52 -22 68 -90 68c-46 0 -94 -8 -123 -17v109c42 18 104 31 185 31c126 0 188 -48 188 -164v-376h-133l-11 36h-5c-20 -26 -59 -44 -114 -44zM222 97c20 0 38 7 47 15v118l-44 -4c-38 -3 -54 -22 -54 -62
c0 -48 17 -67 51 -67zM262 590v127h134v-127h-134zM76 590v127h134v-127h-134z" />
    <glyph glyph-name="atilde" unicode="&#xe3;" horiz-adv-x="462" 
d="M166 -8c-92 0 -152 51 -152 153c0 109 63 151 170 169l85 13v22c0 52 -22 68 -90 68c-46 0 -94 -8 -123 -17v109c42 18 104 31 185 31c126 0 188 -48 188 -164v-376h-133l-11 36h-5c-20 -26 -59 -44 -114 -44zM222 97c20 0 38 7 47 15v118l-44 -4c-38 -3 -54 -22 -54 -62
c0 -48 17 -67 51 -67zM73 589c6 94 52 135 108 135c50 0 72 -30 101 -30c15 0 24 11 27 30h91c-7 -91 -53 -135 -110 -135c-47 0 -72 30 -99 30c-16 0 -24 -11 -26 -30h-92z" />
    <glyph glyph-name="aring" unicode="&#xe5;" horiz-adv-x="462" 
d="M166 -8c-92 0 -152 51 -152 153c0 109 63 151 170 169l85 13v22c0 52 -22 68 -90 68c-46 0 -94 -8 -123 -17v109c42 18 104 31 185 31c126 0 188 -48 188 -164v-376h-133l-11 36h-5c-20 -26 -59 -44 -114 -44zM222 97c20 0 38 7 47 15v118l-44 -4c-38 -3 -54 -22 -54 -62
c0 -48 17 -67 51 -67zM235 575c-63 0 -109 41 -109 103c0 61 45 103 109 103c63 0 109 -41 109 -102c0 -62 -46 -104 -109 -104zM235 636c23 0 39 16 39 42c0 25 -16 41 -39 41s-38 -15 -38 -41c0 -25 15 -42 38 -42z" />
    <glyph glyph-name="ccedilla" unicode="&#xe7;" horiz-adv-x="399" 
d="M252 -8h-17v-34c63 -4 96 -29 96 -78c0 -63 -55 -98 -188 -103v64c56 4 81 14 81 36c0 21 -17 27 -61 28v98c-96 28 -144 108 -144 247v26c0 180 88 264 239 264c59 0 96 -9 122 -22v-120c-26 10 -51 19 -93 19c-67 0 -103 -39 -103 -127v-36c0 -100 30 -139 104 -139
c42 0 74 12 96 21v-113c-25 -16 -71 -31 -132 -31z" />
    <glyph glyph-name="eacute" unicode="&#xe9;" horiz-adv-x="475" 
d="M176 580l57 151h161l-90 -151h-128zM269 -8c-169 0 -250 88 -250 263v21c0 166 78 264 226 264c155 0 212 -87 212 -265v-55h-275c5 -81 40 -111 122 -111c52 0 101 15 134 30v-103c-33 -22 -92 -44 -169 -44zM245 430c-38 0 -60 -23 -64 -115h124c0 88 -18 115 -60 115z
" />
    <glyph glyph-name="egrave" unicode="&#xe8;" horiz-adv-x="475" 
d="M269 -8c-169 0 -250 88 -250 263v21c0 166 78 264 226 264c155 0 212 -87 212 -265v-55h-275c5 -81 40 -111 122 -111c52 0 101 15 134 30v-103c-33 -22 -92 -44 -169 -44zM245 430c-38 0 -60 -23 -64 -115h124c0 88 -18 115 -60 115zM189 580l-89 151h160l57 -151h-128z
" />
    <glyph glyph-name="ecircumflex" unicode="&#xea;" horiz-adv-x="475" 
d="M87 580l92 150h132l92 -150h-113l-45 57l-44 -57h-114zM269 -8c-169 0 -250 88 -250 263v21c0 166 78 264 226 264c155 0 212 -87 212 -265v-55h-275c5 -81 40 -111 122 -111c52 0 101 15 134 30v-103c-33 -22 -92 -44 -169 -44zM245 430c-38 0 -60 -23 -64 -115h124
c0 88 -18 115 -60 115z" />
    <glyph glyph-name="edieresis" unicode="&#xeb;" horiz-adv-x="475" 
d="M274 590v127h134v-127h-134zM88 590v127h134v-127h-134zM269 -8c-169 0 -250 88 -250 263v21c0 166 78 264 226 264c155 0 212 -87 212 -265v-55h-275c5 -81 40 -111 122 -111c52 0 101 15 134 30v-103c-33 -22 -92 -44 -169 -44zM245 430c-38 0 -60 -23 -64 -115h124
c0 88 -18 115 -60 115z" />
    <glyph glyph-name="iacute" unicode="&#xed;" horiz-adv-x="233" 
d="M48 580l57 151h161l-90 -151h-128zM36 0v532h161v-532h-161z" />
    <glyph glyph-name="igrave" unicode="&#xec;" horiz-adv-x="233" 
d="M36 0v532h161v-532h-161zM60 580l-89 151h160l57 -151h-128z" />
    <glyph glyph-name="icircumflex" unicode="&#xee;" horiz-adv-x="233" 
d="M-33 580l84 150h130l84 -150h-112l-37 56l-36 -56h-113zM37 0v532h161v-532h-161z" />
    <glyph glyph-name="idieresis" unicode="&#xef;" horiz-adv-x="233" 
d="M137 590v127h127v-127h-127zM-32 590v127h127v-127h-127zM36 0v532h161v-532h-161z" />
    <glyph glyph-name="ntilde" unicode="&#xf1;" horiz-adv-x="505" 
d="M33 0v532h155v-44h4c34 29 80 52 144 52c85 0 133 -38 133 -134v-406h-160v369c0 32 -15 43 -50 43c-26 0 -51 -9 -66 -16v-396h-160zM92 589c6 94 52 135 108 135c50 0 72 -30 101 -30c15 0 24 11 27 30h91c-7 -91 -53 -135 -110 -135c-47 0 -72 30 -99 30
c-16 0 -24 -11 -26 -30h-92z" />
    <glyph glyph-name="oacute" unicode="&#xf3;" horiz-adv-x="507" 
d="M180 580l57 151h161l-90 -151h-128zM253 -8c-157 0 -234 96 -234 259v30c0 170 94 259 234 259c155 0 235 -86 235 -256v-29c0 -173 -93 -263 -235 -263zM254 108c47 0 69 40 69 129v55c0 104 -25 132 -71 132c-48 0 -68 -37 -68 -130v-54c0 -99 23 -132 70 -132z" />
    <glyph glyph-name="ograve" unicode="&#xf2;" horiz-adv-x="507" 
d="M253 -8c-157 0 -234 96 -234 259v30c0 170 94 259 234 259c155 0 235 -86 235 -256v-29c0 -173 -93 -263 -235 -263zM254 108c47 0 69 40 69 129v55c0 104 -25 132 -71 132c-48 0 -68 -37 -68 -130v-54c0 -99 23 -132 70 -132zM194 580l-89 151h160l57 -151h-128z" />
    <glyph glyph-name="ocircumflex" unicode="&#xf4;" horiz-adv-x="507" 
d="M94 580l92 150h132l92 -150h-113l-45 57l-44 -57h-114zM253 -8c-157 0 -234 96 -234 259v30c0 170 94 259 234 259c155 0 235 -86 235 -256v-29c0 -173 -93 -263 -235 -263zM254 108c47 0 69 40 69 129v55c0 104 -25 132 -71 132c-48 0 -68 -37 -68 -130v-54
c0 -99 23 -132 70 -132z" />
    <glyph glyph-name="odieresis" unicode="&#xf6;" horiz-adv-x="507" 
d="M280 590v127h134v-127h-134zM94 590v127h134v-127h-134zM253 -8c-157 0 -234 96 -234 259v30c0 170 94 259 234 259c155 0 235 -86 235 -256v-29c0 -173 -93 -263 -235 -263zM254 108c47 0 69 40 69 129v55c0 104 -25 132 -71 132c-48 0 -68 -37 -68 -130v-54
c0 -99 23 -132 70 -132z" />
    <glyph glyph-name="otilde" unicode="&#xf5;" horiz-adv-x="507" 
d="M253 -8c-157 0 -234 96 -234 259v30c0 170 94 259 234 259c155 0 235 -86 235 -256v-29c0 -173 -93 -263 -235 -263zM254 108c47 0 69 40 69 129v55c0 104 -25 132 -71 132c-48 0 -68 -37 -68 -130v-54c0 -99 23 -132 70 -132zM88 589c6 94 52 135 108 135
c50 0 72 -30 101 -30c15 0 24 11 27 30h91c-7 -91 -53 -135 -110 -135c-47 0 -72 30 -99 30c-16 0 -24 -11 -26 -30h-92z" />
    <glyph glyph-name="uacute" unicode="&#xfa;" horiz-adv-x="501" 
d="M183 580l57 151h161l-90 -151h-128zM171 -8c-90 0 -137 46 -137 144v396h160v-369c0 -31 13 -44 50 -44c24 0 48 9 62 16v397h160v-532h-140l-11 45h-4c-34 -27 -78 -53 -140 -53z" />
    <glyph glyph-name="ugrave" unicode="&#xf9;" horiz-adv-x="501" 
d="M171 -8c-90 0 -137 46 -137 144v396h160v-369c0 -31 13 -44 50 -44c24 0 48 9 62 16v397h160v-532h-140l-11 45h-4c-34 -27 -78 -53 -140 -53zM195 580l-89 151h160l57 -151h-128z" />
    <glyph glyph-name="ucircumflex" unicode="&#xfb;" horiz-adv-x="501" 
d="M95 580l92 150h132l92 -150h-113l-45 57l-44 -57h-114zM171 -8c-90 0 -137 46 -137 144v396h160v-369c0 -31 13 -44 50 -44c24 0 48 9 62 16v397h160v-532h-140l-11 45h-4c-34 -27 -78 -53 -140 -53z" />
    <glyph glyph-name="udieresis" unicode="&#xfc;" horiz-adv-x="501" 
d="M278 590v127h134v-127h-134zM92 590v127h134v-127h-134zM171 -8c-90 0 -137 46 -137 144v396h160v-369c0 -31 13 -44 50 -44c24 0 48 9 62 16v397h160v-532h-140l-11 45h-4c-34 -27 -78 -53 -140 -53z" />
    <glyph glyph-name="dagger" unicode="&#x2020;" horiz-adv-x="453" 
d="M150 -69v460h-131v128h131v174h152v-174h132v-128h-132v-460h-152z" />
    <glyph glyph-name="degree" unicode="&#xb0;" horiz-adv-x="353" 
d="M177 417c-88 0 -146 61 -146 143c0 80 57 142 145 142s146 -59 146 -142c0 -81 -58 -143 -145 -143zM177 493c37 0 58 28 58 67c0 38 -21 65 -59 66c-37 0 -58 -28 -58 -66c0 -39 21 -67 59 -67z" />
    <glyph glyph-name="cent" unicode="&#xa2;" horiz-adv-x="413" 
d="M187 -116l16 112c-121 18 -184 98 -184 253v26c0 181 93 265 247 265h13l9 61h77l-10 -70c17 -4 31 -9 42 -14v-118c-16 6 -36 12 -59 15l-44 -302h4c43 0 80 12 102 20v-109c-23 -15 -67 -28 -123 -31l-15 -108h-75zM179 253c0 -62 13 -101 43 -122l40 284
c-54 -11 -83 -49 -83 -125v-37z" />
    <glyph glyph-name="sterling" unicode="&#xa3;" horiz-adv-x="480" 
d="M30 287v113h55v86c0 156 95 217 231 217c68 0 112 -12 135 -24v-126c-24 8 -53 12 -85 12c-64 0 -102 -24 -102 -98v-67h133v-113h-133v-13c0 -76 -26 -114 -67 -142v-2h263v-130h-434v120c38 21 59 51 59 114v53h-55z" />
    <glyph glyph-name="section" unicode="&#xa7;" horiz-adv-x="481" 
d="M212 -130c-70 0 -125 13 -161 33v114c34 -15 76 -29 138 -29c57 0 83 17 83 54c0 32 -12 45 -50 57l-63 19c-89 27 -144 65 -144 160c0 71 34 109 85 127c-30 25 -51 65 -51 126c0 107 65 172 215 172c66 0 113 -12 143 -27v-113c-33 12 -75 24 -126 24
c-54 0 -75 -15 -75 -50c0 -31 17 -44 52 -55l60 -19c96 -27 150 -61 150 -160c0 -70 -29 -108 -81 -130c32 -25 49 -60 49 -121c0 -111 -66 -182 -224 -182zM313 277c0 32 -13 48 -62 63l-38 13c-30 -7 -48 -24 -48 -55c0 -27 12 -42 42 -55c5 -2 39 -14 44 -15l13 -5
c31 8 49 25 49 54z" />
    <glyph glyph-name="bullet" unicode="&#x2022;" horiz-adv-x="335" 
d="M166 173c-79 0 -141 62 -141 146c0 85 62 144 141 144c80 0 144 -60 144 -145c0 -83 -64 -145 -144 -145z" />
    <glyph glyph-name="paragraph" unicode="&#xb6;" horiz-adv-x="526" 
d="M242 -120v447h-30c-115 0 -188 62 -188 183c0 110 61 183 196 183h263v-813h-92v726h-58v-726h-91z" />
    <glyph glyph-name="germandbls" unicode="&#xdf;" horiz-adv-x="558" 
d="M367 -8c-60 0 -92 7 -126 20v109c27 -8 57 -17 96 -17c37 0 58 14 58 41c0 24 -11 36 -39 52l-29 20c-58 37 -85 73 -85 138c0 100 93 146 93 220c0 35 -23 54 -60 54c-51 0 -77 -31 -77 -99v-530h-160v535c0 150 97 208 242 208c143 0 213 -57 213 -155
c0 -106 -108 -155 -108 -207c0 -23 11 -36 34 -51l34 -21c57 -35 94 -73 94 -154c0 -106 -71 -163 -180 -163z" />
    <glyph glyph-name="registered" unicode="&#xae;" horiz-adv-x="384" 
d="M193 307c-104 0 -176 75 -176 199c0 121 73 197 175 197s175 -74 175 -197c0 -120 -72 -199 -174 -199zM192 339c85 0 138 62 138 167c0 102 -53 166 -138 166s-137 -64 -137 -166c0 -105 53 -167 137 -167zM118 407v203h85c45 0 70 -20 70 -63c0 -27 -11 -44 -26 -51v-2
l35 -87h-63l-26 71h-14v-71h-61zM179 521h13c14 0 19 7 19 21c0 16 -5 22 -19 22h-13v-43z" />
    <glyph glyph-name="copyright" unicode="&#xa9;" horiz-adv-x="668" 
d="M335 -11c-185 0 -311 132 -311 356s127 356 310 356c182 0 311 -132 311 -356c0 -218 -128 -356 -310 -356zM334 42c152 0 251 107 251 303c0 194 -100 303 -251 303c-153 0 -250 -109 -250 -303c0 -196 99 -303 250 -303zM350 144c-107 0 -169 55 -169 190v22
c0 143 76 193 173 193c42 0 72 -9 90 -18v-94c-15 6 -34 11 -59 11c-53 0 -72 -24 -72 -86v-23c0 -69 18 -96 72 -96c28 0 47 8 61 13v-92c-20 -9 -50 -20 -96 -20z" />
    <glyph glyph-name="trademark" unicode="&#x2122;" horiz-adv-x="636" 
d="M277 392v301h129l36 -169h3l36 169h134v-301h-94v186h-2l-41 -186h-81l-42 186h-2v-186h-76zM79 392v216h-65v85h232v-85h-66v-216h-101z" />
    <glyph glyph-name="acute" unicode="&#xb4;" 
d="M131 580l57 151h161l-90 -151h-128z" />
    <glyph glyph-name="dieresis" unicode="&#xa8;" horiz-adv-x="426" 
d="M239 590v127h134v-127h-134zM53 590v127h134v-127h-134z" />
    <glyph glyph-name="AE" unicode="&#xc6;" horiz-adv-x="801" 
d="M-3 0l284 693h488v-130h-223v-145h179v-127h-179v-161h232v-130h-406v142h-160l-55 -142h-160zM368 552l-110 -292h114v292h-4z" />
    <glyph glyph-name="Oslash" unicode="&#xd8;" horiz-adv-x="613" 
d="M306 -10c-65 0 -122 18 -168 54l-31 -44h-102l76 106c-35 54 -55 126 -55 213v50c0 229 118 334 284 334c62 0 118 -17 164 -51l29 41h101l-72 -100c37 -53 59 -125 59 -214v-52c0 -234 -121 -337 -285 -337zM309 118c70 0 102 55 102 182v123l-185 -257
c17 -34 44 -48 83 -48zM206 279l182 253c-17 30 -44 43 -81 43c-71 0 -101 -57 -101 -181v-115z" />
    <glyph glyph-name="yen" unicode="&#xa5;" horiz-adv-x="550" 
d="M187 0v111h-132v106h132v53h-132v106h97l-146 317h187l50 -128c29 -75 44 -132 44 -132h2s16 58 44 131l50 129h163l-146 -317h98v-106h-132v-53h132v-106h-132v-111h-179z" />
    <glyph glyph-name="ordfeminine" unicode="&#xaa;" horiz-adv-x="416" 
d="M147 216c-83 0 -135 48 -135 137c0 94 58 130 153 144l74 12v22c0 46 -19 61 -80 61c-42 0 -85 -7 -110 -15v97c37 16 95 28 167 28c112 0 170 -43 170 -146v-332h-123l-10 32h-4c-17 -23 -53 -40 -102 -40zM196 311c20 0 35 7 43 13v105l-38 -3c-34 -3 -49 -20 -49 -57
c0 -41 15 -58 44 -58z" />
    <glyph glyph-name="ordmasculine" unicode="&#xba;" horiz-adv-x="450" 
d="M225 217c-140 0 -208 86 -208 229v26c0 150 83 230 208 230c138 0 209 -77 209 -226v-26c0 -153 -83 -233 -209 -233zM226 321c41 0 59 35 59 113v48c0 91 -22 115 -61 115c-42 0 -60 -33 -60 -113v-48c0 -85 21 -115 62 -115z" />
    <glyph glyph-name="ae" unicode="&#xe6;" horiz-adv-x="720" 
d="M517 -8c-87 0 -150 23 -191 69c-37 -44 -86 -69 -159 -69c-93 0 -153 52 -153 152c0 105 64 146 171 163l85 12v30c0 52 -23 68 -92 68c-46 0 -94 -8 -122 -17v109c41 18 101 31 176 31c62 0 104 -14 129 -46c32 30 77 46 136 46c151 0 206 -88 206 -263v-52h-277
c5 -85 40 -116 123 -116c53 0 102 15 135 30v-103c-34 -22 -92 -44 -167 -44zM288 128c-11 29 -17 62 -19 100l-43 -2c-39 -2 -56 -21 -56 -63c0 -47 18 -66 51 -66c26 0 48 11 67 31zM491 430c-39 0 -61 -26 -65 -115h125c0 87 -18 115 -60 115z" />
    <glyph glyph-name="oslash" unicode="&#xf8;" horiz-adv-x="507" 
d="M254 -8c-54 0 -102 12 -139 38l-23 -30h-89l61 80c-29 41 -45 96 -45 165v36c0 170 94 259 234 259c51 0 98 -12 135 -35l21 27h89l-57 -75c30 -40 48 -96 48 -167v-35c0 -173 -94 -263 -235 -263zM255 101c51 0 75 43 75 136v75l-136 -179c12 -23 33 -32 61 -32z
M178 229l132 174c-13 20 -32 28 -57 28c-53 0 -75 -41 -75 -137v-65z" />
    <glyph glyph-name="questiondown" unicode="&#xbf;" horiz-adv-x="394" 
d="M220 -130c-124 0 -201 56 -201 178c0 88 28 126 85 176c53 45 70 56 70 103v31h138v-45c0 -68 -17 -97 -74 -149c-36 -32 -52 -51 -52 -95c0 -50 30 -71 95 -71c42 0 69 7 95 14v-117c-35 -14 -90 -25 -156 -25zM164 428v145h155v-145h-155z" />
    <glyph glyph-name="exclamdown" unicode="&#xa1;" horiz-adv-x="259" 
d="M38 -120l24 478h134l25 -478h-183zM52 428v145h154v-145h-154z" />
    <glyph glyph-name="florin" unicode="&#x192;" horiz-adv-x="402" 
d="M28 315v117h70l14 104c17 126 85 180 194 180c43 0 75 -8 92 -17v-109c-14 3 -25 5 -43 5c-40 0 -63 -18 -70 -78l-11 -85h85v-117h-100l-39 -315c-16 -126 -74 -181 -190 -181c-40 0 -73 10 -86 17v108c8 -2 21 -5 36 -5c31 0 56 15 63 66l40 310h-55z" />
    <glyph glyph-name="guillemotleft" unicode="&#xab;" horiz-adv-x="452" 
d="M105 54l-80 178v42l80 179h131l-83 -200l83 -199h-131zM294 54l-80 178v42l80 179h131l-83 -200l83 -199h-131z" />
    <glyph glyph-name="guillemotright" unicode="&#xbb;" horiz-adv-x="453" 
d="M27 54l82 199l-82 200h131l80 -179v-42l-80 -178h-131zM217 54l82 199l-82 200h131l80 -179v-42l-80 -178h-131z" />
    <glyph glyph-name="ellipsis" unicode="&#x2026;" horiz-adv-x="666" 
d="M256 0v148h154v-148h-154zM475 0v148h155v-148h-155zM37 0v148h154v-148h-154z" />
    <glyph glyph-name="uni00A0" unicode="&#xa0;" horiz-adv-x="137" 
 />
    <glyph glyph-name="Agrave" unicode="&#xc0;" horiz-adv-x="588" 
d="M3 0l185 693h210l187 -693h-179l-33 132h-177l-31 -132h-162zM285 519h-4s-9 -57 -22 -118l-36 -152h122l-37 152c-12 61 -23 118 -23 118zM240 727l-82 133h161l48 -133h-127z" />
    <glyph glyph-name="Atilde" unicode="&#xc3;" horiz-adv-x="588" 
d="M3 0l185 693h210l187 -693h-179l-33 132h-177l-31 -132h-162zM285 519h-4s-9 -57 -22 -118l-36 -152h122l-37 152c-12 61 -23 118 -23 118zM134 730c7 96 55 127 105 127c45 0 74 -26 98 -26c15 0 22 9 25 25h95c-9 -95 -55 -128 -106 -128c-45 0 -74 26 -97 26
c-17 0 -23 -9 -27 -24h-93z" />
    <glyph glyph-name="Otilde" unicode="&#xd5;" horiz-adv-x="613" 
d="M145 730c7 96 55 127 105 127c45 0 74 -26 98 -26c15 0 22 9 25 25h95c-9 -95 -55 -128 -106 -128c-45 0 -74 26 -97 26c-17 0 -23 -9 -27 -24h-93zM306 -10c-169 0 -282 98 -282 334v45c0 229 120 334 282 334c166 0 282 -93 282 -330v-46c0 -234 -120 -337 -282 -337z
M307 122c67 0 95 54 95 178v86c0 134 -27 185 -97 185c-68 0 -95 -56 -95 -177v-86c0 -134 27 -186 97 -186z" />
    <glyph glyph-name="OE" unicode="&#x152;" horiz-adv-x="802" 
d="M320 0c-187 0 -296 83 -296 324v40c0 232 104 329 290 329h455v-130h-223v-145h180v-127h-180v-161h232v-130h-458zM323 129h47v435h-50c-79 0 -108 -43 -108 -187v-62c0 -150 35 -186 111 -186z" />
    <glyph glyph-name="oe" unicode="&#x153;" horiz-adv-x="780" 
d="M248 -8c-153 0 -229 96 -229 259v30c0 170 93 259 228 259c77 0 129 -25 162 -69c31 43 79 69 147 69c151 0 207 -88 207 -265v-52h-278c5 -84 42 -114 124 -114c53 0 101 15 134 30v-103c-34 -22 -92 -44 -161 -44c-86 0 -141 27 -175 75c-35 -49 -88 -75 -159 -75z
M254 108c47 0 69 40 69 129v55c0 103 -25 132 -71 132c-48 0 -68 -37 -68 -130v-54c0 -99 23 -132 70 -132zM550 430c-38 0 -62 -24 -65 -118h125c0 91 -18 118 -60 118z" />
    <glyph glyph-name="endash" unicode="&#x2013;" horiz-adv-x="364" 
d="M22 226v123h321v-123h-321z" />
    <glyph glyph-name="emdash" unicode="&#x2014;" horiz-adv-x="653" 
d="M22 226v123h610v-123h-610z" />
    <glyph glyph-name="quotedblleft" unicode="&#x201c;" horiz-adv-x="395" 
d="M18 479l42 214h122l-15 -214h-149zM204 479l42 214h122l-15 -214h-149z" />
    <glyph glyph-name="quotedblright" unicode="&#x201d;" horiz-adv-x="395" 
d="M28 479l15 214h148l-42 -214h-121zM214 479l15 214h148l-42 -214h-121z" />
    <glyph glyph-name="quoteleft" unicode="&#x2018;" horiz-adv-x="210" 
d="M18 479l42 214h122l-15 -214h-149z" />
    <glyph glyph-name="quoteright" unicode="&#x2019;" horiz-adv-x="209" 
d="M28 479l15 214h148l-42 -214h-121z" />
    <glyph glyph-name="divide" unicode="&#xf7;" horiz-adv-x="447" 
d="M25 283v128h397v-128h-397zM148 99v141h150v-141h-150zM148 452v143h150v-143h-150z" />
    <glyph glyph-name="ydieresis" unicode="&#xff;" horiz-adv-x="481" 
d="M124 -196c-31 0 -67 6 -88 13v109c14 -2 34 -5 49 -5c41 0 63 13 75 53l8 27l-167 531h167l57 -221c14 -59 22 -110 22 -110h4s11 60 23 109l54 222h151l-170 -580c-31 -103 -79 -148 -185 -148zM275 590v127h134v-127h-134zM89 590v127h134v-127h-134z" />
    <glyph glyph-name="Ydieresis" unicode="&#x178;" horiz-adv-x="545" 
d="M186 0v254l-189 439h190l55 -151c25 -69 41 -121 41 -121h3s14 51 39 121l55 151h168l-185 -436v-257h-177zM313 729v121h136v-121h-136zM126 729v121h136v-121h-136z" />
    <glyph glyph-name="fraction" unicode="&#x2044;" horiz-adv-x="224" 
d="M-163 -40l431 753h109l-432 -753h-108z" />
    <glyph glyph-name="Euro" unicode="&#x20ac;" horiz-adv-x="519" 
d="M15 373v90h53c27 185 142 240 280 240c66 0 115 -11 145 -26v-124c-30 11 -63 19 -107 19c-74 0 -117 -24 -131 -109h161v-90h-166v-55h166v-89h-160c14 -78 53 -108 127 -108c53 0 88 12 115 24v-123c-33 -17 -88 -32 -151 -32c-158 0 -256 64 -280 239h-52v89h47v55
h-47z" />
    <glyph glyph-name="guilsinglleft" unicode="&#x2039;" horiz-adv-x="263" 
d="M105 54l-80 178v42l80 179h131l-83 -200l83 -199h-131z" />
    <glyph glyph-name="guilsinglright" unicode="&#x203a;" horiz-adv-x="263" 
d="M27 54l82 199l-82 200h131l80 -179v-42l-80 -178h-131z" />
    <glyph glyph-name="daggerdbl" unicode="&#x2021;" horiz-adv-x="455" 
d="M20 105v128h131v158h-131v128h131v174h152v-174h133v-128h-133v-158h133v-128h-133v-174h-152v174h-131z" />
    <glyph glyph-name="periodcentered" unicode="&#xb7;" horiz-adv-x="222" 
d="M34 236v147h154v-147h-154z" />
    <glyph glyph-name="quotesinglbase" unicode="&#x201a;" horiz-adv-x="207" 
d="M26 -64l15 214h148l-42 -214h-121z" />
    <glyph glyph-name="quotedblbase" unicode="&#x201e;" horiz-adv-x="392" 
d="M211 -65l16 214h147l-41 -214h-122zM25 -65l16 214h147l-42 -214h-121z" />
    <glyph glyph-name="perthousand" unicode="&#x2030;" horiz-adv-x="1142" 
d="M142 -40l385 753h111l-385 -753h-111zM177 323c-101 0 -160 60 -160 185v9c0 122 60 186 159 186c97 0 162 -56 162 -183v-8c0 -127 -64 -189 -161 -189zM178 408c30 0 44 18 44 87v36c0 69 -16 88 -45 88c-30 0 -44 -20 -44 -87v-36c0 -69 14 -88 45 -88zM611 -9
c-101 0 -160 60 -160 185v10c0 122 60 185 159 185c97 0 161 -56 161 -182v-9c0 -126 -63 -189 -160 -189zM612 76c30 0 44 18 44 87v36c0 69 -16 88 -45 88c-30 0 -44 -19 -44 -87v-36c0 -69 14 -88 45 -88zM965 -9c-101 0 -160 60 -160 185v10c0 122 60 185 159 185
c97 0 161 -56 161 -182v-9c0 -126 -63 -189 -160 -189zM966 76c30 0 44 18 44 87v36c0 69 -16 88 -45 88c-30 0 -44 -19 -44 -87v-36c0 -69 14 -88 45 -88z" />
    <glyph glyph-name="Acircumflex" unicode="&#xc2;" horiz-adv-x="588" 
d="M3 0l185 693h210l187 -693h-179l-33 132h-177l-31 -132h-162zM285 519h-4s-9 -57 -22 -118l-36 -152h122l-37 152c-12 61 -23 118 -23 118zM135 727l91 128h130l91 -128h-113l-44 44l-41 -44h-114z" />
    <glyph glyph-name="Ecircumflex" unicode="&#xca;" horiz-adv-x="483" 
d="M93 727l91 128h130l91 -128h-113l-44 44l-41 -44h-114zM44 0v693h406v-130h-231v-145h187v-127h-187v-161h240v-130h-415z" />
    <glyph glyph-name="Aacute" unicode="&#xc1;" horiz-adv-x="588" 
d="M3 0l185 693h210l187 -693h-179l-33 132h-177l-31 -132h-162zM285 519h-4s-9 -57 -22 -118l-36 -152h122l-37 152c-12 61 -23 118 -23 118zM225 727l48 133h161l-82 -133h-127z" />
    <glyph glyph-name="Edieresis" unicode="&#xcb;" horiz-adv-x="483" 
d="M44 0v693h406v-130h-231v-145h187v-127h-187v-161h240v-130h-415zM274 729v121h136v-121h-136zM87 729v121h136v-121h-136z" />
    <glyph glyph-name="Egrave" unicode="&#xc8;" horiz-adv-x="483" 
d="M198 727l-82 133h161l48 -133h-127zM44 0v693h406v-130h-231v-145h187v-127h-187v-161h240v-130h-415z" />
    <glyph glyph-name="Iacute" unicode="&#xcd;" horiz-adv-x="266" 
d="M45 0v693h177v-693h-177zM67 727l48 133h161l-82 -133h-127z" />
    <glyph glyph-name="Icircumflex" unicode="&#xce;" horiz-adv-x="266" 
d="M-19 727l88 128h130l87 -128h-112l-41 45l-39 -45h-113zM45 0v693h177v-693h-177z" />
    <glyph glyph-name="Idieresis" unicode="&#xcf;" horiz-adv-x="266" 
d="M153 729v121h121v-121h-121zM-9 729v121h121v-121h-121zM45 0v693h177v-693h-177z" />
    <glyph glyph-name="Igrave" unicode="&#xcc;" horiz-adv-x="266" 
d="M45 0v693h177v-693h-177zM79 727l-82 133h161l48 -133h-127z" />
    <glyph glyph-name="Oacute" unicode="&#xd3;" horiz-adv-x="613" 
d="M233 727l48 133h161l-82 -133h-127zM306 -10c-169 0 -282 98 -282 334v45c0 229 120 334 282 334c166 0 282 -93 282 -330v-46c0 -234 -120 -337 -282 -337zM307 122c67 0 95 54 95 178v86c0 134 -27 185 -97 185c-68 0 -95 -56 -95 -177v-86c0 -134 27 -186 97 -186z
" />
    <glyph glyph-name="Ocircumflex" unicode="&#xd4;" horiz-adv-x="613" 
d="M150 727l91 128h130l91 -128h-113l-44 44l-41 -44h-114zM306 -10c-169 0 -282 98 -282 334v45c0 229 120 334 282 334c166 0 282 -93 282 -330v-46c0 -234 -120 -337 -282 -337zM307 122c67 0 95 54 95 178v86c0 134 -27 185 -97 185c-68 0 -95 -56 -95 -177v-86
c0 -134 27 -186 97 -186z" />
    <glyph glyph-name="Ograve" unicode="&#xd2;" horiz-adv-x="613" 
d="M252 727l-82 133h161l48 -133h-127zM306 -10c-169 0 -282 98 -282 334v45c0 229 120 334 282 334c166 0 282 -93 282 -330v-46c0 -234 -120 -337 -282 -337zM307 122c67 0 95 54 95 178v86c0 134 -27 185 -97 185c-68 0 -95 -56 -95 -177v-86c0 -134 27 -186 97 -186z
" />
    <glyph glyph-name="Uacute" unicode="&#xda;" horiz-adv-x="587" 
d="M226 727l48 133h161l-82 -133h-127zM297 -10c-182 0 -257 81 -257 232v471h177v-468c0 -70 22 -102 84 -102c61 0 81 32 81 102v468h165v-470c0 -152 -78 -233 -250 -233z" />
    <glyph glyph-name="Ucircumflex" unicode="&#xdb;" horiz-adv-x="587" 
d="M142 727l91 128h130l91 -128h-113l-44 44l-41 -44h-114zM297 -10c-182 0 -257 81 -257 232v471h177v-468c0 -70 22 -102 84 -102c61 0 81 32 81 102v468h165v-470c0 -152 -78 -233 -250 -233z" />
    <glyph glyph-name="Ugrave" unicode="&#xd9;" horiz-adv-x="587" 
d="M245 727l-82 133h161l48 -133h-127zM297 -10c-182 0 -257 81 -257 232v471h177v-468c0 -70 22 -102 84 -102c61 0 81 32 81 102v468h165v-470c0 -152 -78 -233 -250 -233z" />
    <glyph glyph-name="dotlessi" unicode="&#x131;" horiz-adv-x="232" 
d="M36 0v532h161v-532h-161z" />
    <glyph glyph-name="circumflex" unicode="&#x2c6;" 
d="M53 580l92 150h132l92 -150h-113l-45 57l-44 -57h-114z" />
    <glyph glyph-name="tilde" unicode="&#x2dc;" 
d="M47 589c6 94 52 135 108 135c50 0 72 -30 101 -30c15 0 24 11 27 30h91c-7 -91 -53 -135 -110 -135c-47 0 -72 30 -99 30c-16 0 -24 -11 -26 -30h-92z" />
    <glyph glyph-name="macron" unicode="&#xaf;" 
d="M85 591v104h253v-104h-253z" />
    <glyph glyph-name="breve" unicode="&#x2d8;" 
d="M211 582c-89 0 -141 57 -144 138h102c3 -26 17 -41 42 -41s39 15 42 41h103c-3 -81 -55 -138 -145 -138z" />
    <glyph glyph-name="dotaccent" unicode="&#x2d9;" 
d="M130 590v131h161v-131h-161z" />
    <glyph glyph-name="ring" unicode="&#x2da;" 
d="M211 575c-63 0 -109 41 -109 103c0 61 45 103 109 103c63 0 109 -41 109 -102c0 -62 -46 -104 -109 -104zM211 636c23 0 39 16 39 42c0 25 -16 41 -39 41s-38 -15 -38 -41c0 -25 15 -42 38 -42z" />
    <glyph glyph-name="cedilla" unicode="&#xb8;" 
d="M160 -223v64c57 4 81 14 81 36c0 21 -16 27 -60 28v105h72v-52c63 -4 96 -29 96 -78c0 -63 -56 -98 -189 -103z" />
    <glyph glyph-name="hungarumlaut" unicode="&#x2dd;" 
d="M235 580l39 151h143l-61 -151h-121zM57 580l39 151h142l-60 -151h-121z" />
    <glyph glyph-name="ogonek" unicode="&#x2db;" 
d="M215 -198c-72 0 -111 33 -111 86c0 55 44 91 81 112h90c-23 -24 -47 -49 -47 -76c0 -23 15 -30 34 -30c9 0 19 2 23 3v-82c-14 -7 -42 -13 -70 -13z" />
    <glyph glyph-name="caron" unicode="&#x2c7;" 
d="M369 730l-91 -150h-132l-92 150h114l44 -56l44 56h113z" />
    <glyph glyph-name="space_uni0326" horiz-adv-x="414" 
d="M129 -180l12 144h140l-43 -144h-109z" />
    <glyph glyph-name="caron.alt" horiz-adv-x="414" 
d="M256 580h-86l6 155h107z" />
    <glyph glyph-name="space_uni0326.alt" horiz-adv-x="414" 
d="M287 735l-13 -146h-142l47 146h108z" />
    <glyph glyph-name="acute.pl" 
d="M150 580l36 151h157l-67 -151h-126z" />
    <glyph glyph-name="grave.uc" 
d="M161 727l-82 133h161l48 -133h-127z" />
    <glyph glyph-name="dieresis.uc" 
d="M236 729v121h136v-121h-136zM49 729v121h136v-121h-136z" />
    <glyph glyph-name="macron.uc" 
d="M82 730v101h258v-101h-258z" />
    <glyph glyph-name="acute.uc" 
d="M136 727l48 133h161l-82 -133h-127z" />
    <glyph glyph-name="circumflex.uc" 
d="M55 727l91 128h130l91 -128h-113l-44 44l-41 -44h-114z" />
    <glyph glyph-name="caron.uc" 
d="M367 855l-91 -128h-130l-91 128h114l42 -44l43 44h113z" />
    <glyph glyph-name="breve.uc" 
d="M211 723c-91 0 -139 59 -143 133h101c3 -26 18 -41 42 -41s39 15 42 41h103c-5 -75 -54 -133 -145 -133z" />
    <glyph glyph-name="dotaccent.uc" 
d="M133 730v121h155v-121h-155z" />
    <glyph glyph-name="ring.uc" 
d="M211 715c-63 0 -110 43 -110 105s45 105 110 105s110 -42 110 -104s-45 -106 -110 -106zM211 778c24 0 39 16 39 42s-16 43 -39 43s-39 -17 -39 -43c0 -24 16 -42 39 -42z" />
    <glyph glyph-name="tilde.uc" 
d="M50 730c7 96 55 127 105 127c45 0 74 -26 98 -26c15 0 22 9 25 25h95c-9 -95 -55 -128 -106 -128c-45 0 -74 26 -97 26c-17 0 -23 -9 -27 -24h-93z" />
    <glyph glyph-name="hungarumlaut.uc" 
d="M235 727l39 133h144l-61 -133h-122zM54 727l39 133h143l-60 -133h-122z" />
    <glyph glyph-name="acute.ucpl" 
d="M149 727l33 133h158l-65 -133h-126z" />
    <glyph glyph-name="Dcroat" unicode="&#x110;" horiz-adv-x="592" 
d="M48 0v286h-41v123h41v284h227c186 0 298 -80 298 -316v-49c0 -231 -114 -328 -297 -328h-228zM222 129h55c77 0 113 51 113 189v61c0 142 -41 185 -116 185h-52v-155h95v-123h-95v-157z" />
    <glyph glyph-name="Eng" unicode="&#x14a;" horiz-adv-x="601" 
d="M44 0v693h187l122 -283c26 -60 59 -148 59 -148h3s-7 75 -7 166v265h149v-692c0 -112 -49 -177 -185 -177c-48 0 -85 11 -107 22v105c13 -4 37 -9 62 -9c42 0 64 12 72 40l-136 300c-34 74 -74 179 -74 179h-3s6 -91 7 -200v-261h-149z" />
    <glyph glyph-name="IJ" unicode="&#x132;" horiz-adv-x="622" 
d="M393 -7c-59 0 -100 10 -127 23v125c16 -5 39 -9 63 -9c52 0 77 23 77 83v478h177v-502c0 -116 -53 -198 -190 -198zM45 0v693h177v-693h-177z" />
    <glyph glyph-name="uni0237" unicode="&#x237;" horiz-adv-x="234" 
d="M34 -196c-41 0 -72 9 -89 18v102c8 -1 21 -3 34 -3c39 0 59 17 59 62v549h159v-564c0 -100 -43 -164 -163 -164z" />
    <glyph glyph-name="dcroat" unicode="&#x111;" horiz-adv-x="511" 
d="M204 590v77h113v68h160v-68h47v-77h-47v-590h-139l-10 38h-4c-27 -25 -65 -46 -123 -46c-103 0 -181 66 -181 253v27c0 190 78 268 207 268c41 0 73 -9 90 -19v69h-113zM260 111c24 0 44 9 57 19v285c-11 6 -30 12 -53 12c-55 0 -79 -34 -79 -144v-34
c0 -104 25 -138 75 -138z" />
    <glyph glyph-name="eng" unicode="&#x14b;" horiz-adv-x="505" 
d="M311 -196c-42 0 -73 9 -90 17l1 101c8 -2 19 -3 33 -3c38 0 57 17 57 62v388c0 32 -16 43 -51 43c-25 0 -50 -9 -66 -16v-396h-160v532h156v-44h4c34 29 80 52 144 52c84 0 133 -38 133 -134v-438c0 -100 -43 -164 -161 -164z" />
    <glyph glyph-name="ij" unicode="&#x133;" horiz-adv-x="233" 
d="M37 0v532h160v-532h-160zM36 590v131h162v-131h-162zM263 -196c-41 0 -72 9 -89 18v102c8 -1 21 -3 34 -3c38 0 58 17 58 62v549h160v-564c0 -100 -43 -164 -163 -164zM265 590v131h162v-131h-162z" />
    <glyph glyph-name="Abreve" unicode="&#x102;" horiz-adv-x="588" 
d="M3 0l185 693h210l187 -693h-179l-33 132h-177l-31 -132h-162zM285 519h-4s-9 -57 -22 -118l-36 -152h122l-37 152c-12 61 -23 118 -23 118zM294 723c-91 0 -139 59 -143 133h101c3 -26 18 -41 42 -41s39 15 42 41h103c-5 -75 -54 -133 -145 -133z" />
    <glyph glyph-name="Amacron" unicode="&#x100;" horiz-adv-x="588" 
d="M3 0l185 693h210l187 -693h-179l-33 132h-177l-31 -132h-162zM285 519h-4s-9 -57 -22 -118l-36 -152h122l-37 152c-12 61 -23 118 -23 118zM162 730v101h258v-101h-258z" />
    <glyph glyph-name="Aogonek" unicode="&#x104;" horiz-adv-x="588" 
d="M506 -196c-71 0 -110 33 -110 86c0 51 37 86 75 110h-68l-33 132h-176l-32 -132h-159l187 693h201l187 -688c-34 -25 -59 -53 -59 -80c0 -22 15 -29 34 -29c10 0 20 1 23 2v-82c-13 -7 -41 -12 -70 -12zM282 519h-4s-9 -58 -22 -119l-36 -151h122l-37 152
c-12 61 -23 118 -23 118z" />
    <glyph glyph-name="Aringacute" unicode="&#x1fa;" horiz-adv-x="588" 
d="M3 0l185 693h210l187 -693h-179l-33 132h-177l-31 -132h-162zM285 519h-4s-9 -57 -22 -118l-36 -152h122l-37 152c-12 61 -23 118 -23 118zM233 943l48 133h161l-82 -133h-127zM293 715c-63 0 -110 43 -110 105s45 105 110 105s110 -42 110 -104s-45 -106 -110 -106z
M293 778c24 0 39 16 39 42s-16 43 -39 43s-39 -17 -39 -43c0 -24 16 -42 39 -42z" />
    <glyph glyph-name="AEacute" unicode="&#x1fc;" horiz-adv-x="801" 
d="M444 727l48 133h161l-82 -133h-127zM-3 0l284 693h488v-130h-223v-145h179v-127h-179v-161h232v-130h-406v142h-160l-55 -142h-160zM368 552l-110 -292h114v292h-4z" />
    <glyph glyph-name="Cacute" unicode="&#x106;" horiz-adv-x="497" 
d="M315 -10c-186 0 -291 99 -291 333v43c0 254 131 337 298 337c68 0 118 -12 150 -28v-128c-32 11 -67 19 -113 19c-96 0 -146 -50 -146 -191v-44c0 -134 36 -204 143 -204c55 0 93 12 121 24v-128c-34 -18 -90 -33 -162 -33zM226 727l48 133h161l-82 -133h-127z" />
    <glyph glyph-name="Ccaron" unicode="&#x10c;" horiz-adv-x="497" 
d="M451 855l-91 -128h-130l-91 128h114l42 -44l43 44h113zM315 -10c-186 0 -291 99 -291 333v43c0 254 131 337 298 337c68 0 118 -12 150 -28v-128c-32 11 -67 19 -113 19c-96 0 -146 -50 -146 -191v-44c0 -134 36 -204 143 -204c55 0 93 12 121 24v-128
c-34 -18 -90 -33 -162 -33z" />
    <glyph glyph-name="Ccircumflex" unicode="&#x108;" horiz-adv-x="497" 
d="M141 727l91 128h130l91 -128h-113l-44 44l-41 -44h-114zM315 -10c-186 0 -291 99 -291 333v43c0 254 131 337 298 337c68 0 118 -12 150 -28v-128c-32 11 -67 19 -113 19c-96 0 -146 -50 -146 -191v-44c0 -134 36 -204 143 -204c55 0 93 12 121 24v-128
c-34 -18 -90 -33 -162 -33z" />
    <glyph glyph-name="Cdotaccent" unicode="&#x10a;" horiz-adv-x="497" 
d="M315 -10c-186 0 -291 99 -291 333v43c0 254 131 337 298 337c68 0 118 -12 150 -28v-128c-32 11 -67 19 -113 19c-96 0 -146 -50 -146 -191v-44c0 -134 36 -204 143 -204c55 0 93 12 121 24v-128c-34 -18 -90 -33 -162 -33zM220 730v121h155v-121h-155z" />
    <glyph glyph-name="Cacute.pl" horiz-adv-x="497" 
d="M315 -10c-186 0 -291 99 -291 333v43c0 254 131 337 298 337c68 0 118 -12 150 -28v-128c-32 11 -67 19 -113 19c-96 0 -146 -50 -146 -191v-44c0 -134 36 -204 143 -204c55 0 93 12 121 24v-128c-34 -18 -90 -33 -162 -33zM233 727l33 133h158l-65 -133h-126z" />
    <glyph glyph-name="Dcaron" unicode="&#x10e;" horiz-adv-x="592" 
d="M428 855l-91 -128h-130l-91 128h114l42 -44l43 44h113zM44 0v693h227c186 0 298 -80 298 -316v-49c0 -231 -114 -328 -298 -328h-227zM220 129h51c77 0 113 51 113 189v61c0 142 -40 185 -116 185h-48v-435z" />
    <glyph glyph-name="Ebreve" unicode="&#x114;" horiz-adv-x="483" 
d="M44 0v693h406v-130h-231v-145h187v-127h-187v-161h240v-130h-415zM249 723c-91 0 -139 59 -143 133h101c3 -26 18 -41 42 -41s39 15 42 41h103c-5 -75 -54 -133 -145 -133z" />
    <glyph glyph-name="Ecaron" unicode="&#x11a;" horiz-adv-x="483" 
d="M404 855l-91 -128h-130l-91 128h114l42 -44l43 44h113zM44 0v693h406v-130h-231v-145h187v-127h-187v-161h240v-130h-415z" />
    <glyph glyph-name="Edotaccent" unicode="&#x116;" horiz-adv-x="483" 
d="M173 730v121h155v-121h-155zM44 0v693h406v-130h-231v-145h187v-127h-187v-161h240v-130h-415z" />
    <glyph glyph-name="Emacron" unicode="&#x112;" horiz-adv-x="483" 
d="M44 0v693h406v-130h-231v-145h187v-127h-187v-161h240v-130h-415zM118 730v101h258v-101h-258z" />
    <glyph glyph-name="Eogonek" unicode="&#x118;" horiz-adv-x="483" 
d="M459 0h-41c-24 -22 -47 -49 -47 -75c0 -22 14 -29 34 -29c9 0 19 1 24 2v-82c-14 -7 -43 -12 -71 -12c-71 0 -111 33 -111 86c0 51 38 87 76 110h-279v693h406v-130h-231v-145h187v-127h-187v-161h240v-130z" />
    <glyph glyph-name="Gbreve" unicode="&#x11e;" horiz-adv-x="573" 
d="M313 723c-91 0 -139 59 -143 133h101c3 -26 18 -41 42 -41s39 15 42 41h103c-5 -75 -54 -133 -145 -133zM323 -9c-189 0 -299 79 -299 336v39c0 247 125 337 313 337c85 0 144 -18 174 -33v-131c-33 12 -79 26 -146 26c-124 0 -157 -64 -157 -182v-90
c0 -115 23 -173 113 -173c23 0 43 5 55 8v141h-75v123h240v-361c-43 -19 -127 -40 -218 -40z" />
    <glyph glyph-name="Gcircumflex" unicode="&#x11c;" horiz-adv-x="573" 
d="M156 727l91 128h130l91 -128h-113l-44 44l-41 -44h-114zM323 -9c-189 0 -299 79 -299 336v39c0 247 125 337 313 337c85 0 144 -18 174 -33v-131c-33 12 -79 26 -146 26c-124 0 -157 -64 -157 -182v-90c0 -115 23 -173 113 -173c23 0 43 5 55 8v141h-75v123h240v-361
c-43 -19 -127 -40 -218 -40z" />
    <glyph glyph-name="Gcommaaccent" unicode="&#x122;" horiz-adv-x="573" 
d="M236 -180l12 144h140l-43 -144h-109zM323 -9c-189 0 -299 79 -299 336v39c0 247 125 337 313 337c85 0 144 -18 174 -33v-131c-33 12 -79 26 -146 26c-124 0 -157 -64 -157 -182v-90c0 -115 23 -173 113 -173c23 0 43 5 55 8v141h-75v123h240v-361
c-43 -19 -127 -40 -218 -40z" />
    <glyph glyph-name="Gdotaccent" unicode="&#x120;" horiz-adv-x="573" 
d="M237 730v121h155v-121h-155zM323 -9c-189 0 -299 79 -299 336v39c0 247 125 337 313 337c85 0 144 -18 174 -33v-131c-33 12 -79 26 -146 26c-124 0 -157 -64 -157 -182v-90c0 -115 23 -173 113 -173c23 0 43 5 55 8v141h-75v123h240v-361c-43 -19 -127 -40 -218 -40z
" />
    <glyph glyph-name="Hbar" unicode="&#x126;" horiz-adv-x="604" 
d="M3 502v85h41v106h175v-106h165v106h177v-106h41v-85h-41v-502h-177v291h-165v-291h-175v502h-41zM219 420h165v82h-165v-82z" />
    <glyph glyph-name="Hcircumflex" unicode="&#x124;" horiz-adv-x="604" 
d="M44 0v693h176v-271h164v271h176v-693h-176v291h-164v-291h-176zM145 727l91 128h130l91 -128h-113l-44 44l-41 -44h-114z" />
    <glyph glyph-name="Idotaccent" unicode="&#x130;" horiz-adv-x="266" 
d="M45 0v693h177v-693h-177zM57 730v121h155v-121h-155z" />
    <glyph glyph-name="Ibreve" unicode="&#x12c;" horiz-adv-x="266" 
d="M45 0v693h177v-693h-177zM136 723c-91 0 -139 59 -143 133h101c3 -26 18 -41 42 -41s39 15 42 41h103c-5 -75 -54 -133 -145 -133z" />
    <glyph glyph-name="Imacron" unicode="&#x12a;" horiz-adv-x="266" 
d="M45 0v693h177v-693h-177zM12 732v108h243v-108h-243z" />
    <glyph glyph-name="Iogonek" unicode="&#x12e;" horiz-adv-x="266" 
d="M43 -110c0 50 36 87 72 110h-70v693h177v-689c-32 -24 -56 -52 -56 -79c0 -22 15 -29 33 -29c11 0 20 1 25 2v-82c-15 -7 -42 -12 -71 -12c-71 0 -110 33 -110 86z" />
    <glyph glyph-name="Itilde" unicode="&#x128;" horiz-adv-x="266" 
d="M45 0v693h177v-693h-177zM-27 730c7 96 55 127 105 127c45 0 74 -26 98 -26c15 0 22 9 25 25h95c-9 -95 -55 -128 -106 -128c-45 0 -74 26 -97 26c-17 0 -23 -9 -27 -24h-93z" />
    <glyph glyph-name="Jcircumflex" unicode="&#x134;" horiz-adv-x="383" 
d="M96 727l91 128h130l91 -128h-113l-44 44l-41 -44h-114zM148 -7c-62 0 -103 11 -132 25v124c17 -4 43 -10 70 -10c52 0 80 20 80 78v483h177v-507c0 -114 -55 -193 -195 -193z" />
    <glyph glyph-name="Kcommaaccent" unicode="&#x136;" horiz-adv-x="577" 
d="M211 -180l12 144h140l-43 -144h-109zM44 0v693h176v-322l168 322h182l-179 -325l189 -368h-198l-162 339v-339h-176z" />
    <glyph glyph-name="Lacute" unicode="&#x139;" horiz-adv-x="448" 
d="M64 727l48 133h161l-82 -133h-127zM44 0v693h176v-563h211v-130h-387z" />
    <glyph glyph-name="Lcaron" unicode="&#x13d;" horiz-adv-x="448" 
d="M357 514h-101l8 179h123zM44 0v693h176v-563h211v-130h-387z" />
    <glyph glyph-name="Lcommaaccent" unicode="&#x13b;" horiz-adv-x="448" 
d="M162 -180l12 144h140l-43 -144h-109zM44 0v693h176v-563h211v-130h-387z" />
    <glyph glyph-name="Ldot" unicode="&#x13f;" horiz-adv-x="448" 
d="M294 300v131h136v-131h-136zM44 0v693h176v-563h211v-130h-387z" />
    <glyph glyph-name="Nacute" unicode="&#x143;" horiz-adv-x="601" 
d="M244 727l48 133h161l-82 -133h-127zM44 0v693h195l117 -280c29 -70 56 -150 56 -150h3s-7 63 -7 167v263h149v-693h-177l-123 280c-33 75 -68 179 -68 179h-3s6 -73 7 -200v-259h-149z" />
    <glyph glyph-name="Ncaron" unicode="&#x147;" horiz-adv-x="601" 
d="M467 855l-91 -128h-130l-91 128h114l42 -44l43 44h113zM44 0v693h195l117 -280c29 -70 56 -150 56 -150h3s-7 63 -7 167v263h149v-693h-177l-123 280c-33 75 -68 179 -68 179h-3s6 -73 7 -200v-259h-149z" />
    <glyph glyph-name="Ncommaaccent" unicode="&#x145;" horiz-adv-x="601" 
d="M223 -179l12 144h140l-43 -144h-109zM44 0v693h195l117 -280c29 -70 56 -150 56 -150h3s-7 63 -7 167v263h149v-693h-177l-123 280c-33 75 -68 179 -68 179h-3s6 -73 7 -200v-259h-149z" />
    <glyph glyph-name="Nacute.pl" horiz-adv-x="601" 
d="M249 727l33 133h158l-65 -133h-126zM44 0v693h195l117 -280c29 -70 56 -150 56 -150h3s-7 63 -7 167v263h149v-693h-177l-123 280c-33 75 -68 179 -68 179h-3s6 -73 7 -200v-259h-149z" />
    <glyph glyph-name="Obreve" unicode="&#x14e;" horiz-adv-x="613" 
d="M305 723c-91 0 -139 59 -143 133h101c3 -26 18 -41 42 -41s39 15 42 41h103c-5 -75 -54 -133 -145 -133zM306 -10c-169 0 -282 98 -282 334v45c0 229 120 334 282 334c166 0 282 -93 282 -330v-46c0 -234 -120 -337 -282 -337zM307 122c67 0 95 54 95 178v86
c0 134 -27 185 -97 185c-68 0 -95 -56 -95 -177v-86c0 -134 27 -186 97 -186z" />
    <glyph glyph-name="Ohungarumlaut" unicode="&#x150;" horiz-adv-x="613" 
d="M330 727l39 133h144l-61 -133h-122zM149 727l39 133h143l-60 -133h-122zM306 -10c-169 0 -282 98 -282 334v45c0 229 120 334 282 334c166 0 282 -93 282 -330v-46c0 -234 -120 -337 -282 -337zM307 122c67 0 95 54 95 178v86c0 134 -27 185 -97 185
c-68 0 -95 -56 -95 -177v-86c0 -134 27 -186 97 -186z" />
    <glyph glyph-name="Omacron" unicode="&#x14c;" horiz-adv-x="613" 
d="M177 730v101h258v-101h-258zM306 -10c-169 0 -282 98 -282 334v45c0 229 120 334 282 334c166 0 282 -93 282 -330v-46c0 -234 -120 -337 -282 -337zM307 122c67 0 95 54 95 178v86c0 134 -27 185 -97 185c-68 0 -95 -56 -95 -177v-86c0 -134 27 -186 97 -186z" />
    <glyph glyph-name="Oacute.pl" horiz-adv-x="613" 
d="M245 727l33 133h158l-65 -133h-126zM306 -10c-169 0 -282 98 -282 334v45c0 229 120 334 282 334c166 0 282 -93 282 -330v-46c0 -234 -120 -337 -282 -337zM307 122c67 0 95 54 95 178v86c0 134 -27 185 -97 185c-68 0 -95 -56 -95 -177v-86c0 -134 27 -186 97 -186z
" />
    <glyph glyph-name="Oslashacute" unicode="&#x1fe;" horiz-adv-x="613" 
d="M306 -10c-65 0 -122 18 -168 54l-31 -44h-102l76 106c-35 54 -55 126 -55 213v50c0 229 118 334 284 334c62 0 118 -17 164 -51l29 41h101l-72 -100c37 -53 59 -125 59 -214v-52c0 -234 -121 -337 -285 -337zM309 118c70 0 102 55 102 182v123l-185 -257
c17 -34 44 -48 83 -48zM206 279l182 253c-17 30 -44 43 -81 43c-71 0 -101 -57 -101 -181v-115zM234 727l48 133h161l-82 -133h-127z" />
    <glyph glyph-name="Racute" unicode="&#x154;" horiz-adv-x="559" 
d="M197 727l48 133h161l-82 -133h-127zM44 0v693h251c157 0 231 -62 231 -212c0 -95 -37 -145 -94 -173v-4l127 -304h-181l-102 258h-56v-258h-176zM218 368h52c56 0 78 33 78 102s-20 99 -80 99h-50v-201z" />
    <glyph glyph-name="Rcaron" unicode="&#x158;" horiz-adv-x="559" 
d="M425 855l-91 -128h-130l-91 128h114l42 -44l43 44h113zM44 0v693h251c157 0 231 -62 231 -212c0 -95 -37 -145 -94 -173v-4l127 -304h-181l-102 258h-56v-258h-176zM218 368h52c56 0 78 33 78 102s-20 99 -80 99h-50v-201z" />
    <glyph glyph-name="Rcommaaccent" unicode="&#x156;" horiz-adv-x="559" 
d="M212 -180l12 144h140l-43 -144h-109zM44 0v693h251c157 0 231 -62 231 -212c0 -95 -37 -145 -94 -173v-4l127 -304h-181l-102 258h-56v-258h-176zM218 368h52c56 0 78 33 78 102s-20 99 -80 99h-50v-201z" />
    <glyph glyph-name="Sacute" unicode="&#x15a;" horiz-adv-x="468" 
d="M206 -10c-76 0 -144 15 -184 36v132c44 -18 99 -34 159 -34c67 0 96 22 96 71c0 45 -21 56 -72 77l-43 17c-96 38 -142 98 -142 205c0 130 78 209 233 209c87 0 131 -13 163 -29v-129c-36 14 -85 26 -145 26c-57 0 -83 -19 -83 -61c0 -39 22 -52 66 -69l44 -17
c92 -34 152 -81 152 -207c0 -144 -80 -227 -244 -227zM165 727l48 133h161l-82 -133h-127z" />
    <glyph glyph-name="Scedilla" unicode="&#x15e;" horiz-adv-x="468" 
d="M141 -223v64c57 4 81 14 81 36c0 21 -16 27 -60 28v87c-58 4 -108 17 -140 34v132c44 -18 99 -34 159 -34c67 0 96 22 96 71c0 45 -21 56 -72 77l-43 17c-96 38 -142 98 -142 205c0 130 78 209 233 209c87 0 131 -13 163 -29v-129c-36 14 -85 26 -145 26
c-57 0 -83 -19 -83 -61c0 -39 22 -52 66 -69l44 -17c92 -34 152 -81 152 -207c0 -136 -71 -217 -216 -226v-33c63 -4 96 -29 96 -78c0 -63 -56 -98 -189 -103z" />
    <glyph glyph-name="Scircumflex" unicode="&#x15c;" horiz-adv-x="468" 
d="M81 727l91 128h130l91 -128h-113l-44 44l-41 -44h-114zM206 -10c-76 0 -144 15 -184 36v132c44 -18 99 -34 159 -34c67 0 96 22 96 71c0 45 -21 56 -72 77l-43 17c-96 38 -142 98 -142 205c0 130 78 209 233 209c87 0 131 -13 163 -29v-129c-36 14 -85 26 -145 26
c-57 0 -83 -19 -83 -61c0 -39 22 -52 66 -69l44 -17c92 -34 152 -81 152 -207c0 -144 -80 -227 -244 -227z" />
    <glyph glyph-name="Scommaaccent" unicode="&#x218;" horiz-adv-x="468" 
d="M144 -180l12 144h140l-43 -144h-109zM206 -10c-76 0 -144 15 -184 36v132c44 -18 99 -34 159 -34c67 0 96 22 96 71c0 45 -21 56 -72 77l-43 17c-96 38 -142 98 -142 205c0 130 78 209 233 209c87 0 131 -13 163 -29v-129c-36 14 -85 26 -145 26c-57 0 -83 -19 -83 -61
c0 -39 22 -52 66 -69l44 -17c92 -34 152 -81 152 -207c0 -144 -80 -227 -244 -227z" />
    <glyph glyph-name="Sacute.pl" horiz-adv-x="468" 
d="M206 -10c-76 0 -144 15 -184 36v132c44 -18 99 -34 159 -34c67 0 96 22 96 71c0 45 -21 56 -72 77l-43 17c-96 38 -142 98 -142 205c0 130 78 209 233 209c87 0 131 -13 163 -29v-129c-36 14 -85 26 -145 26c-57 0 -83 -19 -83 -61c0 -39 22 -52 66 -69l44 -17
c92 -34 152 -81 152 -207c0 -144 -80 -227 -244 -227zM178 727l33 133h158l-65 -133h-126z" />
    <glyph glyph-name="Tcaron" unicode="&#x164;" horiz-adv-x="496" 
d="M403 855l-91 -128h-130l-91 128h114l42 -44l43 44h113zM159 0v563h-147v130h471v-130h-147v-563h-177z" />
    <glyph glyph-name="Tcommaaccent" unicode="&#x162;" horiz-adv-x="496" 
d="M167 -180l12 144h140l-43 -144h-109zM159 0v563h-147v130h471v-130h-147v-563h-177z" />
    <glyph glyph-name="uni021A" unicode="&#x21a;" horiz-adv-x="496" 
d="M167 -180l12 144h140l-43 -144h-109zM159 0v563h-147v130h471v-130h-147v-563h-177z" />
    <glyph glyph-name="Tbar" unicode="&#x166;" horiz-adv-x="496" 
d="M55 319v95h104v149h-147v130h471v-130h-147v-149h104v-95h-104v-319h-177v319h-104z" />
    <glyph glyph-name="Ubreve" unicode="&#x16c;" horiz-adv-x="587" 
d="M297 -10c-182 0 -257 81 -257 232v471h177v-468c0 -70 22 -102 84 -102c61 0 81 32 81 102v468h165v-470c0 -152 -78 -233 -250 -233zM298 723c-91 0 -139 59 -143 133h101c3 -26 18 -41 42 -41s39 15 42 41h103c-5 -75 -54 -133 -145 -133z" />
    <glyph glyph-name="Uhungarumlaut" unicode="&#x170;" horiz-adv-x="587" 
d="M323 727l39 133h144l-61 -133h-122zM142 727l39 133h143l-60 -133h-122zM297 -10c-182 0 -257 81 -257 232v471h177v-468c0 -70 22 -102 84 -102c61 0 81 32 81 102v468h165v-470c0 -152 -78 -233 -250 -233z" />
    <glyph glyph-name="Umacron" unicode="&#x16a;" horiz-adv-x="587" 
d="M297 -10c-182 0 -257 81 -257 232v471h177v-468c0 -70 22 -102 84 -102c61 0 81 32 81 102v468h165v-470c0 -152 -78 -233 -250 -233zM169 730v101h258v-101h-258z" />
    <glyph glyph-name="Uogonek" unicode="&#x172;" horiz-adv-x="587" 
d="M412 3c-37 -18 -73 -44 -73 -79c0 -23 16 -30 35 -30c9 0 19 2 23 3v-82c-14 -7 -42 -13 -71 -13c-71 0 -110 33 -110 86c0 47 32 81 64 102h-11c-160 8 -229 88 -229 232v471h176v-469c0 -71 23 -102 85 -102c60 0 81 32 81 102v469h165v-469c0 -123 -50 -182 -135 -221
z" />
    <glyph glyph-name="Uring" unicode="&#x16e;" horiz-adv-x="587" 
d="M297 -10c-182 0 -257 81 -257 232v471h177v-468c0 -70 22 -102 84 -102c61 0 81 32 81 102v468h165v-470c0 -152 -78 -233 -250 -233zM298 704c-63 0 -110 43 -110 105s45 105 110 105s110 -42 110 -104s-45 -106 -110 -106zM298 767c24 0 39 16 39 42s-16 43 -39 43
s-39 -17 -39 -43c0 -24 16 -42 39 -42z" />
    <glyph glyph-name="Utilde" unicode="&#x168;" horiz-adv-x="587" 
d="M297 -10c-182 0 -257 81 -257 232v471h177v-468c0 -70 22 -102 84 -102c61 0 81 32 81 102v468h165v-470c0 -152 -78 -233 -250 -233zM138 730c7 96 55 127 105 127c45 0 74 -26 98 -26c15 0 22 9 25 25h95c-9 -95 -55 -128 -106 -128c-45 0 -74 26 -97 26
c-17 0 -23 -9 -27 -24h-93z" />
    <glyph glyph-name="Wacute" unicode="&#x1e82;" horiz-adv-x="812" 
d="M352 727l48 133h161l-82 -133h-127zM145 0l-133 693h175l52 -318c10 -58 21 -136 21 -136h3s9 77 21 137l60 317h145l58 -316c12 -63 22 -139 22 -139h3s9 65 21 139l54 316h154l-134 -693h-183l-54 294c-11 60 -19 135 -19 135h-3s-11 -79 -21 -135l-54 -294h-188z" />
    <glyph glyph-name="Wcircumflex" unicode="&#x174;" horiz-adv-x="812" 
d="M257 727l91 128h130l91 -128h-113l-44 44l-41 -44h-114zM145 0l-133 693h175l52 -318c10 -58 21 -136 21 -136h3s9 77 21 137l60 317h145l58 -316c12 -63 22 -139 22 -139h3s9 65 21 139l54 316h154l-134 -693h-183l-54 294c-11 60 -19 135 -19 135h-3s-11 -79 -21 -135
l-54 -294h-188z" />
    <glyph glyph-name="Wdieresis" unicode="&#x1e84;" horiz-adv-x="812" 
d="M438 729v121h136v-121h-136zM251 729v121h136v-121h-136zM145 0l-133 693h175l52 -318c10 -58 21 -136 21 -136h3s9 77 21 137l60 317h145l58 -316c12 -63 22 -139 22 -139h3s9 65 21 139l54 316h154l-134 -693h-183l-54 294c-11 60 -19 135 -19 135h-3s-11 -79 -21 -135
l-54 -294h-188z" />
    <glyph glyph-name="Wgrave" unicode="&#x1e80;" horiz-adv-x="812" 
d="M354 727l-82 133h161l48 -133h-127zM145 0l-133 693h175l52 -318c10 -58 21 -136 21 -136h3s9 77 21 137l60 317h145l58 -316c12 -63 22 -139 22 -139h3s9 65 21 139l54 316h154l-134 -693h-183l-54 294c-11 60 -19 135 -19 135h-3s-11 -79 -21 -135l-54 -294h-188z" />
    <glyph glyph-name="Ycircumflex" unicode="&#x176;" horiz-adv-x="545" 
d="M186 0v254l-189 439h190l55 -151c25 -69 41 -121 41 -121h3s14 51 39 121l55 151h168l-185 -436v-257h-177zM132 727l91 128h130l91 -128h-113l-44 44l-41 -44h-114z" />
    <glyph glyph-name="Ygrave" unicode="&#x1ef2;" horiz-adv-x="545" 
d="M186 0v254l-189 439h190l55 -151c25 -69 41 -121 41 -121h3s14 51 39 121l55 151h168l-185 -436v-257h-177zM225 727l-82 133h161l48 -133h-127z" />
    <glyph glyph-name="Zacute" unicode="&#x179;" horiz-adv-x="489" 
d="M182 727l48 133h161l-82 -133h-127zM24 0v122l240 438v3h-227v130h425v-123l-241 -437v-3h242v-130h-439z" />
    <glyph glyph-name="Zacute.pl" horiz-adv-x="489" 
d="M183 727l33 133h158l-65 -133h-126zM24 0v122l240 438v3h-227v130h425v-123l-241 -437v-3h242v-130h-439z" />
    <glyph glyph-name="Zdotaccent" unicode="&#x17b;" horiz-adv-x="489" 
d="M24 0v122l240 438v3h-227v130h425v-123l-241 -437v-3h242v-130h-439zM178 730v121h155v-121h-155z" />
    <glyph glyph-name="abreve" unicode="&#x103;" horiz-adv-x="462" 
d="M166 -8c-92 0 -152 51 -152 153c0 109 63 151 170 169l85 13v22c0 52 -22 68 -90 68c-46 0 -94 -8 -123 -17v109c42 18 104 31 185 31c126 0 188 -48 188 -164v-376h-133l-11 36h-5c-20 -26 -59 -44 -114 -44zM222 97c20 0 38 7 47 15v118l-44 -4c-38 -3 -54 -22 -54 -62
c0 -48 17 -67 51 -67zM239 582c-89 0 -141 57 -144 138h102c3 -26 17 -41 42 -41s39 15 42 41h103c-3 -81 -55 -138 -145 -138z" />
    <glyph glyph-name="amacron" unicode="&#x101;" horiz-adv-x="462" 
d="M166 -8c-92 0 -152 51 -152 153c0 109 63 151 170 169l85 13v22c0 52 -22 68 -90 68c-46 0 -94 -8 -123 -17v109c42 18 104 31 185 31c126 0 188 -48 188 -164v-376h-133l-11 36h-5c-20 -26 -59 -44 -114 -44zM222 97c20 0 38 7 47 15v118l-44 -4c-38 -3 -54 -22 -54 -62
c0 -48 17 -67 51 -67zM110 591v104h253v-104h-253z" />
    <glyph glyph-name="aogonek" unicode="&#x105;" horiz-adv-x="462" 
d="M166 -8c-92 0 -152 51 -152 153c0 107 63 152 170 169l85 13v22c0 52 -22 68 -90 68c-46 0 -94 -8 -123 -17v109c42 18 104 31 185 31c126 0 188 -48 188 -164v-373c-29 -24 -53 -51 -53 -78c0 -22 15 -29 34 -29c10 0 20 1 24 2v-82c-14 -7 -42 -12 -70 -12
c-71 0 -111 33 -111 86s40 88 79 110h-36l-11 36h-5c-20 -26 -59 -44 -114 -44zM222 97c20 0 38 7 47 15v118l-44 -4c-38 -3 -54 -21 -54 -62c0 -48 17 -67 51 -67z" />
    <glyph glyph-name="aringacute" unicode="&#x1fb;" horiz-adv-x="462" 
d="M166 -8c-92 0 -152 51 -152 153c0 109 63 151 170 169l85 13v22c0 52 -22 68 -90 68c-46 0 -94 -8 -123 -17v109c42 18 104 31 185 31c126 0 188 -48 188 -164v-376h-133l-11 36h-5c-20 -26 -59 -44 -114 -44zM222 97c20 0 38 7 47 15v118l-44 -4c-38 -3 -54 -22 -54 -62
c0 -48 17 -67 51 -67zM239 575c-63 0 -109 41 -109 103c0 61 45 103 109 103c63 0 109 -41 109 -102c0 -62 -46 -104 -109 -104zM239 636c23 0 39 16 39 42c0 25 -16 41 -39 41s-38 -15 -38 -41c0 -25 15 -42 38 -42zM175 810l48 133h161l-82 -133h-127z" />
    <glyph glyph-name="aeacute" unicode="&#x1fd;" horiz-adv-x="720" 
d="M306 580l57 151h161l-90 -151h-128zM517 -8c-87 0 -150 23 -191 69c-37 -44 -86 -69 -159 -69c-93 0 -153 52 -153 152c0 105 64 146 171 163l85 12v30c0 52 -23 68 -92 68c-46 0 -94 -8 -122 -17v109c41 18 101 31 176 31c62 0 104 -14 129 -46c32 30 77 46 136 46
c151 0 206 -88 206 -263v-52h-277c5 -85 40 -116 123 -116c53 0 102 15 135 30v-103c-34 -22 -92 -44 -167 -44zM288 128c-11 29 -17 62 -19 100l-43 -2c-39 -2 -56 -21 -56 -63c0 -47 18 -66 51 -66c26 0 48 11 67 31zM491 430c-39 0 -61 -26 -65 -115h125
c0 87 -18 115 -60 115z" />
    <glyph glyph-name="cacute" unicode="&#x107;" horiz-adv-x="399" 
d="M156 580l57 151h161l-90 -151h-128zM252 -8c-155 0 -233 81 -233 258v26c0 180 88 264 239 264c59 0 96 -9 122 -22v-120c-26 10 -51 19 -93 19c-67 0 -103 -39 -103 -127v-36c0 -100 30 -139 104 -139c42 0 74 12 96 21v-113c-25 -16 -71 -31 -132 -31z" />
    <glyph glyph-name="ccaron" unicode="&#x10d;" horiz-adv-x="399" 
d="M387 730l-91 -150h-132l-92 150h114l44 -56l44 56h113zM252 -8c-155 0 -233 81 -233 258v26c0 180 88 264 239 264c59 0 96 -9 122 -22v-120c-26 10 -51 19 -93 19c-67 0 -103 -39 -103 -127v-36c0 -100 30 -139 104 -139c42 0 74 12 96 21v-113
c-25 -16 -71 -31 -132 -31z" />
    <glyph glyph-name="ccircumflex" unicode="&#x109;" horiz-adv-x="399" 
d="M70 580l92 150h132l92 -150h-113l-45 57l-44 -57h-114zM252 -8c-155 0 -233 81 -233 258v26c0 180 88 264 239 264c59 0 96 -9 122 -22v-120c-26 10 -51 19 -93 19c-67 0 -103 -39 -103 -127v-36c0 -100 30 -139 104 -139c42 0 74 12 96 21v-113
c-25 -16 -71 -31 -132 -31z" />
    <glyph glyph-name="cdotaccent" unicode="&#x10b;" horiz-adv-x="399" 
d="M252 -8c-155 0 -233 81 -233 258v26c0 180 88 264 239 264c59 0 96 -9 122 -22v-120c-26 10 -51 19 -93 19c-67 0 -103 -39 -103 -127v-36c0 -100 30 -139 104 -139c42 0 74 12 96 21v-113c-25 -16 -71 -31 -132 -31zM146 590v131h161v-131h-161z" />
    <glyph glyph-name="cacute.pl" horiz-adv-x="399" 
d="M252 -8c-155 0 -233 81 -233 258v26c0 180 88 264 239 264c59 0 96 -9 122 -22v-120c-26 10 -51 19 -93 19c-67 0 -103 -39 -103 -127v-36c0 -100 30 -139 104 -139c42 0 74 12 96 21v-113c-25 -16 -71 -31 -132 -31zM168 580l36 151h157l-67 -151h-126z" />
    <glyph glyph-name="dcaron" unicode="&#x10f;" horiz-adv-x="511" 
d="M593 580h-86l6 155h107zM201 -8c-103 0 -181 66 -181 253v27c0 190 78 268 207 268c41 0 73 -9 90 -19v214h160v-735h-139l-10 38h-4c-27 -25 -65 -46 -123 -46zM260 111c24 0 44 9 57 19v285c-11 6 -30 12 -53 12c-55 0 -79 -34 -79 -144v-34c0 -104 25 -138 75 -138z
" />
    <glyph glyph-name="ebreve" unicode="&#x115;" horiz-adv-x="475" 
d="M269 -8c-169 0 -250 88 -250 263v21c0 166 78 264 226 264c155 0 212 -87 212 -265v-55h-275c5 -81 40 -111 122 -111c52 0 101 15 134 30v-103c-33 -22 -92 -44 -169 -44zM245 430c-38 0 -60 -23 -64 -115h124c0 88 -18 115 -60 115zM245 582c-89 0 -141 57 -144 138
h102c3 -26 17 -41 42 -41s39 15 42 41h103c-3 -81 -55 -138 -145 -138z" />
    <glyph glyph-name="ecaron" unicode="&#x11b;" horiz-adv-x="475" 
d="M404 730l-91 -150h-132l-92 150h114l44 -56l44 56h113zM269 -8c-169 0 -250 88 -250 263v21c0 166 78 264 226 264c155 0 212 -87 212 -265v-55h-275c5 -81 40 -111 122 -111c52 0 101 15 134 30v-103c-33 -22 -92 -44 -169 -44zM245 430c-38 0 -60 -23 -64 -115h124
c0 88 -18 115 -60 115z" />
    <glyph glyph-name="edotaccent" unicode="&#x117;" horiz-adv-x="475" 
d="M269 -8c-169 0 -250 88 -250 263v21c0 166 78 264 226 264c155 0 212 -87 212 -265v-55h-275c5 -81 40 -111 122 -111c52 0 101 15 134 30v-103c-33 -22 -92 -44 -169 -44zM245 430c-38 0 -60 -23 -64 -115h124c0 88 -18 115 -60 115zM167 590v131h161v-131h-161z" />
    <glyph glyph-name="emacron" unicode="&#x113;" horiz-adv-x="475" 
d="M269 -8c-169 0 -250 88 -250 263v21c0 166 78 264 226 264c155 0 212 -87 212 -265v-55h-275c5 -81 40 -111 122 -111c52 0 101 15 134 30v-103c-33 -22 -92 -44 -169 -44zM245 430c-38 0 -60 -23 -64 -115h124c0 88 -18 115 -60 115zM121 591v104h253v-104h-253z" />
    <glyph glyph-name="eogonek" unicode="&#x119;" horiz-adv-x="475" 
d="M322 -196c-71 0 -111 33 -111 86c0 48 33 80 67 102h-9c-169 0 -250 88 -250 263v21c0 166 78 264 226 264c155 0 212 -87 212 -265v-55h-276c6 -81 42 -111 123 -111c52 0 101 15 134 30v-103c-17 -13 -39 -26 -57 -40c-25 -21 -46 -46 -46 -71c0 -22 14 -29 34 -29
c9 0 19 1 23 2v-82c-13 -7 -42 -12 -70 -12zM245 430c-39 0 -61 -24 -64 -115h124c0 89 -18 115 -60 115z" />
    <glyph glyph-name="gbreve" unicode="&#x11f;" horiz-adv-x="478" 
d="M223 -195c-155 0 -225 46 -225 119c0 58 39 86 89 103v5c-32 14 -55 42 -55 87c0 46 27 79 62 104c-38 23 -69 66 -69 132v16c0 110 82 169 203 169c33 0 63 -3 87 -9h156v-96h-59c8 -15 16 -35 16 -62v-14c0 -109 -77 -166 -197 -166c-25 0 -48 2 -65 6
c-6 -7 -10 -18 -10 -28c0 -19 10 -28 37 -28h114c113 0 169 -52 169 -153c0 -116 -80 -185 -253 -185zM226 -93c74 0 100 21 100 55c0 29 -18 44 -63 44h-88c-20 -9 -36 -28 -36 -52c0 -30 25 -47 87 -47zM229 285c33 0 50 21 50 73v12c0 59 -18 78 -51 78
c-35 0 -51 -23 -51 -76v-12c0 -54 17 -75 52 -75zM241 582c-89 0 -141 57 -144 138h102c3 -26 17 -41 42 -41s39 15 42 41h103c-3 -81 -55 -138 -145 -138z" />
    <glyph glyph-name="gcircumflex" unicode="&#x11d;" horiz-adv-x="478" 
d="M81 580l92 150h132l92 -150h-113l-45 57l-44 -57h-114zM223 -195c-155 0 -225 46 -225 119c0 58 39 86 89 103v5c-32 14 -55 42 -55 87c0 46 27 79 62 104c-38 23 -69 66 -69 132v16c0 110 82 169 203 169c33 0 63 -3 87 -9h156v-96h-59c8 -15 16 -35 16 -62v-14
c0 -109 -77 -166 -197 -166c-25 0 -48 2 -65 6c-6 -7 -10 -18 -10 -28c0 -19 10 -28 37 -28h114c113 0 169 -52 169 -153c0 -116 -80 -185 -253 -185zM226 -93c74 0 100 21 100 55c0 29 -18 44 -63 44h-88c-20 -9 -36 -28 -36 -52c0 -30 25 -47 87 -47zM229 285
c33 0 50 21 50 73v12c0 59 -18 78 -51 78c-35 0 -51 -23 -51 -76v-12c0 -54 17 -75 52 -75z" />
    <glyph glyph-name="gcommaaccent" unicode="&#x123;" horiz-adv-x="478" 
d="M318 735l-13 -146h-142l47 146h108zM223 -195c-155 0 -225 46 -225 119c0 58 39 86 89 103v5c-32 14 -55 42 -55 87c0 46 27 79 62 104c-38 23 -69 66 -69 132v16c0 110 82 169 203 169c33 0 63 -3 87 -9h156v-96h-59c8 -15 16 -35 16 -62v-14c0 -109 -77 -166 -197 -166
c-25 0 -48 2 -65 6c-6 -7 -10 -18 -10 -28c0 -19 10 -28 37 -28h114c113 0 169 -52 169 -153c0 -116 -80 -185 -253 -185zM226 -93c74 0 100 21 100 55c0 29 -18 44 -63 44h-88c-20 -9 -36 -28 -36 -52c0 -30 25 -47 87 -47zM229 285c33 0 50 21 50 73v12
c0 59 -18 78 -51 78c-35 0 -51 -23 -51 -76v-12c0 -54 17 -75 52 -75z" />
    <glyph glyph-name="gdotaccent" unicode="&#x121;" horiz-adv-x="478" 
d="M223 -195c-155 0 -225 46 -225 119c0 58 39 86 89 103v5c-32 14 -55 42 -55 87c0 46 27 79 62 104c-38 23 -69 66 -69 132v16c0 110 82 169 203 169c33 0 63 -3 87 -9h156v-96h-59c8 -15 16 -35 16 -62v-14c0 -109 -77 -166 -197 -166c-25 0 -48 2 -65 6
c-6 -7 -10 -18 -10 -28c0 -19 10 -28 37 -28h114c113 0 169 -52 169 -153c0 -116 -80 -185 -253 -185zM226 -93c74 0 100 21 100 55c0 29 -18 44 -63 44h-88c-20 -9 -36 -28 -36 -52c0 -30 25 -47 87 -47zM229 285c33 0 50 21 50 73v12c0 59 -18 78 -51 78
c-35 0 -51 -23 -51 -76v-12c0 -54 17 -75 52 -75zM156 590v131h161v-131h-161z" />
    <glyph glyph-name="hbar" unicode="&#x127;" horiz-adv-x="505" 
d="M-13 590v77h48v68h160v-68h111v-77h-111v-100h4c32 27 77 50 139 50c84 0 133 -38 133 -134v-406h-160v369c0 32 -15 43 -50 43c-26 0 -51 -9 -66 -16v-396h-160v590h-48z" />
    <glyph glyph-name="hcircumflex" unicode="&#x125;" horiz-adv-x="505" 
d="M35 0v735h160v-245h4c32 27 77 50 139 50c84 0 133 -38 133 -134v-406h-160v369c0 32 -15 43 -50 43c-26 0 -51 -9 -66 -16v-396h-160zM100 772l91 128h130l91 -128h-113l-44 44l-41 -44h-114z" />
    <glyph glyph-name="ibreve" unicode="&#x12d;" horiz-adv-x="233" 
d="M116 584c-88 0 -133 55 -134 135h99c2 -25 13 -39 35 -39c23 0 33 14 34 39h101c-2 -80 -47 -135 -135 -135zM37 0v532h160v-532h-160z" />
    <glyph glyph-name="imacron" unicode="&#x12b;" horiz-adv-x="233" 
d="M7 591v105h220v-105h-220zM36 0v532h161v-532h-161z" />
    <glyph glyph-name="iogonek" unicode="&#x12f;" horiz-adv-x="233" 
d="M21 -110c0 50 37 87 72 110h-56v532h160v-529c-29 -23 -52 -51 -52 -78c0 -22 14 -29 33 -29c10 0 19 1 24 2v-82c-14 -7 -43 -12 -71 -12c-70 0 -110 33 -110 86zM36 590v131h162v-131h-162z" />
    <glyph glyph-name="itilde" unicode="&#x129;" horiz-adv-x="233" 
d="M-35 592c8 97 53 135 100 135c42 0 66 -29 87 -29c14 0 20 10 23 28h91c-8 -95 -52 -135 -100 -135c-42 0 -67 29 -88 29c-14 0 -20 -10 -23 -28h-90zM37 0v532h160v-532h-160z" />
    <glyph glyph-name="idotaccent" horiz-adv-x="233" 
d="M37 0v532h160v-532h-160zM36 590v131h162v-131h-162z" />
    <glyph glyph-name="jcircumflex" unicode="&#x135;" horiz-adv-x="234" 
d="M-34 580l84 150h131l84 -150h-112l-37 56l-37 -56h-113zM34 -196c-41 0 -72 9 -89 18v102c8 -1 21 -3 34 -3c39 0 59 17 59 62v549h159v-564c0 -100 -43 -164 -163 -164z" />
    <glyph glyph-name="kcommaaccent" unicode="&#x137;" horiz-adv-x="485" 
d="M169 -180l12 144h140l-43 -144h-109zM195 735v-437l122 234h161l-133 -244l139 -288h-171l-118 261v-261h-160v735h160z" />
    <glyph glyph-name="lacute" unicode="&#x13a;" horiz-adv-x="233" 
d="M50 772l48 133h161l-82 -133h-127zM37 0v735h160v-735h-160z" />
    <glyph glyph-name="lcaron" unicode="&#x13e;" horiz-adv-x="233" 
d="M312 580h-86l6 155h107zM37 0v735h160v-735h-160z" />
    <glyph glyph-name="lcommaaccent" unicode="&#x13c;" horiz-adv-x="234" 
d="M39 -180l12 144h140l-43 -144h-109zM37 0v735h160v-735h-160z" />
    <glyph glyph-name="ldot" unicode="&#x140;" horiz-adv-x="357" 
d="M231 296v124h127v-124h-127zM37 0v735h160v-735h-160z" />
    <glyph glyph-name="nacute" unicode="&#x144;" horiz-adv-x="505" 
d="M181 580l57 151h161l-90 -151h-128zM35 0v532h155v-44h4c34 29 80 52 144 52c85 0 133 -38 133 -134v-406h-160v369c0 32 -15 43 -50 43c-26 0 -51 -9 -66 -16v-396h-160z" />
    <glyph glyph-name="napostrophe" unicode="&#x149;" horiz-adv-x="583" 
d="M-49 479l15 214h148l-42 -214h-121zM112 0v532h155v-44h4c34 29 80 52 144 52c85 0 133 -38 133 -134v-406h-160v369c0 32 -15 43 -50 43c-26 0 -51 -9 -66 -16v-396h-160z" />
    <glyph glyph-name="ncaron" unicode="&#x148;" horiz-adv-x="505" 
d="M415 730l-91 -150h-132l-92 150h114l44 -56l44 56h113zM35 0v532h155v-44h4c34 29 80 52 144 52c85 0 133 -38 133 -134v-406h-160v369c0 32 -15 43 -50 43c-26 0 -51 -9 -66 -16v-396h-160z" />
    <glyph glyph-name="ncommaaccent" unicode="&#x146;" horiz-adv-x="505" 
d="M176 -180l12 144h140l-43 -144h-109zM35 0v532h155v-44h4c34 29 80 52 144 52c85 0 133 -38 133 -134v-406h-160v369c0 32 -15 43 -50 43c-26 0 -51 -9 -66 -16v-396h-160z" />
    <glyph glyph-name="nacute.pl" horiz-adv-x="505" 
d="M193 580l36 151h157l-67 -151h-126zM35 0v532h155v-44h4c34 29 80 52 144 52c85 0 133 -38 133 -134v-406h-160v369c0 32 -15 43 -50 43c-26 0 -51 -9 -66 -16v-396h-160z" />
    <glyph glyph-name="obreve" unicode="&#x14f;" horiz-adv-x="507" 
d="M253 -8c-157 0 -234 96 -234 259v30c0 170 94 259 234 259c155 0 235 -86 235 -256v-29c0 -173 -93 -263 -235 -263zM254 108c47 0 69 40 69 129v55c0 104 -25 132 -71 132c-48 0 -68 -37 -68 -130v-54c0 -99 23 -132 70 -132zM252 582c-89 0 -141 57 -144 138h102
c3 -26 17 -41 42 -41s39 15 42 41h103c-3 -81 -55 -138 -145 -138z" />
    <glyph glyph-name="ohungarumlaut" unicode="&#x151;" horiz-adv-x="507" 
d="M281 580l39 151h143l-61 -151h-121zM103 580l39 151h142l-60 -151h-121zM253 -8c-157 0 -234 96 -234 259v30c0 170 94 259 234 259c155 0 235 -86 235 -256v-29c0 -173 -93 -263 -235 -263zM254 108c47 0 69 40 69 129v55c0 104 -25 132 -71 132c-48 0 -68 -37 -68 -130
v-54c0 -99 23 -132 70 -132z" />
    <glyph glyph-name="omacron" unicode="&#x14d;" horiz-adv-x="507" 
d="M126 591v104h253v-104h-253zM253 -8c-157 0 -234 96 -234 259v30c0 170 94 259 234 259c155 0 235 -86 235 -256v-29c0 -173 -93 -263 -235 -263zM254 108c47 0 69 40 69 129v55c0 104 -25 132 -71 132c-48 0 -68 -37 -68 -130v-54c0 -99 23 -132 70 -132z" />
    <glyph glyph-name="oacute.pl" horiz-adv-x="506" 
d="M187 580l36 151h157l-67 -151h-126zM253 -8c-157 0 -234 96 -234 259v30c0 170 94 259 234 259c155 0 235 -86 235 -256v-29c0 -173 -93 -263 -235 -263zM254 108c47 0 69 40 69 129v55c0 104 -25 132 -71 132c-48 0 -68 -37 -68 -130v-54c0 -99 23 -132 70 -132z" />
    <glyph glyph-name="oslashacute" unicode="&#x1ff;" horiz-adv-x="507" 
d="M254 -8c-54 0 -102 12 -139 38l-23 -30h-89l61 80c-29 41 -45 96 -45 165v36c0 170 94 259 234 259c51 0 98 -12 135 -35l21 27h89l-57 -75c30 -40 48 -96 48 -167v-35c0 -173 -94 -263 -235 -263zM255 101c51 0 75 43 75 136v75l-136 -179c12 -23 33 -32 61 -32z
M178 229l132 174c-13 20 -32 28 -57 28c-53 0 -75 -41 -75 -137v-65zM175 580l57 151h161l-90 -151h-128z" />
    <glyph glyph-name="racute" unicode="&#x155;" horiz-adv-x="340" 
d="M118 580l57 151h161l-90 -151h-128zM35 0v532h155v-59h4c24 40 62 66 109 66c11 0 22 -2 27 -4v-148c-8 2 -26 3 -41 3c-37 0 -69 -7 -94 -21v-369h-160z" />
    <glyph glyph-name="rcaron" unicode="&#x159;" horiz-adv-x="340" 
d="M361 730l-91 -150h-132l-92 150h114l44 -56l44 56h113zM35 0v532h155v-59h4c24 40 62 66 109 66c11 0 22 -2 27 -4v-148c-8 2 -26 3 -41 3c-37 0 -69 -7 -94 -21v-369h-160z" />
    <glyph glyph-name="rcommaaccent" unicode="&#x157;" horiz-adv-x="342" 
d="M35 -180l12 144h140l-43 -144h-109zM35 0v532h155v-59h4c24 40 62 66 109 66c11 0 22 -2 27 -4v-148c-8 2 -26 3 -41 3c-37 0 -69 -7 -94 -21v-369h-160z" />
    <glyph glyph-name="sacute" unicode="&#x15b;" horiz-adv-x="389" 
d="M122 580l57 151h161l-90 -151h-128zM169 -8c-61 0 -117 12 -151 30v112c33 -12 72 -26 126 -26c49 0 74 10 74 40c0 27 -13 35 -50 49l-40 15c-80 30 -112 83 -112 162c0 108 69 166 196 166c60 0 102 -8 134 -23v-112c-30 11 -69 21 -116 21c-42 0 -65 -8 -65 -33
c0 -22 11 -30 49 -43l37 -13c85 -30 121 -72 121 -164c0 -121 -68 -181 -203 -181z" />
    <glyph glyph-name="scedilla" unicode="&#x15f;" horiz-adv-x="389" 
d="M106 -223v64c57 4 81 14 81 36c0 21 -16 27 -60 28v89c-44 4 -83 14 -109 28v112c33 -12 72 -26 126 -26c49 0 74 10 74 40c0 27 -13 35 -50 49l-40 15c-80 30 -112 83 -112 162c0 108 69 166 196 166c60 0 102 -8 134 -23v-112c-30 11 -69 21 -116 21
c-42 0 -65 -8 -65 -33c0 -22 11 -30 49 -43l37 -13c85 -30 121 -72 121 -164c0 -112 -58 -172 -173 -180v-35c63 -4 96 -29 96 -78c0 -63 -56 -98 -189 -103z" />
    <glyph glyph-name="scircumflex" unicode="&#x15d;" horiz-adv-x="389" 
d="M40 580l92 150h132l92 -150h-113l-45 57l-44 -57h-114zM169 -8c-61 0 -117 12 -151 30v112c33 -12 72 -26 126 -26c49 0 74 10 74 40c0 27 -13 35 -50 49l-40 15c-80 30 -112 83 -112 162c0 108 69 166 196 166c60 0 102 -8 134 -23v-112c-30 11 -69 21 -116 21
c-42 0 -65 -8 -65 -33c0 -22 11 -30 49 -43l37 -13c85 -30 121 -72 121 -164c0 -121 -68 -181 -203 -181z" />
    <glyph glyph-name="scommaaccent" unicode="&#x219;" horiz-adv-x="389" 
d="M110 -180l12 144h140l-43 -144h-109zM169 -8c-61 0 -117 12 -151 30v112c33 -12 72 -26 126 -26c49 0 74 10 74 40c0 27 -13 35 -50 49l-40 15c-80 30 -112 83 -112 162c0 108 69 166 196 166c60 0 102 -8 134 -23v-112c-30 11 -69 21 -116 21c-42 0 -65 -8 -65 -33
c0 -22 11 -30 49 -43l37 -13c85 -30 121 -72 121 -164c0 -121 -68 -181 -203 -181z" />
    <glyph glyph-name="sacute.pl" horiz-adv-x="389" 
d="M169 -8c-61 0 -117 12 -151 30v112c33 -12 72 -26 126 -26c49 0 74 10 74 40c0 27 -13 35 -50 49l-40 15c-80 30 -112 83 -112 162c0 108 69 166 196 166c60 0 102 -8 134 -23v-112c-30 11 -69 21 -116 21c-42 0 -65 -8 -65 -33c0 -22 11 -30 49 -43l37 -13
c85 -30 121 -72 121 -164c0 -121 -68 -181 -203 -181zM132 580l36 151h157l-67 -151h-126z" />
    <glyph glyph-name="tbar" unicode="&#x167;" horiz-adv-x="333" 
d="M9 265v83h56v69h-56v115h56v121h160v-121h88v-115h-88v-69h88v-83h-88v-108c0 -33 13 -43 46 -43c17 0 32 3 43 6v-105c-18 -12 -56 -22 -103 -22c-94 0 -146 33 -146 135v137h-56z" />
    <glyph glyph-name="tcaron" unicode="&#x165;" horiz-adv-x="333" 
d="M347 580h-86l6 155h107zM211 -7c-94 0 -146 33 -146 135v289h-56v115h56v121h160v-121h88v-115h-88v-260c0 -33 13 -43 46 -43c17 0 32 3 43 6v-105c-18 -12 -56 -22 -103 -22z" />
    <glyph glyph-name="tcommaaccent" unicode="&#x163;" horiz-adv-x="333" 
d="M114 -180l12 144h140l-43 -144h-109zM211 -7c-94 0 -146 33 -146 135v289h-56v115h56v121h160v-121h88v-115h-88v-260c0 -33 13 -43 46 -43c17 0 32 3 43 6v-105c-18 -12 -56 -22 -103 -22z" />
    <glyph glyph-name="uni021B" unicode="&#x21b;" horiz-adv-x="333" 
d="M114 -180l12 144h140l-43 -144h-109zM211 -7c-94 0 -146 33 -146 135v289h-56v115h56v121h160v-121h88v-115h-88v-260c0 -33 13 -43 46 -43c17 0 32 3 43 6v-105c-18 -12 -56 -22 -103 -22z" />
    <glyph glyph-name="ubreve" unicode="&#x16d;" horiz-adv-x="501" 
d="M171 -8c-90 0 -137 46 -137 144v396h160v-369c0 -31 13 -44 50 -44c24 0 48 9 62 16v397h160v-532h-140l-11 45h-4c-34 -27 -78 -53 -140 -53zM251 582c-89 0 -141 57 -144 138h102c3 -26 17 -41 42 -41s39 15 42 41h103c-3 -81 -55 -138 -145 -138z" />
    <glyph glyph-name="uhungarumlaut" unicode="&#x171;" horiz-adv-x="501" 
d="M171 -8c-90 0 -137 46 -137 144v396h160v-369c0 -31 13 -44 50 -44c24 0 48 9 62 16v397h160v-532h-140l-11 45h-4c-34 -27 -78 -53 -140 -53zM277 580l39 151h143l-61 -151h-121zM99 580l39 151h142l-60 -151h-121z" />
    <glyph glyph-name="umacron" unicode="&#x16b;" horiz-adv-x="501" 
d="M171 -8c-90 0 -137 46 -137 144v396h160v-369c0 -31 13 -44 50 -44c24 0 48 9 62 16v397h160v-532h-140l-11 45h-4c-34 -27 -78 -53 -140 -53zM125 591v104h253v-104h-253z" />
    <glyph glyph-name="uogonek" unicode="&#x173;" horiz-adv-x="501" 
d="M466 532v-528c-29 -24 -53 -52 -53 -79c0 -22 14 -29 34 -29c10 0 19 1 23 2v-82c-13 -7 -42 -12 -70 -12c-71 0 -111 33 -111 86s39 87 78 110h-41l-11 45h-4c-34 -27 -78 -53 -140 -53c-90 0 -137 46 -137 144v396h160v-369c0 -31 13 -44 50 -44c24 0 48 9 62 16v397
h160z" />
    <glyph glyph-name="uring" unicode="&#x16f;" horiz-adv-x="501" 
d="M251 575c-63 0 -109 41 -109 103c0 61 45 103 109 103c63 0 109 -41 109 -102c0 -62 -46 -104 -109 -104zM251 636c23 0 39 16 39 42c0 25 -16 41 -39 41s-38 -15 -38 -41c0 -25 15 -42 38 -42zM171 -8c-90 0 -137 46 -137 144v396h160v-369c0 -31 13 -44 50 -44
c24 0 48 9 62 16v397h160v-532h-140l-11 45h-4c-34 -27 -78 -53 -140 -53z" />
    <glyph glyph-name="utilde" unicode="&#x169;" horiz-adv-x="501" 
d="M171 -8c-90 0 -137 46 -137 144v396h160v-369c0 -31 13 -44 50 -44c24 0 48 9 62 16v397h160v-532h-140l-11 45h-4c-34 -27 -78 -53 -140 -53zM88 589c6 94 52 135 108 135c50 0 72 -30 101 -30c15 0 24 11 27 30h91c-7 -91 -53 -135 -110 -135c-47 0 -72 30 -99 30
c-16 0 -24 -11 -26 -30h-92z" />
    <glyph glyph-name="wacute" unicode="&#x1e83;" horiz-adv-x="687" 
d="M278 580l57 151h161l-90 -151h-128zM126 0l-120 532h160l39 -208c12 -69 19 -119 19 -119h2s9 49 23 119l42 208h127l43 -208c14 -70 22 -119 22 -119h3s7 52 19 120l38 207h138l-118 -532h-154l-39 174c-14 64 -26 131 -26 131h-2s-11 -69 -25 -131l-40 -174h-151z" />
    <glyph glyph-name="wcircumflex" unicode="&#x175;" horiz-adv-x="687" 
d="M195 580l92 150h132l92 -150h-113l-45 57l-44 -57h-114zM126 0l-120 532h160l39 -208c12 -69 19 -119 19 -119h2s9 49 23 119l42 208h127l43 -208c14 -70 22 -119 22 -119h3s7 52 19 120l38 207h138l-118 -532h-154l-39 174c-14 64 -26 131 -26 131h-2s-11 -69 -25 -131
l-40 -174h-151z" />
    <glyph glyph-name="wdieresis" unicode="&#x1e85;" horiz-adv-x="687" 
d="M381 590v127h134v-127h-134zM195 590v127h134v-127h-134zM126 0l-120 532h160l39 -208c12 -69 19 -119 19 -119h2s9 49 23 119l42 208h127l43 -208c14 -70 22 -119 22 -119h3s7 52 19 120l38 207h138l-118 -532h-154l-39 174c-14 64 -26 131 -26 131h-2s-11 -69 -25 -131
l-40 -174h-151z" />
    <glyph glyph-name="wgrave" unicode="&#x1e81;" horiz-adv-x="687" 
d="M126 0l-120 532h160l39 -208c12 -69 19 -119 19 -119h2s9 49 23 119l42 208h127l43 -208c14 -70 22 -119 22 -119h3s7 52 19 120l38 207h138l-118 -532h-154l-39 174c-14 64 -26 131 -26 131h-2s-11 -69 -25 -131l-40 -174h-151zM299 580l-89 151h160l57 -151h-128z" />
    <glyph glyph-name="ycircumflex" unicode="&#x177;" horiz-adv-x="481" 
d="M124 -196c-31 0 -67 6 -88 13v109c14 -2 34 -5 49 -5c41 0 63 13 75 53l8 27l-167 531h167l57 -221c14 -59 22 -110 22 -110h4s11 60 23 109l54 222h151l-170 -580c-31 -103 -79 -148 -185 -148zM88 580l92 150h132l92 -150h-113l-45 57l-44 -57h-114z" />
    <glyph glyph-name="ygrave" unicode="&#x1ef3;" horiz-adv-x="481" 
d="M124 -196c-31 0 -67 6 -88 13v109c14 -2 34 -5 49 -5c41 0 63 13 75 53l8 27l-167 531h167l57 -221c14 -59 22 -110 22 -110h4s11 60 23 109l54 222h151l-170 -580c-31 -103 -79 -148 -185 -148zM194 580l-89 151h160l57 -151h-128z" />
    <glyph glyph-name="zacute" unicode="&#x17a;" horiz-adv-x="417" 
d="M139 580l57 151h161l-90 -151h-128zM20 0v114l190 300v3h-184v115h372v-105l-198 -308v-3h195v-116h-375z" />
    <glyph glyph-name="zacute.pl" horiz-adv-x="417" 
d="M150 580l36 151h157l-67 -151h-126zM20 0v114l190 300v3h-184v115h372v-105l-198 -308v-3h195v-116h-375z" />
    <glyph glyph-name="zdotaccent" unicode="&#x17c;" horiz-adv-x="417" 
d="M20 0v114l190 300v3h-184v115h372v-105l-198 -308v-3h195v-116h-375zM135 590v131h161v-131h-161z" />
    <glyph glyph-name="oneeighth" unicode="&#x215b;" horiz-adv-x="770" 
d="M588 -5c-108 0 -158 43 -158 109c0 47 29 80 74 99c-35 21 -61 51 -61 107c0 71 54 119 153 119c96 0 145 -45 145 -109c0 -46 -27 -76 -65 -92c51 -25 75 -54 75 -110c0 -79 -62 -123 -163 -123zM586 72c30 0 47 14 47 40c0 28 -17 42 -64 57c-18 -12 -32 -28 -32 -54
c0 -27 18 -43 49 -43zM608 262c16 11 29 26 29 49s-13 39 -41 39c-27 0 -39 -15 -39 -36c0 -24 15 -38 51 -52zM76 271v308l-63 -7v72l111 50h79v-423h-127zM65 -40l431 753h109l-432 -753h-108z" />
    <glyph glyph-name="onethird" unicode="&#x2153;" horiz-adv-x="753" 
d="M573 -6c-55 0 -92 10 -114 22v82c20 -7 47 -13 74 -13c47 0 67 14 67 47c0 31 -17 44 -52 44h-39v79h37c36 0 52 14 52 42c0 29 -17 41 -61 41c-24 0 -50 -4 -68 -9v81c24 10 62 19 110 19c90 0 142 -37 142 -107c0 -57 -28 -87 -70 -99v-2c51 -9 80 -35 80 -101
c0 -80 -56 -126 -158 -126zM77 271v308l-63 -7v72l111 50h79v-423h-127zM65 -40l431 753h109l-432 -753h-108z" />
    <glyph glyph-name="threeeighths" unicode="&#x215c;" horiz-adv-x="806" 
d="M624 -5c-108 0 -158 43 -158 109c0 47 29 80 74 99c-35 21 -61 51 -61 107c0 71 54 119 153 119c96 0 145 -45 145 -109c0 -46 -27 -76 -65 -92c51 -25 75 -54 75 -110c0 -79 -62 -123 -163 -123zM622 72c30 0 47 14 47 40c0 28 -17 42 -64 57c-18 -12 -32 -28 -32 -54
c0 -27 18 -43 49 -43zM644 262c16 11 29 26 29 49s-13 39 -41 39c-27 0 -39 -15 -39 -36c0 -24 15 -38 51 -52zM108 -40l431 753h109l-432 -753h-108zM134 265c-55 0 -92 10 -114 22v82c20 -7 47 -13 74 -13c47 0 67 14 67 47c0 31 -17 43 -52 43h-39v80h37
c36 0 52 14 52 42s-17 41 -61 41c-24 0 -50 -5 -68 -9v81c24 10 62 18 110 18c90 0 142 -36 142 -106c0 -57 -28 -87 -70 -99v-2c51 -9 80 -35 80 -101c0 -80 -56 -126 -158 -126z" />
    <glyph glyph-name="fiveeighths" unicode="&#x215d;" horiz-adv-x="799" 
d="M616 -5c-108 0 -158 43 -158 109c0 47 29 80 74 99c-35 21 -61 51 -61 107c0 71 54 119 153 119c96 0 145 -45 145 -109c0 -46 -27 -76 -65 -92c51 -25 75 -54 75 -110c0 -79 -62 -123 -163 -123zM614 72c30 0 47 14 47 40c0 28 -17 42 -64 57c-18 -12 -32 -28 -32 -54
c0 -27 18 -43 49 -43zM636 262c16 11 29 26 29 49s-13 39 -41 39c-27 0 -39 -15 -39 -36c0 -24 15 -38 51 -52zM133 265c-55 0 -92 10 -115 21v84c20 -7 46 -12 75 -12c50 0 68 18 68 51c0 35 -16 50 -72 50c-22 0 -40 -2 -57 -5l11 239h229v-92h-138l-3 -67c9 2 18 4 37 4
c84 0 122 -42 122 -129c0 -91 -58 -144 -157 -144zM102 -40l431 753h109l-432 -753h-108z" />
    <glyph glyph-name="twothirds" unicode="&#x2154;" horiz-adv-x="816" 
d="M637 -6c-55 0 -92 10 -114 22v82c20 -7 47 -13 74 -13c47 0 67 14 67 47c0 31 -17 44 -52 44h-39v79h37c36 0 52 14 52 42c0 29 -17 41 -61 41c-24 0 -50 -4 -68 -9v81c24 10 62 19 110 19c90 0 142 -37 142 -107c0 -57 -28 -87 -70 -99v-2c51 -9 80 -35 80 -101
c0 -80 -56 -126 -158 -126zM18 271v79l75 87c36 39 57 69 57 109c0 41 -20 59 -58 59c-30 0 -54 -9 -69 -15v87c23 11 61 22 116 22c98 0 144 -49 144 -133c0 -64 -29 -110 -81 -159l-43 -44v-2h126v-90h-267zM137 -40l431 753h109l-432 -753h-108z" />
    <glyph glyph-name="seveneighths" unicode="&#x215e;" horiz-adv-x="775" 
d="M593 -5c-108 0 -158 43 -158 109c0 47 29 80 74 99c-35 21 -61 51 -61 107c0 71 54 119 153 119c96 0 145 -45 145 -109c0 -46 -27 -76 -65 -92c51 -25 75 -54 75 -110c0 -79 -62 -123 -163 -123zM591 72c30 0 47 14 47 40c0 28 -17 42 -64 57c-18 -12 -32 -28 -32 -54
c0 -27 18 -43 49 -43zM613 262c16 11 29 26 29 49s-13 39 -41 39c-27 0 -39 -15 -39 -36c0 -24 15 -38 51 -52zM38 271l124 321v2h-143v99h274v-80l-121 -342h-134zM70 -40l431 753h109l-432 -753h-108z" />
    <glyph glyph-name="uni24C5" unicode="&#x24c5;" horiz-adv-x="669" 
d="M335 -11c-184 0 -311 132 -311 356s128 356 311 356c182 0 311 -132 311 -356c0 -218 -128 -356 -311 -356zM335 42c151 0 250 107 250 303c0 194 -100 303 -251 303c-152 0 -249 -109 -249 -303c0 -196 98 -303 250 -303zM209 158v379h151c87 0 131 -42 131 -127
c0 -87 -43 -136 -130 -136h-43v-116h-109zM317 351h26c27 0 40 15 40 53c0 40 -14 50 -41 50h-25v-103z" />
    <glyph glyph-name="dollar.old" horiz-adv-x="461" 
d="M111 -106l19 102c-46 6 -84 18 -108 33v117c40 -16 83 -29 129 -34l29 155c-97 22 -161 73 -161 192c0 115 69 196 219 196h14l12 61h73l-13 -67c41 -6 68 -16 87 -27v-117c-28 11 -65 23 -108 29l-27 -142c112 -26 166 -74 166 -190c0 -138 -83 -211 -232 -211h-9
l-18 -97h-72zM293 182c0 35 -10 53 -44 66l-26 -138c48 6 70 29 70 72zM162 472c0 -32 10 -50 45 -62l24 128c-48 -3 -69 -24 -69 -66z" />
    <glyph glyph-name="Euro.old" horiz-adv-x="488" 
d="M15 346v86h52c25 169 132 222 263 222c60 0 107 -11 137 -26v-115c-28 10 -61 17 -103 17c-70 0 -111 -23 -124 -98h156v-86h-160v-50h160v-86h-154c13 -67 48 -97 120 -97c50 0 83 11 108 22v-115c-28 -15 -80 -29 -140 -29c-153 0 -242 61 -264 219h-51v86h46v50h-46z
" />
    <glyph glyph-name="sterling.old" horiz-adv-x="445" 
d="M22 266v110h52v74c0 148 89 204 219 204c62 0 104 -11 126 -23v-115c-22 6 -50 11 -83 11c-61 0 -99 -24 -99 -93v-58h127v-110h-127v-10c0 -72 -20 -106 -60 -132v-2h251v-122h-411v112c36 20 57 48 57 107v47h-52z" />
    <glyph glyph-name="yen.old" horiz-adv-x="504" 
d="M170 0v97h-124v102h124v48h-124v102h89l-134 295h173l50 -130c23 -60 38 -115 38 -115h2s15 55 38 115l49 130h153l-133 -295h89v-102h-124v-48h124v-102h-124v-97h-166z" />
    <glyph glyph-name="zero.old" horiz-adv-x="540" 
d="M270 -10c-153 0 -250 90 -250 290v37c0 200 105 290 250 290c151 0 250 -85 250 -286v-37c0 -208 -110 -294 -250 -294zM271 110c55 0 77 42 77 152v69c0 118 -25 156 -78 156c-54 0 -77 -40 -77 -152v-69c0 -111 22 -156 78 -156z" />
    <glyph glyph-name="one.old" horiz-adv-x="326" 
d="M112 0v432l-96 -10v99l167 77h94v-598h-165z" />
    <glyph glyph-name="two.old" 
d="M13 0v108l112 118c73 76 98 111 98 166c0 50 -26 80 -89 80c-45 0 -82 -10 -109 -22v115c33 19 92 38 175 38c131 0 202 -65 202 -182c0 -101 -48 -161 -133 -237l-69 -62v-3h204v-119h-391z" />
    <glyph glyph-name="three.old" horiz-adv-x="443" 
d="M183 -109c-78 0 -134 17 -169 36v113c32 -12 76 -22 120 -22c75 0 112 29 112 94c0 61 -34 86 -95 86h-57v112h55c62 0 91 28 91 82c0 60 -30 85 -98 85c-44 0 -83 -9 -110 -18v113c37 16 95 31 164 31c133 0 208 -59 208 -175c0 -92 -43 -141 -110 -161v-3
c78 -16 127 -60 127 -167c0 -131 -89 -206 -238 -206z" />
    <glyph glyph-name="four.old" horiz-adv-x="539" 
d="M285 -101v149h-271v107l275 437h158v-426h79v-117h-79v-150h-162zM146 166h140v222h-4l-136 -219v-3z" />
    <glyph glyph-name="five.old" horiz-adv-x="441" 
d="M181 -109c-82 0 -133 16 -168 34v114c31 -11 69 -20 119 -20c78 0 114 35 114 104c0 70 -33 97 -122 97c-35 0 -63 -3 -91 -8l17 381h353v-125h-229l-8 -142c15 4 34 7 63 7c128 0 192 -66 192 -206c0 -146 -89 -236 -240 -236z" />
    <glyph glyph-name="six.old" horiz-adv-x="518" 
d="M275 -10c-167 0 -252 107 -252 306v46c0 265 120 361 295 361c70 0 117 -12 142 -25v-116c-23 8 -66 15 -110 15c-102 0 -151 -45 -155 -178c27 20 69 37 125 37c113 0 181 -65 181 -202c0 -141 -77 -244 -226 -244zM270 102c44 0 64 39 64 120c0 84 -24 107 -73 107
c-29 0 -53 -10 -65 -18v-44c0 -120 23 -165 74 -165z" />
    <glyph glyph-name="seven.old" horiz-adv-x="435" 
d="M50 -100l203 561v4h-238v128h403v-113l-191 -580h-177z" />
    <glyph glyph-name="eight.old" horiz-adv-x="513" 
d="M250 -9c-151 0 -230 70 -230 178c0 79 45 138 117 170c-55 35 -99 81 -99 172c0 118 84 192 225 192c140 0 213 -64 213 -176c0 -75 -42 -127 -102 -155c79 -40 120 -89 120 -181c0 -121 -87 -200 -244 -200zM248 102c53 0 82 31 82 78c0 49 -26 80 -106 110
c-31 -22 -58 -58 -58 -107c0 -50 30 -81 82 -81zM282 422c30 22 51 51 51 95c0 42 -21 73 -69 73c-43 0 -66 -27 -66 -69c0 -47 24 -72 84 -99z" />
    <glyph glyph-name="nine.old" horiz-adv-x="519" 
d="M202 -110c-72 0 -122 13 -146 27v115c23 -7 68 -16 113 -16c107 0 151 48 154 178c-25 -19 -69 -36 -121 -36c-116 0 -184 65 -184 201c0 141 76 244 230 244c161 0 248 -97 248 -307v-45c0 -262 -115 -361 -294 -361zM259 264c28 0 52 11 64 18v46
c0 121 -24 162 -75 162c-43 0 -64 -37 -64 -119c0 -84 25 -107 75 -107z" />
    <glyph glyph-name="percent.old" horiz-adv-x="787" 
d="M177 285c-97 0 -160 56 -160 174v9c0 118 65 177 160 177c94 0 161 -56 161 -174v-8c0 -115 -64 -178 -161 -178zM609 -8c-97 0 -160 56 -160 174v8c0 119 65 178 160 178c94 0 161 -56 161 -174v-9c0 -115 -64 -177 -161 -177zM157 -33l357 686h108l-356 -686h-109z
M610 74c31 0 41 21 41 85v24c0 63 -11 86 -42 86c-30 0 -41 -22 -41 -85v-24c0 -64 11 -86 42 -86zM177 367c32 0 42 21 42 85v24c0 64 -11 86 -42 86c-30 0 -41 -22 -41 -85v-24c0 -64 10 -86 41 -86z" />
    <glyph glyph-name="perthousand.old" horiz-adv-x="1136" 
d="M177 285c-97 0 -160 56 -160 174v9c0 118 65 177 160 177c94 0 161 -56 161 -174v-8c0 -115 -64 -178 -161 -178zM609 -8c-97 0 -160 56 -160 174v8c0 119 65 178 160 178c94 0 161 -56 161 -174v-9c0 -115 -64 -177 -161 -177zM157 -33l357 686h108l-356 -686h-109z
M610 74c31 0 41 21 41 85v24c0 63 -11 86 -42 86c-30 0 -41 -22 -41 -85v-24c0 -64 11 -86 42 -86zM177 367c32 0 42 21 42 85v24c0 64 -11 86 -42 86c-30 0 -41 -22 -41 -85v-24c0 -64 10 -86 41 -86zM958 -8c-96 0 -160 56 -160 174v8c0 119 65 178 161 178
c93 0 160 -56 160 -174v-9c0 -115 -65 -177 -161 -177zM959 74c31 0 42 21 42 85v24c0 63 -12 86 -42 86c-31 0 -42 -22 -42 -85v-24c0 -64 11 -86 42 -86z" />
    <glyph glyph-name="plus.old" horiz-adv-x="473" 
d="M166 97v149h-134v131h134v148h138v-148h136v-131h-136v-149h-138z" />
    <glyph glyph-name="minus.old" horiz-adv-x="469" 
d="M32 246v131h403v-131h-403z" />
    <glyph glyph-name="multiply.old" horiz-adv-x="482" 
d="M124 91l-90 90l116 121l-116 118l93 92l113 -117l114 117l92 -91l-116 -119l117 -120l-92 -91l-116 119z" />
    <glyph glyph-name="divide.old" horiz-adv-x="462" 
d="M32 249v128h397v-128h-397zM155 65v141h150v-141h-150zM155 418v143h150v-143h-150z" />
    <glyph glyph-name="equal.old" horiz-adv-x="452" 
d="M33 316v124h383v-124h-383zM33 120v126h383v-126h-383z" />
    <glyph glyph-name="less.old" horiz-adv-x="413" 
d="M372 62l-339 170v123l339 170v-140l-198 -91l198 -91v-141z" />
    <glyph glyph-name="greater.old" horiz-adv-x="413" 
d="M38 62v141l199 92l-199 90v140l340 -170v-123z" />
    <glyph glyph-name="numbersign.old" horiz-adv-x="473" 
d="M58 0l20 159h-58v120h72l13 97h-59v119h73l20 148h103l-19 -148h72l18 148h104l-20 -148h58v-119h-73l-12 -97h60v-120h-75l-20 -159h-102l20 159h-73l-20 -159h-102zM195 279h72l13 97h-72z" />
    <glyph glyph-name="zero.num" horiz-adv-x="387" 
d="M193 265c-106 0 -174 57 -174 202v31c0 141 71 201 174 201c105 0 175 -53 175 -198v-31c0 -144 -75 -205 -175 -205zM194 355c34 0 45 26 45 100v53c0 80 -14 103 -46 103c-33 0 -45 -25 -45 -100v-52c0 -76 12 -104 46 -104z" />
    <glyph glyph-name="one.num" horiz-adv-x="241" 
d="M76 271v308l-63 -7v72l111 50h79v-423h-127z" />
    <glyph glyph-name="two.num" horiz-adv-x="304" 
d="M16 271v79l75 87c36 39 57 69 57 109c0 41 -20 59 -58 59c-30 0 -54 -9 -69 -15v87c23 11 61 22 116 22c98 0 144 -49 144 -133c0 -64 -29 -110 -81 -159l-43 -44v-2h126v-90h-267z" />
    <glyph glyph-name="three.num" horiz-adv-x="310" 
d="M132 265c-55 0 -92 10 -114 22v82c20 -7 47 -13 74 -13c47 0 67 14 67 47c0 31 -17 43 -52 43h-39v80h37c36 0 52 14 52 42s-17 41 -61 41c-24 0 -50 -5 -68 -9v81c24 10 62 18 110 18c90 0 142 -36 142 -106c0 -57 -28 -87 -70 -99v-2c51 -9 80 -35 80 -101
c0 -80 -56 -126 -158 -126z" />
    <glyph glyph-name="four.num" horiz-adv-x="352" 
d="M170 271v85h-158v79l161 258h118v-252h46v-85h-46v-85h-121zM102 439h72v117h-2l-70 -114v-3z" />
    <glyph glyph-name="five.num" horiz-adv-x="312" 
d="M133 265c-55 0 -92 10 -115 21v84c20 -7 46 -12 75 -12c50 0 68 18 68 51c0 35 -16 50 -72 50c-22 0 -40 -2 -57 -5l11 239h229v-92h-138l-3 -67c9 2 18 4 37 4c84 0 122 -42 122 -129c0 -91 -58 -144 -157 -144z" />
    <glyph glyph-name="six.num" horiz-adv-x="357" 
d="M189 266c-115 0 -170 66 -170 187v31c0 157 77 215 198 215c51 0 84 -7 100 -15v-86c-15 5 -47 10 -78 10c-65 0 -93 -21 -95 -87c16 10 41 19 79 19c79 0 119 -41 119 -127c0 -85 -43 -147 -153 -147zM186 346c24 0 38 19 38 61c0 45 -14 60 -43 60c-16 0 -30 -5 -37 -9
v-30c0 -59 14 -82 42 -82z" />
    <glyph glyph-name="seven.num" horiz-adv-x="307" 
d="M34 271l124 321v2h-143v99h274v-80l-121 -342h-134z" />
    <glyph glyph-name="eight.num" horiz-adv-x="353" 
d="M174 265c-108 0 -158 44 -158 111c0 46 29 78 74 98c-35 21 -61 51 -61 107c0 71 54 118 153 118c96 0 145 -43 145 -109c0 -45 -27 -74 -65 -92c51 -24 75 -53 75 -108c0 -80 -62 -125 -163 -125zM172 343c30 0 47 15 47 41c0 27 -17 41 -64 57c-18 -13 -32 -29 -32 -55
c0 -27 18 -43 49 -43zM194 533c16 12 29 26 29 50c0 22 -13 38 -41 38c-27 0 -39 -15 -39 -36c0 -24 15 -37 51 -52z" />
    <glyph glyph-name="nine.num" horiz-adv-x="358" 
d="M169 699c113 0 170 -59 170 -183v-34c0 -156 -73 -216 -199 -216c-52 0 -85 8 -101 17v84c17 -5 48 -11 80 -11c67 0 94 21 95 87c-16 -10 -42 -18 -78 -18c-79 0 -121 44 -121 127c0 86 44 147 154 147zM172 620c-25 0 -38 -19 -38 -61c0 -45 14 -60 43 -60
c16 0 30 5 36 9v29c0 62 -14 83 -41 83z" />
    <glyph glyph-name="zero.den" horiz-adv-x="387" 
d="M193 -5c-106 0 -174 57 -174 201v31c0 142 71 202 174 202c105 0 175 -54 175 -199v-30c0 -145 -75 -205 -175 -205zM194 85c34 0 45 25 45 100v53c0 80 -14 103 -46 103c-33 0 -45 -25 -45 -100v-53c0 -75 12 -103 46 -103z" />
    <glyph glyph-name="one.den" horiz-adv-x="241" 
d="M76 0v309l-63 -7v72l111 49h79v-423h-127z" />
    <glyph glyph-name="two.den" horiz-adv-x="304" 
d="M16 0v79l75 87c36 39 57 69 57 109c0 41 -20 59 -58 59c-30 0 -54 -8 -69 -15v87c23 11 61 23 116 23c98 0 144 -50 144 -133c0 -65 -29 -111 -81 -159l-43 -45v-2h126v-90h-267z" />
    <glyph glyph-name="three.den" horiz-adv-x="310" 
d="M132 -6c-55 0 -92 10 -114 22v82c20 -7 47 -13 74 -13c47 0 67 14 67 47c0 31 -17 44 -52 44h-39v79h37c36 0 52 14 52 42c0 29 -17 41 -61 41c-24 0 -50 -4 -68 -9v81c24 10 62 19 110 19c90 0 142 -37 142 -107c0 -57 -28 -87 -70 -99v-2c51 -9 80 -35 80 -101
c0 -80 -56 -126 -158 -126z" />
    <glyph glyph-name="four.den" horiz-adv-x="351" 
d="M170 0v87h-158v78l161 257h118v-251h46v-84h-46v-87h-121zM104 169h69v115h-2l-67 -112v-3z" />
    <glyph glyph-name="five.den" horiz-adv-x="312" 
d="M133 -5c-55 0 -92 9 -115 20v84c20 -7 46 -12 75 -12c47 0 66 18 66 51c0 35 -17 50 -70 50c-22 0 -40 -2 -57 -5l11 239h229v-92h-138l-3 -67c9 2 18 3 37 3c84 0 122 -41 122 -127c0 -92 -58 -144 -157 -144z" />
    <glyph glyph-name="six.den" horiz-adv-x="357" 
d="M189 -4c-115 0 -170 65 -170 186v31c0 157 77 216 198 216c51 0 84 -8 100 -16v-85c-15 5 -47 9 -78 9c-65 0 -93 -20 -95 -86c16 10 41 19 79 19c79 0 119 -43 119 -127c0 -85 -43 -147 -153 -147zM186 75c24 0 38 19 38 61c0 45 -14 60 -43 60c-16 0 -30 -5 -37 -9v-29
c0 -60 14 -83 42 -83z" />
    <glyph glyph-name="seven.den" horiz-adv-x="307" 
d="M34 0l124 321v3h-143v98h274v-80l-121 -342h-134z" />
    <glyph glyph-name="eight.den" horiz-adv-x="353" 
d="M174 -5c-108 0 -158 43 -158 109c0 47 29 80 74 99c-35 21 -61 51 -61 107c0 71 54 119 153 119c96 0 145 -45 145 -109c0 -46 -27 -76 -65 -92c51 -25 75 -54 75 -110c0 -79 -62 -123 -163 -123zM172 72c30 0 47 14 47 40c0 28 -17 42 -64 57c-18 -12 -32 -28 -32 -54
c0 -27 18 -43 49 -43zM194 262c16 11 29 26 29 49s-13 39 -41 39c-27 0 -39 -15 -39 -36c0 -24 15 -38 51 -52z" />
    <glyph glyph-name="nine.den" horiz-adv-x="358" 
d="M169 429c113 0 170 -60 170 -184v-33c0 -157 -73 -216 -199 -216c-52 0 -85 8 -101 16v84c17 -5 48 -10 80 -10c67 0 94 21 95 87c-16 -10 -42 -19 -78 -19c-79 0 -121 44 -121 128c0 86 44 147 154 147zM172 349c-25 0 -38 -19 -38 -61c0 -45 14 -60 43 -60
c16 0 30 6 36 9v30c0 61 -14 82 -41 82z" />
    <glyph glyph-name="zero.sub" horiz-adv-x="387" 
d="M193 -125c-106 0 -174 57 -174 201v30c0 143 71 203 174 203c105 0 175 -53 175 -199v-31c0 -144 -75 -204 -175 -204zM194 -35c34 0 45 26 45 100v53c0 79 -14 102 -46 102c-33 0 -45 -24 -45 -99v-53c0 -76 12 -103 46 -103z" />
    <glyph glyph-name="one.sub" horiz-adv-x="241" 
d="M76 -120v309l-63 -7v72l111 49h79v-423h-127z" />
    <glyph glyph-name="two.sub" horiz-adv-x="303" 
d="M16 -120v79l74 87c36 39 57 69 57 109c0 41 -20 59 -58 59c-30 0 -54 -8 -69 -15v87c23 11 61 23 116 23c98 0 144 -50 144 -133c0 -65 -29 -111 -81 -159l-43 -45v-2h126v-90h-266z" />
    <glyph glyph-name="three.sub" horiz-adv-x="310" 
d="M132 -126c-55 0 -92 10 -114 22v82c20 -7 47 -13 74 -13c47 0 67 14 67 47c0 31 -17 44 -52 44h-39v79h37c36 0 52 13 52 42s-17 41 -61 41c-24 0 -50 -4 -68 -10v81c24 11 62 20 110 20c90 0 142 -37 142 -108c0 -56 -28 -86 -70 -98v-2c51 -9 80 -35 80 -101
c0 -80 -56 -126 -158 -126z" />
    <glyph glyph-name="four.sub" horiz-adv-x="351" 
d="M170 -120v87h-158v78l161 257h118v-251h46v-84h-46v-87h-121zM104 49h69v115h-2l-67 -112v-3z" />
    <glyph glyph-name="five.sub" horiz-adv-x="312" 
d="M133 -125c-55 0 -92 9 -115 20v84c20 -7 46 -12 75 -12c47 0 66 18 66 51c0 35 -17 50 -70 50c-22 0 -40 -2 -57 -5l11 239h229v-92h-138l-3 -67c9 2 18 3 37 3c84 0 122 -41 122 -127c0 -92 -58 -144 -157 -144z" />
    <glyph glyph-name="six.sub" horiz-adv-x="357" 
d="M189 -124c-115 0 -170 65 -170 186v31c0 157 77 216 198 216c51 0 84 -8 100 -16v-85c-15 5 -47 9 -78 9c-65 0 -93 -20 -95 -86c16 10 41 19 79 19c79 0 119 -43 119 -127c0 -85 -43 -147 -153 -147zM186 -45c24 0 38 19 38 61c0 45 -14 60 -43 60c-16 0 -30 -5 -37 -9
v-29c0 -60 14 -83 42 -83z" />
    <glyph glyph-name="seven.sub" horiz-adv-x="307" 
d="M34 -120l124 321v3h-143v98h274v-80l-121 -342h-134z" />
    <glyph glyph-name="eight.sub" horiz-adv-x="353" 
d="M174 -125c-108 0 -158 43 -158 109c0 47 29 80 74 99c-35 21 -61 51 -61 107c0 71 54 119 153 119c96 0 145 -45 145 -109c0 -46 -27 -76 -65 -92c51 -25 75 -54 75 -110c0 -79 -62 -123 -163 -123zM172 -48c30 0 47 14 47 40c0 28 -17 42 -64 57
c-18 -12 -32 -28 -32 -54c0 -27 18 -43 49 -43zM194 142c16 11 29 26 29 49s-13 39 -41 39c-27 0 -39 -15 -39 -36c0 -24 15 -38 51 -52z" />
    <glyph glyph-name="nine.sub" horiz-adv-x="358" 
d="M169 309c113 0 170 -60 170 -184v-33c0 -157 -73 -216 -199 -216c-52 0 -85 8 -101 16v84c17 -5 48 -10 80 -10c67 0 94 21 95 87c-16 -10 -42 -19 -78 -19c-79 0 -121 44 -121 128c0 86 44 147 154 147zM172 229c-25 0 -38 -19 -38 -61c0 -45 14 -60 43 -60
c16 0 30 6 36 9v30c0 61 -14 82 -41 82z" />
    <glyph glyph-name="zero.sup" horiz-adv-x="387" 
d="M193 317c-106 0 -174 57 -174 201v30c0 143 71 203 174 203c105 0 175 -54 175 -199v-31c0 -145 -75 -204 -175 -204zM194 406c34 0 45 26 45 101v53c0 79 -14 102 -46 102c-33 0 -45 -25 -45 -100v-53c0 -75 12 -103 46 -103z" />
    <glyph glyph-name="one.sup" horiz-adv-x="241" 
d="M76 322v309l-63 -7v72l111 49h79v-423h-127z" />
    <glyph glyph-name="two.sup" horiz-adv-x="304" 
d="M16 322v79l75 87c36 39 57 69 57 109c0 41 -20 59 -58 59c-30 0 -54 -8 -69 -15v87c23 11 61 23 116 23c98 0 144 -50 144 -133c0 -65 -29 -111 -81 -159l-43 -45v-2h126v-90h-267z" />
    <glyph glyph-name="three.sup" horiz-adv-x="310" 
d="M132 316c-55 0 -92 10 -114 22v82c20 -7 47 -13 74 -13c47 0 67 14 67 47c0 31 -17 44 -52 44h-39v79h37c36 0 52 14 52 42c0 29 -17 41 -61 41c-24 0 -50 -4 -68 -9v81c24 10 62 19 110 19c90 0 142 -37 142 -107c0 -57 -28 -87 -70 -99v-2c51 -9 80 -35 80 -101
c0 -80 -56 -126 -158 -126z" />
    <glyph glyph-name="four.sup" horiz-adv-x="351" 
d="M170 322v87h-158v78l161 257h118v-251h46v-84h-46v-87h-121zM104 491h69v115h-2l-67 -112v-3z" />
    <glyph glyph-name="five.sup" horiz-adv-x="312" 
d="M133 317c-55 0 -92 9 -115 20v84c20 -7 46 -12 75 -12c47 0 66 18 66 51c0 35 -17 50 -70 50c-22 0 -40 -2 -57 -5l11 239h229v-92h-138l-3 -67c9 2 18 3 37 3c84 0 122 -41 122 -127c0 -92 -58 -144 -157 -144z" />
    <glyph glyph-name="six.sup" horiz-adv-x="357" 
d="M189 318c-115 0 -170 65 -170 186v31c0 157 77 216 198 216c51 0 84 -8 100 -16v-85c-15 5 -47 9 -78 9c-65 0 -93 -20 -95 -86c16 10 41 19 79 19c79 0 119 -43 119 -127c0 -85 -43 -147 -153 -147zM186 397c24 0 38 19 38 61c0 45 -14 60 -43 60c-16 0 -30 -5 -37 -9
v-29c0 -60 14 -83 42 -83z" />
    <glyph glyph-name="seven.sup" horiz-adv-x="307" 
d="M34 322l124 321v3h-143v98h274v-80l-121 -342h-134z" />
    <glyph glyph-name="eight.sup" horiz-adv-x="353" 
d="M174 317c-108 0 -158 43 -158 109c0 47 29 80 74 99c-35 21 -61 51 -61 107c0 71 54 119 153 119c96 0 145 -45 145 -109c0 -46 -27 -76 -65 -92c51 -25 75 -54 75 -110c0 -79 -62 -123 -163 -123zM172 394c30 0 47 14 47 40c0 28 -17 42 -64 57c-18 -12 -32 -28 -32 -54
c0 -27 18 -43 49 -43zM194 584c16 11 29 26 29 49s-13 39 -41 39c-27 0 -39 -15 -39 -36c0 -24 15 -38 51 -52z" />
    <glyph glyph-name="nine.sup" horiz-adv-x="358" 
d="M169 751c113 0 170 -60 170 -184v-33c0 -157 -73 -216 -199 -216c-52 0 -85 8 -101 16v84c17 -5 48 -10 80 -10c67 0 94 21 95 87c-16 -10 -42 -19 -78 -19c-79 0 -121 44 -121 128c0 86 44 147 154 147zM172 671c-25 0 -38 -19 -38 -61c0 -45 14 -60 43 -60
c16 0 30 6 36 9v30c0 61 -14 82 -41 82z" />
    <glyph glyph-name="uni2033" unicode="&#x2033;" horiz-adv-x="399" 
d="M29 479l16 214h147l-41 -214h-122zM216 479l16 214h148l-42 -214h-122z" />
    <glyph glyph-name="uni2032" unicode="&#x2032;" horiz-adv-x="210" 
d="M28 479l15 214h148l-42 -214h-121z" />
    <glyph glyph-name="g.alt" horiz-adv-x="512" 
d="M232 -201c-84 0 -143 15 -181 33v113c28 -9 87 -22 143 -22c86 0 123 23 123 90v48h-4c-24 -26 -62 -45 -117 -45c-100 0 -177 57 -177 238v29c0 188 77 257 195 257c62 0 97 -20 119 -40h4l9 32h130v-533c0 -143 -87 -200 -244 -200zM259 129c27 0 45 10 57 20v258
c-11 8 -34 16 -56 16c-52 0 -76 -28 -76 -129v-40c0 -101 28 -125 75 -125z" />
    <glyph glyph-name="l.alt" horiz-adv-x="265" 
d="M167 -9c-88 0 -131 36 -131 138v606h160v-588c0 -29 11 -35 30 -35c10 0 21 1 29 3v-102c-13 -9 -45 -22 -88 -22z" />
    <glyph glyph-name="gbreve.alt" horiz-adv-x="512" 
d="M231 -201c-84 0 -143 15 -181 33v113c28 -9 87 -22 143 -22c86 0 123 23 123 90v48h-4c-24 -26 -62 -45 -117 -45c-100 0 -177 57 -177 238v29c0 188 77 257 195 257c62 0 97 -20 119 -40h4l9 32h130v-533c0 -143 -87 -200 -244 -200zM258 129c27 0 45 10 57 20v258
c-11 8 -34 16 -56 16c-52 0 -76 -28 -76 -129v-40c0 -101 28 -125 75 -125zM256 582c-89 0 -141 57 -144 138h102c3 -26 17 -41 42 -41s39 15 42 41h103c-3 -81 -55 -138 -145 -138z" />
    <glyph glyph-name="gcircumflex.alt" horiz-adv-x="512" 
d="M98 580l92 150h132l92 -150h-113l-45 57l-44 -57h-114zM231 -201c-84 0 -143 15 -181 33v113c28 -9 87 -22 143 -22c86 0 123 23 123 90v48h-4c-24 -26 -62 -45 -117 -45c-100 0 -177 57 -177 238v29c0 188 77 257 195 257c62 0 97 -20 119 -40h4l9 32h130v-533
c0 -143 -87 -200 -244 -200zM258 129c27 0 45 10 57 20v258c-11 8 -34 16 -56 16c-52 0 -76 -28 -76 -129v-40c0 -101 28 -125 75 -125z" />
    <glyph glyph-name="gcommaaccent.alt" horiz-adv-x="509" 
d="M335 735l-13 -146h-142l47 146h108zM231 -201c-84 0 -143 15 -181 33v113c28 -9 87 -22 143 -22c86 0 123 23 123 90v48h-4c-24 -26 -62 -45 -117 -45c-100 0 -177 57 -177 238v29c0 188 77 257 195 257c62 0 97 -20 119 -40h4l9 32h130v-533c0 -143 -87 -200 -244 -200z
M258 129c27 0 45 10 57 20v258c-11 8 -34 16 -56 16c-52 0 -76 -28 -76 -129v-40c0 -101 28 -125 75 -125z" />
    <glyph glyph-name="gdotaccent.alt" horiz-adv-x="512" 
d="M231 -201c-84 0 -143 15 -181 33v113c28 -9 87 -22 143 -22c86 0 123 23 123 90v48h-4c-24 -26 -62 -45 -117 -45c-100 0 -177 57 -177 238v29c0 188 77 257 195 257c62 0 97 -20 119 -40h4l9 32h130v-533c0 -143 -87 -200 -244 -200zM258 129c27 0 45 10 57 20v258
c-11 8 -34 16 -56 16c-52 0 -76 -28 -76 -129v-40c0 -101 28 -125 75 -125zM176 590v131h161v-131h-161z" />
    <glyph glyph-name="lacute.alt" horiz-adv-x="265" 
d="M167 -9c-88 0 -131 36 -131 138v606h160v-588c0 -29 11 -35 30 -35c10 0 21 1 29 3v-102c-13 -9 -45 -22 -88 -22zM49 772l48 133h161l-82 -133h-127z" />
    <glyph glyph-name="lcaron.alt" horiz-adv-x="265" 
d="M167 -9c-88 0 -131 36 -131 138v606h160v-588c0 -29 11 -35 30 -35c10 0 21 1 29 3v-102c-13 -9 -45 -22 -88 -22zM310 580h-86l6 155h107z" />
    <glyph glyph-name="lcommaaccent.alt" horiz-adv-x="265" 
d="M71 -180l12 144h140l-43 -144h-109zM167 -9c-88 0 -131 36 -131 138v606h160v-588c0 -29 11 -35 30 -35c10 0 21 1 29 3v-102c-13 -9 -45 -22 -88 -22z" />
    <glyph glyph-name="ldot.alt" horiz-adv-x="359" 
d="M231 296v124h127v-124h-127zM167 -9c-88 0 -131 36 -131 138v606h160v-588c0 -29 11 -35 30 -35c10 0 21 1 29 3v-102c-13 -9 -45 -22 -88 -22z" />
    <glyph glyph-name="lslash.alt" horiz-adv-x="277" 
d="M2 379l46 24v332h161v-246l58 31v-126l-58 -31v-216c0 -29 10 -35 30 -35c9 0 20 1 29 3v-102c-13 -9 -46 -22 -88 -22c-89 0 -132 36 -132 138v148l-46 -24v126z" />
    <glyph glyph-name="f_f_l.alt" horiz-adv-x="809" 
d="M711 -9c-89 0 -131 36 -131 137v499c-9 1 -23 3 -36 3c-44 0 -62 -19 -62 -69v-29h61v-115h-61v-417h-160v417h-97v-417h-160v417h-56v115h56v47c0 105 55 156 149 156c39 0 67 -7 84 -13v-102c-6 1 -15 3 -30 3c-30 0 -43 -18 -43 -56v-35h97v39c0 130 71 171 223 171
c91 0 158 -9 194 -19v-576c0 -29 11 -36 31 -36c9 0 20 1 29 4v-103c-13 -8 -46 -21 -88 -21z" />
    <glyph glyph-name="f_l.alt" horiz-adv-x="553" 
d="M454 -9c-89 0 -132 36 -132 137v499c-8 1 -21 3 -34 3c-45 0 -62 -19 -62 -69v-29h61v-115h-61v-417h-161v417h-56v115h56v39c0 130 72 171 223 171c92 0 158 -9 194 -19v-576c0 -29 12 -36 32 -36c9 0 20 1 29 4v-103c-14 -8 -47 -21 -89 -21z" />
    <glyph glyph-name="registered.alt" horiz-adv-x="668" 
d="M335 -11c-185 0 -311 132 -311 356s127 356 310 356c182 0 311 -132 311 -356c0 -218 -128 -356 -310 -356zM334 42c152 0 251 107 251 303c0 194 -100 303 -251 303c-153 0 -250 -109 -250 -303c0 -196 99 -303 250 -303zM200 160v377h151c85 0 128 -37 128 -118
c0 -49 -19 -82 -49 -94v-4l64 -161h-110l-51 133h-27v-133h-106zM305 367h28c27 0 38 15 38 46s-12 44 -39 44h-27v-90z" />
    <glyph glyph-name="questiondown.uc" horiz-adv-x="394" 
d="M220 -10c-124 0 -201 56 -201 178c0 88 28 126 85 176c53 45 70 56 70 103v31h138v-45c0 -68 -17 -97 -74 -149c-36 -32 -52 -51 -52 -95c0 -50 30 -71 95 -71c42 0 69 7 95 14v-117c-35 -14 -90 -25 -156 -25zM164 548v145h155v-145h-155z" />
    <glyph glyph-name="exclamdown.uc" horiz-adv-x="259" 
d="M38 0l24 478h134l25 -478h-183zM52 548v145h154v-145h-154z" />
    <glyph glyph-name="hyphen.uc" horiz-adv-x="299" 
d="M31 276v128h237v-128h-237z" />
    <glyph glyph-name="endash.uc" horiz-adv-x="372" 
d="M26 278v123h320v-123h-320z" />
    <glyph glyph-name="emdash.uc" horiz-adv-x="660" 
d="M26 278v123h609v-123h-609z" />
    <glyph glyph-name="guilsinglleft.uc" horiz-adv-x="263" 
d="M105 89l-80 178v42l80 179h131l-83 -200l83 -199h-131z" />
    <glyph glyph-name="guilsinglright.uc" horiz-adv-x="263" 
d="M27 89l82 199l-82 200h131l80 -179v-42l-80 -178h-131z" />
    <glyph glyph-name="guillemotleft.uc" horiz-adv-x="452" 
d="M295 88l-80 179v42l80 179h131l-83 -200l83 -200h-131zM104 88l-79 179v42l79 179h131l-82 -200l82 -200h-131z" />
    <glyph glyph-name="guillemotright.uc" horiz-adv-x="452" 
d="M218 89l82 199l-82 200h130l80 -178v-42l-80 -179h-130zM27 89l82 199l-82 200h131l80 -178v-42l-80 -179h-131z" />
    <glyph glyph-name="parenleft.uc" horiz-adv-x="335" 
d="M201 -89c-80 74 -170 220 -170 414v24c0 194 89 340 170 415h128c-73 -93 -139 -241 -139 -407v-34c0 -167 66 -318 139 -412h-128z" />
    <glyph glyph-name="parenright.uc" horiz-adv-x="335" 
d="M4 -89c73 94 138 240 138 405v34c0 167 -65 320 -138 414h128c79 -75 170 -222 170 -415v-24c0 -194 -91 -340 -170 -414h-128z" />
    <glyph glyph-name="bracketleft.uc" horiz-adv-x="324" 
d="M45 -89v853h259v-120h-101v-613h101v-120h-259z" />
    <glyph glyph-name="bracketright.uc" horiz-adv-x="324" 
d="M20 -89v119h100v615h-100v119h257v-853h-257z" />
    <glyph glyph-name="braceleft.uc" horiz-adv-x="348" 
d="M328 -91c-187 4 -238 61 -238 168v122c0 57 -24 75 -77 78v121c53 3 77 18 77 75v123c0 107 51 168 238 172v-122c-53 -5 -82 -14 -82 -75v-105c0 -62 -19 -110 -105 -127v-3c86 -17 105 -65 105 -128v-105c0 -61 29 -67 82 -72v-122z" />
    <glyph glyph-name="braceright.uc" horiz-adv-x="348" 
d="M20 -90v121c52 6 81 14 81 75v105c0 63 20 111 107 128v3c-87 17 -107 65 -107 128v102c0 61 -29 69 -81 74v122c186 -4 238 -63 238 -170v-121c0 -57 23 -73 76 -76v-121c-53 -3 -76 -19 -76 -76v-124c0 -107 -52 -167 -238 -170z" />
    <glyph glyph-name="slash.uc" horiz-adv-x="344" 
d="M142 -58h-137l194 789h138z" />
    <glyph glyph-name="backslash.uc" horiz-adv-x="343" 
d="M339 -58h-138l-195 789h138z" />
    <glyph glyph-name="bar.uc" horiz-adv-x="244" 
d="M61 -59v790h123v-790h-123z" />
    <glyph glyph-name="at.uc" horiz-adv-x="720" 
d="M356 -10c-192 0 -331 90 -331 323c0 237 151 390 368 390c191 0 302 -109 302 -286c0 -180 -94 -266 -200 -266c-57 0 -87 19 -100 52h-3c-19 -25 -53 -49 -100 -49c-70 0 -112 42 -112 139c0 136 61 236 168 236c31 0 56 -10 72 -23h3l5 17h116l-45 -250
c-5 -25 -2 -42 20 -42c51 0 87 73 87 182c0 132 -62 212 -219 212c-161 0 -272 -115 -272 -312c0 -177 97 -246 244 -246c83 0 152 21 197 40v-69c-44 -25 -115 -48 -200 -48zM338 238c16 0 27 7 36 14l32 191c-6 6 -17 11 -33 11c-48 0 -68 -95 -68 -162
c0 -37 11 -54 33 -54z" />
    <glyph glyph-name="uni2009" unicode="&#x2009;" horiz-adv-x="55" 
 />
    </font>
</defs>
</svg>
