<?xml version="1.0" encoding="utf-8"?>
<!-- Generator: Adobe Illustrator 23.0.1, SVG Export Plug-In . SVG Version: 6.00 Build 0)  -->
<svg version="1.1" xmlns="http://www.w3.org/2000/svg" xmlns:xlink="http://www.w3.org/1999/xlink" x="0px" y="0px"
	 viewBox="0 0 1435 1059" style="enable-background:new 0 0 1435 1059;" xml:space="preserve">
<style type="text/css">
	.st0{display:none;}
	.st1{display:inline;}
	.st2{fill:#2F4061;}
	.st3{fill:#D8DAE3;}
	.st4{fill:#27AAE1;}
	.st5{fill:#F2F2F9;}
	.st6{fill:#BAD532;}
	.st7{display:inline;fill:#2F4061;}
	.st8{display:inline;fill:#8AD5EB;}
	.st9{display:inline;fill:#FFFFFF;}
	.st10{fill:#8AD5EB;}
	.st11{fill:#FFFFFF;}
</style>
<g id="Layer_3" class="st0">
	<g class="st1">
		<path class="st2" d="M997.25,387.18c-9.98,1.73-88.54-31.23-210.94-4.66c-1.14,0.22-2.28,0.51-3.42,0.75
			c-1.27,0.29-2.61,0.57-3.95,0.86l0.07,0.06c-13.74,3.68-24.8,10.64-33.05,19.78v-0.11c-8.71,7.53-22.39,11.27-36,11.16
			c-13.61,0.11-27.28-3.62-36-11.16v0.11c-8.24-9.15-19.3-16.1-33.04-19.78l0.07-0.06c-1.34-0.29-2.69-0.57-3.96-0.86
			c-1.14-0.23-2.28-0.52-3.42-0.75c-122.39-26.58-200.95,6.39-210.94,4.66c-2.34-0.4-3.89,2.24-4.82,6.73v0.23
			c1.41,29.17,3.96,28.36,28.49,39.87v54.36c0,21.23,16.42,63.97,60.39,74.2c5.56,0.81,11.53,1.61,17.56,2.25
			c0.13,0,0.27,0,0.4,0.05c1.94,0.24,3.96,0.41,5.96,0.58c14.82,1.38,30.5,1.84,45.98,1.55c23.26-0.92,47.66-3.39,69.91-16.11
			c0.13-0.06,0.34-0.23,0.47-0.29c27.36-17.14,37.94-43.89,41.76-71.15v-0.17c1.81-10.47,10.32-21.86,20.58-22.44
			c0.2,0,0.4,0,0.6,0.06c0.2-0.06,0.41-0.06,0.6-0.06c10.26,0.58,18.77,11.97,20.58,22.44v0.17c3.82,27.26,14.41,54.02,41.76,71.15
			c0.14,0.06,0.34,0.23,0.47,0.29c22.25,12.72,46.65,15.19,69.91,16.11c15.48,0.29,31.17-0.18,45.98-1.55
			c2.01-0.17,4.02-0.34,5.96-0.58c0.14-0.05,0.27-0.05,0.4-0.05c6.03-0.63,12-1.44,17.56-2.25c43.97-10.24,60.4-52.98,60.4-74.2V434
			c24.53-11.5,27.08-10.7,28.48-39.87v-0.23C1001.14,389.42,999.6,386.77,997.25,387.18z M629.13,532.08c-0.13,0-0.27,0.11-0.4,0.17
			c-17.16,9.26-36,11.1-53.89,11.79c-12,0.17-24.13-0.18-35.53-1.15c-1.54-0.17-3.08-0.29-4.56-0.4c-0.13-0.06-0.27-0.06-0.33-0.06
			c-4.69-0.46-9.25-1.04-13.61-1.67c-33.92-7.48-46.52-38.6-46.52-54.08v-41.82c0-25.6,22.52-36.35,49.67-36.35h82.04
			c36.12,0,56.77,22.43,56.77,49.64C662.77,484.51,658.02,514.88,629.13,532.08z M945.64,486.69c0,15.48-12.6,46.6-46.52,54.08
			c-4.36,0.63-8.91,1.21-13.6,1.67c-0.07,0-0.2,0-0.34,0.06c-1.48,0.12-3.02,0.23-4.56,0.4c-11.4,0.98-23.53,1.32-35.53,1.15
			c-17.9-0.69-36.73-2.53-53.89-11.79c-0.13-0.06-0.27-0.17-0.4-0.17c-28.89-17.2-33.65-47.57-33.65-73.92
			c0-27.21,20.64-49.64,56.77-49.64h82.04c27.15,0,49.67,10.75,49.67,36.35V486.69z"/>
		<path class="st2" d="M817.18,471.72l8.69-28.44c-3.26-1.19-6.77-1.86-10.44-1.86c-16.97,0-30.72,13.76-30.72,30.73
			c0,16.97,13.75,30.73,30.72,30.73c16.97,0,30.72-13.76,30.72-30.73c0-3.09-0.47-6.07-1.31-8.88L817.18,471.72z"/>
		<path class="st2" d="M604.41,471.72l8.69-28.44c-3.26-1.19-6.77-1.86-10.44-1.86c-16.97,0-30.73,13.76-30.73,30.73
			c0,16.97,13.75,30.73,30.73,30.73c16.97,0,30.72-13.76,30.72-30.73c0-3.09-0.47-6.07-1.31-8.88L604.41,471.72z"/>
	</g>
</g>
<g id="Layer_4">
	<g>
		<path class="st3" d="M249.1,845.14v-25.42c7.49,2.82,16.65,5.15,26.98,5.15c9.82,0,14.15-2.33,14.15-8.47
			c0-5.65-3-6.81-10.66-9.97l-6.66-2.49c-17.32-6.48-24.48-17.44-24.48-35.21c0-22.42,13.32-36.21,40.96-36.21
			c15.49,0,23.15,1.99,28.64,4.65v24.92c-6.33-2.33-14.65-4.15-24.65-4.15c-8.33,0-11.99,2.33-11.99,7.48s3.83,6.64,10.32,8.97
			l6.99,2.49c15.65,5.32,25.48,13.95,25.48,35.05c0,25.58-14.65,38.87-42.8,38.87C268.58,850.78,256.26,848.62,249.1,845.14z"/>
		<path class="st3" d="M352.34,734.18h42.13l30.47,115.11h-35.47l-4.33-18.44h-26.81l-4,18.44h-31.97L352.34,734.18z M371.16,767.4
			c0,0-1.5,9.63-3.83,21.43L363,808.59h17.15l-4.33-19.93c-2.33-11.79-4-21.26-4-21.26H371.16z"/>
		<path class="st3" d="M429.28,734.18h71.1v25.08h-36.3v23.59h29.81v24.42h-29.81v42.03h-34.8V734.18z"/>
		<path class="st3" d="M507.88,734.18h71.27v25.08h-36.63v19.1h30.14v24.58h-30.14v21.26h38.47v25.08h-73.1V734.18z"/>
		<path class="st3" d="M609.62,759.26h-23.31v-25.08h81.59v25.08h-23.31v90.03h-34.97V759.26z"/>
		<path class="st3" d="M702.38,807.1l-31.14-72.92h37.3l6.99,20.6c4,11.13,6.33,20.76,6.33,20.76h0.5c0,0,2.16-9.14,6.16-20.76
			l6.83-20.6h32.47l-30.47,72.09v43.02h-34.97V807.1z"/>
		<path class="st3" d="M802.29,795.14v-6.64c0-41.69,21.98-55.98,54.12-55.98c14.99,0,25.81,2.99,30.81,5.32v25.41
			c-5.33-1.66-13.15-3.82-24.14-3.82c-19.65,0-24.48,8.47-24.48,25.91v17.44c0,15.78,3,23.09,14.65,23.09c3,0,5.5-0.67,6.83-1V806.1
			h-9.99v-22.92h42.46v60.63c-7.33,3.16-22.65,6.98-38.47,6.98C821.27,850.78,802.29,838.16,802.29,795.14z"/>
		<path class="st3" d="M899.54,734.18h71.27v25.08h-36.63v19.1h30.14v24.58h-30.14v21.26h38.47v25.08h-73.1V734.18z"/>
		<path class="st3" d="M978.64,734.18h71.27v25.08h-36.63v19.1h30.14v24.58h-30.14v21.26h38.47v25.08h-73.1V734.18z"/>
		<path class="st3" d="M1057.74,734.18h34.97v49.33l23.65-49.33h35.8l-27.64,53.65l29.31,61.46h-38.97l-22.15-51.66v51.66h-34.97
			V734.18z"/>
		<path class="st3" d="M1158.82,734.18h35.97l-4.83,78.4h-26.31L1158.82,734.18z M1162.15,822.21h29.47v27.08h-29.47V822.21z"/>
	</g>
	<rect x="548.25" y="873.81" class="st4" width="335.79" height="58.46"/>
	<g>
		<path class="st3" d="M562.91,884.28h2.84l5.25,25.78c0.32,1.71,1.39,7.07,1.39,7.07h0.05c0,0,1.18-5.25,1.5-7.07l6-25.78h2.63
			l5.73,25.62c0.48,2.41,1.61,7.29,1.61,7.29h0.05c0,0,0.86-4.5,1.39-7.34l5.2-25.56h2.73l-7.82,37.14h-3.11l-5.68-24.81
			c-0.48-2.68-1.5-7.34-1.5-7.34h-0.05c0,0-1.02,4.77-1.55,7.34l-5.73,24.81h-3.16L562.91,884.28z"/>
		<path class="st3" d="M603.75,884.28h17.9v2.41h-15.11V901h11.9v2.41h-11.9V919h15.22v2.41h-18.01V884.28z"/>
		<path class="st3" d="M633.86,903.83v-2.04c0-12.65,5.25-18.01,13.99-18.01c3.91,0,6.16,0.86,7.72,1.77v2.46
			c-1.88-0.96-4.18-1.82-7.82-1.82c-7.61,0-10.88,5.25-10.88,15.33v2.3c0,10.13,2.73,15.65,11.09,15.65c2.3,0,4.45-0.43,6-1.07
			v-12.49h-6.81v-2.41h9.59v16.56c-2.25,1.02-5.25,1.82-9,1.82C638.31,921.89,633.86,916.21,633.86,903.83z"/>
		<path class="st3" d="M663.22,884.28h2.79v37.14h-2.79V884.28z"/>
		<path class="st3" d="M670.35,884.28h2.95l7.98,27.97c0.54,2.14,1.39,5.25,1.39,5.25h0.11c0,0,0.86-3.11,1.39-5.25l7.98-27.97h2.73
			l-10.82,37.14h-2.95L670.35,884.28z"/>
		<path class="st3" d="M699.17,884.28h17.9v2.41h-15.11V901h11.9v2.41h-11.9V919h15.22v2.41h-18.01V884.28z"/>
		<path class="st3" d="M738.99,884.28h3.11l11.09,37.14h-2.95l-3.43-11.63H734l-3.38,11.63h-2.68L738.99,884.28z M740.38,887.97
			c0,0-1.23,4.18-1.61,5.68l-4.02,13.72h11.31l-3.96-13.72c-0.38-1.45-1.61-5.68-1.61-5.68H740.38z"/>
		<path class="st3" d="M765.72,884.28h2.79v16.67h16.4v-16.67h2.84v37.14h-2.84v-18.06h-16.4v18.06h-2.79V884.28z"/>
		<path class="st3" d="M793.26,903.67v-1.66c0-11.84,4.5-18.22,12.92-18.22c8.25,0,12.91,6.06,12.91,18.17v1.82
			c0,11.58-4.45,18.11-12.97,18.11C797.98,921.89,793.26,916,793.26,903.67z M816.09,904.21v-2.3c0-10.13-3.11-15.76-10.02-15.76
			c-6.59,0-9.86,5.68-9.86,15.27v2.25c0,10.13,3.11,15.86,9.97,15.86C812.82,919.54,816.09,913.96,816.09,904.21z"/>
		<path class="st3" d="M823.11,903.67v-1.66c0-11.84,4.5-18.22,12.92-18.22c8.25,0,12.91,6.06,12.91,18.17v1.82
			c0,11.58-4.45,18.11-12.97,18.11C827.83,921.89,823.11,916,823.11,903.67z M845.94,904.21v-2.3c0-10.13-3.11-15.76-10.02-15.76
			c-6.59,0-9.86,5.68-9.86,15.27v2.25c0,10.13,3.11,15.86,9.97,15.86C842.67,919.54,845.94,913.96,845.94,904.21z"/>
		<path class="st3" d="M859.82,886.74h-9.43v-2.46h21.7v2.46h-9.43v34.67h-2.84V886.74z"/>
	</g>
</g>
<g id="Layer_5">
	<path class="st4" d="M959.78,210.99c-65.74-22.84-121.45,22.28-121.45,22.28C786.52,192.05,718,195.95,718,195.95
		s-68.52-3.9-120.33,37.33c0,0-55.71-45.13-121.45-22.28c0,0,56.83,39.55,56.83,130.36s-3.9,113.09-3.9,113.09
		s-16.16-8.91-25.07,7.8c-8.91,16.71-10.03,186.07,173.26,227.85l-9.28-30.64c0,0-0.14-0.04-0.4-0.13
		C541.77,620.73,536.38,486.2,536.38,486.2l9.47-8.91c8.61,142.59,114.56,179.68,121.8,182.04c0.14,0.04,0.27,0.09,0.4,0.13
		c0,0,22.65,6.69,49.95,6.69c27.3,0,49.95-6.69,49.95-6.69c0.13-0.04,0.26-0.09,0.4-0.13c7.23-2.37,113.19-39.46,121.8-182.04
		l9.47,8.91c0,0-5.39,134.53-131.27,173.13c-0.26,0.08-0.4,0.13-0.4,0.13l-9.28,30.64c183.29-41.78,182.17-211.14,173.26-227.85
		c-8.91-16.71-25.07-7.8-25.07-7.8s-3.9-22.28-3.9-113.09S959.78,210.99,959.78,210.99z"/>
	<path class="st5" d="M796.46,474.09c-11.45,0-22.37-2.2-32.43-6.12l0.05,0.07c0,0-5.78,40.45-46.08,79.45
		c-40.3-39-46.08-79.45-46.08-79.45l0.05-0.06c-10.06,3.92-20.98,6.12-32.42,6.12c-49.34,0-89.33-39.99-89.33-89.33
		s39.99-89.33,89.33-89.33c33.85,0,63.3,18.83,78.46,46.59c15.15-27.76,44.6-46.59,78.46-46.59c49.34,0,89.33,39.99,89.33,89.33
		S845.79,474.09,796.46,474.09z"/>
	<path class="st2" d="M545.86,477.29l-9.47,8.91c0,0,5.39,134.53,131.27,173.13C660.42,656.96,554.46,619.87,545.86,477.29z"/>
	<path class="st2" d="M899.62,486.2l-9.47-8.91c-8.61,142.59-114.56,179.68-121.8,182.04C894.23,620.73,899.62,486.2,899.62,486.2z"
		/>
</g>
<g id="vest">
	<path class="st6" d="M888.89,491.85c-1,8.96-2.41,17.48-4.15,25.56c-0.37,1.72-0.76,3.42-1.16,5.09c-0.83,3.48-1.72,6.88-2.68,10.2
		c-0.12,0.45-0.25,0.89-0.39,1.33c-0.14,0.49-0.28,0.97-0.43,1.46c-2.92,9.71-6.36,18.71-10.18,27.05c-0.32,0.7-0.64,1.4-0.97,2.09
		c-0.19,0.41-0.38,0.82-0.58,1.23c-0.21,0.44-0.43,0.88-0.64,1.32c-0.25,0.52-0.51,1.04-0.77,1.55c-0.33,0.68-0.67,1.35-1.02,2.01
		c-0.32,0.62-0.64,1.24-0.97,1.86c-0.8,1.54-1.62,3.04-2.46,4.53c-0.35,0.63-0.72,1.27-1.08,1.9c-1.45,2.52-2.94,4.97-4.46,7.35
		c-0.37,0.59-0.75,1.18-1.14,1.77c-1.01,1.56-2.04,3.08-3.08,4.57c-0.39,0.56-0.78,1.11-1.17,1.66c-0.35,0.5-0.71,1-1.06,1.49
		c-0.82,1.13-1.65,2.25-2.49,3.34c-0.4,0.53-0.79,1.05-1.2,1.56c-0.39,0.52-0.79,1.03-1.2,1.54c-0.38,0.48-0.76,0.95-1.13,1.42
		c-1.42,1.75-2.84,3.44-4.27,5.08c-0.41,0.47-0.82,0.95-1.24,1.41c-0.64,0.73-1.29,1.45-1.94,2.15c-0.41,0.45-0.82,0.9-1.24,1.34
		c-0.41,0.45-0.82,0.89-1.24,1.32c-1.44,1.53-2.89,3-4.35,4.42c-0.35,0.35-0.7,0.69-1.05,1.03c-1.74,1.7-3.49,3.32-5.23,4.87
		c-0.39,0.36-0.79,0.71-1.19,1.06c-0.62,0.56-1.25,1.1-1.87,1.63c-0.83,0.71-1.65,1.41-2.47,2.08c-0.82,0.68-1.64,1.35-2.45,2
		c-0.83,0.67-1.65,1.32-2.47,1.95c-0.8,0.61-1.59,1.21-2.37,1.8c-1.2,0.9-2.39,1.77-3.56,2.6c-1.18,0.83-2.34,1.64-3.49,2.42
		c-0.77,0.53-1.53,1.04-2.28,1.52c-0.37,0.25-0.75,0.49-1.12,0.73c-0.63,0.41-1.25,0.81-1.87,1.2c-0.11,0.07-0.22,0.14-0.34,0.21
		c-0.62,0.39-1.24,0.77-1.85,1.14c-1.9,1.16-3.74,2.23-5.5,3.22c-0.33,0.18-0.67,0.37-0.99,0.55c-1.98,1.09-3.86,2.08-5.62,2.97
		c-0.3,0.15-0.59,0.29-0.88,0.44c-3.47,1.72-6.48,3.06-8.91,4.07c-0.33,0.14-0.66,0.27-0.96,0.39c-0.65,0.27-1.24,0.5-1.77,0.71
		c-0.31,0.11-0.59,0.22-0.86,0.32c-0.73,0.28-1.35,0.5-1.83,0.67c-0.09,0.03-0.18,0.06-0.27,0.09c-0.15,0.05-0.31,0.1-0.46,0.15
		c-0.06,0.02-0.13,0.04-0.19,0.06c-0.18,0.06-0.3,0.1-0.36,0.12c-0.01,0-0.03,0.01-0.04,0.01c0,0-22.65,6.69-49.95,6.69
		s-49.95-6.69-49.95-6.69c-0.01,0-0.03-0.01-0.04-0.01c-0.04-0.01-0.1-0.03-0.19-0.06c-0.05-0.02-0.11-0.04-0.17-0.06
		c-0.06-0.02-0.13-0.04-0.19-0.06c-0.15-0.05-0.31-0.1-0.46-0.15c-0.09-0.03-0.18-0.06-0.27-0.09
		c-12.13-4.24-105.2-40.59-119.56-166.7c14.16,6.44,29.9,10.02,46.47,10.02c30.63,0,58.4-12.23,78.69-32.09
		c1.86,8.99,10.97,43.65,45.67,77.22c33.75-32.65,43.29-66.33,45.5-76.42c20.22,19.39,47.64,31.29,77.86,31.29
		C858.35,502.35,874.45,498.59,888.89,491.85z"/>
</g>
<g id="vest_stripes">
	<path class="st3" d="M768.88,659.15c-0.04,0.01-0.08,0.03-0.12,0.04c-0.02,0.01-0.03,0.01-0.04,0.02c0.06-0.01,0.12-0.03,0.18-0.06
		C768.89,659.15,768.89,659.15,768.88,659.15z M728.05,605.96v29.73h83.29c0.47-0.36,0.95-0.72,1.43-1.09
		c0.47-0.36,0.95-0.73,1.42-1.1c0.97-0.75,1.94-1.52,2.91-2.32c0.65-0.53,1.3-1.07,1.95-1.61c1-0.83,2.01-1.69,3.02-2.58
		c0.44-0.38,0.89-0.77,1.33-1.17c1.28-1.13,2.56-2.3,3.84-3.52c0.49-0.46,0.99-0.93,1.49-1.41c0.67-0.64,1.34-1.29,2-1.96
		c0.67-0.66,1.34-1.33,2-2.01c1.63-1.66,3.25-3.37,4.85-5.15c0.39-0.43,0.78-0.86,1.17-1.3c0.28-0.31,0.56-0.62,0.83-0.94
		c0.37-0.42,0.74-0.84,1.1-1.26c0.44-0.51,0.88-1.02,1.31-1.54c0.22-0.25,0.43-0.51,0.65-0.77H728.05z M593.36,605.96
		c0.22,0.26,0.43,0.52,0.65,0.77c0.43,0.52,0.87,1.03,1.31,1.54c0.08,0.1,0.17,0.2,0.26,0.3c0.56,0.64,1.11,1.28,1.67,1.9
		c5.07,5.7,10.24,10.8,15.35,15.35c0.44,0.4,0.89,0.79,1.33,1.17c1.01,0.89,2.02,1.75,3.02,2.58c0.65,0.54,1.3,1.08,1.95,1.61
		c0.97,0.8,1.94,1.57,2.91,2.32c0.39,0.31,0.78,0.61,1.16,0.91c0.57,0.43,1.13,0.86,1.69,1.28h85.56v-29.73H593.36z M667.24,659.19
		c-0.08-0.02-0.17-0.05-0.26-0.09c0.04,0.02,0.08,0.03,0.12,0.05c0.06,0.03,0.12,0.05,0.18,0.06
		C667.27,659.2,667.25,659.2,667.24,659.19z"/>
	<path class="st3" d="M575.91,581.28c0.37,0.64,0.75,1.26,1.14,1.89h-9.08c-0.07-0.1-0.14-0.21-0.2-0.31
		c-0.16-0.26-0.32-0.52-0.48-0.78c-0.16-0.26-0.32-0.52-0.47-0.78c-0.38-0.63-0.76-1.25-1.13-1.88c-0.74-1.24-1.46-2.49-2.16-3.74
		c-0.35-0.63-0.7-1.25-1.04-1.88c-0.29-0.52-0.57-1.04-0.85-1.56c-1.92-3.56-3.69-7.12-5.32-10.64c-0.66-1.42-1.3-2.83-1.91-4.23
		c-0.31-0.7-0.61-1.4-0.91-2.1c-0.26-0.61-0.52-1.22-0.77-1.82h9.47c1.23,3.07,2.51,6.06,3.84,8.97c0.31,0.69,0.63,1.37,0.94,2.04
		c0.21,0.45,0.42,0.89,0.64,1.33c0.31,0.66,0.62,1.3,0.94,1.95c1.76,3.56,3.58,7,5.47,10.31c0.16,0.29,0.32,0.57,0.49,0.86
		C574.98,579.71,575.44,580.5,575.91,581.28z"/>
	<path class="st3" d="M873.8,553.45c-0.53,1.34-1.08,2.67-1.64,3.98c-0.35,0.83-0.71,1.66-1.08,2.48c-0.37,0.87-0.75,1.72-1.15,2.57
		c-0.21,0.46-0.43,0.93-0.64,1.39c-0.52,1.12-1.05,2.23-1.59,3.33c-0.28,0.58-0.57,1.17-0.87,1.75c-0.41,0.84-0.83,1.67-1.26,2.49
		c-0.37,0.72-0.75,1.42-1.13,2.13c-0.46,0.88-0.94,1.76-1.43,2.63c-0.27,0.5-0.55,1-0.83,1.49l-0.21,0.36l-0.49,0.86
		c-0.82,1.44-1.67,2.86-2.53,4.26h-130.9v-29.72h67.8v-76.16h29.73v76.16H873.8z"/>
	<path class="st3" d="M883.27,553.45c-0.25,0.6-0.51,1.21-0.77,1.82c-0.3,0.7-0.6,1.4-0.91,2.1c-0.61,1.4-1.25,2.81-1.91,4.23
		c-0.43,0.95-0.88,1.9-1.35,2.85c-0.36,0.75-0.73,1.5-1.1,2.25c-0.92,1.84-1.87,3.69-2.87,5.54c-0.28,0.52-0.56,1.04-0.85,1.56
		c-0.34,0.63-0.69,1.25-1.04,1.88c-0.7,1.25-1.42,2.5-2.16,3.74c-0.37,0.63-0.75,1.25-1.13,1.88c-0.38,0.62-0.76,1.25-1.15,1.87
		h-9.08c0.86-1.4,1.71-2.82,2.53-4.26l0.49-0.86l0.21-0.36c0.28-0.49,0.56-0.99,0.83-1.49c0.49-0.87,0.97-1.75,1.43-2.63
		c0.38-0.71,0.76-1.41,1.13-2.13c0.43-0.82,0.85-1.65,1.26-2.49c0.3-0.58,0.59-1.17,0.87-1.75c0.54-1.1,1.07-2.21,1.59-3.33
		c0.21-0.46,0.43-0.93,0.64-1.39c0.4-0.85,0.78-1.7,1.15-2.57c0.37-0.82,0.73-1.65,1.08-2.48c0.56-1.31,1.11-2.64,1.64-3.98H883.27z
		"/>
	<path class="st3" d="M710.22,605.96v29.73h-92.31c-0.08-0.05-0.16-0.1-0.23-0.16c-0.55-0.38-1.1-0.76-1.64-1.14
		c-0.14-0.09-0.28-0.19-0.42-0.29c-0.91-0.64-1.81-1.29-2.7-1.95c-0.92-0.67-1.82-1.35-2.71-2.03c-0.06-0.05-0.13-0.1-0.19-0.15
		c-0.51-0.39-1.01-0.78-1.51-1.18c-0.75-0.58-1.49-1.18-2.23-1.79c-0.74-0.6-1.47-1.2-2.19-1.81c-0.6-0.5-1.19-1.01-1.77-1.52
		c-1.54-1.33-3.04-2.68-4.51-4.05c-0.58-0.53-1.14-1.07-1.71-1.61c-0.12-0.11-0.23-0.22-0.34-0.33c-0.76-0.74-1.52-1.47-2.26-2.22
		c-0.71-0.71-1.42-1.43-2.12-2.15c-0.23-0.24-0.46-0.48-0.69-0.72c-0.67-0.7-1.32-1.4-1.97-2.11c-0.78-0.83-1.54-1.68-2.29-2.52
		c-0.59-0.66-1.17-1.33-1.75-2H710.22z"/>
	<path class="st3" d="M851.32,605.96c-0.58,0.67-1.16,1.34-1.75,2c-1.66,1.88-3.38,3.73-5.17,5.57c-0.63,0.65-1.26,1.29-1.9,1.93
		c-0.7,0.7-1.41,1.4-2.13,2.09c-0.04,0.05-0.08,0.09-0.13,0.13c-0.67,0.64-1.35,1.29-2.04,1.93c-0.74,0.69-1.49,1.38-2.24,2.04
		c-0.75,0.68-1.51,1.35-2.28,2.02c-0.58,0.51-1.17,1.02-1.77,1.52c-0.72,0.61-1.45,1.21-2.19,1.81c-0.74,0.61-1.48,1.21-2.23,1.79
		c-0.45,0.36-0.91,0.72-1.37,1.07c-0.75,0.58-1.5,1.15-2.26,1.71c-0.26,0.2-0.52,0.39-0.78,0.58c-1.02,0.76-2.06,1.51-3.12,2.24
		c-0.54,0.38-1.09,0.76-1.64,1.14c-0.07,0.06-0.15,0.11-0.23,0.16h-90.04v-29.73H851.32z"/>
	<path class="st3" d="M710.22,553.45v29.72H577.05c-0.39-0.63-0.77-1.26-1.14-1.89c-0.47-0.78-0.93-1.57-1.39-2.37
		c-0.17-0.29-0.33-0.57-0.49-0.86c-1.89-3.31-3.71-6.75-5.47-10.31c-0.32-0.65-0.63-1.29-0.94-1.95c-0.22-0.44-0.43-0.88-0.64-1.33
		c-0.31-0.67-0.63-1.35-0.94-2.04c-1.33-2.91-2.61-5.9-3.84-8.97h54.31v-76.16h29.73v76.16H710.22z"/>
	<path class="st2" d="M545.86,477.29l-9.47,8.91c0,0,5.39,134.53,131.27,173.13C660.42,656.96,554.46,619.87,545.86,477.29z"/>
	<path class="st2" d="M899.62,486.2l-9.47-8.91c-8.61,142.59-114.56,179.68-121.8,182.04C894.23,620.73,899.62,486.2,899.62,486.2z"
		/>
</g>
<g id="hard_hat" class="st0">
	<path class="st7" d="M826.36,189.72c-0.93-27.04-9.6-52.13-24.74-71.48v-5.87l-2.13-2.51c-7.81-9.2-16.91-16.56-27.05-21.89
		l-13.15-6.91v5.09c-1.02-0.42-2.06-0.83-3.1-1.23v-4.82l-6.68-1.77c-12.96-3.42-23.79-5.02-34.08-5.02
		c-10.3,0-21.12,1.6-34.07,5.02l-6.68,1.77v4.82c-1.04,0.39-2.08,0.8-3.11,1.23v-5.1l-13.15,6.92
		c-10.15,5.34-19.25,12.71-27.04,21.9l-2.13,2.51v5.86c-15.15,19.35-23.82,44.44-24.75,71.49c-3.42,2.82-5.38,7.19-5.03,11.79
		l0.98,12.91c0,0.13-0.01,0.27-0.01,0.42c0,0.88,0.09,1.8,0.27,2.74l2.33,11.9l10.7-5.7c0.38-0.21,0.78-0.42,1.2-0.65l0.16-0.09
		c5.68-3.1,14.25-7.8,30.93-7.8c1.67,0,3.4,0.05,5.17,0.14c2.82,0.86,5.94,2.87,9.06,5.83c5.73,5.45,13.94,10.77,45.23,10.77
		c2.08,0,4.27-0.02,6.51-0.07c3.03-0.06,5.9-0.11,8.6-0.16c29.85-0.53,43.8-0.78,56.02-15.3c2.46-1.72,5.8-2.59,9.93-2.59
		c7.74,0,17.93,3.12,29.52,9.05c0.27,0.13,0.53,0.27,0.79,0.41l11.21,5.83l2.14-12.03c0.13-0.75,0.2-1.52,0.2-2.28
		c0-0.11,0-0.22-0.01-0.33l0.97-12.99C831.74,196.91,829.77,192.53,826.36,189.72z"/>
	<path class="st8" d="M820.07,213.93c0.01,0.07,0.02,0.15,0.02,0.22v0.05c-32.64-16.71-45.77-8.15-49.72-4.95
		c-10.68,13.27-22.99,12.26-58.55,13.01c-35.55,0.74-41.68-4.73-45.36-8.23c-3.68-3.49-8.46-6.93-13.8-8.23
		c-23.24-1.44-34.8,4.83-41.85,8.69c-0.02-0.11-0.03-0.22-0.03-0.32c0-0.07,0.01-0.13,0.03-0.23l0.01-0.13l-1.04-13.75
		c-0.12-1.6,0.84-3.09,2.35-3.63c0.47-0.17,1.02-0.36,1.7-0.57l0.94-0.3l-0.01-0.99c-0.14-27.96,8.56-53.87,24.51-72.97l0.31-0.38
		v-5.74c6.35-7.4,13.62-13.44,21.68-17.98v4.83l2.03-1.21c6.41-3.81,13.39-6.9,20.77-9.2l0.95-0.3v-4.25
		c11.61-3.02,21.31-4.42,30.43-4.42s18.81,1.4,30.44,4.42v4.25l0.94,0.3c7.38,2.3,14.36,5.39,20.77,9.2l2.03,1.21V97.5
		c8.05,4.54,15.33,10.58,21.68,17.98v5.74l0.31,0.38c15.96,19.1,24.66,45.01,24.51,72.97l-0.01,0.99l0.94,0.3
		c0.67,0.22,1.23,0.4,1.7,0.57c1.5,0.54,2.47,2.03,2.35,3.62l-1.03,13.62l-0.01,0.13L820.07,213.93z"/>
	<polygon class="st9" points="747.51,161.72 743.8,179.07 731.81,181.81 746.34,181.81 	"/>
	<path class="st9" d="M616.38,201.81l0.16,2.07c6.56-2.61,14.77-4.05,18.51-4.61c5.08-0.76,9.02-1.11,12.41-1.11
		c2.7,0,5.14,0.23,7.39,0.72C646.23,194.96,621.01,200.38,616.38,201.81z"/>
	<polygon class="st9" points="686.58,142.63 714.79,131.05 682.49,140.48 685.22,181.81 	"/>
	<g class="st1">
		<path class="st2" d="M705.49,222.82c-30.51,0-36.06-5.28-39.38-8.44c-4.45-4.22-9.14-7.03-13.57-8.11c-2.16-0.13-4.37-0.2-6.5-0.2
			c-18.85,0-28.96,5.53-35,8.84l-0.11,0.06c-0.4,0.22-0.79,0.44-1.16,0.64l-0.6,0.32l-0.13-0.66c-0.08-0.4-0.12-0.77-0.12-1.11
			c0-0.14,0.02-0.27,0.03-0.4l-1.03-13.56c-0.19-2.43,1.28-4.7,3.56-5.51c0.4-0.14,0.87-0.3,1.41-0.48
			c-0.07-28.19,8.74-54.33,24.83-73.66v-5.75l0.12-0.14c7.08-8.36,15.33-15.04,24.52-19.87l0.73-0.39v4.68
			c6.2-3.62,12.95-6.58,20.06-8.82v-4.33l0.37-0.1c12.22-3.23,22.36-4.74,31.9-4.74c9.54,0,19.68,1.51,31.91,4.74l0.37,0.1v4.33
			c7.11,2.24,13.85,5.2,20.05,8.82v-4.68l0.73,0.39c9.17,4.82,17.43,11.51,24.53,19.87l0.12,0.14v5.75
			c16.08,19.33,24.88,45.47,24.82,73.66c0.54,0.17,1.01,0.34,1.41,0.48c2.28,0.81,3.75,3.07,3.56,5.5l-1.02,13.62
			c0.02,0.11,0.03,0.23,0.03,0.35c0,0.27-0.02,0.53-0.07,0.8l-0.12,0.67l-0.9-0.47c-0.33-0.17-0.65-0.34-0.98-0.51
			c-12.9-6.6-24.1-9.95-33.31-9.95c-6.45,0-11.78,1.65-15.83,4.9c-9.91,12.27-20.91,12.47-50.27,12.99
			c-2.71,0.05-5.58,0.1-8.63,0.16C709.6,222.8,707.5,222.82,705.49,222.82z M717,218.34c1.67,0,3.35,0.01,5.03,0.02
			c1.69,0.01,3.38,0.02,5.06,0.02c14.13,0,28.72-0.8,38.09-10.42c4.97-5.1,10.26-7.17,18.25-7.17c3.26,0,7.07,0.34,12.02,1.08
			c3.38,0.51,14.59,2.41,21.22,5.98l0.6-7.87c-6.94-2.43-33.67-9.88-100.27-10.07l-0.75,0.01l-0.81-0.01l-0.75,0.01l-0.81-0.01
			c-66.69,0.19-93.39,7.67-100.25,10.07l0.6,7.87c6.63-3.57,17.85-5.47,21.23-5.98c4.94-0.73,8.76-1.08,12.01-1.08
			c7.99,0,13.28,2.08,18.25,7.17c9.37,9.62,23.96,10.42,38.09,10.42c1.68,0,3.37-0.01,5.06-0.02c1.68-0.01,3.36-0.02,5.03-0.02H717z
			 M779.56,187.19c8.13,0.86,15.62,1.92,22.26,3.14c3.29,0.61,6.31,1.25,9.01,1.9c0.02-0.48,0.03-0.95,0.03-1.43
			c0.2-23.6-5.92-45-17.72-62.04V143l-1,0.07l-3.62-26.62c-5.62-6.21-10.63-10.55-16.15-13.95l-3.61,29.45l-1-0.06v-27.57
			c-6.12-3.94-12.86-7.25-20.05-9.87v29.97l-1,0.06l-1.8-14.95l-2.27-18.85c-5.03-2.63-15.57-5.41-27.22-5.41
			c-11.64,0-22.19,2.78-27.22,5.41l-4.06,33.8l-1-0.06V94.45c-7.19,2.61-13.93,5.93-20.06,9.87v27.57l-1,0.06l-2.31-18.86
			l-1.31-10.59c-5.52,3.4-10.54,7.74-16.15,13.95l-3.61,26.62l-1-0.07v-14.23C625.93,145.8,619.8,167.2,620,190.8
			c0.01,0.47,0.02,0.95,0.04,1.43c2.7-0.65,5.73-1.29,9.01-1.9c6.63-1.22,14.12-2.28,22.26-3.14c0-5.17-0.22-10.1-0.44-14.86
			l-0.04-0.98c-6.15,0.42-12.45,1.93-20.31,4.85l-1.2,12.94l-1-0.04l-0.14-14.84l0.3-0.13c9.19-4.09,18.24-6.43,27.66-7.16
			l0.44-0.03l0.09,0.43c0.54,2.6,0.97,5.98,1.42,9.55c0.38,3.06,0.78,6.23,1.31,9.49c5.6-0.48,11.59-0.9,17.82-1.23l-4.14-51.09
			l42.37-13.87l42.37,13.87l-4.41,51.08c6.2,0.32,12.28,0.73,18.09,1.24c0.53-3.26,0.93-6.42,1.31-9.49
			c0.45-3.57,0.87-6.95,1.42-9.55l0.09-0.43l0.44,0.03c9.42,0.73,18.46,3.07,27.66,7.16l0.3,0.13l-0.14,14.84l-1,0.04l-1.2-12.94
			c-7.86-2.92-14.16-4.43-20.31-4.85l-0.04,0.96C779.79,177.08,779.56,182.01,779.56,187.19z M716.99,184.22
			c11.1,0.03,21.92,0.28,32.17,0.74l2.7-46.82l-36.43-10.87L679,138.14l2.7,46.82c10.24-0.46,21.06-0.71,32.15-0.74l0.81,0.01
			l0.75-0.01l0.81,0.01L716.99,184.22z"/>
		<path class="st2" d="M715.43,81.61c10.8,0,21.25,1.94,31.78,4.72v4.31c7.58,2.36,14.61,5.49,21.05,9.33v-4.73
			c9.16,4.81,17.28,11.39,24.38,19.76v5.74c16.29,19.51,24.96,45.54,24.82,73.84c0.68,0.22,1.27,0.41,1.74,0.58
			c2.07,0.74,3.4,2.79,3.23,4.99l-1.02,13.62c0.01,0.12,0.03,0.25,0.03,0.39c0,0.22-0.02,0.46-0.06,0.71
			c-0.43-0.22-0.85-0.45-1.28-0.66c-14.94-7.65-25.78-10-33.54-10c-9.19,0-14.04,3.31-16.19,5.05
			c-10.68,13.27-22.99,12.26-58.55,13.01c-2.22,0.05-4.32,0.07-6.32,0.07c-29.98,0-35.59-5.02-39.04-8.3
			c-3.68-3.49-8.46-6.93-13.8-8.23c-2.32-0.14-4.52-0.21-6.61-0.21c-18.89,0-28.89,5.42-35.24,8.9c-0.44,0.24-0.86,0.48-1.27,0.69
			c-0.07-0.37-0.11-0.71-0.11-1.01c0-0.13,0.02-0.26,0.04-0.39l-1.03-13.62c-0.17-2.21,1.16-4.26,3.23-5
			c0.48-0.17,1.06-0.37,1.74-0.58c-0.14-28.3,8.53-54.33,24.83-73.84v-5.74c7.09-8.37,15.22-14.94,24.37-19.76v4.73
			c6.44-3.83,13.46-6.97,21.06-9.33v-4.31C694.18,83.55,704.64,81.61,715.43,81.61 M683.66,124.42V93.74
			c-7.7,2.74-14.72,6.2-21.06,10.3v27.84l-2.31-18.86l-1.4-11.36c-6.4,3.83-11.67,8.62-17.03,14.56l-1.49,10.97L638.24,143v-15.81
			c-12.61,17.52-18.94,39.52-18.73,63.61c0.01,0.68,0.03,1.37,0.06,2.06c2.59-0.64,5.75-1.33,9.58-2.04
			c5.9-1.09,13.36-2.21,22.66-3.19c0.02-5.9-0.27-11.5-0.51-16.82c-7.1,0.42-13.82,2.24-21.25,5.03l-1.23,13.26l-0.13-14.51
			c8.43-3.75,17.47-6.35,27.49-7.12c1.01,4.81,1.57,12.05,2.8,19.48c5.65-0.49,11.91-0.93,18.78-1.29l-4.15-51.21l41.84-13.7
			l41.84,13.7l-4.42,51.2c6.97,0.35,13.32,0.8,19.05,1.3c1.23-7.42,1.8-14.67,2.8-19.48c10.03,0.77,19.06,3.37,27.49,7.12
			l-0.13,14.51l-1.23-13.26c-7.43-2.78-14.15-4.6-21.25-5.03c-0.24,5.32-0.53,10.92-0.51,16.82c9.3,0.98,16.77,2.1,22.67,3.19
			c3.81,0.71,6.98,1.4,9.57,2.04c0.04-0.68,0.06-1.37,0.06-2.06c0.21-24.09-6.12-46.09-18.72-63.61V143l-2.15-15.81L789,116.23
			c-5.36-5.94-10.63-10.73-17.03-14.56l-1.39,11.36l-2.32,18.86v-27.84c-6.34-4.1-13.36-7.57-21.05-10.3v30.68l-1.8-14.95
			l-2.3-19.11c-5.35-2.89-16.28-5.59-27.68-5.59s-22.33,2.7-27.68,5.59l-2.3,19.11L683.66,124.42 M681.24,185.48
			c9.66-0.44,20.49-0.73,32.63-0.76l0.8,0.01l0.76-0.01l0.8,0.01l0.76-0.01c12.14,0.04,22.98,0.32,32.64,0.76l2.76-47.71
			l-36.95-11.02l-36.95,11.02L681.24,185.48 M716.22,189.4l-0.8-0.01l-0.76,0.01l-0.8-0.01c-67.45,0.2-94.06,7.84-100.62,10.17
			c-0.1,0.03-0.15,0.13-0.15,0.23l0.67,8.86c6.18-3.63,17.27-5.63,21.74-6.3c4.6-0.68,8.51-1.07,11.94-1.07
			c7.76,0,12.98,1.99,17.89,7.02c9.43,9.67,23.78,10.58,38.45,10.58c3.37,0,6.75-0.05,10.09-0.05H717c3.34,0,6.73,0.05,10.09,0.05
			c14.67,0,29.02-0.9,38.45-10.58c4.91-5.03,10.13-7.02,17.89-7.02c3.42,0,7.34,0.39,11.94,1.07c4.46,0.67,15.55,2.67,21.73,6.3
			l0.67-8.86c0.01-0.11-0.05-0.21-0.15-0.23c-6.55-2.33-33.16-9.97-100.63-10.17L716.22,189.4 M715.43,80.61
			c-9.59,0-19.77,1.51-32.03,4.75l-0.74,0.2v0.77v3.57c-6.73,2.15-13.13,4.94-19.06,8.32v-2.99v-1.66l-1.47,0.77
			c-9.24,4.86-17.54,11.59-24.67,19.99l-0.24,0.28v0.37v5.38c-16.02,19.32-24.82,45.37-24.83,73.48c-0.38,0.13-0.74,0.25-1.08,0.37
			c-2.49,0.89-4.1,3.36-3.89,6.02l1.02,13.51c-0.02,0.12-0.03,0.26-0.03,0.42c0,0.37,0.04,0.78,0.13,1.21l0.26,1.33l1.19-0.64
			c0.37-0.2,0.75-0.41,1.15-0.63l0.13-0.07c6-3.28,16.04-8.77,34.76-8.77c2.09,0,4.26,0.07,6.46,0.2c4.32,1.08,8.9,3.83,13.26,7.96
			c3.37,3.21,9.01,8.57,39.73,8.57c2.02,0,4.16-0.02,6.34-0.07c3.04-0.06,5.91-0.11,8.63-0.16c29.49-0.52,40.57-0.72,50.61-13.13
			c3.96-3.16,9.16-4.76,15.48-4.76c9.13,0,20.26,3.33,33.08,9.89c0.32,0.16,0.63,0.32,0.94,0.49l0.33,0.17l1.21,0.63l0.24-1.34
			c0.05-0.3,0.08-0.58,0.08-0.88c0-0.13-0.01-0.26-0.02-0.38l0-0.02l1.02-13.54c0.21-2.65-1.4-5.12-3.89-6.01
			c-0.33-0.12-0.69-0.24-1.07-0.37c-0.01-28.1-8.81-54.15-24.82-73.48v-5.38v-0.37l-0.24-0.28c-7.14-8.42-15.44-15.14-24.68-19.99
			l-1.47-0.77v1.66v2.99c-5.92-3.38-12.32-6.17-19.05-8.32v-3.57v-0.77l-0.74-0.2C735.2,82.12,725.02,80.61,715.43,80.61
			L715.43,80.61z M688.68,91c5.06-2.57,15.37-5.23,26.75-5.23s21.69,2.67,26.75,5.23l2.23,18.59l1.8,14.95l1.99-0.12V95.17
			c6.81,2.53,13.21,5.69,19.05,9.42v27.3l1.99,0.12l2.32-18.86l1.2-9.81c5.19,3.29,9.96,7.46,15.27,13.33l1.45,10.66l2.15,15.81
			l1.99-0.14v-12.61c11.15,16.72,16.92,37.53,16.72,60.4c0,0.25,0,0.52-0.01,0.81c-2.55-0.6-5.38-1.2-8.44-1.76
			c-6.54-1.2-13.89-2.25-21.86-3.1c0.01-5.01,0.23-9.78,0.44-14.41l0.02-0.44c5.86,0.46,11.9,1.92,19.36,4.68l1.17,12.63l2-0.08
			l0.13-14.51l0.01-0.66l-0.6-0.27c-9.25-4.12-18.35-6.47-27.82-7.2l-0.88-0.07l-0.18,0.86c-0.55,2.63-0.97,6.01-1.42,9.59
			c-0.37,2.91-0.74,5.92-1.24,9.01c-5.51-0.47-11.26-0.87-17.12-1.17l4.33-50.17l0.07-0.79l-0.75-0.25l-41.84-13.7l-0.31-0.1
			l-0.31,0.1l-41.84,13.7l-0.75,0.25l0.06,0.79l4.06,50.18c-5.87,0.32-11.54,0.71-16.86,1.16c-0.49-3.09-0.87-6.1-1.24-9.01
			c-0.45-3.58-0.88-6.97-1.42-9.59l-0.18-0.86l-0.88,0.07c-9.47,0.73-18.58,3.09-27.82,7.2l-0.6,0.27l0.01,0.66l0.13,14.51l2,0.08
			l1.17-12.63c7.46-2.75,13.5-4.22,19.36-4.68l0.02,0.44c0.21,4.63,0.43,9.4,0.44,14.41c-7.98,0.86-15.32,1.9-21.84,3.1
			c-3.05,0.57-5.89,1.16-8.44,1.76c-0.01-0.26-0.01-0.53-0.02-0.81c-0.2-22.87,5.58-43.68,16.73-60.4V143l1.99,0.13l2.15-15.81
			l1.45-10.66c5.31-5.87,10.09-10.04,15.28-13.33l1.21,9.82l2.31,18.86l1.99-0.12v-27.3c5.84-3.73,12.25-6.9,19.06-9.42v29.25
			l1.99,0.12l1.8-14.95L688.68,91L688.68,91z M679.53,138.51l35.91-10.71l35.91,10.71l-2.65,45.93c-10.12-0.45-20.78-0.69-31.7-0.72
			l-0.78,0.01l-0.78-0.01l-0.79,0.01l-0.78-0.01c-10.94,0.03-21.59,0.27-31.7,0.72L679.53,138.51L679.53,138.51z M716.22,190.4
			l0.01,0l0.76-0.01c65.5,0.19,92.35,7.4,99.73,9.92l-0.51,6.73c-6.52-3.27-16.5-5.04-20.7-5.68c-4.97-0.74-8.81-1.08-12.09-1.08
			c-8.14,0-13.53,2.12-18.61,7.32c-9.24,9.48-23.71,10.27-37.73,10.27c-1.68,0-3.37-0.01-5.06-0.02c-1.68-0.01-3.36-0.02-5.04-0.02
			h-3.12c-1.67,0-3.35,0.01-5.04,0.02c-1.68,0.01-3.37,0.02-5.06,0.02c-14.03,0-28.49-0.79-37.73-10.27
			c-5.07-5.2-10.46-7.32-18.6-7.32c-3.28,0-7.12,0.34-12.08,1.08c-4.2,0.63-14.18,2.4-20.71,5.68l-0.51-6.73
			c7.38-2.52,34.23-9.73,99.73-9.92l0.78,0.01l0.79-0.01l0.78,0.01L716.22,190.4L716.22,190.4z"/>
	</g>
	<path class="st9" d="M777.05,195.83c-8.66,0-14.67,2.38-20.11,7.97c-8.66,8.89-22.64,9.63-36.21,9.63c-1.68,0-3.36-0.01-5.04-0.02
		c-1.69-0.01-3.38-0.02-5.05-0.02h-3.12c-1.68,0-3.36,0.01-5.05,0.02c-1.68,0.01-3.36,0.02-5.04,0.02c-7.75,0-15.63-0.24-22.58-2.11
		c8.24,4.02,18.71,4.45,28.95,4.45c1.68,0,3.36-0.01,5.04-0.02c1.69-0.01,3.38-0.02,5.05-0.02h3.12c1.68,0,3.36,0.01,5.05,0.02
		c1.68,0.01,3.36,0.02,5.04,0.02c13.57,0,27.55-0.74,36.21-9.63c5.44-5.58,11.46-7.97,20.11-7.97c3.39,0,7.33,0.35,12.41,1.11
		c3.74,0.56,12.14,2.27,12.14,2.27c-6.56-2.61-14.77-4.05-18.5-4.61C784.38,196.18,780.44,195.83,777.05,195.83z"/>
	<path class="st7" d="M808.82,188.75c-1.01-21.21-5.8-36.79-12.28-49.84c6.14,15.53,9.35,33.45,9.16,48.85L808.82,188.75z"/>
	<path class="st9" d="M626.4,172.11l5.51-2.22c-0.93-8.44,0.6-21.56,3.85-33.78c-13.78,22.62-13.26,53.42-13.26,53.42L626.4,172.11z
		"/>
	<path class="st9" d="M740.13,92.18c-17.16-6.37-43.89-3.54-49.71,0.68l-2.92,26.48C689.83,107.36,698.15,88.44,740.13,92.18z"/>
	<path class="st9" d="M682.49,97.38c-5.87,2.18-11.72,5.43-17.55,9.65v14.33C667.28,109.37,673.71,103.03,682.49,97.38z"/>
	<path class="st9" d="M644.08,118.63l-3.64,21.64c3.38-10.14,11.59-27.3,17.55-34.12C652.85,109.36,648.21,113.5,644.08,118.63z"/>
</g>
<g id="glasses">
	<g>
		<path class="st2" d="M717.5,379.07c0.07,0.01,0.13,0.03,0.19,0.04v-0.09C717.63,379.04,717.56,379.05,717.5,379.07z"/>
		<path class="st2" d="M730.3,408.36l0.02-0.01c8.87,53.33,55.19,94,111.04,94c51.52,0,94.92-34.61,108.31-81.83v0.08
			c0,0,0.01-0.06,0.02-0.16c0.12-0.44,0.26-0.87,0.37-1.31c0.18-0.47,0.45-0.98,0.84-1.44c0.11-0.14,0.24-0.27,0.38-0.4
			c0.03-0.02,0.05-0.04,0.08-0.06c0.14-0.12,0.28-0.24,0.45-0.34c0.02-0.02,0.06-0.03,0.08-0.05c0.15-0.09,0.31-0.16,0.48-0.23
			c0.03-0.02,0.06-0.03,0.1-0.05c0.19-0.07,0.4-0.12,0.61-0.16c0.05-0.01,0.1-0.02,0.15-0.03c0.23-0.04,0.47-0.06,0.73-0.06
			c3.85,0,7.71,0,7.71,0s0.04,0,0.1-0.01c0.02,0,0.04-0.01,0.07-0.01c0.11-0.02,0.27-0.05,0.46-0.09c1.13-0.27,3.4-1.19,3.4-4.28
			v-44.38c0-4.13-4.03-4.39-4.03-4.39s-3.86,0-7.71,0c-2.38,0-3.45-1.64-3.93-2.89c-0.1-0.37-0.2-0.73-0.31-1.09
			c-0.03-0.19-0.05-0.32-0.05-0.32v0.13c-5.02-17.72-14.27-33.66-26.59-46.66c38.45-20.58,74.66,0.13,74.66,0.13
			s10.63,7.22,8.02-4.62c-2.57-11.65-16.21-26.79-16.64-27.26c0.48,0.2,17.03,7.16,2.6-9.84c-13.96-16.45-45.07-20.86-47.93-21.24
			c2.25,0.17,20.98,1.31-3.21-9.45c-25.39-11.3-67.25,2.88-68.18,3.2c0.76-0.37,23.15-11.35-17.87-7.01
			c-38.84,4.11-59.07,46.1-61.68,51.88c-34.19,16.37-58.83,49.46-63.32,88.69c-0.02,0.02-0.03,0.04-0.03,0.04s0,0.92-0.39,1.91
			c-2.57-3.77-6.89-6.24-11.8-6.24c-4.75,0-8.95,2.32-11.54,5.88c-0.04-0.11-0.06-0.21-0.09-0.31
			c-3.94-40.01-28.85-73.64-63.58-90.09c-2.81-6.17-23.02-47.68-61.63-51.76c-41.02-4.34-18.63,6.64-17.87,7.01
			c-0.93-0.32-42.79-14.5-68.18-3.2c-24.26,10.8-5.34,9.61-3.19,9.45c-2.69,0.35-33.95,4.74-47.95,21.24
			c-14.43,17,2.12,10.04,2.6,9.84c-0.43,0.47-14.07,15.61-16.64,27.26c-2.61,11.84,8.02,4.62,8.02,4.62s36.21-20.71,74.66-0.13
			c-10.26,10.83-18.4,23.71-23.73,37.96c-1.07,2.85-2.02,5.75-2.86,8.7v-0.13c0,0-0.02,0.13-0.05,0.32
			c-0.11,0.36-0.21,0.72-0.31,1.09c-0.07,0.18-0.16,0.37-0.25,0.56c-0.03,0.05-0.06,0.1-0.08,0.15c-0.09,0.15-0.18,0.3-0.28,0.45
			c-0.03,0.04-0.07,0.09-0.1,0.14c-0.13,0.17-0.27,0.34-0.43,0.5c-0.02,0.01-0.03,0.03-0.05,0.04c-0.19,0.18-0.4,0.35-0.64,0.49
			c-0.55,0.34-1.24,0.56-2.1,0.56c-3.85,0-7.71,0-7.71,0s-4.03,0.26-4.03,4.39v44.38c0,2.39,1.35,3.48,2.49,3.96
			c0.11,0.05,0.21,0.09,0.31,0.13c0.13,0.05,0.26,0.09,0.38,0.13c0.08,0.02,0.15,0.04,0.22,0.06c0.19,0.04,0.35,0.07,0.46,0.09
			c0.03,0,0.05,0.01,0.07,0.01c0.06,0.01,0.1,0.01,0.1,0.01s3.86,0,7.71,0c0.26,0,0.5,0.02,0.73,0.06c0.05,0.01,0.1,0.02,0.15,0.03
			c0.21,0.04,0.42,0.09,0.61,0.16c0.04,0.02,0.07,0.03,0.1,0.05c0.17,0.07,0.33,0.14,0.48,0.23c0.02,0.02,0.06,0.03,0.08,0.05
			c0.17,0.1,0.31,0.22,0.45,0.34c0.03,0.02,0.05,0.04,0.08,0.06c0.14,0.13,0.27,0.26,0.38,0.4c0.39,0.46,0.66,0.97,0.84,1.44
			c0.11,0.44,0.25,0.87,0.37,1.31c0.01,0.1,0.02,0.16,0.02,0.16v-0.08c13.39,47.22,56.79,81.83,108.31,81.83
			c55.85,0,102.17-40.67,111.04-94l0.02,0.01c0.05-2.74,2.87-15.62,12.61-15.62s10.83,5.47,13.01,15.61 M556.97,237.7
			c0.25-0.94,1.63-1.13,2.6-1.15c0.22-0.02,0.46-0.01,0.65,0.01c0.02,0,0.04,0,0.06,0.01h-0.04c-0.08,0-0.18-0.01-0.28-0.01
			c-0.12-0.01-0.25-0.01-0.39-0.01c-1.29,0.14-1.92,1.45,12.81,9.51c1.05,0.57,2.07,1.16,3.05,1.75c0.63,0.38,1.24,0.76,1.84,1.15
			c0.62,0.39,1.22,0.79,1.82,1.2c0.24,0.16,0.48,0.32,0.71,0.49c2.38,1.65,4.55,3.36,6.52,5.06c0.24,0.2,0.48,0.41,0.71,0.62
			c1.64,1.45,3.13,2.89,4.47,4.3c0.4,0.4,0.77,0.8,1.13,1.19c0.55,0.6,1.07,1.19,1.56,1.76c0.16,0.19,0.32,0.38,0.48,0.57
			c0.17,0.19,0.32,0.38,0.47,0.56c0.16,0.19,0.32,0.37,0.46,0.56c0.45,0.56,0.88,1.1,1.27,1.62c0.78,1.02,1.47,1.98,2.07,2.87
			c0.11,0.15,0.21,0.31,0.31,0.46c2.12,3.17,3.15,5.35,3.32,5.73c-0.29-0.48-0.57-0.94-0.86-1.4c-0.58-0.94-1.18-1.85-1.8-2.73
			c-0.01-0.01-0.01-0.02-0.01-0.02c-0.57-0.82-1.15-1.61-1.74-2.38c-1.31-1.72-2.67-3.32-4.05-4.82c-0.66-0.72-1.33-1.41-2-2.08
			c-4.35-4.35-8.77-7.67-12.58-10.32c-0.59-0.4-1.16-0.79-1.72-1.17c-1.66-1.13-3.19-2.13-4.49-3.03
			C566.36,243.18,556.58,239.18,556.97,237.7z M485.4,247.63c0-0.03-0.01-0.07-0.01-0.1c0-0.09,0.01-0.18,0.04-0.27
			c0-0.02,0.01-0.04,0.02-0.06c0.01-0.04,0.02-0.08,0.04-0.12c0.08-0.19,0.2-0.38,0.36-0.57c0.04-0.06,0.09-0.11,0.15-0.17
			c0.32-0.34,0.74-0.69,1.2-1.02c0.15-0.1,0.3-0.2,0.45-0.3c1.22-0.79,2.57-1.44,3.08-1.67c0.03-0.02,0.06-0.03,0.08-0.04
			c0.01,0,0.01,0,0.01,0c0.03-0.01,0.05-0.02,0.07-0.03c-0.02,0.01-0.04,0.02-0.07,0.04c-0.01,0-0.02,0.01-0.03,0.01
			c-0.4,0.22-1.44,0.82-2.14,1.45c-0.08,0.07-0.16,0.14-0.23,0.21s-0.14,0.15-0.19,0.22c-0.6,0.73-0.4,1.39,2.25,1.38
			c9.33-0.02,18.79-0.8,39.71,10.16c1.64,0.86,3.18,1.73,4.64,2.61c0.51,0.31,1.01,0.62,1.5,0.93c1.74,1.09,3.34,2.2,4.83,3.3
			c0.23,0.17,0.47,0.35,0.7,0.53c0.6,0.45,1.17,0.9,1.73,1.35c0.3,0.25,0.6,0.49,0.89,0.73l0.21,0.18c0.34,0.29,0.67,0.57,0.98,0.85
			c0.2,0.17,0.39,0.34,0.58,0.51c3.31,2.97,5.71,5.73,7.38,7.95c0.18,0.24,0.36,0.48,0.52,0.71c0.18,0.23,0.34,0.46,0.48,0.67
			c0.23,0.32,0.43,0.63,0.62,0.91c0.19,0.29,0.36,0.57,0.51,0.82c0.32,0.5,0.56,0.93,0.74,1.26c0.13,0.23,0.22,0.41,0.29,0.55
			c0.08,0.15,0.12,0.25,0.14,0.3c-0.4-0.62-4.9-7.4-14.68-14.88c-0.19-0.15-0.38-0.3-0.58-0.45c-0.61-0.46-1.25-0.92-1.91-1.39
			c-0.65-0.46-1.32-0.93-2.02-1.39c-0.54-0.36-1.09-0.72-1.66-1.08c-0.28-0.19-0.56-0.37-0.85-0.54c-0.29-0.19-0.58-0.37-0.88-0.54
			c-0.59-0.36-1.19-0.71-1.8-1.07c-0.96-0.55-1.95-1.1-2.97-1.64c-0.56-0.3-1.13-0.59-1.71-0.89c-0.35-0.17-0.7-0.35-1.06-0.52
			c-0.35-0.18-0.71-0.35-1.08-0.52c-0.36-0.17-0.73-0.35-1.1-0.51c-0.37-0.17-0.74-0.34-1.12-0.51c-0.37-0.17-0.76-0.34-1.14-0.5
			C497.77,243.92,485.61,249.5,485.4,247.63z M510.8,309.15c-0.05-0.05-0.11-0.09-0.18-0.14c0,0-0.01,0-0.02-0.01
			c-0.07-0.04-0.14-0.1-0.23-0.16c-0.11-0.07-0.23-0.15-0.37-0.24c-0.12-0.08-0.26-0.16-0.41-0.25c-0.47-0.29-1.07-0.64-1.79-1.02
			c-0.11-0.05-0.22-0.11-0.33-0.17c-0.48-0.24-1.02-0.5-1.61-0.77c-0.21-0.1-0.44-0.2-0.67-0.3c-0.34-0.15-0.69-0.3-1.06-0.45
			c-0.15-0.06-0.31-0.13-0.47-0.19c-1.19-0.48-2.53-0.96-4.03-1.43c-0.4-0.13-0.81-0.25-1.23-0.38c-0.96-0.28-1.98-0.55-3.05-0.81
			c-0.26-0.06-0.52-0.12-0.79-0.18c-0.53-0.13-1.08-0.25-1.63-0.36c-0.44-0.09-0.88-0.18-1.34-0.27c-0.42-0.08-0.84-0.16-1.27-0.23
			c-0.3-0.05-0.61-0.1-0.91-0.15c-0.93-0.15-1.89-0.29-2.88-0.42c-0.32-0.04-0.65-0.08-0.99-0.12c-1.74-0.21-3.58-0.38-5.52-0.49
			c-0.59-0.04-1.2-0.07-1.81-0.1c-0.09,0-0.18-0.01-0.27-0.01c-1.15-0.05-2.34-0.08-3.56-0.09c-0.98-0.02-1.99-0.01-3.02,0
			c-28.01,0.4-37.51,12.39-39.66,11.48c-2.16-0.9,0.5-6.56,0.5-6.56s-1.18,3.45,0.88,4.14c2.73,0.91,8.26-10.13,38.21-10.39
			c1.4-0.01,2.76,0,4.07,0.03c0.34,0,0.68,0.01,1.02,0.03c0.38,0.01,0.75,0.03,1.11,0.04c0.4,0.02,0.8,0.04,1.2,0.06
			s0.79,0.05,1.17,0.07c0.38,0.02,0.75,0.05,1.12,0.08c0.13,0.01,0.26,0.02,0.39,0.03c0.36,0.03,0.71,0.06,1.05,0.09
			c1.02,0.1,1.99,0.2,2.94,0.32c0.35,0.04,0.69,0.08,1.03,0.13c1.52,0.21,2.96,0.45,4.32,0.71c0.31,0.06,0.62,0.12,0.92,0.18
			c3.03,0.63,5.65,1.37,7.9,2.15c0.22,0.07,0.44,0.15,0.66,0.23c0.23,0.09,0.45,0.17,0.68,0.25c0.52,0.2,1.01,0.4,1.48,0.59
			c0.27,0.12,0.53,0.23,0.79,0.34c1.58,0.7,2.89,1.39,3.96,2.02c0.12,0.07,0.24,0.14,0.35,0.21c0.11,0.07,0.22,0.14,0.33,0.2
			c0.16,0.1,0.31,0.2,0.45,0.29c1.53,1,2.38,1.77,2.67,2.06l0.04,0.05C510.9,309.22,510.86,309.19,510.8,309.15z M498.88,286.36
			c-0.32-0.15-0.65-0.29-0.99-0.43c-2.35-1.01-4.93-2.03-7.73-3.05c-0.4-0.15-0.81-0.29-1.22-0.44c-0.76-0.27-1.54-0.54-2.33-0.81
			c-1.77-0.59-3.62-1.19-5.56-1.78c-31.02-9.42-40.11,1.94-41.55,0.47c-0.32-0.33-0.37-0.8-0.26-1.34c0.01-0.09,0.03-0.18,0.06-0.27
			c0.03-0.11,0.07-0.22,0.11-0.33c0.03-0.08,0.06-0.16,0.1-0.24c0.67-1.59,2.17-3.34,2.4-3.6c-0.22,0.34-0.41,0.7-0.55,1.06
			c-0.03,0.09-0.07,0.17-0.09,0.26c-0.04,0.1-0.07,0.21-0.1,0.32c-0.15,0.58-0.17,1.11-0.04,1.5c0.04,0.11,0.09,0.21,0.15,0.3
			c0.1,0.13,0.23,0.22,0.39,0.27c0.97,0.3,8.7-7.99,39.38,0.43c0.93,0.25,1.84,0.51,2.73,0.78c0.45,0.13,0.89,0.26,1.32,0.4
			c0.94,0.29,1.86,0.58,2.76,0.88c0.86,0.28,1.7,0.57,2.52,0.86c0.81,0.29,1.61,0.58,2.39,0.88c0.41,0.15,0.82,0.31,1.23,0.47
			c0.35,0.14,0.71,0.28,1.05,0.42c0.37,0.15,0.74,0.3,1.1,0.45c0.36,0.15,0.72,0.3,1.07,0.45c0.7,0.3,1.39,0.6,2.06,0.91
			c0.67,0.3,1.32,0.6,1.95,0.91c1.58,0.76,3.05,1.52,4.42,2.28c0.54,0.29,1.06,0.59,1.57,0.88c0.31,0.18,0.62,0.36,0.91,0.54
			c0.45,0.27,0.88,0.54,1.3,0.8c0.48,0.3,0.94,0.59,1.39,0.88c0.62,0.42,1.22,0.83,1.78,1.22c0.59,0.42,1.15,0.82,1.66,1.22
			c0.18,0.13,0.34,0.26,0.51,0.39c1.97,1.52,3.43,2.87,4.45,3.9c0.09,0.08,0.17,0.17,0.25,0.25c0.9,0.94,1.42,1.58,1.62,1.84
			c-0.08-0.08-0.2-0.21-0.36-0.38c-0.04-0.04-0.07-0.08-0.12-0.12l-0.14-0.14c-0.49-0.49-1.26-1.21-2.35-2.11
			c-0.16-0.14-0.34-0.28-0.53-0.43c-0.05-0.03-0.1-0.08-0.16-0.12c-0.12-0.1-0.25-0.2-0.37-0.29c-0.52-0.4-1.08-0.83-1.7-1.27
			c-0.16-0.11-0.32-0.22-0.48-0.33C511.37,292.64,506.2,289.57,498.88,286.36z M593.64,486.21c-53.28,0-96.46-43.19-96.46-96.46
			c0-53.27,43.18-96.46,96.46-96.46c53.27,0,96.46,43.19,96.46,96.46C690.1,443.02,646.91,486.21,593.64,486.21z M717.69,379.11
			c-0.06-0.01-0.12-0.03-0.19-0.04c-0.07,0.01-0.13,0.03-0.19,0.04v-0.09c0.06,0.02,0.13,0.03,0.19,0.05
			c0.06-0.02,0.13-0.03,0.19-0.05V379.11z M878.21,280.61c0.07-0.14,0.16-0.32,0.29-0.55c0.18-0.33,0.42-0.76,0.74-1.26
			c0.15-0.25,0.32-0.53,0.51-0.82c0.19-0.28,0.39-0.59,0.62-0.91c0.14-0.21,0.3-0.44,0.48-0.67c0.16-0.23,0.34-0.47,0.52-0.71
			c1.67-2.22,4.07-4.98,7.38-7.95c0.19-0.17,0.38-0.34,0.58-0.51c0.31-0.28,0.64-0.56,0.98-0.85l0.21-0.18
			c0.29-0.24,0.59-0.48,0.89-0.73c0.56-0.45,1.13-0.9,1.73-1.35c0.23-0.18,0.47-0.36,0.7-0.53c1.49-1.1,3.09-2.21,4.83-3.3
			c0.49-0.31,0.99-0.62,1.5-0.93c1.46-0.88,3-1.75,4.64-2.61c20.92-10.96,30.38-10.18,39.71-10.16c2.65,0.01,2.85-0.65,2.25-1.38
			c-0.05-0.07-0.12-0.15-0.19-0.22s-0.15-0.14-0.23-0.21c-0.7-0.63-1.74-1.23-2.14-1.45c-0.01,0-0.02-0.01-0.03-0.01
			c-0.03-0.02-0.05-0.03-0.07-0.04c0.02,0.01,0.04,0.02,0.07,0.03c0,0,0,0,0.01,0c0.02,0.01,0.05,0.02,0.08,0.04
			c0.51,0.23,1.86,0.88,3.08,1.67c0.15,0.1,0.3,0.2,0.45,0.3c0.46,0.33,0.88,0.68,1.2,1.02c0.06,0.06,0.11,0.11,0.15,0.17
			c0.16,0.19,0.28,0.38,0.36,0.57c0.02,0.04,0.03,0.08,0.04,0.12c0.01,0.02,0.02,0.04,0.02,0.06c0.03,0.09,0.04,0.18,0.04,0.27
			c0,0.03-0.01,0.07-0.01,0.1c-0.21,1.87-12.37-3.71-36.97,6.85c-0.38,0.16-0.77,0.33-1.14,0.5c-0.38,0.17-0.75,0.34-1.12,0.51
			c-0.37,0.16-0.74,0.34-1.1,0.51c-0.37,0.17-0.73,0.34-1.08,0.52c-0.36,0.17-0.71,0.35-1.06,0.52c-0.58,0.3-1.15,0.59-1.71,0.89
			c-1.02,0.54-2.01,1.09-2.97,1.64c-0.61,0.36-1.21,0.71-1.8,1.07c-0.3,0.17-0.59,0.35-0.88,0.54c-0.29,0.17-0.57,0.35-0.85,0.54
			c-0.57,0.36-1.12,0.72-1.66,1.08c-0.7,0.46-1.37,0.93-2.02,1.39c-0.66,0.47-1.3,0.93-1.91,1.39c-0.2,0.15-0.39,0.3-0.58,0.45
			c-9.78,7.48-14.28,14.26-14.68,14.88C878.09,280.86,878.13,280.76,878.21,280.61z M835.75,270.22c0.1-0.15,0.2-0.31,0.31-0.46
			c0.6-0.89,1.29-1.85,2.07-2.87c0.39-0.52,0.82-1.06,1.27-1.62c0.14-0.19,0.3-0.37,0.46-0.56c0.15-0.18,0.3-0.37,0.47-0.56
			c0.16-0.19,0.32-0.38,0.48-0.57c0.49-0.57,1.01-1.16,1.56-1.76c0.36-0.39,0.73-0.79,1.13-1.19c1.34-1.41,2.83-2.85,4.47-4.3
			c0.23-0.21,0.47-0.42,0.71-0.62c1.97-1.7,4.14-3.41,6.52-5.06c0.23-0.17,0.47-0.33,0.71-0.49c0.6-0.41,1.2-0.81,1.82-1.2
			c0.6-0.39,1.21-0.77,1.84-1.15c0.98-0.59,2-1.18,3.05-1.75c14.73-8.06,14.1-9.37,12.81-9.51c-0.42,0-0.76,0.03-0.91,0.04
			c0.16-0.02,0.56-0.07,0.91-0.04c0.97,0.02,2.35,0.21,2.6,1.15c0.39,1.48-9.39,5.48-16.35,10.3c-1.3,0.9-2.83,1.9-4.49,3.03
			c-0.56,0.38-1.13,0.77-1.72,1.17c-3.81,2.65-8.23,5.97-12.58,10.32c-0.67,0.67-1.34,1.36-2,2.08c-1.38,1.5-2.74,3.1-4.05,4.82
			c-0.59,0.77-1.17,1.56-1.74,2.38c0,0,0,0.01-0.01,0.02c-0.62,0.88-1.22,1.79-1.8,2.73c-0.29,0.46-0.57,0.92-0.86,1.4
			C832.6,275.57,833.63,273.39,835.75,270.22z M937.82,389.75c0,53.27-43.18,96.46-96.46,96.46c-53.27,0-96.46-43.19-96.46-96.46
			c0-53.27,43.19-96.46,96.46-96.46C894.64,293.29,937.82,336.48,937.82,389.75z M920.12,295.1c-0.16,0.11-0.32,0.22-0.48,0.33
			c-0.62,0.44-1.18,0.87-1.7,1.27c-0.12,0.09-0.25,0.19-0.37,0.29c-0.06,0.04-0.11,0.09-0.16,0.12c-0.19,0.15-0.36,0.3-0.53,0.43
			c-1.09,0.9-1.86,1.62-2.35,2.11c-0.1,0.1-0.18,0.19-0.26,0.26c-0.16,0.17-0.28,0.3-0.36,0.38c0.2-0.26,0.72-0.9,1.62-1.84
			c0.08-0.08,0.16-0.17,0.25-0.25c1.02-1.03,2.48-2.38,4.45-3.9c0.17-0.13,0.33-0.26,0.51-0.39c0.51-0.4,1.07-0.8,1.66-1.22
			c0.56-0.39,1.16-0.8,1.78-1.22c0.45-0.29,0.91-0.58,1.39-0.88c0.42-0.26,0.85-0.53,1.3-0.8c0.29-0.18,0.6-0.36,0.91-0.54
			c0.51-0.29,1.03-0.59,1.57-0.88c1.37-0.76,2.84-1.52,4.42-2.28c0.63-0.31,1.28-0.61,1.95-0.91c0.67-0.31,1.36-0.61,2.06-0.91
			c0.35-0.15,0.71-0.3,1.07-0.45c0.36-0.15,0.73-0.3,1.1-0.45c0.34-0.14,0.7-0.28,1.05-0.42c0.41-0.16,0.82-0.32,1.23-0.47
			c0.78-0.3,1.58-0.59,2.39-0.88c0.82-0.29,1.66-0.58,2.52-0.86c0.9-0.3,1.82-0.59,2.76-0.88c0.43-0.14,0.87-0.27,1.32-0.4
			c0.89-0.27,1.8-0.53,2.73-0.78c30.68-8.42,38.41-0.13,39.38-0.43c0.16-0.05,0.29-0.14,0.39-0.27c0.06-0.09,0.11-0.19,0.15-0.3
			c0.13-0.39,0.11-0.92-0.04-1.5c-0.03-0.11-0.06-0.22-0.1-0.32c-0.02-0.09-0.06-0.17-0.09-0.26c-0.14-0.36-0.33-0.72-0.55-1.06
			c0.23,0.26,1.73,2.01,2.4,3.6c0.04,0.08,0.07,0.16,0.1,0.24c0.04,0.11,0.08,0.22,0.11,0.33c0.03,0.09,0.05,0.18,0.06,0.27
			c0.11,0.54,0.06,1.01-0.26,1.34c-1.44,1.47-10.53-9.89-41.55-0.47c-1.94,0.59-3.79,1.19-5.56,1.78c-0.79,0.27-1.57,0.54-2.33,0.81
			c-0.41,0.15-0.82,0.29-1.22,0.44c-2.8,1.02-5.38,2.04-7.73,3.05c-0.34,0.14-0.67,0.28-0.99,0.43
			C928.8,289.57,923.63,292.64,920.12,295.1z M1003.3,311.89c-2.15,0.91-11.65-11.08-39.66-11.48c-1.03-0.01-2.04-0.02-3.02,0
			c-1.22,0.01-2.41,0.04-3.56,0.09c-0.09,0-0.18,0.01-0.27,0.01c-0.61,0.03-1.22,0.06-1.81,0.1c-1.94,0.11-3.78,0.28-5.52,0.49
			c-0.34,0.04-0.67,0.08-0.99,0.12c-0.99,0.13-1.95,0.27-2.88,0.42c-0.3,0.05-0.61,0.1-0.91,0.15c-0.43,0.07-0.85,0.15-1.27,0.23
			c-0.45,0.09-0.9,0.18-1.34,0.27c-0.55,0.11-1.1,0.23-1.63,0.36c-0.27,0.06-0.53,0.12-0.79,0.18c-1.07,0.26-2.09,0.53-3.05,0.81
			c-0.42,0.13-0.83,0.25-1.23,0.38c-1.5,0.47-2.84,0.95-4.03,1.43c-0.16,0.06-0.32,0.13-0.47,0.19c-0.37,0.15-0.72,0.3-1.06,0.45
			c-0.23,0.1-0.46,0.2-0.67,0.3c-0.59,0.27-1.13,0.53-1.61,0.77c-0.11,0.06-0.22,0.12-0.33,0.17c-0.72,0.38-1.32,0.73-1.79,1.02
			c-0.15,0.09-0.29,0.17-0.41,0.25c-0.14,0.09-0.26,0.17-0.37,0.24c-0.09,0.06-0.16,0.12-0.23,0.16c-0.01,0.01-0.02,0.01-0.02,0.01
			c-0.07,0.06-0.13,0.1-0.18,0.14c-0.06,0.04-0.1,0.07-0.14,0.09l0.04-0.05c0.29-0.29,1.14-1.06,2.67-2.06
			c0.14-0.09,0.29-0.19,0.45-0.29c0.11-0.06,0.22-0.13,0.33-0.2c0.11-0.07,0.23-0.14,0.35-0.21c1.07-0.63,2.38-1.32,3.96-2.02
			c0.26-0.11,0.52-0.22,0.79-0.34c0.47-0.19,0.96-0.39,1.48-0.59c0.23-0.08,0.45-0.16,0.68-0.25c0.22-0.08,0.44-0.16,0.66-0.23
			c2.25-0.78,4.87-1.52,7.9-2.15c0.3-0.06,0.61-0.12,0.92-0.18c1.36-0.26,2.8-0.5,4.32-0.71c0.34-0.05,0.68-0.09,1.03-0.13
			c0.95-0.12,1.92-0.22,2.94-0.32c0.34-0.03,0.69-0.06,1.05-0.09c0.13-0.01,0.26-0.02,0.39-0.03c0.37-0.03,0.74-0.06,1.12-0.08
			c0.38-0.02,0.77-0.05,1.17-0.07s0.8-0.04,1.2-0.06c0.36-0.01,0.73-0.03,1.11-0.04c0.34-0.02,0.68-0.03,1.02-0.03
			c1.31-0.03,2.67-0.04,4.07-0.03c29.95,0.26,35.48,11.3,38.21,10.39c2.06-0.69,0.88-4.14,0.88-4.14S1005.46,310.99,1003.3,311.89z"
			/>
		
			<ellipse transform="matrix(0.7071 -0.7071 0.7071 0.7071 -101.7217 533.922)" class="st10" cx="593.64" cy="389.75" rx="96.46" ry="96.46"/>
		<path class="st2" d="M490.73,243.35c0.02-0.01,0.04-0.02,0.06-0.02c0.01-0.01,0.02-0.02,0.02-0.02
			C490.79,243.32,490.76,243.33,490.73,243.35z M490.82,243.31v0.01c0.03-0.02,0.05-0.03,0.07-0.04
			C490.87,243.29,490.85,243.3,490.82,243.31z M556.5,280.06c0.12,0.23,0.22,0.41,0.29,0.55
			C556.72,280.47,556.63,280.29,556.5,280.06z M560.22,236.56c0.01,0,0.02,0.01,0.02,0.01h0.04
			C560.26,236.56,560.24,236.56,560.22,236.56z"/>
		<path class="st11" d="M602.57,275.95c-0.29-0.48-0.57-0.94-0.86-1.4c-0.58-0.94-1.18-1.85-1.8-2.73
			c-0.01-0.01-0.01-0.02-0.01-0.02c-0.57-0.82-1.15-1.61-1.74-2.38c-1.31-1.72-2.67-3.32-4.05-4.82c-0.66-0.72-1.33-1.41-2-2.08
			c-4.35-4.35-8.77-7.67-12.58-10.32c-0.59-0.41-1.16-0.8-1.72-1.17c-1.66-1.13-3.19-2.13-4.49-3.03
			c-6.96-4.82-16.74-8.82-16.35-10.3c0.25-0.94,1.63-1.13,2.6-1.15c-1.29,0.14-1.92,1.45,12.81,9.51c1.05,0.57,2.07,1.16,3.05,1.75
			c0.63,0.38,1.24,0.76,1.84,1.15c0.62,0.39,1.22,0.79,1.82,1.2c0.24,0.16,0.48,0.32,0.71,0.49c2.38,1.65,4.55,3.36,6.52,5.06
			c0.24,0.2,0.48,0.41,0.71,0.62c1.64,1.45,3.13,2.89,4.47,4.3c0.39,0.4,0.76,0.8,1.13,1.19c0.55,0.6,1.07,1.19,1.56,1.76
			c0.16,0.19,0.32,0.38,0.48,0.57c0.17,0.19,0.32,0.38,0.47,0.56c0.16,0.19,0.31,0.38,0.46,0.56c0.45,0.56,0.88,1.1,1.27,1.62
			c0.78,1.02,1.47,1.98,2.07,2.87c0.11,0.15,0.21,0.31,0.31,0.46C601.37,273.39,602.4,275.57,602.57,275.95z"/>
		<path class="st11" d="M602.59,275.98v0.01c-0.01-0.01-0.02-0.03-0.02-0.04C602.57,275.96,602.58,275.97,602.59,275.98z"/>
		<path class="st11" d="M560.28,236.57h-0.04c-0.08,0-0.18-0.01-0.28-0.01c-0.12-0.01-0.25-0.01-0.39-0.01
			c0.22-0.02,0.46-0.01,0.65,0.01C560.24,236.56,560.26,236.56,560.28,236.57z"/>
		<path class="st11" d="M556.93,280.91c-0.4-0.62-4.9-7.4-14.68-14.88c-0.19-0.15-0.38-0.3-0.58-0.45
			c-0.61-0.46-1.25-0.92-1.91-1.39c-0.65-0.46-1.32-0.93-2.02-1.39c-0.54-0.37-1.09-0.73-1.66-1.08c-0.28-0.19-0.56-0.37-0.85-0.54
			c-0.29-0.19-0.58-0.37-0.88-0.54c-0.58-0.36-1.18-0.72-1.8-1.07c-0.96-0.55-1.95-1.1-2.97-1.64c-0.56-0.3-1.13-0.59-1.71-0.89
			c-0.35-0.17-0.7-0.35-1.06-0.52c-0.35-0.18-0.71-0.35-1.08-0.52c-0.36-0.17-0.73-0.35-1.1-0.51c-0.37-0.17-0.74-0.34-1.12-0.51
			c-0.37-0.17-0.76-0.34-1.14-0.5c-24.6-10.56-36.76-4.98-36.97-6.85c0-0.03-0.01-0.07-0.01-0.1c0-0.09,0.01-0.18,0.04-0.27
			c0-0.02,0.01-0.04,0.02-0.06c0.01-0.04,0.02-0.08,0.04-0.12c0.08-0.19,0.2-0.38,0.36-0.57c0.04-0.06,0.09-0.11,0.15-0.17
			c0.32-0.34,0.74-0.69,1.2-1.02c0.15-0.1,0.3-0.2,0.45-0.3c1.22-0.79,2.57-1.44,3.08-1.67c0.03-0.02,0.06-0.03,0.08-0.04
			c0.01,0,0.01,0,0.01,0c0.03-0.01,0.05-0.02,0.07-0.03c-0.02,0.01-0.04,0.02-0.07,0.04c-0.01,0-0.02,0.01-0.03,0.01
			c-0.4,0.22-1.44,0.82-2.14,1.45c-0.08,0.07-0.16,0.14-0.23,0.21s-0.14,0.15-0.19,0.22c-0.6,0.73-0.4,1.39,2.25,1.38
			c9.33-0.02,18.79-0.8,39.71,10.16c1.64,0.86,3.18,1.73,4.64,2.61c0.51,0.31,1.01,0.62,1.5,0.93c1.74,1.09,3.34,2.2,4.83,3.3
			c0.23,0.17,0.47,0.35,0.7,0.53c0.6,0.45,1.17,0.9,1.73,1.35c0.3,0.25,0.6,0.49,0.89,0.73l0.21,0.18c0.34,0.29,0.67,0.57,0.98,0.85
			c0.2,0.17,0.39,0.34,0.58,0.51c3.31,2.97,5.71,5.73,7.38,7.95c0.18,0.24,0.36,0.48,0.52,0.71c0.18,0.23,0.34,0.46,0.48,0.67
			c0.23,0.32,0.43,0.63,0.62,0.91c0.19,0.29,0.36,0.57,0.51,0.82c0.32,0.5,0.56,0.93,0.74,1.26c0.13,0.23,0.22,0.41,0.29,0.55
			C556.87,280.76,556.91,280.86,556.93,280.91z"/>
		<path class="st11" d="M521.09,300.29c-0.08-0.08-0.2-0.21-0.36-0.38c-0.04-0.04-0.07-0.08-0.12-0.12l-0.14-0.14
			c-0.49-0.49-1.26-1.21-2.35-2.11c-0.16-0.14-0.34-0.28-0.53-0.43c-0.05-0.03-0.1-0.08-0.16-0.12c-0.12-0.1-0.25-0.2-0.37-0.29
			c-0.52-0.4-1.08-0.83-1.7-1.27c-0.16-0.11-0.32-0.22-0.48-0.33c-3.51-2.46-8.68-5.53-16-8.74c-0.32-0.15-0.65-0.29-0.99-0.43
			c-2.35-1.01-4.93-2.03-7.73-3.05c-0.4-0.15-0.81-0.29-1.22-0.44c-0.76-0.27-1.54-0.54-2.33-0.81c-1.77-0.59-3.62-1.19-5.56-1.78
			c-31.02-9.42-40.11,1.94-41.55,0.47c-0.32-0.33-0.37-0.8-0.26-1.34c0.01-0.09,0.03-0.18,0.06-0.27c0.03-0.11,0.07-0.22,0.11-0.33
			c0.03-0.08,0.06-0.16,0.1-0.24c0.67-1.59,2.17-3.34,2.4-3.6c-0.22,0.34-0.41,0.7-0.55,1.06c-0.03,0.09-0.07,0.17-0.09,0.26
			c-0.04,0.1-0.07,0.21-0.1,0.32c-0.15,0.58-0.17,1.11-0.04,1.5c0.03,0.11,0.09,0.21,0.15,0.3c0.1,0.13,0.23,0.22,0.39,0.27
			c0.97,0.3,8.7-7.99,39.38,0.43c0.93,0.25,1.84,0.51,2.73,0.78c0.45,0.13,0.89,0.26,1.32,0.4c0.94,0.29,1.86,0.58,2.76,0.88
			c0.86,0.28,1.7,0.57,2.52,0.86c0.81,0.29,1.61,0.58,2.39,0.88c0.41,0.15,0.82,0.31,1.23,0.47c0.35,0.14,0.71,0.28,1.05,0.42
			c0.37,0.15,0.74,0.3,1.1,0.45c0.36,0.15,0.72,0.3,1.07,0.45c0.7,0.3,1.39,0.6,2.06,0.91c0.67,0.3,1.32,0.61,1.95,0.91
			c1.58,0.76,3.05,1.52,4.42,2.28c0.54,0.29,1.06,0.59,1.57,0.88c0.31,0.18,0.62,0.36,0.91,0.54c0.45,0.27,0.88,0.54,1.3,0.8
			c0.48,0.3,0.94,0.59,1.39,0.88c0.62,0.42,1.22,0.83,1.78,1.22c0.59,0.42,1.15,0.82,1.66,1.22c0.18,0.13,0.35,0.26,0.51,0.39
			c1.97,1.52,3.43,2.87,4.45,3.9c0.09,0.08,0.17,0.17,0.25,0.25C520.37,299.39,520.89,300.03,521.09,300.29z"/>
		<path class="st11" d="M510.94,309.24c-0.04-0.02-0.08-0.05-0.14-0.09c-0.05-0.05-0.11-0.09-0.18-0.14c0,0-0.01,0-0.02-0.01
			c-0.06-0.05-0.14-0.1-0.23-0.16c-0.11-0.07-0.23-0.15-0.37-0.24c-0.12-0.08-0.26-0.16-0.41-0.25c-0.47-0.29-1.07-0.64-1.79-1.02
			c-0.11-0.05-0.22-0.11-0.33-0.17c-0.48-0.24-1.02-0.5-1.61-0.77c-0.21-0.1-0.44-0.2-0.67-0.3c-0.34-0.15-0.69-0.3-1.06-0.45
			c-0.15-0.06-0.31-0.13-0.47-0.19c-1.19-0.48-2.53-0.96-4.03-1.43c-0.4-0.13-0.81-0.25-1.23-0.38c-0.96-0.28-1.98-0.55-3.05-0.81
			c-0.26-0.06-0.52-0.12-0.79-0.18c-0.53-0.13-1.08-0.25-1.63-0.36c-0.44-0.09-0.88-0.18-1.34-0.27c-0.42-0.08-0.84-0.16-1.27-0.23
			c-0.3-0.05-0.61-0.1-0.91-0.15c-0.93-0.15-1.89-0.29-2.88-0.42c-0.32-0.04-0.65-0.08-0.99-0.12c-1.74-0.21-3.58-0.38-5.52-0.49
			c-0.59-0.04-1.2-0.07-1.81-0.1c-0.09,0-0.18-0.01-0.27-0.01c-1.15-0.05-2.34-0.08-3.56-0.09c-0.98-0.02-1.99-0.01-3.02,0
			c-28.01,0.4-37.51,12.39-39.66,11.48c-2.16-0.9,0.5-6.56,0.5-6.56s-1.18,3.45,0.88,4.14c2.73,0.91,8.26-10.13,38.21-10.39
			c1.4-0.01,2.76,0,4.07,0.03c0.34,0,0.68,0.01,1.02,0.03c0.38,0.01,0.75,0.03,1.11,0.04c0.4,0.02,0.8,0.04,1.2,0.06
			s0.79,0.05,1.17,0.07c0.38,0.02,0.75,0.05,1.12,0.08c0.13,0.01,0.26,0.02,0.39,0.03c0.36,0.03,0.71,0.06,1.05,0.09
			c1.02,0.1,1.99,0.2,2.94,0.32c0.35,0.04,0.69,0.08,1.03,0.13c1.52,0.21,2.96,0.45,4.32,0.71c0.31,0.06,0.62,0.12,0.92,0.18
			c3.03,0.63,5.65,1.37,7.9,2.15c0.22,0.07,0.44,0.15,0.66,0.23c0.23,0.09,0.45,0.17,0.68,0.25c0.52,0.2,1.01,0.4,1.48,0.59
			c0.27,0.12,0.53,0.23,0.79,0.34c1.58,0.7,2.89,1.39,3.96,2.02c0.12,0.07,0.24,0.14,0.35,0.21c0.11,0.07,0.22,0.14,0.33,0.2
			c0.16,0.1,0.31,0.2,0.45,0.29c1.53,1,2.38,1.77,2.67,2.06L510.94,309.24z"/>
	</g>
	<g>
		<path class="st2" d="M717.31,379.02v0.09c0.06-0.01,0.12-0.03,0.19-0.04C717.44,379.05,717.37,379.04,717.31,379.02z"/>
		
			<ellipse transform="matrix(0.7071 -0.7071 0.7071 0.7071 -29.1662 709.0865)" class="st10" cx="841.36" cy="389.75" rx="96.46" ry="96.46"/>
		<path class="st2" d="M878.21,280.61c0.07-0.14,0.17-0.32,0.29-0.55C878.37,280.29,878.28,280.47,878.21,280.61z M944.11,243.28
			c0.02,0.01,0.04,0.02,0.07,0.04v-0.01C944.15,243.3,944.13,243.29,944.11,243.28z M944.19,243.31c0,0,0.01,0.01,0.02,0.02
			c0.02,0,0.04,0.01,0.06,0.02C944.24,243.33,944.21,243.32,944.19,243.31z"/>
		<path class="st11" d="M875.43,236.55c-0.42,0-0.76,0.03-0.91,0.04C874.68,236.57,875.08,236.52,875.43,236.55z"/>
		<path class="st11" d="M861.68,248c-1.3,0.9-2.83,1.9-4.49,3.03c-0.56,0.37-1.13,0.76-1.72,1.17c-3.81,2.65-8.23,5.97-12.58,10.32
			c-0.67,0.67-1.34,1.36-2,2.08c-1.38,1.5-2.74,3.1-4.05,4.82c-0.59,0.77-1.17,1.56-1.74,2.38c0,0,0,0.01-0.01,0.02
			c-0.62,0.88-1.22,1.79-1.8,2.73c-0.29,0.46-0.57,0.92-0.86,1.4c0.17-0.38,1.2-2.56,3.32-5.73c0.1-0.15,0.2-0.31,0.31-0.46
			c0.6-0.89,1.29-1.85,2.07-2.87c0.39-0.52,0.82-1.06,1.27-1.62c0.15-0.18,0.3-0.37,0.46-0.56c0.15-0.18,0.3-0.37,0.47-0.56
			c0.16-0.19,0.32-0.38,0.48-0.57c0.49-0.57,1.01-1.16,1.56-1.76c0.37-0.39,0.74-0.79,1.13-1.19c1.34-1.41,2.83-2.85,4.47-4.3
			c0.23-0.21,0.47-0.42,0.71-0.62c1.97-1.7,4.14-3.41,6.52-5.06c0.23-0.17,0.47-0.33,0.71-0.49c0.6-0.41,1.2-0.81,1.82-1.2
			c0.6-0.39,1.21-0.77,1.84-1.15c0.98-0.59,2-1.18,3.05-1.75c14.73-8.06,14.1-9.37,12.81-9.51c0.97,0.02,2.35,0.21,2.6,1.15
			C878.42,239.18,868.64,243.18,861.68,248z"/>
		<path class="st11" d="M949.61,247.53c0,0.03-0.01,0.07-0.01,0.1c-0.21,1.87-12.37-3.71-36.97,6.85c-0.38,0.16-0.77,0.33-1.14,0.5
			c-0.38,0.17-0.75,0.34-1.12,0.51c-0.37,0.16-0.74,0.34-1.1,0.51c-0.37,0.17-0.73,0.34-1.08,0.52c-0.36,0.17-0.71,0.35-1.06,0.52
			c-0.58,0.3-1.15,0.59-1.71,0.89c-1.02,0.54-2.01,1.09-2.97,1.64c-0.62,0.35-1.22,0.71-1.8,1.07c-0.3,0.17-0.59,0.35-0.88,0.54
			c-0.29,0.17-0.57,0.35-0.85,0.54c-0.57,0.35-1.12,0.71-1.66,1.08c-0.7,0.46-1.37,0.93-2.02,1.39c-0.66,0.47-1.3,0.93-1.91,1.39
			c-0.2,0.15-0.39,0.3-0.58,0.45c-9.78,7.48-14.28,14.26-14.68,14.88c0.02-0.05,0.06-0.15,0.14-0.3c0.07-0.14,0.16-0.32,0.29-0.55
			c0.18-0.33,0.42-0.76,0.74-1.26c0.15-0.25,0.32-0.53,0.51-0.82c0.19-0.28,0.39-0.59,0.62-0.91c0.14-0.21,0.3-0.44,0.48-0.67
			c0.16-0.23,0.34-0.47,0.52-0.71c1.67-2.22,4.07-4.98,7.38-7.95c0.19-0.17,0.38-0.34,0.58-0.51c0.31-0.28,0.64-0.56,0.98-0.85
			l0.21-0.18c0.29-0.24,0.59-0.48,0.89-0.73c0.56-0.45,1.13-0.9,1.73-1.35c0.23-0.18,0.47-0.36,0.7-0.53
			c1.49-1.1,3.09-2.21,4.83-3.3c0.49-0.31,0.99-0.62,1.5-0.93c1.46-0.88,3-1.75,4.64-2.61c20.92-10.96,30.38-10.18,39.71-10.16
			c2.65,0.01,2.85-0.65,2.25-1.38c-0.05-0.07-0.12-0.15-0.19-0.22s-0.15-0.14-0.23-0.21c-0.7-0.63-1.74-1.23-2.14-1.45
			c-0.01,0-0.02-0.01-0.03-0.01c-0.03-0.02-0.05-0.03-0.07-0.04c0.02,0.01,0.04,0.02,0.07,0.03c0,0,0,0,0.01,0
			c0.02,0.01,0.05,0.02,0.08,0.04c0.51,0.23,1.86,0.88,3.08,1.67c0.15,0.1,0.3,0.2,0.45,0.3c0.46,0.33,0.88,0.68,1.2,1.02
			c0.06,0.06,0.11,0.11,0.15,0.17c0.16,0.19,0.28,0.38,0.36,0.57c0.02,0.04,0.03,0.08,0.04,0.12c0.01,0.02,0.02,0.04,0.02,0.06
			C949.6,247.35,949.61,247.44,949.61,247.53z"/>
		<path class="st11" d="M995.5,280.32c-1.44,1.47-10.53-9.89-41.55-0.47c-1.94,0.59-3.79,1.19-5.56,1.78
			c-0.79,0.27-1.57,0.54-2.33,0.81c-0.41,0.15-0.82,0.29-1.22,0.44c-2.8,1.02-5.38,2.04-7.73,3.05c-0.34,0.14-0.67,0.28-0.99,0.43
			c-7.32,3.21-12.49,6.28-16,8.74c-0.16,0.11-0.32,0.22-0.48,0.33c-0.62,0.44-1.18,0.87-1.7,1.27c-0.12,0.09-0.25,0.19-0.37,0.29
			c-0.06,0.04-0.11,0.09-0.16,0.12c-0.19,0.15-0.36,0.3-0.53,0.43c-1.09,0.9-1.86,1.62-2.35,2.11c-0.1,0.1-0.18,0.19-0.26,0.26
			c-0.16,0.17-0.28,0.3-0.36,0.38c0.2-0.26,0.72-0.9,1.62-1.84c0.08-0.08,0.16-0.17,0.25-0.25c1.02-1.03,2.48-2.38,4.45-3.9
			c0.16-0.13,0.33-0.26,0.51-0.39c0.51-0.4,1.07-0.8,1.66-1.22c0.56-0.39,1.16-0.8,1.78-1.22c0.45-0.29,0.91-0.58,1.39-0.88
			c0.42-0.26,0.85-0.53,1.3-0.8c0.29-0.18,0.6-0.36,0.91-0.54c0.51-0.29,1.03-0.59,1.57-0.88c1.37-0.76,2.84-1.52,4.42-2.28
			c0.63-0.3,1.28-0.61,1.95-0.91c0.67-0.31,1.36-0.61,2.06-0.91c0.35-0.15,0.71-0.3,1.07-0.45c0.36-0.15,0.73-0.3,1.1-0.45
			c0.34-0.14,0.7-0.28,1.05-0.42c0.41-0.16,0.82-0.32,1.23-0.47c0.78-0.3,1.58-0.59,2.39-0.88c0.82-0.29,1.66-0.58,2.52-0.86
			c0.9-0.3,1.82-0.59,2.76-0.88c0.43-0.14,0.87-0.27,1.32-0.4c0.89-0.27,1.8-0.53,2.73-0.78c30.68-8.42,38.41-0.13,39.38-0.43
			c0.16-0.05,0.29-0.14,0.39-0.27c0.06-0.09,0.12-0.19,0.15-0.3c0.13-0.39,0.11-0.92-0.04-1.5c-0.03-0.11-0.06-0.22-0.1-0.32
			c-0.02-0.09-0.06-0.17-0.09-0.26c-0.14-0.36-0.33-0.72-0.55-1.06c0.23,0.26,1.73,2.01,2.4,3.6c0.04,0.08,0.07,0.16,0.1,0.24
			c0.04,0.11,0.08,0.22,0.11,0.33c0.03,0.09,0.05,0.18,0.06,0.27C995.87,279.52,995.82,279.99,995.5,280.32z"/>
		<path class="st11" d="M1003.3,311.89c-2.15,0.91-11.65-11.08-39.66-11.48c-1.03-0.01-2.04-0.02-3.02,0
			c-1.22,0.01-2.41,0.04-3.56,0.09c-0.09,0-0.18,0.01-0.27,0.01c-0.61,0.03-1.22,0.06-1.81,0.1c-1.94,0.11-3.78,0.28-5.52,0.49
			c-0.34,0.04-0.67,0.08-0.99,0.12c-0.99,0.13-1.95,0.27-2.88,0.42c-0.3,0.05-0.61,0.1-0.91,0.15c-0.43,0.07-0.85,0.15-1.27,0.23
			c-0.45,0.09-0.9,0.18-1.34,0.27c-0.55,0.11-1.1,0.23-1.63,0.36c-0.27,0.06-0.53,0.12-0.79,0.18c-1.07,0.26-2.09,0.53-3.05,0.81
			c-0.42,0.13-0.83,0.25-1.23,0.38c-1.5,0.47-2.84,0.95-4.03,1.43c-0.16,0.06-0.32,0.13-0.47,0.19c-0.37,0.15-0.72,0.3-1.06,0.45
			c-0.23,0.1-0.46,0.2-0.67,0.3c-0.59,0.27-1.13,0.53-1.61,0.77c-0.11,0.06-0.22,0.12-0.33,0.17c-0.72,0.38-1.32,0.73-1.79,1.02
			c-0.15,0.09-0.29,0.17-0.41,0.25c-0.14,0.09-0.26,0.17-0.37,0.24c-0.09,0.06-0.16,0.12-0.23,0.16c-0.01,0.01-0.02,0.01-0.02,0.01
			c-0.07,0.06-0.13,0.1-0.18,0.14c-0.06,0.04-0.1,0.07-0.14,0.09l0.04-0.05c0.29-0.29,1.14-1.06,2.67-2.06
			c0.14-0.09,0.29-0.19,0.45-0.29c0.11-0.06,0.22-0.13,0.33-0.2c0.11-0.07,0.23-0.14,0.35-0.21c1.07-0.63,2.38-1.32,3.96-2.02
			c0.26-0.11,0.52-0.22,0.79-0.34c0.47-0.19,0.96-0.39,1.48-0.59c0.23-0.08,0.45-0.16,0.68-0.25c0.22-0.08,0.44-0.16,0.66-0.23
			c2.25-0.78,4.87-1.52,7.9-2.15c0.3-0.06,0.61-0.12,0.92-0.18c1.36-0.26,2.8-0.5,4.32-0.71c0.34-0.05,0.68-0.09,1.03-0.13
			c0.95-0.12,1.92-0.22,2.94-0.32c0.34-0.03,0.69-0.06,1.05-0.09c0.13-0.01,0.26-0.02,0.39-0.03c0.37-0.03,0.74-0.06,1.12-0.08
			c0.38-0.02,0.77-0.05,1.17-0.07s0.8-0.04,1.2-0.06c0.36-0.01,0.73-0.03,1.11-0.04c0.34-0.02,0.68-0.03,1.02-0.03
			c1.31-0.03,2.67-0.04,4.07-0.03c29.95,0.26,35.48,11.3,38.21,10.39c2.06-0.69,0.88-4.14,0.88-4.14S1005.46,310.99,1003.3,311.89z"
			/>
	</g>
	<g>
		<path class="st2" d="M615.15,329.84c-6.99,0-13.66,1.37-19.76,3.84c13.08,1.08,23.79,10.41,26.95,22.77
			c11.48,3.16,19.93,13.64,19.93,26.13c0,14.98-12.14,27.12-27.12,27.12c-10.75,0-20-6.26-24.4-15.33
			c-13.13-0.9-23.95-10.13-27.27-22.45c-0.71,3.44-1.08,7-1.08,10.65c0,29.13,23.61,52.74,52.74,52.74s52.74-23.61,52.74-52.74
			C667.89,353.45,644.28,329.84,615.15,329.84z"/>
		<path class="st4" d="M615.15,409.7c14.98,0,27.12-12.14,27.12-27.12c0-12.48-8.45-22.97-19.93-26.13
			c0.62,2.42,0.98,4.94,0.98,7.56c0,16.82-13.64,30.46-30.46,30.46c-0.71,0-1.41-0.04-2.11-0.09
			C595.15,403.44,604.4,409.7,615.15,409.7z"/>
	</g>
	<g>
		<path class="st2" d="M821.09,329.84c-6.99,0-13.66,1.37-19.76,3.84c13.08,1.08,23.79,10.41,26.95,22.77
			c11.48,3.16,19.93,13.64,19.93,26.13c0,14.98-12.14,27.12-27.12,27.12c-10.75,0-20-6.26-24.39-15.33
			c-13.13-0.9-23.95-10.13-27.27-22.45c-0.71,3.44-1.08,7-1.08,10.65c0,29.13,23.61,52.74,52.74,52.74
			c29.13,0,52.74-23.61,52.74-52.74C873.83,353.45,850.22,329.84,821.09,329.84z"/>
		<path class="st4" d="M821.09,409.7c14.98,0,27.12-12.14,27.12-27.12c0-12.48-8.45-22.97-19.93-26.13
			c0.62,2.42,0.98,4.94,0.98,7.56c0,16.82-13.64,30.46-30.46,30.46c-0.71,0-1.41-0.04-2.11-0.09
			C801.08,403.44,810.34,409.7,821.09,409.7z"/>
	</g>
	<path class="st2" d="M717.5,379.07c-0.07,0.01-0.13,0.03-0.19,0.04v-0.09C717.37,379.04,717.44,379.05,717.5,379.07z"/>
	<path class="st2" d="M717.69,379.11c-0.06-0.01-0.12-0.03-0.19-0.04c0.06-0.02,0.13-0.03,0.19-0.05V379.11z"/>
</g>
</svg>
